<svg width="53" height="53" viewBox="0 0 53 53" fill="none" xmlns="http://www.w3.org/2000/svg">
<path d="M48.9828 14.998H43.6864C42.9057 15.0004 42.1479 15.2617 41.5316 15.7409C40.9153 16.2201 40.4754 16.8901 40.2808 17.6463H39.2728C38.5709 17.6471 37.8974 17.9265 37.4013 18.4226C36.9047 18.9192 36.6253 19.5923 36.6245 20.2946V23.8255H35.4371C35.8154 22.7142 35.6905 21.493 35.0947 20.4817L24.4634 2.06923C21.8551 -2.30352 15.1844 0.9031 17.0184 5.67031L9.80437 15.4656C9.2034 16.2853 9.00912 17.3347 9.27709 18.3156L4.27502 21.2034C3.28194 21.7796 2.573 22.7427 2.31877 23.8626C1.57869 23.9513 0.911125 24.3501 0.481557 24.9594C0.0520106 25.5686 -0.0993166 26.3312 0.0658014 27.0583L3.51636 42.2576C3.67951 42.9878 4.07201 43.647 4.63669 44.1378C5.2018 44.6288 5.90874 44.9259 6.65478 44.9854C5.98367 45.8571 5.66328 46.9483 5.75668 48.0446C5.85007 49.1406 6.35056 50.162 7.15918 50.9076C7.96822 51.6532 9.02675 52.069 10.1266 52.073C11.2268 52.0769 12.2886 51.669 13.1027 50.9293C13.9169 50.1897 14.4248 49.1717 14.5261 48.0766C14.6274 46.9811 14.3153 45.8875 13.6504 45.011H28.7024C28.0345 45.8914 27.722 46.9909 27.8272 48.0907C27.9324 49.1906 28.4475 50.2109 29.2703 50.9486C30.0932 51.6863 31.1635 52.0875 32.2685 52.0726C33.3731 52.0576 34.432 51.6273 35.2347 50.8679C36.0371 50.1081 36.5241 49.0741 36.5998 47.9718C36.6751 46.8691 36.333 45.7788 35.6414 44.9169C36.4209 44.7396 37.1168 44.3033 37.6161 43.6788C38.1154 43.0545 38.3881 42.2794 38.3897 41.4802V20.2944C38.3901 19.8069 38.785 19.412 39.2724 19.4116H40.2805C40.4752 20.1679 40.915 20.8379 41.5313 21.3171C42.1476 21.7963 42.9054 22.0575 43.6861 22.0599H48.9825C50.2365 22.0489 51.3903 21.3734 52.0142 20.2853C52.6381 19.1973 52.638 17.8606 52.0142 16.7725C51.3904 15.6845 50.2365 15.0091 48.9825 14.998L48.9828 14.998ZM18.559 3.52745C18.7312 2.92254 19.1336 2.40905 19.6798 2.09772C20.2264 1.786 20.873 1.70088 21.4811 1.86048C22.0895 2.02008 22.6109 2.41179 22.934 2.95165L33.5652 21.3641C33.9794 22.1018 33.9723 23.0043 33.5463 23.7353C33.1203 24.4667 32.3388 24.918 31.4924 24.9215C30.6463 24.9251 29.8613 24.4805 29.429 23.7527L18.7978 5.33918C18.479 4.79141 18.3931 4.13886 18.559 3.52719L18.559 3.52745ZM11.2263 16.5113L17.9434 7.39114C20.2567 11.3978 24.9115 19.461 27.2244 23.4661L15.9677 24.7228H15.9673C15.6639 24.7583 15.3565 24.7035 15.0834 24.5656C14.8107 24.4277 14.5845 24.2125 14.4332 23.9473L12.782 21.0878L11.1461 18.2552C10.9858 17.9888 10.9077 17.6814 10.9219 17.3708C10.9361 17.0607 11.0421 16.7612 11.2261 16.511L11.2263 16.5113ZM4.04455 24.1821C4.20692 23.5693 4.60769 23.0471 5.15741 22.7319L10.0582 19.9028C10.6536 20.9337 11.8516 23.0085 12.4467 24.039L7.54515 26.8689H7.54555C6.9962 27.1775 6.34714 27.2579 5.7391 27.0924C5.13143 26.9269 4.61283 26.5289 4.29555 25.9843C3.97871 25.44 3.88845 24.7926 4.04451 24.1822L4.04455 24.1821ZM17.441 32.2588V32.2584C17.7961 32.6616 17.9116 33.2227 17.7445 33.7331C17.5774 34.2438 17.1522 34.6276 16.6273 34.7423C16.1024 34.857 15.5562 34.6856 15.1909 34.2911L9.37387 27.8526L12.0599 26.3019L17.441 32.2588ZM7.4936 47.6589C7.50424 46.7198 8.01142 45.8568 8.82639 45.3902C9.64135 44.9236 10.6427 44.9236 11.4577 45.3902C12.2726 45.8568 12.7795 46.7198 12.79 47.6589C12.7794 48.598 12.2726 49.461 11.4573 49.9276C10.6423 50.3942 9.64133 50.3942 8.82639 49.9276C8.01144 49.461 7.50429 48.5979 7.4936 47.6589ZM32.2104 50.3071C31.2713 50.2965 30.4082 49.7893 29.9417 48.9743C29.4755 48.1594 29.4755 47.1584 29.9417 46.3434C30.4082 45.5281 31.2717 45.0213 32.2104 45.0106C33.1494 45.0213 34.0129 45.5285 34.479 46.3434C34.9456 47.1584 34.9456 48.1594 34.479 48.9743C34.0129 49.7897 33.1494 50.2964 32.2104 50.3071ZM36.6241 41.4797C36.6237 41.9478 36.4373 42.3963 36.1062 42.7273C35.7756 43.0583 35.3267 43.2444 34.8586 43.2451H6.9549C6.5545 43.2459 6.16595 43.1096 5.85344 42.8589C5.54132 42.6079 5.32418 42.258 5.23866 41.8667L1.78609 26.6623C1.68717 26.2462 1.91062 25.8214 2.30903 25.6661C2.55691 26.8365 3.29936 27.8422 4.34448 28.4239C5.38995 29.0055 6.63567 29.106 7.76074 28.6997L13.8812 35.4743H13.8816C14.6682 36.3405 15.8571 36.7224 17.0012 36.4761C18.1456 36.2298 19.072 35.3928 19.4327 34.2795C19.7933 33.1659 19.5336 31.9446 18.7513 31.0744L14.2849 26.1303V26.1299C14.8634 26.4282 15.5168 26.5492 16.1634 26.4778L28.2524 25.1281C28.9697 26.0357 30.0333 26.6015 31.1868 26.6895C32.3399 26.7774 33.4776 26.3786 34.3237 25.5901H36.6248L36.6241 41.4797ZM48.9824 20.2939H43.686C43.0555 20.2939 42.4726 19.9573 42.157 19.4111C41.8417 18.865 41.8417 18.1919 42.157 17.6457C42.4726 17.0995 43.0555 16.7629 43.686 16.7629H48.9824C49.6086 16.77 50.184 17.1081 50.4949 17.6516C50.8058 18.1946 50.8058 18.8622 50.4949 19.4053C50.184 19.9487 49.6086 20.2868 48.9824 20.2939V20.2939Z" fill="#506588"/>
<path d="M31.0817 10.5228C31.3257 10.9445 31.8652 11.0891 32.2876 10.846L35.1203 9.21053C35.5423 8.96659 35.687 8.4271 35.4434 8.00465C35.1995 7.58259 34.66 7.43796 34.2375 7.68151L31.4049 9.31695V9.31655C31.2019 9.4336 31.0542 9.6263 30.9935 9.8525C30.9328 10.0787 30.9647 10.3199 31.0817 10.5228V10.5228Z" fill="#506588"/>
<path d="M28.6022 7.74348C29.0246 7.98623 29.5641 7.8416 29.8084 7.42033L31.4439 4.58769H31.4435C31.5609 4.38474 31.5925 4.14357 31.5322 3.91736C31.4715 3.69116 31.3233 3.49807 31.1207 3.38102C30.9178 3.26397 30.6766 3.23245 30.4504 3.29314C30.2242 3.35383 30.0315 3.502 29.9145 3.70495L28.279 6.53759C28.162 6.74015 28.1301 6.98133 28.1907 7.20753C28.2514 7.43373 28.3996 7.62643 28.6022 7.74348V7.74348Z" fill="#506588"/>
<path d="M32.249 14.0607C32.2486 14.2948 32.3416 14.5194 32.5071 14.6849C32.6727 14.8505 32.8973 14.9435 33.1318 14.9435H36.4022C36.8897 14.9435 37.285 14.5482 37.285 14.0607C37.285 13.5732 36.8897 13.178 36.4022 13.178H33.1318C32.8973 13.178 32.6727 13.271 32.5071 13.4365C32.3416 13.602 32.2486 13.8266 32.249 14.0607Z" fill="#506588"/>
</svg>
