<svg width="49" height="43" viewBox="0 0 49 43" fill="none" xmlns="http://www.w3.org/2000/svg">
<path d="M34.842 25.9283C34.8644 25.9283 34.8814 25.9283 34.9035 25.9261C35.0182 25.9185 37.7343 25.768 39.8475 28.8206V28.8203C39.9691 28.999 40.1572 29.1216 40.3695 29.161C40.5818 29.2004 40.801 29.1534 40.9786 29.0304C41.1562 28.9074 41.2774 28.719 41.3154 28.5063C41.353 28.2932 41.3042 28.0744 41.1801 27.8979C38.6329 24.2188 35.2464 24.2836 34.8157 24.3077C32.883 24.3146 31.0325 25.0887 29.6702 26.4592C28.3076 27.8298 27.5451 29.6851 27.5498 31.6177C27.5545 33.55 28.3261 35.4017 29.6952 36.7658C31.0639 38.1298 32.9186 38.8945 34.8509 38.8924C36.7835 38.8898 38.6359 38.1208 40.0018 36.7535C41.3673 35.3861 42.1345 33.5327 42.1345 31.6001C42.1345 31.3852 42.0491 31.179 41.8972 31.0271C41.7453 30.8752 41.5391 30.7898 41.3242 30.7898H35.6524C35.205 30.7898 34.8421 31.1526 34.8421 31.6001C34.8421 32.0475 35.205 32.4103 35.6524 32.4103H40.4565C40.2481 33.8528 39.4928 35.1597 38.3469 36.0601C37.201 36.9604 35.7522 37.3851 34.3017 37.2462C32.8509 37.1069 31.5096 36.415 30.5554 35.3135C29.6011 34.2118 29.1077 32.7851 29.1772 31.3296C29.247 29.874 29.8739 28.5009 30.9286 27.4953C31.9834 26.4898 33.3847 25.9283 34.8421 25.9283L34.842 25.9283Z" fill="#506588"/>
<path d="M48.616 15.3949C48.616 15.3215 48.6058 15.2488 48.5863 15.1782L44.535 0.59359C44.4377 0.242716 44.1183 0 43.7544 0H4.86204C4.49814 0 4.17875 0.242716 4.08144 0.59359L0.0301495 15.1782C0.0106163 15.2488 0.000488281 15.3215 0.000488281 15.3949C0.000488281 18.098 1.14494 20.0449 3.24152 21.0638V38.082C3.24261 39.156 3.6698 40.1858 4.4294 40.9454C5.18901 41.705 6.21883 42.1322 7.29281 42.1333H41.3237C42.3976 42.1322 43.4275 41.705 44.1871 40.9454C44.9467 40.1858 45.3738 39.156 45.3749 38.082V21.0546C45.9367 20.7808 46.4499 20.4179 46.8953 19.9799C48.0209 18.8626 48.616 17.2768 48.616 15.3943V15.3949ZM46.7397 14.5846H36.4184L35.6982 1.62052H43.1389L46.7397 14.5846ZM23.4978 1.62052V14.5846H13.821L14.5412 1.62052H23.4978ZM34.0747 1.62052L34.7949 14.5846H25.1181V1.62052H34.0747ZM23.4293 16.2052C23.1721 17.728 22.2067 19.0378 20.8285 19.7341C19.4499 20.4304 17.8229 20.4304 16.4444 19.7341C15.0662 19.0378 14.1007 17.728 13.8436 16.2052H23.4293ZM34.7729 16.2052C34.5157 17.728 33.5503 19.0378 32.1721 19.7341C30.7935 20.4304 29.1665 20.4304 27.788 19.7341C26.4098 19.0378 25.4444 17.728 25.1872 16.2052H34.7729ZM5.47765 1.62052H12.9183L12.1981 14.5846H1.87684L5.47765 1.62052ZM1.66583 16.2052H12.0853C11.8925 17.3374 11.3058 18.3646 10.4286 19.1062C9.55174 19.8473 8.44088 20.255 7.29244 20.2565C3.85899 20.2565 1.97076 18.8935 1.66583 16.2052ZM43.7539 38.0821C43.7531 38.7267 43.4967 39.3446 43.0413 39.8003C42.5855 40.2557 41.9677 40.5122 41.3231 40.5129H7.29223C6.64764 40.5122 6.0298 40.2557 5.57402 39.8003C5.11861 39.3446 4.86215 38.7267 4.86143 38.0821V21.6223C5.65975 21.7977 6.47509 21.8828 7.2922 21.8766C8.45008 21.8759 9.58695 21.5652 10.5843 20.9766C11.5816 20.3881 12.4034 19.5435 12.964 18.5303C13.7142 19.8882 14.9271 20.9322 16.3815 21.4719C17.836 22.0115 19.4355 22.0116 20.8901 21.4719C22.3447 20.9322 23.5575 19.8882 24.3076 18.5303C25.0578 19.8882 26.2707 20.9322 27.7252 21.4719C29.1796 22.0115 30.7791 22.0116 32.2337 21.4719C33.6883 20.9322 34.9011 19.8882 35.6512 18.5303C36.2119 19.5435 37.0338 20.3881 38.031 20.9766C39.0282 21.5652 40.1652 21.8759 41.323 21.8766C42.1402 21.8835 42.9555 21.7981 43.7538 21.6223L43.7539 38.0821ZM41.3231 20.2565C40.1747 20.255 39.0638 19.8473 38.187 19.1062C37.3098 18.3646 36.7231 17.3373 36.5303 16.2052H46.9469C46.7049 18.2084 45.449 20.2565 41.3229 20.2565H41.3231Z" fill="#506588"/>
</svg>
