<svg width="56" height="56" viewBox="0 0 56 56" fill="none" xmlns="http://www.w3.org/2000/svg">
<circle opacity="0.1" cx="28" cy="28" r="28" fill="#FF0505"/>
<path d="M28.5664 25.8311V29.3081" stroke="#FF0000" stroke-width="2.60781" stroke-linecap="round" stroke-linejoin="round"/>
<path d="M27.0628 18.8752L17.5034 35.3904C17.3504 35.6547 17.2698 35.9546 17.2695 36.2599C17.2693 36.5653 17.3494 36.8653 17.502 37.1298C17.6545 37.3943 17.874 37.614 18.1384 37.7668C18.4028 37.9195 18.7027 37.9999 19.0081 37.9999H38.1268C38.4322 37.9999 38.7321 37.9195 38.9965 37.7668C39.2609 37.614 39.4804 37.3943 39.6329 37.1298C39.7855 36.8653 39.8656 36.5653 39.8654 36.2599C39.8651 35.9546 39.7845 35.6547 39.6315 35.3904L30.0721 18.8752C29.9194 18.6113 29.7 18.3923 29.4359 18.24C29.1718 18.0877 28.8723 18.0076 28.5674 18.0076C28.2626 18.0076 27.9631 18.0877 27.699 18.24C27.4349 18.3923 27.2155 18.6113 27.0628 18.8752Z" stroke="#FF0000" stroke-width="2.60781" stroke-linecap="round" stroke-linejoin="round"/>
<path d="M28.5667 35.3928C29.5268 35.3928 30.3052 34.6145 30.3052 33.6543C30.3052 32.6941 29.5268 31.9158 28.5667 31.9158C27.6065 31.9158 26.8281 32.6941 26.8281 33.6543C26.8281 34.6145 27.6065 35.3928 28.5667 35.3928Z" fill="#FF0000"/>
</svg>
