<svg width="414" height="411" viewBox="0 0 414 411" fill="none" xmlns="http://www.w3.org/2000/svg">
<mask id="mask0_1618_657" style="mask-type:luminance" maskUnits="userSpaceOnUse" x="68" y="-59" width="354" height="462">
<path d="M421.5 402.574C406.667 381.702 401.641 353.431 407.648 308.471C409.949 291.252 409.096 275.222 405.733 260.494C398.603 229.26 380.184 203.866 356.615 185.353C333.046 166.84 304.31 155.201 276.568 151.494C260.831 149.391 245.412 149.841 231.436 153.031C193.851 161.611 164.338 164.682 146.406 151.999C128.473 139.315 122.176 110.911 131.074 56.5766C135.044 32.344 131.675 11.535 123.427 -5.8661C114.614 -24.4635 100.221 -39.172 83.2546 -50.0187C78.3998 -53.1155 73.3556 -55.9051 68.1518 -58.371L68.5679 -58.8039C73.7335 -56.3485 78.7417 -53.5748 83.5637 -50.4989C100.615 -39.5993 115.082 -24.8081 123.944 -6.11191C132.24 11.3881 135.627 32.3122 131.639 56.6664C122.781 110.75 128.989 138.979 146.737 151.531C164.485 164.082 193.873 161.019 231.309 152.472C245.352 149.266 260.84 148.815 276.644 150.926C304.481 154.646 333.308 166.319 356.967 184.902C380.626 203.486 399.129 228.995 406.289 260.363C409.666 275.155 410.522 291.253 408.212 308.544C402.244 353.215 407.218 381.346 421.928 402.123L421.5 402.574Z" fill="white"/>
</mask>
<g mask="url(#mask0_1618_657)">
<path d="M-1.64659 14.2494L412.316 412.13L501.339 319.509L87.3757 -78.3713L-1.64659 14.2494Z" fill="white" fill-opacity="0.15"/>
</g>
<mask id="mask1_1618_657" style="mask-type:luminance" maskUnits="userSpaceOnUse" x="66" y="-57" width="366" height="450">
<path d="M431.558 392.11C414.997 371.604 408.529 343.21 413.158 296.74C414.88 279.452 413.49 263.46 409.635 248.852C401.46 217.877 382.2 193.115 358.023 175.404C333.847 157.692 304.737 147.027 276.885 144.25C261.086 142.677 245.689 143.642 231.829 147.301C194.554 157.137 165.161 161.196 146.814 149.122C128.467 137.049 121.215 108.868 128.29 54.2708C131.443 29.9175 127.38 9.23426 118.552 -7.87979C109.118 -26.1689 94.2417 -40.3892 76.9193 -50.6598C73.4448 -52.7203 69.8801 -54.6218 66.2251 -56.3643L66.6401 -56.796C70.2441 -55.0676 73.7675 -53.1854 77.2102 -51.1494C94.6176 -40.8278 109.57 -26.5324 119.054 -8.14446C127.933 9.06836 132.02 29.8632 128.852 54.3409C121.813 108.69 128.962 136.695 147.126 148.647C165.29 160.6 194.553 156.548 231.683 146.75C245.61 143.074 261.072 142.1 276.941 143.684C304.886 146.467 334.09 157.166 358.358 174.944C382.627 192.722 401.974 217.595 410.184 248.706C414.059 263.38 415.453 279.437 413.724 296.795C409.123 342.985 415.538 371.248 431.987 391.661L431.558 392.11Z" fill="white"/>
</mask>
<g mask="url(#mask1_1618_657)">
<path d="M-0.51964 13.076L413.443 410.957L507.677 312.914L93.714 -84.9666L-0.51964 13.076Z" fill="white" fill-opacity="0.15"/>
</g>
<mask id="mask2_1618_657" style="mask-type:luminance" maskUnits="userSpaceOnUse" x="64" y="-55" width="379" height="437">
<path d="M441.794 381.46C423.38 361.423 415.395 332.974 418.558 284.919C419.699 267.582 417.77 251.644 413.43 237.177C404.221 206.494 384.139 182.392 359.381 165.501C334.623 148.611 305.17 138.925 277.243 137.087C261.402 136.048 246.045 137.527 232.315 141.647C195.391 152.73 166.15 157.772 147.409 146.322C128.669 134.873 120.476 106.952 125.711 52.1441C128.044 27.6968 123.291 7.16242 113.893 -9.64502C103.848 -27.6064 88.5061 -41.3191 70.8478 -51.0033C68.6974 -52.1827 66.5143 -53.3023 64.2986 -54.3624L64.7136 -54.7942C66.8794 -53.7532 69.016 -52.6558 71.1234 -51.502C88.8662 -41.7707 104.29 -27.9854 114.386 -9.92052C123.838 6.98506 128.625 27.6302 126.277 52.1979C121.065 106.751 129.153 134.499 147.706 145.838C166.258 157.177 195.373 152.143 232.152 141.104C245.948 136.964 261.371 135.474 277.281 136.521C305.305 138.366 334.852 148.079 359.701 165.032C384.551 181.985 404.723 206.194 413.974 237.015C418.336 251.548 420.27 267.552 419.125 284.958C415.98 332.743 423.919 361.065 442.22 381.019L441.794 381.46Z" fill="white"/>
</mask>
<g mask="url(#mask2_1618_657)">
<path d="M0.663953 11.8441L414.627 409.725L513.966 306.37L100.003 -91.5105L0.663953 11.8441Z" fill="white" fill-opacity="0.15"/>
</g>
<mask id="mask3_1618_657" style="mask-type:luminance" maskUnits="userSpaceOnUse" x="62" y="-53" width="391" height="424">
<path d="M452.224 370.609C431.829 351.145 422.243 322.73 423.842 273.01C424.401 255.646 421.941 239.784 417.115 225.467C406.881 195.108 386.002 171.694 360.691 155.646C335.38 139.598 305.619 130.903 277.647 130.005C261.778 129.495 246.482 131.492 232.899 136.073C196.37 148.389 167.314 154.409 148.198 143.593C129.082 132.777 119.959 105.149 123.352 50.1951C124.865 25.6869 119.423 5.3222 109.466 -11.1614C98.8259 -28.7774 83.0296 -41.9676 65.0594 -51.0527C64.1729 -51.5005 63.2813 -51.9383 62.3847 -52.3661L62.7997 -52.7979C63.6425 -52.3937 64.4811 -51.981 65.3156 -51.5597C83.3761 -42.4288 99.2544 -29.1689 109.951 -11.4588C119.962 5.11713 125.438 25.5949 123.918 50.2292C120.54 104.929 129.552 132.39 148.475 143.097C167.399 153.804 196.326 147.797 232.716 135.529C246.365 130.928 261.73 128.922 277.667 129.434C305.736 130.339 335.592 139.054 360.997 155.166C386.403 171.278 407.376 194.795 417.654 225.285C422.501 239.663 424.972 255.593 424.411 273.028C422.82 322.49 432.357 350.78 452.647 370.168L452.224 370.609Z" fill="white"/>
</mask>
<g mask="url(#mask3_1618_657)">
<path d="M1.90907 10.5492L415.872 408.43L520.205 299.879L106.242 -98.0014L1.90907 10.5492Z" fill="white" fill-opacity="0.15"/>
</g>
<mask id="mask4_1618_657" style="mask-type:luminance" maskUnits="userSpaceOnUse" x="60" y="-51" width="404" height="411">
<path d="M462.874 359.528C440.355 340.761 429.083 312.485 429.011 261.015C428.984 243.64 425.996 227.87 420.692 213.726C409.446 183.73 387.794 161.029 361.957 145.838C336.121 130.646 306.087 122.957 278.1 122.997C262.221 123.02 247 125.528 233.578 130.561C197.481 144.094 168.644 151.087 149.175 140.921C129.706 130.755 119.659 103.449 121.209 48.4109C121.901 23.8632 115.778 3.6919 105.276 -12.4491C94.2408 -29.4045 78.3697 -41.919 60.4824 -50.3919L60.898 -50.8243C78.8041 -42.3105 94.6911 -29.7557 105.751 -12.7613C116.317 3.47409 122.474 23.7527 121.781 48.4234C120.241 103.205 130.168 130.35 149.442 140.416C168.716 150.482 197.424 143.509 233.38 130.028C246.869 124.971 262.156 122.45 278.101 122.427C306.186 122.388 336.317 130.097 362.248 145.346C388.179 160.595 409.928 183.395 421.225 213.524C426.553 227.732 429.556 243.569 429.581 261.014C429.652 312.238 440.877 340.395 463.298 359.087L462.874 359.528Z" fill="white"/>
</mask>
<g mask="url(#mask4_1618_657)">
<path d="M3.22206 9.18296L417.185 407.063L526.395 293.439L112.432 -104.441L3.22206 9.18296Z" fill="white" fill-opacity="0.15"/>
</g>
<mask id="mask5_1618_657" style="mask-type:luminance" maskUnits="userSpaceOnUse" x="58" y="-49" width="417" height="398">
<path d="M473.779 348.182C448.979 330.253 435.926 302.249 434.061 248.942C433.453 231.58 429.936 215.918 424.16 201.959C411.913 172.356 389.511 150.395 363.18 136.079C336.849 121.763 306.573 115.087 278.602 116.066C262.734 116.621 247.607 119.639 234.361 125.119C198.734 139.855 170.149 147.811 150.355 138.305C130.56 128.799 119.6 101.842 119.299 46.7841C119.165 22.229 112.368 2.27461 101.327 -13.5017C90.4391 -29.063 75.4212 -40.5697 58.595 -48.4289L59.0123 -48.863C75.8514 -40.9652 90.8805 -29.4227 101.792 -13.8283C112.894 2.04139 119.73 22.1029 119.866 46.7827C120.165 101.584 130.999 128.379 150.599 137.792C170.198 147.205 198.657 139.275 234.14 124.595C247.454 119.086 262.649 116.054 278.583 115.497C306.649 114.516 337.022 121.21 363.452 135.58C389.882 149.951 412.384 172.008 424.685 201.742C430.487 215.763 434.02 231.491 434.63 248.924C436.484 301.992 449.492 329.881 474.203 347.742L473.779 348.182Z" fill="white"/>
</mask>
<g mask="url(#mask5_1618_657)">
<path d="M4.60585 7.7435L418.569 405.624L532.532 287.055L118.569 -110.826L4.60585 7.7435Z" fill="white" fill-opacity="0.15"/>
</g>
<mask id="mask6_1618_657" style="mask-type:luminance" maskUnits="userSpaceOnUse" x="56" y="-47" width="430" height="384">
<path d="M484.963 336.546C457.709 319.612 442.782 292.03 438.989 236.793C437.8 219.461 433.758 203.926 427.517 190.167C414.284 160.992 391.159 139.797 364.36 126.37C337.562 112.944 307.081 107.29 279.159 109.207C263.32 110.296 248.301 113.818 235.243 119.737C200.136 135.664 171.831 144.574 151.727 135.736C131.623 126.899 119.766 100.325 117.618 45.3092C116.661 20.7716 109.198 1.05613 97.6356 -14.3426C86.9005 -28.6432 72.6233 -39.2253 56.7364 -46.4991L57.1531 -46.9326C73.0477 -39.6207 87.3336 -29.0098 98.0895 -14.6847C109.717 0.801593 117.224 20.6241 118.186 45.2863C120.324 100.047 132.052 126.464 151.955 135.215C171.872 143.97 200.038 135.083 235.007 119.221C248.124 113.269 263.21 109.731 279.118 108.639C307.137 106.716 337.717 112.386 364.614 125.861C391.511 139.335 414.743 160.627 428.033 189.932C434.301 203.749 438.361 219.351 439.555 236.754C443.332 291.765 458.215 319.234 485.39 336.101L484.963 336.546Z" fill="white"/>
</mask>
<g mask="url(#mask6_1618_657)">
<path d="M6.06532 6.22495L420.028 404.105L539.133 280.187L125.17 -117.694L6.06532 6.22495Z" fill="white" fill-opacity="0.15"/>
</g>
<mask id="mask7_1618_657" style="mask-type:luminance" maskUnits="userSpaceOnUse" x="54" y="-46" width="443" height="371">
<path d="M496.458 324.586C466.552 308.827 449.66 281.839 443.791 224.57C442.021 207.286 437.46 191.896 430.762 178.356C416.558 149.642 392.733 129.231 365.503 116.713C338.273 104.195 307.613 99.5667 279.772 102.421C263.976 104.039 249.086 108.066 236.237 114.421C201.682 131.515 173.694 141.372 153.303 133.212C132.913 125.053 120.173 98.8935 116.179 43.9802C114.398 19.4885 106.279 0.0349881 94.2081 -14.9655C83.6157 -28.1277 69.9776 -37.869 54.9048 -44.5856L55.3238 -45.0215C70.3978 -38.2706 84.0404 -28.5045 94.6495 -15.3218C106.795 -0.234596 114.956 19.329 116.749 43.9405C120.721 98.5977 133.328 124.606 153.513 132.682C173.698 140.757 201.564 130.937 235.981 113.91C248.894 107.522 263.851 103.478 279.711 101.852C307.648 98.9893 338.402 103.637 365.738 116.198C393.074 128.76 417.006 149.261 431.27 178.104C437.997 191.704 442.579 207.161 444.355 224.512C450.201 281.564 467.053 308.442 496.89 324.137L496.458 324.586Z" fill="white"/>
</mask>
<g mask="url(#mask7_1618_657)">
<path d="M7.60682 4.62143L421.57 402.502L545.897 273.149L131.934 -124.731L7.60682 4.62143Z" fill="white" fill-opacity="0.15"/>
</g>
<mask id="mask8_1618_657" style="mask-type:luminance" maskUnits="userSpaceOnUse" x="53" y="-44" width="456" height="357">
<path d="M508.319 312.247C475.542 297.862 456.58 271.688 448.47 212.28C446.123 195.07 441.046 179.839 433.897 166.528C418.739 138.303 394.241 118.708 366.604 107.112C338.968 95.5153 308.174 91.9142 280.443 95.7011C264.711 97.8485 249.964 102.372 237.335 109.157C203.374 127.4 175.733 138.19 155.08 130.72C134.428 123.25 120.816 97.5323 114.983 42.7849C112.381 18.3674 103.612 -0.801652 91.0434 -15.392C80.5766 -27.5401 67.4725 -36.5156 53.0948 -42.7053L53.5143 -43.1418C67.8903 -36.9231 80.9949 -27.9244 91.4724 -15.7614C104.112 -1.09124 112.931 18.1837 115.546 42.7261C121.353 97.22 134.826 122.791 155.272 130.187C175.718 137.583 203.236 126.83 237.067 108.659C249.755 101.84 264.564 97.2991 280.365 95.141C308.191 91.3424 339.083 94.9491 366.822 106.589C394.561 118.229 419.169 137.914 434.396 166.26C441.576 179.626 446.674 194.92 449.032 212.203C457.117 271.41 476.037 297.468 508.757 311.79L508.319 312.247Z" fill="white"/>
</mask>
<g mask="url(#mask8_1618_657)">
<path d="M9.23378 2.92856L423.197 400.809L552.607 266.168L138.644 -131.712L9.23378 2.92856Z" fill="white" fill-opacity="0.15"/>
</g>
<mask id="mask9_1618_657" style="mask-type:luminance" maskUnits="userSpaceOnUse" x="51" y="-42" width="471" height="342">
<path d="M520.579 299.49C484.678 286.705 463.553 261.589 453.018 199.926C450.092 182.803 444.51 167.753 436.917 154.691C420.818 126.994 395.679 108.227 367.669 97.5657C339.659 86.9041 308.76 84.3396 281.173 89.0537C265.522 91.728 250.935 96.7439 238.541 103.948C205.211 123.321 177.948 135.032 157.053 128.261C136.157 121.49 121.695 96.2418 114.028 41.7216C110.608 17.4045 101.202 -1.46014 88.1498 -15.6191C77.7797 -26.8686 65.1058 -35.1506 51.3032 -40.8411L51.7261 -41.2812C65.5212 -35.5639 78.1908 -27.2621 88.5674 -16.0051C101.695 -1.76523 111.154 17.2023 114.591 41.642C122.223 95.9111 136.546 121.015 157.229 127.721C177.913 134.426 205.054 122.755 238.252 103.458C250.705 96.2199 265.358 91.1807 281.078 88.4974C308.761 83.7669 339.757 86.3359 367.871 97.0384C395.985 107.741 421.24 126.589 437.409 154.408C445.034 167.526 450.641 182.639 453.579 199.836C464.082 261.305 485.172 286.299 521.028 299.028L520.579 299.49Z" fill="white"/>
</mask>
<g mask="url(#mask9_1618_657)">
<path d="M10.9491 1.14438L424.912 399.025L559.26 259.246L145.297 -138.634L10.9491 1.14438Z" fill="white" fill-opacity="0.15"/>
</g>
<mask id="mask10_1618_657" style="mask-type:luminance" maskUnits="userSpaceOnUse" x="49" y="-40" width="485" height="327">
<path d="M533.308 286.247C493.991 275.311 470.604 251.554 457.436 187.513C453.938 170.497 447.852 155.644 439.825 142.843C422.805 115.701 397.05 97.7911 368.699 88.0744C340.347 78.3577 309.38 76.8331 281.966 82.4698C266.415 85.6673 252.004 91.1694 239.858 98.7861C207.199 119.269 180.342 131.886 159.234 125.818C138.126 119.75 122.822 95.0043 113.329 40.7709C109.095 16.582 99.0625 -1.95699 85.5425 -15.6686C75.2287 -26.129 62.8834 -33.7857 49.5363 -39.0031L49.9604 -39.4443C63.2941 -34.2011 75.6275 -26.5297 85.9431 -16.0664C99.5407 -2.27456 109.632 16.3642 113.888 40.6752C123.335 94.6559 138.493 119.267 159.39 125.274C180.287 131.281 207.021 118.707 239.553 98.3059C251.756 90.6544 266.232 85.1273 281.851 81.9157C309.361 76.2603 340.424 77.7853 368.882 87.5387C397.341 97.2922 423.211 115.282 440.305 142.542C448.367 155.395 454.478 170.312 457.99 187.402C471.124 251.26 494.479 274.893 533.77 285.767L533.308 286.247Z" fill="white"/>
</mask>
<g mask="url(#mask10_1618_657)">
<path d="M12.7597 -0.739407L426.723 397.141L565.857 252.383L151.894 -145.498L12.7597 -0.739407Z" fill="white" fill-opacity="0.15"/>
</g>
<mask id="mask11_1618_657" style="mask-type:luminance" maskUnits="userSpaceOnUse" x="47" y="-38" width="501" height="311">
<path d="M546.57 272.449C503.496 263.635 477.751 241.601 461.72 175.046C457.653 158.158 451.072 143.516 442.619 130.991C424.697 104.435 398.356 87.3985 369.694 78.6389C341.033 69.8793 310.034 69.3968 282.824 75.9496C267.392 79.664 253.171 85.6498 241.287 93.6698C209.332 115.235 182.915 128.748 161.617 123.393C140.318 118.037 124.19 93.8172 112.883 39.933C107.839 15.8999 97.1888 -2.29142 83.2189 -15.5456C72.9117 -25.3204 60.7929 -32.4112 47.782 -37.178L48.2135 -37.627C61.2034 -32.8348 73.3045 -25.7303 83.6105 -15.9566C97.6625 -2.62804 108.373 15.6608 113.441 39.8146C124.696 93.448 140.673 117.534 161.757 122.838C182.841 128.142 209.142 114.675 240.97 93.1962C252.909 85.1391 267.191 79.1296 282.693 75.3953C309.997 68.8185 341.096 69.3019 369.866 78.0948C398.635 86.8876 425.094 103.999 443.094 130.67C451.581 143.246 458.189 157.95 462.274 174.91C478.262 241.3 503.981 263.206 547.047 271.953L546.57 272.449Z" fill="white"/>
</mask>
<g mask="url(#mask11_1618_657)">
<path d="M14.6674 -2.72476L428.63 395.156L572.395 245.58L158.432 -152.3L14.6674 -2.72476Z" fill="white" fill-opacity="0.15"/>
</g>
<mask id="mask12_1618_657" style="mask-type:luminance" maskUnits="userSpaceOnUse" x="46" y="-36" width="515" height="295">
<path d="M560.441 258.018C513.21 251.634 485.022 231.744 465.87 162.528C461.236 145.784 454.171 131.37 445.305 119.139C426.503 93.2007 399.604 77.0579 370.663 69.2647C341.722 61.4714 310.724 62.0269 283.75 69.4901C268.446 73.7241 254.436 80.1814 242.83 88.594C211.616 111.219 185.669 125.611 164.203 120.973C142.737 116.335 125.804 92.6708 112.696 39.1972C106.848 15.3471 95.5936 -2.47722 81.1841 -15.2528C70.8207 -24.441 58.8234 -31.0201 46.0299 -35.355L46.4648 -35.8074C59.2304 -31.4494 71.2058 -24.8582 81.5622 -15.6768C96.0538 -2.82806 107.372 15.0913 113.248 39.0615C126.297 92.2886 143.07 115.826 164.322 120.418C185.574 125.01 211.406 110.671 242.497 88.1341C254.161 79.6798 268.234 73.1957 283.598 68.9425C310.666 61.4531 341.76 60.8945 370.812 68.7152C399.864 76.5358 426.878 92.7529 445.764 118.805C454.667 131.089 461.767 145.565 466.418 162.375C485.525 231.434 513.697 251.185 560.94 257.498L560.441 258.018Z" fill="white"/>
</mask>
<g mask="url(#mask12_1618_657)">
<path d="M16.6781 -4.81656L430.641 393.064L578.872 238.842L164.909 -159.039L16.6781 -4.81656Z" fill="white" fill-opacity="0.15"/>
</g>
<mask id="mask13_1618_657" style="mask-type:luminance" maskUnits="userSpaceOnUse" x="44" y="-34" width="532" height="277">
<path d="M575.019 242.85C523.162 239.232 492.444 221.996 469.884 149.963C464.692 133.383 457.145 119.217 447.874 107.289C428.211 81.9961 400.786 66.7654 371.6 59.9477C342.415 53.13 311.453 54.7262 284.745 63.0903C269.593 67.8349 255.807 74.76 244.49 83.5561C214.056 107.215 188.603 122.472 166.992 118.556C145.381 114.641 127.666 91.5582 112.77 38.5545C106.126 14.914 94.2795 -2.5215 79.4481 -14.8071C68.9564 -23.4985 56.9678 -29.613 44.2714 -33.5256L44.7131 -33.9852C57.3769 -30.0481 69.3344 -23.9236 79.8125 -15.2442C94.7266 -2.88946 106.64 14.6375 113.317 38.4003C128.146 91.1616 145.699 114.121 167.096 117.999C188.494 121.877 213.823 106.675 244.142 83.111C255.516 74.265 269.357 67.3139 284.575 62.5471C311.373 54.1522 342.434 52.5534 371.732 59.3945C401.029 66.2355 428.574 81.5352 448.322 106.939C457.632 118.917 465.214 133.146 470.427 149.793C492.942 221.678 523.639 238.76 575.539 242.309L575.019 242.85Z" fill="white"/>
</mask>
<g mask="url(#mask13_1618_657)">
<path d="M18.7943 -7.0187L432.757 390.862L585.289 232.164L171.326 -165.716L18.7943 -7.0187Z" fill="white" fill-opacity="0.15"/>
</g>
<mask id="mask14_1618_657" style="mask-type:luminance" maskUnits="userSpaceOnUse" x="42" y="-33" width="543" height="260">
<path d="M422.324 70.592C407.091 60.6781 390.065 54.1748 372.513 50.6914C343.105 44.8552 312.223 47.4907 285.811 56.746C270.826 61.9972 257.284 69.3794 246.265 78.5525C216.641 103.218 191.717 119.323 169.985 116.133C148.253 112.942 129.776 90.4701 113.109 37.9947C105.676 14.5926 93.2504 -2.43687 78.0158 -14.2179C67.3113 -22.4959 55.2174 -28.1837 42.4917 -31.6739L42.9402 -32.1406C55.6247 -28.624 67.6799 -22.9268 78.3643 -14.6669C93.685 -2.81913 106.179 14.3 113.651 37.8238C130.241 90.0559 148.555 112.414 170.068 115.57C191.582 118.725 216.391 102.687 245.899 78.1147C256.969 68.8976 270.574 61.4829 285.619 56.2119C312.123 46.9235 343.113 44.2789 372.62 50.1346C389.331 53.4525 405.57 59.4968 420.25 68.6053L422.324 70.592ZM584.8 226.756C531.141 225.361 499.176 209.885 473.76 137.357C469.261 124.517 463.366 113.203 456.378 103.323L458.437 105.302C464.759 114.667 470.125 125.265 474.296 137.168C499.486 209.048 531.153 224.654 584.185 226.164L584.8 226.756Z" fill="white"/>
</mask>
<g mask="url(#mask14_1618_657)">
<path d="M21.0218 -9.33678L432.026 385.7L584.798 226.754L173.793 -168.283L21.0218 -9.33678Z" fill="white" fill-opacity="0.15"/>
</g>
<mask id="mask15_1618_657" style="mask-type:luminance" maskUnits="userSpaceOnUse" x="40" y="-31" width="527" height="241">
<path d="M398.747 47.9315C390.502 45.0493 382.02 42.8957 373.399 41.4955C343.814 36.6503 313.036 40.32 286.948 50.4571C272.149 56.2083 258.859 64.0403 248.157 73.578C219.376 99.2263 195.006 116.154 173.183 113.7C151.359 111.245 132.135 89.3998 113.718 37.5155C105.504 14.3737 92.5132 -2.22856 76.892 -13.4913C65.8762 -21.4348 53.5505 -26.7241 40.6704 -29.7789L41.1252 -30.2521C53.9589 -27.1667 66.2371 -21.8719 77.2217 -13.9515C92.9312 -2.62558 105.992 14.0652 114.249 37.3245C132.583 88.9685 151.636 110.701 173.244 113.134C194.851 115.566 219.108 98.7042 247.776 73.1556C258.53 63.5723 271.878 55.7048 286.739 49.9298C312.917 39.7572 343.801 36.0744 373.488 40.9373C381.735 42.2777 389.856 44.303 397.766 46.9924L398.747 47.9315ZM566.457 209.127C527.162 204.402 500.721 184.48 477.498 124.717C477.268 124.125 477.036 123.538 476.802 122.955L477.794 123.908L478.031 124.512C500.973 183.554 527.091 203.542 565.748 208.445L566.457 209.127Z" fill="white"/>
</mask>
<g mask="url(#mask15_1618_657)">
<path d="M23.3631 -11.7721L416.027 365.637L566.458 209.126L173.793 -168.283L23.3631 -11.7721Z" fill="white" fill-opacity="0.15"/>
</g>
<mask id="mask16_1618_657" style="mask-type:luminance" maskUnits="userSpaceOnUse" x="38" y="-29" width="506" height="216">
<path d="M384.237 33.9852C380.928 33.3336 377.602 32.7918 374.259 32.3598C344.527 28.5102 313.89 33.2105 288.158 44.2167C273.56 50.4611 260.541 58.7346 250.164 68.6267C222.259 95.2265 198.471 112.962 176.577 111.239C154.682 109.517 134.737 88.331 114.588 37.0937C105.601 14.2422 92.0612 -1.91458 76.0705 -12.6472C64.6387 -20.3202 51.9524 -25.2211 38.779 -27.8171L39.2469 -28.3039C52.3629 -25.6766 64.9942 -20.7671 76.3884 -13.12C92.4702 -2.32823 106.083 13.9164 115.115 36.8854C135.171 87.8866 154.947 108.964 176.617 110.676C198.288 112.389 221.98 94.7146 249.775 68.2178C260.201 58.2795 273.277 49.9678 287.937 43.6972C313.759 32.6526 344.504 27.9369 374.335 31.799C377.397 32.1955 380.447 32.6838 383.486 33.2638L384.237 33.9852ZM543.046 186.624C524.911 179.166 509.56 165.158 495.327 140.76L496.861 142.234C510.331 164.739 524.846 178.048 541.802 185.429L543.046 186.624Z" fill="white"/>
</mask>
<g mask="url(#mask16_1618_657)">
<path d="M25.8216 -14.3299L395.076 340.579L543.047 186.626L173.793 -168.283L25.8216 -14.3299Z" fill="white" fill-opacity="0.15"/>
</g>
<mask id="mask17_1618_657" style="mask-type:luminance" maskUnits="userSpaceOnUse" x="36" y="-27" width="337" height="136">
<path d="M372.911 23.0985C343.77 20.726 314.178 26.4569 289.451 38.0298C275.07 44.7608 262.336 53.4672 252.297 63.7013C225.301 91.2231 202.122 109.748 180.182 108.76C158.241 107.771 137.596 87.2687 115.739 36.7366C105.991 14.1973 91.9161 -1.4958 75.5746 -11.686C63.5998 -19.1527 50.4042 -23.6658 36.8 -25.7531L37.2826 -26.2552C50.8209 -24.1301 63.9505 -19.6076 75.8789 -12.1695C92.3143 -1.92201 106.465 13.8537 116.262 36.5057C138.019 86.8061 158.488 107.212 180.21 108.189C201.931 109.166 225.003 90.7144 251.893 63.3008C261.98 53.0182 274.77 44.2724 289.212 37.5135C313.828 25.9904 343.251 20.239 372.265 22.4719L372.911 23.0985Z" fill="white"/>
</mask>
<g mask="url(#mask17_1618_657)">
<path d="M28.4015 -17.0137L227.519 174.368L372.91 23.099L173.793 -168.282L28.4015 -17.0137Z" fill="white" fill-opacity="0.15"/>
</g>
<mask id="mask18_1618_657" style="mask-type:luminance" maskUnits="userSpaceOnUse" x="34" y="-25" width="330" height="132">
<path d="M363.449 14.0045C337.699 14.4264 312.286 20.9466 290.818 31.8886C276.671 39.0983 264.235 48.227 254.545 58.793C228.489 87.2048 205.944 106.495 183.987 106.242C162.031 105.989 140.704 86.1925 117.166 36.4241C106.666 14.2257 92.0729 -0.98767 75.4002 -10.6224C62.7379 -17.9386 48.8727 -22.0416 34.6853 -23.5481L35.1816 -24.0645C49.291 -22.5123 63.0752 -18.3984 75.6817 -11.113C92.4507 -1.42334 107.122 13.872 117.677 36.1813C141.109 85.7226 162.251 105.429 183.993 105.677C205.735 105.926 228.176 86.7091 254.131 58.4096C263.866 47.7945 276.355 38.6253 290.562 31.3849C311.948 20.4862 337.23 13.9582 362.873 13.4497L363.449 14.0045Z" fill="white"/>
</mask>
<g mask="url(#mask18_1618_657)">
<path d="M30.7635 -19.4711L220.419 162.816L363.449 14.0045L173.794 -168.283L30.7635 -19.4711Z" fill="white" fill-opacity="0.15"/>
</g>
<mask id="mask19_1618_657" style="mask-type:luminance" maskUnits="userSpaceOnUse" x="32" y="-22" width="324" height="126">
<path d="M355.302 6.17426C332.729 8.54018 310.9 15.4923 292.265 25.7911C278.368 33.4716 266.246 43.0124 256.916 53.8973C231.827 83.1673 209.942 103.204 187.986 103.691C166.03 104.177 144.055 85.1044 118.859 36.1533C107.623 14.3165 92.5251 -0.394848 75.5381 -9.46693C62.022 -16.6832 47.3071 -20.3296 32.3767 -21.1496L32.8952 -21.689C47.7362 -20.8127 62.3614 -17.1489 75.8054 -9.96889C92.8892 -0.847089 108.069 13.9451 119.364 35.8886C144.443 84.6152 166.237 103.603 187.974 103.122C209.711 102.641 231.495 82.6836 256.485 53.5264C265.859 42.5901 278.034 33.0071 291.988 25.2953C310.558 15.0326 332.285 8.08189 354.766 5.6598L355.302 6.17426Z" fill="white"/>
</mask>
<g mask="url(#mask19_1618_657)">
<path d="M32.3743 -21.1476L213.883 153.309L355.301 6.17504L173.792 -168.282L32.3743 -21.1476Z" fill="white" fill-opacity="0.15"/>
</g>
<mask id="mask20_1618_657" style="mask-type:luminance" maskUnits="userSpaceOnUse" x="29" y="-20" width="320" height="122">
<path d="M348.166 -0.684458C328.574 3.00676 309.9 10.1129 293.791 19.7344C280.16 27.8784 268.365 37.8189 259.405 49.0104C235.313 79.1059 214.112 99.8667 192.185 101.09C170.258 102.314 147.656 83.9882 120.83 35.9078C108.865 14.4638 93.2839 0.264405 76.0019 -8.23092C61.4374 -15.3899 45.6592 -18.4994 29.8135 -18.4831L30.3599 -19.0515C46.1036 -18.9961 61.7692 -15.8595 76.2512 -8.73771C93.6317 -0.194442 109.298 14.0804 121.323 35.6323C148.028 83.4877 170.441 101.731 192.153 100.524C213.864 99.317 234.963 78.6336 258.96 48.6554C267.962 37.4108 279.809 27.4235 293.497 19.2476C309.553 9.6579 328.147 2.55685 347.662 -1.16648L348.166 -0.684458Z" fill="white"/>
</mask>
<g mask="url(#mask20_1618_657)">
<path d="M29.8135 -18.4831L204.186 149.115L348.166 -0.684436L173.793 -168.283L29.8135 -18.4831Z" fill="white" fill-opacity="0.15"/>
</g>
<mask id="mask21_1618_657" style="mask-type:luminance" maskUnits="userSpaceOnUse" x="26" y="-17" width="316" height="116">
<path d="M341.864 -6.7417C325.069 -2.21238 309.22 4.82096 295.402 13.7177C282.051 22.3127 270.596 32.6451 262.017 44.1313C238.949 75.0177 218.456 96.4781 196.581 98.4374C174.705 100.397 151.502 82.8399 123.079 35.6881C110.401 14.6567 94.3522 0.988242 76.7946 -6.92199C60.9435 -14.0659 43.8583 -16.5212 26.9066 -15.4584L27.4854 -16.0605C44.3235 -17.0276 61.2805 -14.5374 77.0303 -7.44188C94.6881 0.513372 110.824 14.2544 123.566 35.3912C151.859 82.3257 174.876 99.8073 196.532 97.8692C218.188 95.9311 238.584 74.5556 261.563 43.7899C270.183 32.2489 281.686 21.8703 295.093 13.2393C308.869 4.37071 324.656 -2.65325 341.387 -7.20046L341.864 -6.7417Z" fill="white"/>
</mask>
<g mask="url(#mask21_1618_657)">
<path d="M26.9066 -15.4581L194.977 146.083L341.864 -6.74141L173.794 -168.282L26.9066 -15.4581Z" fill="white" fill-opacity="0.15"/>
</g>
<mask id="mask22_1618_657" style="mask-type:luminance" maskUnits="userSpaceOnUse" x="23" y="-14" width="314" height="110">
<path d="M336.274 -12.1146C322.102 -7.14173 308.811 -0.378395 297.094 7.73463C284.039 16.7729 272.938 27.4835 264.748 39.251C242.729 70.8946 222.969 93.0304 201.173 95.7215C179.377 98.4126 155.596 81.6452 125.607 35.4748C112.231 14.8809 95.7353 1.75676 77.9197 -5.55714C60.486 -12.7179 41.7857 -14.3201 23.5148 -11.9275L24.1436 -12.5816C42.2845 -14.8545 60.8289 -13.1917 78.1391 -6.08482C96.0536 1.27411 112.642 14.4648 126.086 35.1625C155.938 81.1215 179.528 97.8213 201.107 95.1571C222.686 92.4929 242.348 70.445 264.283 38.9266C272.511 27.1032 283.661 16.3447 296.77 7.26818C308.453 -0.82098 321.697 -7.57465 335.813 -12.554L336.274 -12.1146Z" fill="white"/>
</mask>
<g mask="url(#mask22_1618_657)">
<path d="M23.5136 -11.9286L185.994 144.24L336.274 -12.1146L173.793 -168.283L23.5136 -11.9286Z" fill="white" fill-opacity="0.15"/>
</g>
<mask id="mask23_1618_657" style="mask-type:luminance" maskUnits="userSpaceOnUse" x="19" y="-18" width="313" height="112">
<path d="M331.315 -16.8806C319.602 -11.7969 308.646 -5.47846 298.871 1.78556C286.127 11.2563 275.391 22.3345 267.603 34.3708C246.657 66.7347 227.651 89.5204 205.958 92.9428C184.265 96.3653 159.935 80.4048 128.412 35.2657C114.352 15.1314 97.423 2.57002 79.3744 -4.14397C60.0873 -11.3202 39.5137 -11.8224 19.7912 -7.75846L19.4371 -7.68472L20.1306 -8.4063C39.8141 -12.3894 60.3271 -11.8361 79.5728 -4.67589C97.7265 2.07664 114.747 14.7041 128.878 34.9385C160.255 79.8699 184.393 95.7686 205.87 92.3818C227.348 88.995 246.263 66.3003 267.129 34.0599C274.955 21.9671 285.737 10.8399 298.534 1.32923C308.282 -5.91508 319.202 -12.2224 330.877 -17.3094L331.315 -16.8806Z" fill="white"/>
</mask>
<g mask="url(#mask23_1618_657)">
<path d="M19.4354 -7.68536L176.957 143.717L331.315 -16.8801L173.793 -168.282L19.4354 -7.68536Z" fill="white" fill-opacity="0.15"/>
</g>
<mask id="mask24_1618_657" style="mask-type:luminance" maskUnits="userSpaceOnUse" x="14" y="-22" width="313" height="113">
<path d="M326.932 -21.0931C317.513 -16.1912 308.7 -10.4791 300.733 -4.1346C288.315 5.75847 277.96 17.1917 270.576 29.4811C250.728 62.5299 232.498 85.942 210.932 90.0883C189.366 94.2347 164.513 79.1015 131.493 35.0451C116.765 15.3952 99.4246 3.40935 81.1595 -2.69577C61.6427 -9.21997 41.0643 -9.03162 21.4918 -4.30803C19.0854 -3.72696 16.696 -3.07912 14.3236 -2.3645L15.1195 -3.19255C17.1862 -3.79745 19.2654 -4.3527 21.3573 -4.8583C41.0309 -9.60536 61.7161 -9.7935 81.3421 -3.23261C99.71 2.90762 117.146 14.9565 131.948 34.7059C164.816 78.5594 189.474 93.6378 210.825 89.5323C232.176 85.4268 250.32 62.1098 270.09 29.1907C277.505 16.8427 287.911 5.35682 300.381 -4.5744C308.327 -10.904 317.114 -16.6063 326.502 -21.5053L326.932 -21.0931Z" fill="white"/>
</mask>
<g mask="url(#mask24_1618_657)">
<path d="M14.3224 -2.36595L171.851 149.042L331.322 -16.8747L173.793 -168.283L14.3224 -2.36595Z" fill="white" fill-opacity="0.15"/>
</g>
<mask id="mask25_1618_657" style="mask-type:luminance" maskUnits="userSpaceOnUse" x="7" y="-26" width="317" height="115">
<path d="M323.085 -24.7911C315.909 -20.4101 309.087 -15.4734 302.683 -10.0263C290.604 0.278929 280.636 12.0515 273.671 24.5832C254.942 58.2766 237.51 82.2884 216.094 87.1576C194.678 92.0268 169.333 77.7342 134.854 34.8108C119.475 15.667 101.74 4.26861 83.2809 -1.21764C63.5555 -7.08323 42.9954 -6.20481 23.5896 -0.827148C18.1121 0.696417 12.7342 2.55776 7.48679 4.74618L8.46061 3.733C13.3508 1.74461 18.3512 0.0390317 23.4372 -1.37531C42.9399 -6.77927 63.6079 -7.661 83.443 -1.76278C102.006 3.7574 119.837 15.2137 135.293 34.4563C169.614 77.1815 194.764 91.4257 215.966 86.606C237.169 81.7863 254.519 57.8724 273.173 24.3076C280.17 11.7178 290.182 -0.107232 302.312 -10.4564C308.702 -15.8907 315.505 -20.8187 322.66 -25.1958L323.085 -24.7911Z" fill="white"/>
</mask>
<g mask="url(#mask25_1618_657)">
<path d="M7.48635 4.74645L165.793 156.903L332.1 -16.1254L173.793 -168.282L7.48635 4.74645Z" fill="white" fill-opacity="0.15"/>
</g>
</svg>
