<svg width="807" height="320" viewBox="0 0 807 320" fill="none" xmlns="http://www.w3.org/2000/svg">
<mask id="mask0_1573_479" style="mask-type:luminance" maskUnits="userSpaceOnUse" x="-243" y="106" width="1044" height="339">
<path d="M800.745 337.492C754.528 331.75 704.926 348.095 638.123 396.506C612.538 415.046 586.136 427.511 559.653 434.835C503.493 450.367 446.941 442.786 396.964 421.022C346.987 399.258 303.557 363.291 273.687 322.072C256.741 298.689 244.157 273.614 237.207 248.483C218.517 180.903 197.968 130.999 162.188 113.23C126.409 95.4616 75.4974 109.886 -3.82169 171.014C-39.1955 198.279 -75.4201 210.839 -110.399 212.645C-147.779 214.581 -183.747 204.227 -215.753 186.42C-224.9 181.319 -233.719 175.65 -242.157 169.445L-242.491 170.485C-234.103 176.637 -225.34 182.263 -216.255 187.33C-184.092 205.226 -147.927 215.627 -110.346 213.686C-75.1682 211.87 -38.7439 199.239 -3.1908 171.841C75.7618 110.994 126.315 96.5771 161.725 114.165C197.135 131.752 217.586 181.448 236.202 248.762C243.186 274.014 255.826 299.201 272.843 322.684C302.817 364.045 346.378 400.128 396.546 421.976C446.714 443.823 503.522 451.437 559.923 435.837C586.521 428.482 613.034 415.964 638.726 397.347C705.1 349.248 754.434 332.939 800.392 338.567L800.745 337.492Z" fill="white"/>
</mask>
<g mask="url(#mask0_1573_479)">
<path d="M-186.106 -4.96842L808.121 314.542L736.633 536.992L-257.594 217.481L-186.106 -4.96842Z" fill="white" fill-opacity="0.2"/>
</g>
<mask id="mask1_1573_479" style="mask-type:luminance" maskUnits="userSpaceOnUse" x="-241" y="108" width="1034" height="351">
<path d="M792.669 362.625C745.548 353.801 694.504 367.944 624.094 415.45C597.901 433.124 571.096 444.696 544.381 451.128C487.733 464.765 431.468 455.291 382.25 431.863C333.032 408.435 290.839 371.029 262.363 328.831C246.212 304.891 234.473 279.406 228.371 254.057C211.96 185.89 193.097 135.326 157.937 116.367C122.776 97.4086 71.3979 110.111 -9.91468 168.547C-46.1868 194.608 -82.809 205.948 -117.828 206.578C-155.25 207.254 -190.855 195.704 -222.245 176.831C-228.542 173.045 -234.662 168.978 -240.605 164.63L-240.939 165.667C-235.062 169.946 -229.008 173.963 -222.778 177.719C-191.232 196.685 -155.443 208.291 -117.818 207.611C-82.5974 206.976 -45.7762 195.578 -9.31771 169.386C71.6284 111.222 122.637 98.5062 157.446 117.276C192.254 136.047 211.016 186.396 227.364 254.299C233.494 279.77 245.276 305.366 261.503 329.408C290.071 371.75 332.399 409.277 381.803 432.796C431.206 456.314 487.724 465.831 544.621 452.133C571.458 445.676 598.37 434.053 624.671 416.309C694.657 369.089 745.444 354.974 792.32 363.699L792.669 362.625Z" fill="white"/>
</mask>
<g mask="url(#mask1_1573_479)">
<path d="M-187.011 -2.15104L807.216 317.359L731.543 552.831L-262.684 233.321L-187.011 -2.15104Z" fill="white" fill-opacity="0.2"/>
</g>
<mask id="mask2_1573_479" style="mask-type:luminance" maskUnits="userSpaceOnUse" x="-240" y="110" width="1025" height="363">
<path d="M784.449 388.202C736.479 376.008 684.04 387.769 609.827 434.296C583.054 451.081 555.87 461.743 528.962 467.276C471.889 479.007 415.973 467.648 367.567 442.58C319.161 417.513 278.24 378.713 251.203 335.584C235.871 311.117 224.988 285.252 219.739 259.714C205.625 191.032 188.469 139.863 153.968 119.736C119.466 99.6082 67.6923 110.582 -15.5447 166.252C-52.6748 191.081 -89.6543 201.187 -124.673 200.642C-162.099 200.056 -197.292 187.323 -228.033 167.406C-231.777 164.98 -235.453 162.451 -239.062 159.818L-239.395 160.855C-235.86 163.424 -232.259 165.899 -228.594 168.277C-197.704 188.289 -162.325 201.09 -124.69 201.668C-89.4663 202.216 -52.2805 192.068 -14.9702 167.112C67.8789 111.698 119.286 100.707 153.447 120.628C187.609 140.549 204.671 191.509 218.729 259.92C224.003 285.583 234.925 311.563 250.329 336.133C277.461 379.411 318.507 418.339 367.092 443.498C415.677 468.658 471.842 480.069 529.172 468.288C556.205 462.733 583.498 452.021 610.378 435.17C684.175 388.904 736.371 377.179 784.111 389.264L784.449 388.202Z" fill="white"/>
</mask>
<g mask="url(#mask2_1573_479)">
<path d="M-187.962 0.806969L806.265 320.317L726.492 568.547L-267.734 249.037L-187.962 0.806969Z" fill="white" fill-opacity="0.2"/>
</g>
<mask id="mask3_1573_479" style="mask-type:luminance" maskUnits="userSpaceOnUse" x="-238" y="112" width="1015" height="376">
<path d="M776.073 414.264C727.312 398.403 673.546 407.572 595.317 453.031C567.998 468.906 540.478 478.654 513.392 483.281C455.954 493.088 400.45 479.861 352.916 453.181C305.383 426.501 265.783 386.352 240.211 342.34C225.702 317.372 215.702 291.159 211.318 265.458C199.52 196.345 184.088 144.628 150.277 123.353C116.466 102.077 64.3579 111.309 -20.7018 164.156C-58.6368 187.725 -95.939 196.581 -130.922 194.862C-168.308 193.025 -203.056 179.114 -233.107 158.18C-234.589 157.147 -236.059 156.097 -237.518 155.031L-237.851 156.068C-236.477 157.068 -235.093 158.055 -233.698 159.028C-203.495 180.066 -168.565 194.049 -130.98 195.895C-95.8018 197.622 -58.2895 188.722 -20.1591 165.032C64.5074 112.429 116.251 103.164 149.722 124.225C183.193 145.286 198.533 196.785 210.288 265.635C214.698 291.459 224.744 317.79 239.315 342.865C264.981 387.026 304.695 427.309 352.413 454.085C400.13 480.861 455.878 494.151 513.565 484.301C540.769 479.656 568.406 469.867 595.837 453.926C673.659 408.702 727.184 399.564 775.733 415.323L776.073 414.264Z" fill="white"/>
</mask>
<g mask="url(#mask3_1573_479)">
<path d="M-188.962 3.9183L805.264 323.429L721.481 584.138L-272.745 264.627L-188.962 3.9183Z" fill="white" fill-opacity="0.2"/>
</g>
<mask id="mask4_1573_479" style="mask-type:luminance" maskUnits="userSpaceOnUse" x="-237" y="115" width="1005" height="388">
<path d="M767.521 440.876C718.043 421.014 663.045 427.362 580.573 471.656C552.731 486.604 524.903 495.426 497.679 499.138C439.948 507.013 384.92 491.93 338.305 463.67C291.69 435.411 253.465 393.957 229.382 349.113C215.717 323.668 206.601 297.134 203.078 271.301C193.601 201.828 179.917 149.623 146.842 127.222C113.768 104.821 61.3785 112.295 -25.4068 162.264C-64.1134 184.552 -101.693 192.152 -136.599 189.263C-173.267 186.224 -206.998 171.61 -235.998 150.281L-236.331 151.32C-207.25 172.644 -173.441 187.248 -136.688 190.294C-101.577 193.204 -63.7962 185.565 -24.8935 163.169C61.4895 113.437 113.518 105.912 146.264 128.086C179.01 150.26 192.615 202.243 202.054 271.443C205.596 297.404 214.75 324.056 228.47 349.605C252.639 394.606 290.979 436.198 337.768 464.56C384.557 492.923 439.829 508.073 497.816 500.165C525.162 496.437 553.11 487.58 581.063 472.57C663.14 428.487 717.908 422.165 767.181 441.936L767.521 440.876Z" fill="white"/>
</mask>
<g mask="url(#mask4_1573_479)">
<path d="M-190.016 7.19808L804.211 326.708L716.512 599.603L-277.715 280.092L-190.016 7.19808Z" fill="white" fill-opacity="0.2"/>
</g>
<mask id="mask5_1573_479" style="mask-type:luminance" maskUnits="userSpaceOnUse" x="-235" y="117" width="994" height="401">
<path d="M758.764 468.127C708.659 443.889 652.559 447.152 565.6 490.159C537.276 504.165 509.165 512.047 481.831 514.843C423.865 520.777 369.375 503.856 323.735 474.049C278.095 444.242 241.283 401.527 218.717 355.897C205.915 330.011 197.694 303.187 195.04 277.25C187.894 207.493 175.971 154.86 143.672 131.369C111.372 107.877 58.7551 113.588 -29.6598 160.611C-69.0918 181.581 -106.905 187.917 -141.692 183.85C-176.001 179.843 -207.382 165.726 -234.484 145.566L-234.819 146.609C-207.645 166.756 -176.196 180.86 -141.813 184.876C-106.825 188.96 -68.8062 182.595 -29.173 161.519C58.8286 114.715 111.078 108.943 143.061 132.202C175.043 155.462 186.9 207.871 194.011 277.349C196.677 303.419 204.933 330.365 217.79 356.357C240.434 402.141 277.359 444.996 323.171 474.915C368.984 504.834 423.715 521.83 481.936 515.872C509.391 513.063 537.623 505.15 566.062 491.086C652.629 448.267 708.507 445.031 758.424 469.185L758.764 468.127Z" fill="white"/>
</mask>
<g mask="url(#mask5_1573_479)">
<path d="M-191.127 10.6566L803.1 330.167L711.584 614.939L-282.643 295.428L-191.127 10.6566Z" fill="white" fill-opacity="0.2"/>
</g>
<mask id="mask6_1573_479" style="mask-type:luminance" maskUnits="userSpaceOnUse" x="-234" y="120" width="984" height="412">
<path d="M749.783 496.073C699.154 467.047 642.113 466.944 550.398 508.531C521.622 521.582 493.261 528.513 465.848 530.392C407.717 534.376 353.829 515.639 309.209 484.315C264.589 452.992 229.237 409.066 208.216 362.706C196.293 336.407 188.974 309.321 187.185 283.306C182.395 213.353 172.238 160.346 140.742 135.782C109.247 111.218 56.4683 115.163 -33.4715 159.191C-73.5851 178.83 -111.591 183.892 -146.223 178.665C-178.382 173.815 -207.644 160.086 -232.997 140.925L-233.332 141.966C-207.911 161.106 -178.595 174.825 -146.378 179.687C-111.551 184.942 -73.3356 179.858 -33.0178 160.121C56.5056 116.295 108.921 112.28 140.104 136.598C171.308 160.933 181.38 213.698 186.156 283.373C187.943 309.511 195.293 336.719 207.271 363.13C228.367 409.652 263.83 453.721 308.611 485.161C353.393 516.6 407.529 535.427 465.916 531.422C493.448 529.536 521.93 522.574 550.825 509.472C642.164 468.054 698.985 468.183 749.44 497.141L749.783 496.073Z" fill="white"/>
</mask>
<g mask="url(#mask6_1573_479)">
<path d="M-192.299 14.304L801.928 333.814L706.283 631.433L-287.943 311.923L-192.299 14.304Z" fill="white" fill-opacity="0.2"/>
</g>
<mask id="mask7_1573_479" style="mask-type:luminance" maskUnits="userSpaceOnUse" x="-232" y="123" width="973" height="424">
<path d="M740.552 524.797C689.517 490.51 631.731 486.75 534.973 526.767C505.771 538.844 477.194 544.822 449.736 545.779C391.506 547.812 338.27 527.276 294.732 494.477C251.195 461.679 217.331 416.583 197.88 369.543C186.842 342.855 180.441 315.541 179.531 289.484C177.086 219.409 168.719 166.092 138.062 140.484C107.405 114.876 54.5282 117.049 -36.8408 158.034C-77.5915 176.314 -115.745 180.099 -150.177 173.715C-180.39 168.111 -207.754 154.68 -231.513 136.342L-231.85 137.389C-208.035 155.699 -180.627 169.117 -150.367 174.729C-115.731 181.158 -77.3661 177.344 -36.413 158.98C54.5276 118.182 107.047 115.927 137.393 141.278C167.739 166.629 176.058 219.718 178.492 289.515C179.405 315.701 185.835 343.14 196.916 369.936C216.437 417.137 250.412 462.368 294.111 495.298C337.81 528.228 391.282 548.857 449.771 546.809C477.351 545.846 506.053 539.845 535.365 527.72C631.757 487.854 689.332 491.645 740.205 525.876L740.552 524.797Z" fill="white"/>
</mask>
<g mask="url(#mask7_1573_479)">
<path d="M-193.537 18.1556L800.689 337.666L700.851 648.335L-293.376 328.825L-193.537 18.1556Z" fill="white" fill-opacity="0.2"/>
</g>
<mask id="mask8_1573_479" style="mask-type:luminance" maskUnits="userSpaceOnUse" x="-231" y="126" width="963" height="437">
<path d="M731.027 554.435C679.715 514.367 621.447 506.589 519.331 544.861C489.75 555.953 460.982 560.965 433.502 561.005C375.232 561.086 322.72 538.769 280.309 504.525C237.897 470.281 205.561 424.083 187.698 376.415C177.563 349.374 172.082 321.859 172.048 295.785C171.957 225.668 165.383 172.101 135.604 145.48C105.824 118.858 52.9028 119.253 -39.7873 157.151C-81.1276 174.052 -119.386 176.55 -153.591 169.015C-182.073 162.738 -207.75 149.501 -230.066 131.821L-230.402 132.87C-208.042 150.522 -182.327 163.74 -153.812 170.021C-119.418 177.601 -80.9474 175.091 -39.3956 158.103C52.8659 120.383 105.433 119.89 134.916 146.246C164.398 172.601 170.924 225.94 171.02 295.784C171.048 321.983 176.557 349.613 186.734 376.773C204.66 424.604 237.09 470.954 279.66 505.324C322.23 539.694 374.981 562.112 433.504 562.033C461.099 561.998 489.986 556.965 519.693 545.828C621.465 507.688 679.513 515.499 730.675 555.531L731.027 554.435Z" fill="white"/>
</mask>
<g mask="url(#mask8_1573_479)">
<path d="M-194.844 22.221L799.383 341.731L695.463 665.102L-298.764 345.592L-194.844 22.221Z" fill="white" fill-opacity="0.2"/>
</g>
<mask id="mask9_1573_479" style="mask-type:luminance" maskUnits="userSpaceOnUse" x="-229" y="127" width="951" height="460">
<path d="M721.182 585.072C669.735 538.621 611.294 526.467 503.474 562.802C473.534 572.892 444.62 576.939 417.155 576.052C358.918 574.172 307.181 550.114 265.943 514.465C224.705 478.817 193.939 431.557 177.685 383.319C168.463 355.953 163.908 328.269 164.749 302.21C167.011 232.129 162.238 178.374 133.368 150.759C104.499 123.145 51.5948 121.774 -42.3139 156.538C-84.1993 172.044 -122.519 173.26 -156.451 164.578C-183.411 157.681 -207.606 144.534 -228.626 127.344L-228.966 128.401C-207.909 145.556 -183.686 158.678 -156.709 165.58C-122.583 174.312 -84.052 173.092 -41.9551 157.509C51.5212 122.905 104.074 124.178 132.656 151.508C161.237 178.839 165.968 232.365 163.715 302.169C162.871 328.353 167.445 356.162 176.712 383.647C193.023 432.053 223.88 479.464 265.273 515.244C306.666 551.023 358.635 575.197 417.128 577.084C444.709 577.974 473.745 573.911 503.814 563.778C611.296 527.56 669.511 539.762 720.829 586.189L721.182 585.072Z" fill="white"/>
</mask>
<g mask="url(#mask9_1573_479)">
<path d="M-196.221 26.5067L798.006 346.017L690.12 681.728L-304.107 362.217L-196.221 26.5067Z" fill="white" fill-opacity="0.2"/>
</g>
<mask id="mask10_1573_479" style="mask-type:luminance" maskUnits="userSpaceOnUse" x="-228" y="122" width="939" height="497">
<path d="M710.96 616.879C659.527 563.363 601.312 546.414 487.413 580.585C457.149 589.666 428.116 592.738 400.695 590.929C342.553 587.097 291.655 561.314 251.635 524.303C211.616 487.292 182.456 439.025 167.828 390.269C159.53 362.611 155.906 334.79 157.621 308.771C162.238 238.807 159.268 184.92 131.34 156.359C103.412 127.798 50.5861 124.645 -44.4385 156.239C-86.8209 170.331 -125.16 170.262 -158.78 160.446C-184.427 152.957 -207.338 139.797 -227.207 122.929L-227.548 123.988C-207.649 140.813 -184.724 153.942 -159.071 161.43C-125.256 171.302 -86.7062 171.378 -44.1099 157.216C50.4713 125.767 102.955 128.803 130.603 157.078C158.251 185.353 161.185 239.007 156.59 308.698C154.867 334.838 158.507 362.784 166.842 390.563C181.523 439.49 210.766 487.909 250.936 525.059C291.107 562.209 342.233 588.109 400.627 591.959C428.163 593.778 457.32 590.691 487.712 581.57C601.289 547.499 659.279 564.504 710.59 618.031L710.96 616.879Z" fill="white"/>
</mask>
<g mask="url(#mask10_1573_479)">
<path d="M-197.674 31.0296L796.552 350.54L684.823 698.21L-309.403 378.7L-197.674 31.0296Z" fill="white" fill-opacity="0.2"/>
</g>
<mask id="mask11_1573_479" style="mask-type:luminance" maskUnits="userSpaceOnUse" x="-227" y="118" width="928" height="534">
<path d="M700.31 650.018C649.033 588.656 591.542 566.446 471.147 598.203C440.597 606.261 411.476 608.358 384.129 605.629C326.148 599.848 276.142 572.371 237.387 534.038C198.632 495.705 171.114 446.49 158.129 397.269C150.761 369.355 148.075 341.421 150.663 315.475C157.621 245.703 156.464 191.747 129.512 162.267C102.56 132.786 49.8659 127.86 -46.1654 156.247C-88.9969 168.908 -127.313 167.551 -160.588 156.62C-185.131 148.55 -206.941 135.265 -225.799 118.545L-226.145 119.624C-207.265 136.287 -185.449 149.533 -160.908 157.601C-127.443 168.6 -88.9193 169.969 -45.8729 157.244C49.7116 128.989 102.061 133.788 128.745 162.97C155.429 192.152 156.56 245.883 149.631 315.375C147.032 341.443 149.732 369.495 157.128 397.537C170.156 446.929 197.762 496.305 236.664 534.782C275.565 573.259 325.791 600.86 384.026 606.667C411.484 609.405 440.728 607.298 471.407 599.206C591.5 567.523 648.766 589.802 699.928 651.208L700.31 650.018Z" fill="white"/>
</mask>
<g mask="url(#mask11_1573_479)">
<path d="M-199.207 35.7982L795.02 355.309L679.573 714.548L-314.654 395.037L-199.207 35.7982Z" fill="white" fill-opacity="0.2"/>
</g>
<mask id="mask12_1573_479" style="mask-type:luminance" maskUnits="userSpaceOnUse" x="-225" y="114" width="915" height="572">
<path d="M689.172 684.677C638.2 614.563 582.033 586.591 454.685 615.647C423.878 622.673 394.704 623.799 367.47 620.156C309.718 612.432 260.662 583.291 223.214 543.677C185.766 504.064 159.91 453.953 148.585 404.324C142.16 376.168 140.411 348.165 143.867 322.324C153.162 252.825 153.817 198.863 127.869 168.495C101.922 138.127 49.4232 131.433 -47.5047 156.583C-90.7369 167.798 -128.986 165.157 -161.874 153.109C-185.527 144.443 -206.413 130.911 -224.392 114.167L-224.741 115.254C-206.749 131.933 -185.863 145.42 -162.227 154.08C-129.151 166.197 -90.6948 168.857 -47.2452 157.584C49.2362 132.552 101.395 139.1 127.084 169.165C152.772 199.231 152.102 252.961 142.843 322.187C139.37 348.157 141.131 376.284 147.577 404.554C158.94 454.355 184.875 504.622 222.463 544.39C260.051 584.159 309.324 613.418 367.332 621.179C394.681 624.835 423.986 623.713 454.913 616.657C581.972 587.665 637.901 615.73 688.771 685.926L689.172 684.677Z" fill="white"/>
</mask>
<g mask="url(#mask12_1573_479)">
<path d="M-200.821 40.8226L793.405 360.333L674.371 730.733L-319.855 411.223L-200.821 40.8226Z" fill="white" fill-opacity="0.2"/>
</g>
<mask id="mask13_1573_479" style="mask-type:luminance" maskUnits="userSpaceOnUse" x="-224" y="109" width="902" height="614">
<path d="M677.465 721.105C626.929 641.198 572.829 606.886 438.031 632.916C407.005 638.907 377.811 639.046 350.714 634.493C293.252 624.835 245.202 594.064 209.105 553.217C173.007 512.37 148.849 461.42 139.197 411.44C133.72 383.085 132.913 355.037 137.233 329.329C148.854 260.186 151.322 206.269 126.406 175.046C101.491 143.823 49.2484 135.375 -48.4693 157.257C-92.0532 167.016 -130.191 163.092 -162.659 149.945C-185.627 140.645 -205.761 126.726 -222.98 109.773L-223.335 110.877C-206.105 127.756 -185.981 141.617 -163.044 150.905C-130.395 164.125 -92.0526 168.077 -48.2447 158.265C49.0278 136.486 100.932 144.78 125.604 175.694C150.276 206.608 147.789 260.28 136.22 329.155C131.87 354.999 132.682 383.157 138.181 411.637C147.861 461.787 172.101 512.899 208.332 553.905C244.563 594.91 292.826 625.812 350.54 635.513C377.751 640.085 407.075 639.947 438.226 633.931C572.749 607.958 626.586 642.368 677.047 722.405L677.465 721.105Z" fill="white"/>
</mask>
<g mask="url(#mask13_1573_479)">
<path d="M-202.521 46.1117L791.706 365.622L669.218 746.77L-325.009 427.26L-202.521 46.1117Z" fill="white" fill-opacity="0.2"/>
</g>
<mask id="mask14_1573_479" style="mask-type:luminance" maskUnits="userSpaceOnUse" x="-222" y="105" width="883" height="646">
<path d="M269.913 625.248C240.896 609.411 215.793 587.762 195.072 562.664C160.354 520.615 137.929 468.895 129.959 418.621C125.437 390.097 125.572 362.044 130.753 336.487C144.685 267.774 148.967 213.972 125.108 181.929C101.249 149.886 49.3267 139.692 -49.0731 158.282C-92.956 166.573 -130.943 161.371 -162.951 147.143C-185.441 137.146 -204.982 122.69 -221.551 105.326L-221.911 106.446C-205.336 123.722 -185.813 138.108 -163.369 148.088C-131.181 162.396 -92.9904 167.631 -48.8791 159.298C49.0649 140.794 100.665 150.825 124.279 182.548C147.893 214.271 143.619 267.833 129.737 336.28C124.53 361.957 124.396 390.137 128.938 418.774C136.934 469.225 159.438 521.125 194.273 563.316C214.004 587.21 237.692 607.996 264.942 623.641L269.913 625.248ZM660.135 750.652C611.606 665.941 559.246 628.113 421.191 649.998C396.751 653.872 373.55 654.196 351.702 651.532L356.645 653.121C377.095 655.163 398.693 654.611 421.351 651.019C558.174 629.332 610.483 666.57 658.658 750.177L660.135 750.652Z" fill="white"/>
</mask>
<g mask="url(#mask14_1573_479)">
<path d="M-204.31 51.6773L782.811 368.904L660.131 750.65L-326.99 433.423L-204.31 51.6773Z" fill="white" fill-opacity="0.2"/>
</g>
<mask id="mask15_1573_479" style="mask-type:luminance" maskUnits="userSpaceOnUse" x="-221" y="100" width="838" height="637">
<path d="M213.287 607.05C201.559 596.336 190.793 584.614 181.112 572.018C147.828 528.83 127.149 476.384 120.871 425.868C117.31 397.211 118.384 369.174 124.421 343.81C140.654 275.598 146.73 221.973 123.971 189.149C101.213 156.325 49.6483 144.393 -49.3153 159.671C-93.4548 166.487 -131.246 160.011 -162.757 144.718C-184.98 133.934 -204.084 118.762 -220.088 100.775L-220.453 101.912C-204.44 119.798 -185.369 134.889 -163.21 145.643C-131.521 161.023 -93.5279 167.534 -49.1632 160.686C49.3439 145.482 100.581 157.238 123.119 189.735C145.656 222.233 139.587 275.619 123.415 343.564C117.35 369.051 116.27 397.21 119.846 425.989C126.145 476.679 146.895 529.305 180.296 572.643C189.557 584.69 199.807 595.945 210.938 606.29L213.287 607.05ZM616.083 736.495C574.614 677.655 519.902 652.508 404.178 666.89C403.032 667.032 401.891 667.168 400.756 667.296L403.138 668.062L404.309 667.919C518.638 653.711 573.176 678.282 614.38 735.947L616.083 736.495Z" fill="white"/>
</mask>
<g mask="url(#mask15_1573_479)">
<path d="M-206.189 57.5278L736.884 360.599L616.083 736.496L-326.989 433.424L-206.189 57.5278Z" fill="white" fill-opacity="0.2"/>
</g>
<mask id="mask16_1573_479" style="mask-type:luminance" maskUnits="userSpaceOnUse" x="-219" y="96" width="779" height="623">
<path d="M178.439 595.851C174.541 591.116 170.804 586.258 167.227 581.277C135.411 536.995 116.502 483.885 111.923 433.189C109.325 404.428 111.339 376.444 118.224 351.294C136.737 283.665 144.61 230.275 122.961 196.706C101.312 163.137 50.1821 149.481 -49.2404 161.427C-93.5818 166.756 -131.133 159.017 -162.114 142.674C-184.263 130.99 -203.056 114.907 -218.579 96.0543L-218.954 97.2234C-203.431 115.957 -184.672 131.945 -162.597 143.591C-131.443 160.028 -93.688 167.808 -49.1184 162.452C49.845 150.559 100.656 164.037 122.095 197.257C143.533 230.476 135.677 283.659 117.234 351.025C110.317 376.293 108.292 404.401 110.9 433.284C115.496 484.157 134.472 537.452 166.395 581.883C169.671 586.443 173.085 590.906 176.636 595.272L178.439 595.851ZM559.854 718.425C532.266 695.825 496.593 683.332 445.247 681.594L448.931 682.778C496.586 684.928 530.419 696.685 556.868 717.465L559.854 718.425Z" fill="white"/>
</mask>
<g mask="url(#mask16_1573_479)">
<path d="M-208.164 63.6713L678.684 348.674L559.858 718.426L-326.99 433.424L-208.164 63.6713Z" fill="white" fill-opacity="0.2"/>
</g>
<mask id="mask17_1573_479" style="mask-type:luminance" maskUnits="userSpaceOnUse" x="-218" y="91" width="370" height="497">
<path d="M151.235 587.109C122.294 542.498 105.937 490.172 103.132 440.597C101.501 411.764 104.454 383.863 112.178 358.959C132.952 291.99 142.613 238.895 122.101 204.617C101.588 170.34 50.9478 154.975 -48.8189 163.578C-93.318 167.417 -130.588 158.422 -161.003 141.05C-183.29 128.319 -201.902 111.085 -216.982 91.1042L-217.369 92.3102C-202.286 112.153 -183.716 129.273 -161.515 141.954C-130.927 159.428 -93.4585 168.474 -48.7369 164.616C50.5721 156.051 100.906 171.219 121.212 205.154C141.518 239.09 131.88 291.951 111.189 358.658C103.428 383.68 100.461 411.705 102.1 440.66C104.889 490.016 121.067 542.088 149.675 586.615L151.235 587.109Z" fill="white"/>
</mask>
<g mask="url(#mask17_1573_479)">
<path d="M-210.235 70.1166L267.99 223.802L151.236 587.108L-326.989 433.423L-210.235 70.1166Z" fill="white" fill-opacity="0.2"/>
</g>
<mask id="mask18_1573_479" style="mask-type:luminance" maskUnits="userSpaceOnUse" x="-216" y="85" width="348" height="495">
<path d="M128.511 579.806C106.969 538.212 95.4821 491.898 94.479 448.084C93.8163 419.213 97.7028 391.425 106.26 366.794C129.269 300.56 140.703 247.819 121.353 212.882C102.004 177.946 51.9059 160.879 -48.0881 166.133C-92.6893 168.475 -129.639 158.235 -159.451 139.853C-182.09 125.891 -200.623 107.232 -215.276 85.8158L-215.674 87.0559C-201.015 108.308 -182.535 126.828 -159.994 140.727C-130.011 159.216 -92.8621 169.51 -48.0359 167.16C51.503 161.933 101.298 178.781 120.454 213.378C139.61 247.975 128.205 300.487 105.288 366.461C96.6917 391.207 92.7866 419.115 93.451 448.108C94.4532 491.754 105.815 537.867 127.125 579.362L128.511 579.806Z" fill="white"/>
</mask>
<g mask="url(#mask18_1573_479)">
<path d="M-212.132 76.018L243.369 222.4L128.511 579.806L-326.99 433.423L-212.132 76.018Z" fill="white" fill-opacity="0.2"/>
</g>
<mask id="mask19_1573_479" style="mask-type:luminance" maskUnits="userSpaceOnUse" x="-214" y="80" width="344" height="494">
<path d="M108.944 573.518C93.2557 535.333 85.5533 494.385 85.9643 455.662C86.2708 426.784 91.088 399.143 100.466 374.813C125.684 309.389 138.883 257.061 120.718 221.486C102.553 185.911 53.055 167.183 -47.0612 169.077C-91.7191 169.927 -128.3 158.447 -157.482 139.076C-180.698 123.662 -199.233 103.248 -213.428 80.0497L-213.844 81.3453C-199.636 104.351 -181.151 124.607 -158.055 139.938C-128.71 159.421 -91.9292 170.962 -47.0495 170.113C52.6067 168.227 101.812 186.739 119.797 221.958C137.782 257.177 124.623 309.275 99.5006 374.444C90.0778 398.888 85.2387 426.65 84.9317 455.647C84.5221 494.234 92.1391 535.018 107.658 573.103L108.944 573.518Z" fill="white"/>
</mask>
<g mask="url(#mask19_1573_479)">
<path d="M-213.427 80.0448L222.508 220.139L108.945 573.516L-326.99 433.421L-213.427 80.0448Z" fill="white" fill-opacity="0.2"/>
</g>
<mask id="mask20_1573_479" style="mask-type:luminance" maskUnits="userSpaceOnUse" x="-212" y="73" width="340" height="496">
<path d="M91.8055 568.01C80.8116 533.456 76.0772 497.426 77.5834 463.331C78.8622 434.48 84.6015 407.019 94.7897 383.017C122.189 318.474 137.138 266.618 120.178 230.454C103.218 194.29 54.375 173.913 -45.7535 172.445C-90.4117 171.789 -126.59 159.094 -155.103 138.753C-179.132 121.611 -197.724 99.0308 -211.37 73.6459L-211.808 75.0111C-198.136 100.171 -179.597 122.547 -155.699 139.59C-127.024 160.047 -90.6516 172.814 -45.7688 173.473C53.8944 174.94 102.443 195.087 119.243 230.89C136.043 266.694 121.131 318.323 93.8373 382.61C83.6003 406.725 77.8307 434.31 76.5509 463.282C75.0496 497.263 79.7231 533.161 90.5989 567.619L91.8055 568.01Z" fill="white"/>
</mask>
<g mask="url(#mask20_1573_479)">
<path d="M-211.37 73.6459L207.426 208.232L91.8055 568.01L-326.99 433.423L-211.37 73.6459Z" fill="white" fill-opacity="0.2"/>
</g>
<mask id="mask21_1573_479" style="mask-type:luminance" maskUnits="userSpaceOnUse" x="-210" y="66" width="336" height="498">
<path d="M76.6698 563.146C69.4311 532.348 67.0174 500.903 69.3396 471.102C71.5821 442.309 78.2423 415.054 89.2314 391.408C118.78 327.824 135.46 276.496 119.723 239.781C103.985 203.065 55.8549 181.062 -44.1646 176.236C-88.7771 174.083 -124.509 160.18 -152.323 138.893C-177.438 119.677 -196.11 94.4404 -209.035 66.3817L-209.5 67.8278C-196.52 95.6221 -177.902 120.624 -152.952 139.719C-124.98 161.127 -89.0562 175.108 -44.2199 177.271C55.3392 182.076 103.189 203.846 118.771 240.192C134.353 276.539 117.726 327.638 88.2924 390.975C77.2513 414.734 70.5593 442.108 68.3077 471.021C65.9934 500.729 68.3683 532.066 75.5235 562.778L76.6698 563.146Z" fill="white"/>
</mask>
<g mask="url(#mask21_1573_479)">
<path d="M-209.034 66.3816L194.625 196.104L76.6703 563.146L-326.989 433.424L-209.034 66.3816Z" fill="white" fill-opacity="0.2"/>
</g>
<mask id="mask22_1573_479" style="mask-type:luminance" maskUnits="userSpaceOnUse" x="-207" y="57" width="332" height="502">
<path d="M63.2443 558.831C58.979 531.85 58.34 504.734 61.2207 478.974C64.4278 450.272 71.9985 423.257 83.7741 399.992C115.441 337.434 133.834 286.697 119.337 249.477C104.84 212.257 57.4747 188.647 -42.3243 180.468C-86.8388 176.82 -122.085 161.732 -149.167 139.517C-175.674 117.782 -194.374 89.2228 -206.308 57.9046L-206.812 59.4757C-194.799 90.4826 -176.137 118.74 -149.822 140.324C-122.583 162.658 -87.15 177.837 -42.4112 181.504C56.9311 189.646 104.023 213.008 118.376 249.858C132.729 286.707 114.392 337.211 82.8531 399.527C71.0217 422.902 63.4159 450.037 60.1941 478.857C57.323 504.543 57.936 531.575 62.1433 558.473L63.2443 558.831Z" fill="white"/>
</mask>
<g mask="url(#mask22_1573_479)">
<path d="M-206.31 57.9037L183.924 183.312L63.2443 558.831L-326.99 433.424L-206.31 57.9037Z" fill="white" fill-opacity="0.2"/>
</g>
<mask id="mask23_1573_479" style="mask-type:luminance" maskUnits="userSpaceOnUse" x="-204" y="47" width="328" height="509">
<path d="M51.3344 555.004C49.3676 531.863 50.0315 508.87 53.2279 486.951C57.3961 458.375 65.871 431.628 78.4225 408.772C112.169 347.313 132.254 297.222 119.016 259.536C105.779 221.849 59.2316 196.664 -40.2398 185.139C-84.6085 179.999 -119.327 163.732 -145.649 140.627C-173.781 115.938 -192.336 83.4301 -202.846 48.3456L-203.033 47.7149L-203.59 49.448C-192.984 84.4002 -174.4 116.767 -146.33 141.404C-119.855 164.644 -84.9511 181.001 -40.3617 186.167C58.6518 197.639 104.934 222.57 118.042 259.879C131.15 297.189 111.134 347.057 77.5159 408.282C64.9062 431.246 56.3934 458.111 52.2072 486.807C49.0182 508.664 48.3411 531.59 50.27 554.673L51.3344 555.004Z" fill="white"/>
</mask>
<g mask="url(#mask23_1573_479)">
<path d="M-203.036 47.713L175.289 169.293L51.3347 555.003L-326.989 433.423L-203.036 47.713Z" fill="white" fill-opacity="0.2"/>
</g>
<mask id="mask24_1573_479" style="mask-type:luminance" maskUnits="userSpaceOnUse" x="-200" y="34" width="323" height="518">
<path d="M40.808 551.621C40.5299 532.311 42.0709 513.271 45.3558 495.041C50.4812 466.622 59.8526 440.177 73.1589 417.752C108.949 357.459 130.706 308.07 118.737 269.962C106.768 231.854 61.0952 205.12 -37.9351 190.262C-82.1038 183.636 -116.256 166.213 -141.791 142.235C-169.076 116.616 -186.53 83.5047 -195.854 48.0913C-197 43.737 -198.024 39.3523 -198.927 34.9372L-199.566 36.9259C-198.751 40.7569 -197.846 44.5651 -196.851 48.3507C-187.477 83.9463 -169.931 117.228 -142.493 142.991C-116.813 167.102 -82.4777 184.624 -38.085 191.284C60.4882 206.072 105.906 232.542 117.754 270.27C129.602 307.998 107.924 357.167 72.2742 417.224C58.9019 439.751 49.4899 466.322 44.3477 494.857C41.0695 513.041 39.5203 532.029 39.7771 551.288L40.808 551.621Z" fill="white"/>
</mask>
<g mask="url(#mask24_1573_479)">
<path d="M-198.93 34.937L179.41 156.522L51.3495 555.01L-326.99 433.424L-198.93 34.937Z" fill="white" fill-opacity="0.2"/>
</g>
<mask id="mask25_1573_479" style="mask-type:luminance" maskUnits="userSpaceOnUse" x="-195" y="17" width="317" height="532">
<path d="M31.5674 548.652C32.3906 533.382 34.4093 518.201 37.6049 503.247C43.6827 475.015 53.9316 448.897 67.9875 426.934C105.774 367.874 129.18 319.246 118.498 280.756C107.817 242.266 63.0647 214.017 -35.4102 195.845C-79.3306 187.74 -112.882 169.179 -137.594 144.357C-164.004 117.835 -180.337 84.1579 -188.47 48.447C-190.757 38.3623 -192.417 28.1457 -193.441 17.8557L-194.223 20.2891C-193.187 29.8345 -191.603 39.3124 -189.48 48.676C-181.305 84.5648 -164.884 118.417 -138.327 145.087C-113.471 170.046 -79.7443 188.71 -35.5984 196.855C62.4221 214.943 106.929 242.922 117.505 281.028C128.082 319.133 104.762 367.546 67.1161 426.374C52.9956 448.44 42.7004 474.672 36.5965 503.025C33.4084 517.944 31.3878 533.088 30.5531 548.321L31.5674 548.652Z" fill="white"/>
</mask>
<g mask="url(#mask25_1573_479)">
<path d="M-193.44 17.8553L186.77 140.042L53.2208 555.61L-326.99 433.423L-193.44 17.8553Z" fill="white" fill-opacity="0.2"/>
</g>
</svg>
