<svg width="660" height="460" viewBox="0 0 660 460" fill="none" xmlns="http://www.w3.org/2000/svg">
<mask id="mask0_1618_788" style="mask-type:luminance" maskUnits="userSpaceOnUse" x="-63" y="109" width="714" height="406">
<path d="M650.862 505.439C618.821 489.127 578.52 487.959 517.307 505.548C493.863 512.284 471.423 514.395 450.274 512.753C405.426 509.271 366.366 488.909 335.806 459.978C305.246 431.048 283.171 393.528 272.318 355.758C266.161 334.332 263.615 312.823 265.173 292.754C269.363 238.786 267.559 197.161 246.255 174.861C224.952 152.562 184.204 149.655 110.564 173.187C77.7223 183.684 48.1263 183.283 22.2605 175.403C-5.38277 166.987 -28.7719 150.02 -47.3263 128.684C-52.6259 122.577 -57.5377 116.145 -62.0327 109.424L-62.5485 110.091C-58.0758 116.761 -53.1934 123.147 -47.9296 129.212C-29.2844 150.654 -5.7652 167.707 22.0255 176.172C48.0383 184.097 77.7978 184.499 110.805 173.952C184.105 150.529 224.591 153.347 245.674 175.418C266.757 197.489 268.544 238.937 264.37 292.692C262.805 312.858 265.363 334.463 271.545 355.98C282.435 393.88 304.576 431.52 335.252 460.561C365.929 489.602 405.165 510.056 450.207 513.552C471.447 515.201 493.982 513.081 517.524 506.317C578.343 488.842 618.441 489.966 650.323 506.127L650.862 505.439Z" fill="white"/>
</mask>
<g mask="url(#mask0_1618_788)">
<path d="M24.4842 -2.45569L662.247 490.719L551.903 633.413L-85.8593 140.238L24.4842 -2.45569Z" fill="white" fill-opacity="0.15"/>
</g>
<mask id="mask1_1618_788" style="mask-type:luminance" maskUnits="userSpaceOnUse" x="-61" y="106" width="700" height="417">
<path d="M638.395 521.561C606.509 502.775 565.739 499.63 502.146 515.613C478.488 521.561 455.99 522.918 434.907 520.567C390.202 515.582 351.849 493.92 322.277 463.982C292.704 434.043 271.905 395.803 262.322 357.689C256.888 336.067 255.063 314.483 257.295 294.479C263.293 240.683 262.887 199.022 242.345 176.021C221.803 153.02 181.169 148.741 106.79 169.795C73.6118 179.182 44.0478 177.791 18.4615 169.047C-8.88125 159.705 -31.6917 141.965 -49.519 120.017C-53.0954 115.615 -56.4695 111.054 -59.6412 106.336L-60.1556 107.001C-57.0139 111.652 -53.6751 116.158 -50.1393 120.521C-32.2236 142.578 -9.29322 160.407 18.1972 169.799C43.9311 178.593 73.6549 179.994 107.002 170.561C181.045 149.608 221.413 153.781 241.749 176.552C262.085 199.324 262.474 240.803 256.5 294.39C254.257 314.49 256.084 336.166 261.546 357.882C271.158 396.125 292.024 434.488 321.707 464.541C351.39 494.595 389.916 516.353 434.817 521.36C455.995 523.724 478.584 522.359 502.339 516.389C565.549 500.501 606.125 503.599 637.86 522.25L638.395 521.561Z" fill="white"/>
</mask>
<g mask="url(#mask1_1618_788)">
<path d="M23.086 -0.649045L660.849 492.525L544.046 643.572L-93.717 150.398L23.086 -0.649045Z" fill="white" fill-opacity="0.15"/>
</g>
<mask id="mask2_1618_788" style="mask-type:luminance" maskUnits="userSpaceOnUse" x="-58" y="103" width="684" height="436">
<path d="M625.708 537.968C594.09 516.512 552.934 511.271 486.837 525.545C462.992 530.694 440.457 531.291 419.471 528.238C374.958 521.757 337.353 498.819 308.801 467.903C280.25 436.988 260.74 398.07 252.446 359.658C247.745 337.869 246.642 316.234 249.542 296.316C257.343 242.751 258.334 201.099 238.578 177.423C218.822 153.747 178.355 148.109 103.305 166.649C69.8282 174.917 40.3289 172.536 15.0516 162.939C-11.9618 152.68 -34.1629 134.19 -51.2448 111.654C-53.325 108.91 -55.3291 106.108 -57.2571 103.248L-57.7714 103.913C-55.8803 106.707 -53.9167 109.449 -51.8807 112.139C-34.716 134.783 -12.3973 153.371 14.7702 163.68C40.1951 173.333 69.855 175.737 103.496 167.425C178.197 148.968 218.402 154.497 237.966 177.934C257.529 201.371 256.525 242.847 248.754 296.201C245.84 316.215 246.942 337.944 251.667 359.827C259.991 398.372 279.558 437.415 308.215 468.445C336.873 499.474 374.645 522.515 419.356 529.027C440.44 532.098 463.067 531.494 487.007 526.324C552.734 512.13 593.704 517.333 625.183 538.65L625.708 537.968Z" fill="white"/>
</mask>
<g mask="url(#mask2_1618_788)">
<path d="M21.6182 1.24793L659.381 494.422L536.249 653.653L-101.513 160.479L21.6182 1.24793Z" fill="white" fill-opacity="0.15"/>
</g>
<mask id="mask3_1618_788" style="mask-type:luminance" maskUnits="userSpaceOnUse" x="-56" y="100" width="669" height="456">
<path d="M612.78 554.687C581.552 530.361 540.113 522.889 471.382 535.333C447.379 539.679 424.841 539.524 403.963 535.765C359.691 527.792 322.876 503.607 295.382 471.75C267.887 439.892 249.69 400.343 242.692 361.675C238.721 339.739 238.349 318.083 241.92 298.274C251.515 245.004 253.902 203.408 234.949 179.08C215.995 154.752 175.744 147.762 100.113 163.773C66.3828 170.915 36.9777 167.542 12.035 157.102C-14.6209 145.945 -36.1896 126.717 -52.5035 103.625C-53.3078 102.485 -54.0992 101.337 -54.8778 100.18L-55.3921 100.845C-54.6575 101.932 -53.9118 103.012 -53.155 104.085C-36.759 127.293 -15.0765 146.621 11.7217 157.837C36.8038 168.334 66.3729 171.73 100.277 164.552C175.558 148.614 215.554 155.484 234.317 179.567C253.08 203.65 250.684 245.065 241.126 298.132C237.542 318.036 237.915 339.79 241.904 361.821C248.932 400.621 267.176 440.299 294.779 472.273C322.382 504.248 359.357 528.544 403.821 536.551C424.789 540.327 447.423 540.483 471.524 536.119C539.898 523.739 581.153 531.17 612.255 555.366L612.78 554.687Z" fill="white"/>
</mask>
<g mask="url(#mask3_1618_788)">
<path d="M20.0757 3.24451L657.838 496.419L528.517 663.655L-109.246 170.48L20.0757 3.24451Z" fill="white" fill-opacity="0.15"/>
</g>
<mask id="mask4_1618_788" style="mask-type:luminance" maskUnits="userSpaceOnUse" x="-54" y="97" width="654" height="476">
<path d="M599.579 571.758C568.881 544.338 527.29 534.496 455.785 544.979C431.646 548.514 409.127 547.606 388.39 543.148C344.414 533.695 308.432 508.287 282.019 475.525C255.606 442.762 238.751 402.627 233.051 363.746C229.818 341.685 230.172 320.029 234.403 300.35C245.778 247.429 249.562 205.938 231.439 180.986C213.315 156.035 173.322 147.694 97.1943 161.164C63.2405 167.173 33.9639 162.815 9.38517 151.546C-16.4345 139.705 -37.0801 120.234 -52.5266 97.1312L-53.0417 97.7974C-37.5346 120.918 -16.8297 140.403 9.04914 152.271C33.7723 163.609 63.2047 167.991 97.3291 161.956C173.103 148.552 212.847 156.76 230.792 181.461C248.736 206.162 244.954 247.471 233.622 300.185C229.372 319.96 229.013 341.713 232.26 363.863C237.98 402.881 254.883 443.147 281.395 476.03C307.907 508.912 344.049 534.433 388.22 543.929C409.05 548.408 431.665 549.322 455.9 545.771C527.064 535.337 568.481 545.139 599.053 572.437L599.579 571.758Z" fill="white"/>
</mask>
<g mask="url(#mask4_1618_788)">
<path d="M18.4478 5.34851L656.21 498.523L520.844 673.575L-116.918 180.401L18.4478 5.34851Z" fill="white" fill-opacity="0.15"/>
</g>
<mask id="mask5_1618_788" style="mask-type:luminance" maskUnits="userSpaceOnUse" x="-51" y="94" width="638" height="496">
<path d="M586.063 589.237C556.06 558.478 514.479 546.105 440.054 554.475C415.814 557.2 393.336 555.535 372.76 550.383C329.123 539.459 294.014 512.859 268.715 479.229C243.417 445.6 227.919 404.92 223.527 365.868C221.036 343.713 222.117 322.081 227.005 302.556C240.147 250.041 245.322 208.702 228.048 183.163C210.774 157.623 171.078 147.943 94.5419 158.846C60.4078 163.707 31.2943 158.37 7.11098 146.278C-16.7419 134.354 -35.8123 115.861 -50.1882 94.1057L-50.7054 94.7746C-36.2732 116.54 -17.1508 135.041 6.75307 146.991C31.0784 159.148 60.3488 164.518 94.6565 159.633C170.836 148.78 210.281 158.319 227.386 183.607C244.49 208.895 239.326 250.054 226.233 302.358C221.318 321.983 220.231 343.712 222.734 365.958C227.141 405.143 242.685 445.954 268.079 479.71C293.473 513.466 328.737 540.184 372.566 551.157C393.234 556.332 415.807 558.006 440.146 555.27C514.237 546.933 555.649 559.267 585.538 589.916L586.063 589.237Z" fill="white"/>
</mask>
<g mask="url(#mask5_1618_788)">
<path d="M16.7329 7.56629L654.496 500.741L513.238 683.412L-124.525 190.238L16.7329 7.56629Z" fill="white" fill-opacity="0.15"/>
</g>
<mask id="mask6_1618_788" style="mask-type:luminance" maskUnits="userSpaceOnUse" x="-49" y="91" width="622" height="517">
<path d="M572.2 607.164C543.075 572.791 501.695 557.728 424.192 563.818C399.874 565.73 377.465 563.31 357.072 557.471C313.827 545.089 279.633 517.327 255.474 482.865C231.314 448.403 217.193 407.228 214.115 368.052C212.371 345.828 214.175 324.243 219.712 304.889C234.616 252.851 241.17 211.704 224.762 185.597C208.353 159.49 169.005 148.486 92.1478 156.814C57.8689 160.53 28.9502 154.218 5.18426 141.324C-16.8862 129.353 -34.52 111.698 -47.8897 91.1276L-48.4062 91.7955C-34.982 112.369 -17.3063 130.03 4.80252 142.024C28.7033 154.991 57.7798 161.342 92.2329 157.608C168.734 149.318 207.838 160.175 224.084 186.021C240.341 211.885 233.788 252.834 218.947 304.667C213.377 324.11 211.563 345.792 213.318 368.111C216.408 407.425 230.571 448.733 254.818 483.322C279.064 517.911 313.415 545.802 356.851 558.236C377.332 564.101 399.836 566.532 424.254 564.613C501.44 558.547 542.653 573.571 571.67 607.849L572.2 607.164Z" fill="white"/>
</mask>
<g mask="url(#mask6_1618_788)">
<path d="M14.9241 9.90564L652.687 503.08L505.056 693.993L-132.706 200.818L14.9241 9.90564Z" fill="white" fill-opacity="0.15"/>
</g>
<mask id="mask7_1618_788" style="mask-type:luminance" maskUnits="userSpaceOnUse" x="-47" y="88" width="605" height="539">
<path d="M557.952 625.589C529.914 587.29 488.954 569.377 408.203 573.001C383.832 574.095 361.517 570.926 341.333 564.406C298.53 550.581 265.281 521.686 242.295 486.437C219.308 451.189 206.576 409.556 204.816 370.298C203.816 348.025 206.347 326.515 212.532 307.361C229.17 255.851 237.106 214.949 221.581 188.305C206.055 161.661 167.1 149.344 90.0061 155.088C55.6215 157.65 26.9316 150.372 3.61429 136.691C-16.8455 124.684 -33.1801 107.744 -45.6085 88.1898L-46.1279 88.8613C-33.6517 108.411 -17.2816 125.352 3.21019 137.377C26.6633 151.145 55.5145 158.457 90.068 155.887C166.802 150.167 205.519 162.329 220.886 188.706C236.254 215.082 228.343 255.805 211.77 307.111C205.552 326.36 203.01 347.967 204.014 370.33C205.781 409.723 218.559 451.484 241.628 486.87C264.697 522.257 298.092 551.281 341.088 565.163C361.362 571.71 383.773 574.896 408.237 573.797C488.683 570.185 529.482 588.065 557.416 626.281L557.952 625.589Z" fill="white"/>
</mask>
<g mask="url(#mask7_1618_788)">
<path d="M13.014 12.3763L650.777 505.551L496.673 704.835L-141.09 211.66L13.014 12.3763Z" fill="white" fill-opacity="0.15"/>
</g>
<mask id="mask8_1618_788" style="mask-type:luminance" maskUnits="userSpaceOnUse" x="-44" y="85" width="588" height="561">
<path d="M543.251 644.601C516.531 602.033 476.278 581.076 392.095 582.027C367.707 582.306 345.508 578.386 325.549 571.194C283.229 555.942 250.974 525.944 229.185 489.942C207.396 453.94 196.062 411.908 195.62 372.612C195.368 350.319 198.619 328.906 205.446 309.97C223.803 259.048 233.107 218.436 218.485 191.286C203.862 164.137 165.342 150.518 88.1003 153.673C53.6501 155.08 25.2215 146.841 2.37169 132.383C-16.6539 120.343 -31.815 103.987 -43.3686 85.2895L-43.8886 85.962C-32.2951 104.651 -17.1016 121.003 1.94679 133.055C24.9222 147.595 53.5079 155.881 88.1344 154.467C165.019 151.328 203.307 164.783 217.784 191.662C232.26 218.54 222.982 258.974 204.7 309.699C197.837 328.725 194.575 350.229 194.826 372.619C195.272 412.049 206.633 454.217 228.504 490.352C250.375 526.487 282.777 556.62 325.28 571.941C345.321 579.166 367.613 583.102 392.103 582.824C476.002 581.879 516.087 602.802 542.707 645.304L543.251 644.601Z" fill="white"/>
</mask>
<g mask="url(#mask8_1618_788)">
<path d="M10.9971 14.9847L648.76 508.159L488.356 715.59L-149.407 222.416L10.9971 14.9847Z" fill="white" fill-opacity="0.15"/>
</g>
<mask id="mask9_1618_788" style="mask-type:luminance" maskUnits="userSpaceOnUse" x="-42" y="82" width="571" height="583">
<path d="M528.054 664.253C502.913 617.017 463.684 592.838 375.87 590.884C351.485 590.341 329.432 585.681 309.729 577.821C267.948 561.154 236.713 530.096 216.145 493.383C195.577 456.67 185.662 414.28 186.537 374.992C187.034 352.704 191.001 331.411 198.459 312.716C218.515 262.437 229.175 222.162 215.474 194.531C201.773 166.9 163.73 152.004 86.4267 152.564C51.9477 152.814 23.8112 143.629 1.46104 128.41C-16.2965 116.32 -30.406 100.419 -41.1479 82.4172L-41.6722 83.0952C-30.8945 101.081 -16.7585 116.971 1.01074 129.07C23.4886 144.375 51.779 153.614 86.432 153.363C163.38 152.805 201.194 167.538 214.76 194.888C228.326 222.237 217.696 262.335 197.719 312.414C190.226 331.199 186.24 352.588 185.745 374.975C184.866 414.399 194.808 456.922 215.454 493.772C236.1 530.621 267.473 561.824 309.437 578.563C329.225 586.456 351.37 591.136 375.86 591.682C463.398 593.632 502.451 617.786 527.504 664.971L528.054 664.253Z" fill="white"/>
</mask>
<g mask="url(#mask9_1618_788)">
<path d="M8.87138 17.7338L646.634 510.908L480.109 726.255L-157.654 233.081L8.87138 17.7338Z" fill="white" fill-opacity="0.15"/>
</g>
<mask id="mask10_1618_788" style="mask-type:luminance" maskUnits="userSpaceOnUse" x="-40" y="79" width="553" height="607">
<path d="M512.276 684.657C489.002 632.295 451.196 604.696 359.537 599.573C335.182 598.213 313.3 592.814 293.87 584.296C252.671 566.237 222.499 534.147 203.173 496.765C183.848 459.384 175.363 416.684 177.555 377.448C178.799 355.191 183.478 334.043 191.56 315.606C213.295 266.032 225.298 226.134 212.53 198.064C199.761 169.993 162.243 153.823 84.9624 151.79C50.494 150.883 22.681 140.759 0.855993 124.8C-15.7939 112.625 -28.9672 97.0519 -38.9584 79.5859L-39.484 80.2656C-29.4598 97.7077 -16.2685 113.261 0.38578 125.438C22.3382 141.489 50.302 151.674 84.9443 152.585C161.865 154.608 199.165 170.602 211.806 198.392C224.446 226.182 212.478 265.901 190.831 315.282C182.712 333.805 178.011 355.047 176.762 377.403C174.563 416.777 183.068 459.608 202.467 497.131C221.866 534.653 252.173 566.887 293.55 585.026C313.061 593.581 335.037 599.002 359.496 600.366C450.894 605.478 488.522 633.059 511.704 685.396L512.276 684.657Z" fill="white"/>
</mask>
<g mask="url(#mask10_1618_788)">
<path d="M6.62723 20.6361L644.39 513.811L471.932 736.829L-165.831 243.655L6.62723 20.6361Z" fill="white" fill-opacity="0.15"/>
</g>
<mask id="mask11_1618_788" style="mask-type:luminance" maskUnits="userSpaceOnUse" x="-38" y="76" width="534" height="631">
<path d="M495.837 705.914C474.738 647.898 438.841 616.669 343.101 608.087C318.807 605.91 297.117 599.78 277.982 590.614C237.412 571.182 208.332 538.097 190.272 500.088C172.212 462.079 165.168 419.122 168.675 379.981C170.661 357.782 176.051 336.798 184.747 318.643C208.131 269.824 221.469 230.353 209.65 201.871C197.832 173.389 160.875 155.968 83.7067 151.341C49.2883 149.278 21.8311 138.225 0.548925 121.546C-15.1473 109.24 -27.488 93.8651 -36.7843 76.7733L-37.3191 77.4649C-27.9919 94.5223 -15.6358 109.87 0.058569 122.175C21.4609 138.952 49.0658 150.068 83.6571 152.142C160.467 156.747 197.206 173.986 208.909 202.18C220.612 230.375 207.314 269.676 184.024 318.3C175.288 336.54 169.878 357.612 167.878 379.912C164.357 419.189 171.423 462.285 189.552 500.438C207.68 538.59 236.887 571.823 277.635 591.339C296.848 600.543 318.629 606.697 343.026 608.884C438.527 617.44 474.243 648.659 495.247 706.678L495.837 705.914Z" fill="white"/>
</mask>
<g mask="url(#mask11_1618_788)">
<path d="M4.262 23.6937L642.025 516.868L463.828 747.308L-173.934 254.133L4.262 23.6937Z" fill="white" fill-opacity="0.15"/>
</g>
<mask id="mask12_1618_788" style="mask-type:luminance" maskUnits="userSpaceOnUse" x="-36" y="73" width="515" height="656">
<path d="M478.645 728.147C460.067 663.858 426.645 628.794 326.567 616.425C302.357 613.43 280.884 606.582 262.072 596.781C222.179 576 194.226 541.956 177.451 503.361C160.676 464.765 155.074 421.596 159.893 382.594C162.628 360.467 168.716 339.68 178.014 321.83C203.023 273.823 217.678 234.823 206.822 205.961C195.965 177.099 159.615 158.445 82.6461 151.233C48.3166 148.015 21.245 136.047 0.537317 118.66C-14.3557 106.155 -25.9608 90.8435 -34.6123 73.9649L-35.1514 74.662C-26.4734 91.4969 -14.8561 106.775 0.0260454 119.272C20.8523 136.759 48.069 148.795 82.5713 152.028C159.185 159.208 195.327 177.666 206.075 206.241C216.823 234.816 202.218 273.643 177.307 321.462C167.963 339.4 161.85 360.281 159.102 382.496C154.265 421.633 159.882 464.937 176.718 503.681C193.554 542.426 221.634 576.612 261.703 597.488C280.595 607.328 302.163 614.213 326.468 617.218C426.318 629.558 459.543 664.626 478.026 728.948L478.645 728.147Z" fill="white"/>
</mask>
<g mask="url(#mask12_1618_788)">
<path d="M1.77006 26.9174L639.533 520.092L455.8 757.691L-181.963 264.517L1.77006 26.9174Z" fill="white" fill-opacity="0.15"/>
</g>
<mask id="mask13_1618_788" style="mask-type:luminance" maskUnits="userSpaceOnUse" x="-33" y="71" width="494" height="682">
<path d="M460.575 751.514C444.886 680.231 414.63 641.108 309.94 624.584C285.844 620.781 264.615 613.211 246.142 602.786C206.967 580.676 180.173 545.714 164.702 506.579C149.232 467.443 145.083 424.11 151.209 385.293C154.683 363.271 161.467 342.698 171.358 325.172C197.962 278.034 213.921 239.543 204.038 210.332C194.155 181.12 158.452 161.261 81.7686 151.469C47.5664 147.101 20.9131 134.231 0.799187 116.157C-13.4301 103.371 -24.3881 87.9767 -32.4332 71.1463L-32.9807 71.8543C-24.9084 88.6345 -13.943 103.984 0.266964 116.753C20.4939 134.928 47.288 147.872 81.6669 152.26C158 162.009 193.499 181.668 203.285 210.591C213.072 239.515 197.164 277.822 170.668 324.78C160.72 342.397 153.911 363.051 150.419 385.169C144.269 424.117 148.435 467.588 163.961 506.875C179.487 546.161 206.401 581.274 245.747 603.48C264.299 613.95 285.621 621.554 309.815 625.373C414.291 641.865 444.33 680.99 459.93 752.348L460.575 751.514Z" fill="white"/>
</mask>
<g mask="url(#mask13_1618_788)">
<path d="M-0.853967 30.3095L636.909 523.484L447.845 767.978L-189.918 274.803L-0.853967 30.3095Z" fill="white" fill-opacity="0.15"/>
</g>
<mask id="mask14_1618_788" style="mask-type:luminance" maskUnits="userSpaceOnUse" x="-31" y="68" width="472" height="701">
<path d="M189.917 574.844C173.014 555.723 160.481 533.412 152.033 509.749C137.88 470.103 135.191 426.667 142.616 388.078C146.828 366.184 154.298 345.856 164.773 328.665C192.942 282.447 210.187 244.517 201.287 214.987C192.387 185.458 157.375 164.415 81.0608 152.055C47.0275 146.542 20.8191 132.785 1.32315 114.047C-12.3759 100.88 -22.7628 85.2516 -30.2272 68.2935L-30.7831 69.0125C-23.2906 85.9079 -12.8986 101.481 0.771167 114.623C20.3775 133.467 46.7246 147.301 80.9348 152.843C156.895 165.146 191.716 185.986 200.522 215.219C209.329 244.452 192.153 282.21 164.09 328.248C153.564 345.519 146.062 365.94 141.835 387.921C134.383 426.645 137.081 470.232 151.282 510.013C159.326 532.542 171.061 553.855 186.731 572.372L189.917 574.844ZM440.231 768.409C427.262 694.165 399.193 652.948 293.228 632.559C274.468 628.95 257.541 623.089 242.381 615.414L245.553 617.867C259.86 624.723 275.684 629.997 293.075 633.343C398.094 653.552 426.281 694.327 439.283 767.676L440.231 768.409Z" fill="white"/>
</mask>
<g mask="url(#mask14_1618_788)">
<path d="M-3.61587 33.8799L629.589 523.53L440.228 768.407L-192.977 278.757L-3.61587 33.8799Z" fill="white" fill-opacity="0.15"/>
</g>
<mask id="mask15_1618_788" style="mask-type:luminance" maskUnits="userSpaceOnUse" x="-29" y="65" width="441" height="682">
<path d="M153.594 546.755C147.896 535.896 143.161 524.558 139.443 512.871C126.63 472.775 125.399 429.27 134.115 390.951C139.06 369.213 147.206 349.143 158.253 332.317C187.96 287.067 206.461 249.737 198.565 219.929C190.669 190.122 156.374 167.912 80.5208 152.999C46.6887 146.349 20.9574 131.718 2.10183 112.337C-11.1965 98.6691 -21.0775 82.6366 -27.969 65.3746L-28.5327 66.1035C-21.6083 83.2949 -11.7294 99.2602 1.53037 112.889C20.4919 132.38 46.3605 147.09 80.3647 153.775C155.867 168.622 189.971 190.619 197.792 220.131C205.614 249.643 187.18 286.801 157.588 331.874C146.488 348.782 138.305 368.939 133.34 390.769C124.593 429.221 125.828 472.875 138.686 513.11C142.244 524.289 146.726 535.152 152.088 545.586L153.594 546.755ZM411.974 746.557C397.332 692.949 364.224 660.318 276.44 640.351C275.571 640.153 274.707 639.952 273.849 639.747L275.377 640.928L276.265 641.133C362.99 660.859 396.123 693.026 410.882 745.712L411.974 746.557Z" fill="white"/>
</mask>
<g mask="url(#mask15_1618_788)">
<path d="M-6.5169 37.6324L598.432 505.433L411.973 746.557L-192.976 278.757L-6.5169 37.6324Z" fill="white" fill-opacity="0.15"/>
</g>
<mask id="mask16_1618_788" style="mask-type:luminance" maskUnits="userSpaceOnUse" x="-27" y="62" width="403" height="657">
<path d="M131.24 529.469C129.654 525.008 128.218 520.499 126.93 515.944C115.47 475.439 115.699 431.918 125.696 393.914C131.368 372.354 140.182 352.569 151.788 336.122C182.997 291.894 202.741 255.207 195.846 225.15C188.951 195.093 155.424 171.746 80.1136 154.294C46.5258 146.51 21.3004 131.026 3.10506 111.022C-9.90307 96.7212 -19.3188 80.1078 -25.6331 62.3442L-26.213 63.0941C-19.867 80.7716 -10.4506 97.3069 2.51378 111.561C20.8099 131.679 46.1723 147.246 79.9328 155.07C154.896 172.44 188.238 195.574 195.072 225.322C201.906 255.069 182.229 291.611 151.141 335.666C139.48 352.191 130.624 372.063 124.929 393.714C114.898 431.851 114.669 475.524 126.167 516.165C127.347 520.336 128.653 524.473 130.083 528.575L131.24 529.469ZM375.905 718.666C361.816 695.011 339.204 676.569 302.388 661.816L304.751 663.644C338.78 677.726 360.25 695.15 373.989 717.184L375.905 718.666Z" fill="white"/>
</mask>
<g mask="url(#mask16_1618_788)">
<path d="M-9.56377 41.5734L559.319 481.484L375.908 718.668L-192.975 278.757L-9.56377 41.5734Z" fill="white" fill-opacity="0.15"/>
</g>
<mask id="mask17_1618_788" style="mask-type:luminance" maskUnits="userSpaceOnUse" x="-24" y="59" width="219" height="457">
<path d="M113.79 515.975C104.503 475.987 106.378 433.706 117.368 396.982C123.761 375.623 133.235 356.145 145.386 340.097C178.062 296.942 199.026 260.939 193.143 230.666C187.259 200.394 154.536 175.935 79.8544 155.966C46.5435 147.06 21.8523 130.738 4.33838 110.135C-8.49493 95.0378 -17.4767 77.6374 -23.1731 59.1706L-23.7714 59.9443C-18.0359 78.3116 -9.05462 95.6185 3.72931 110.657C21.3421 131.379 46.1638 147.79 79.6414 156.74C153.981 176.618 186.533 200.853 192.356 230.823C198.18 260.792 177.294 296.633 144.747 339.619C132.538 355.743 123.021 375.307 116.602 396.756C105.658 433.317 103.72 475.367 112.786 515.207L113.79 515.975Z" fill="white"/>
</mask>
<g mask="url(#mask17_1618_788)">
<path d="M-12.7608 45.7083L294.004 282.926L113.791 515.975L-192.975 278.757L-12.7608 45.7083Z" fill="white" fill-opacity="0.15"/>
</g>
<mask id="mask18_1618_788" style="mask-type:luminance" maskUnits="userSpaceOnUse" x="-22" y="55" width="214" height="450">
<path d="M99.2128 504.702C94.5041 468.849 98.3353 432.211 109.119 400.143C116.225 379.011 126.347 359.861 139.031 344.229C173.136 302.195 195.295 266.914 190.429 236.469C185.562 206.024 153.68 180.472 79.7137 158.011C46.7219 147.992 22.5902 130.85 5.77969 109.673C-6.98586 93.5902 -15.5357 75.1754 -20.5454 55.7792L-21.1605 56.5747C-16.1035 75.8532 -7.55518 94.1532 5.15612 110.165C22.0628 131.465 46.3244 148.699 79.4815 158.771C153.111 181.131 184.83 206.445 189.645 236.593C194.461 266.741 172.384 301.862 138.413 343.732C125.671 359.436 115.503 378.669 108.367 399.89C97.6263 431.836 93.7575 468.295 98.3236 504.016L99.2128 504.702Z" fill="white"/>
</mask>
<g mask="url(#mask18_1618_788)">
<path d="M-15.6895 49.4941L276.499 275.44L99.2121 504.703L-192.976 278.757L-15.6895 49.4941Z" fill="white" fill-opacity="0.15"/>
</g>
<mask id="mask19_1618_788" style="mask-type:luminance" maskUnits="userSpaceOnUse" x="-19" y="52" width="208" height="443">
<path d="M86.6609 494.998C85.3056 463.157 90.4738 431.409 100.947 403.408C108.757 382.525 119.517 363.727 132.717 348.53C168.214 307.663 191.545 273.146 187.706 242.549C183.868 211.952 152.857 185.352 79.6849 160.42C47.0439 149.303 23.5059 131.358 7.41219 109.629C-5.39017 92.3389 -13.4804 72.6501 -17.6892 52.0808L-18.3319 52.9118C-14.0632 73.3454 -5.96717 92.9062 6.76997 110.103C22.9526 131.957 46.6196 149.999 79.4211 161.175C152.258 185.992 183.112 212.359 186.914 242.65C190.715 272.941 167.474 307.302 132.114 348.007C118.851 363.276 108.043 382.157 100.201 403.125C89.7649 431.028 84.5779 462.635 85.836 494.359L86.6609 494.998Z" fill="white"/>
</mask>
<g mask="url(#mask19_1618_788)">
<path d="M-17.6869 52.0768L261.95 268.317L86.6619 494.996L-192.975 278.756L-17.6869 52.0768Z" fill="white" fill-opacity="0.15"/>
</g>
<mask id="mask20_1618_788" style="mask-type:luminance" maskUnits="userSpaceOnUse" x="-16" y="47" width="202" height="440">
<path d="M75.6669 486.496C76.7656 458.524 82.7962 431.125 92.848 406.772C101.357 386.165 112.739 367.738 126.441 352.992C163.29 313.339 187.767 279.624 184.958 248.916C182.148 218.208 152.048 190.582 79.7492 163.208C47.5038 150.998 24.5776 132.276 9.22442 110.018C-3.71391 91.2606 -11.2771 69.9845 -14.5126 47.972L-15.1898 48.8476C-11.8757 70.704 -4.29787 91.8181 8.57175 110.469C24.0118 132.853 47.0604 151.678 79.468 163.95C151.429 191.202 181.377 218.583 184.164 248.987C186.952 279.392 162.562 312.951 125.857 352.446C112.089 367.262 100.653 385.77 92.1115 406.464C82.0929 430.737 76.053 458.024 74.8938 485.895L75.6669 486.496Z" fill="white"/>
</mask>
<g mask="url(#mask20_1618_788)">
<path d="M-14.5126 47.9719L254.13 255.71L75.667 486.496L-192.976 278.757L-14.5126 47.9719Z" fill="white" fill-opacity="0.15"/>
</g>
<mask id="mask21_1618_788" style="mask-type:luminance" maskUnits="userSpaceOnUse" x="-12" y="43" width="195" height="436">
<path d="M65.9589 478.988C68.7968 454.729 75.307 431.268 84.8232 410.246C94.0163 389.934 106.012 371.9 120.203 357.622C158.36 319.23 183.954 286.354 182.178 255.567C180.401 224.779 151.244 196.161 79.9075 166.377C48.0887 153.092 25.8037 133.611 11.2065 110.85C-1.97549 90.302 -8.89868 67.0759 -10.908 43.3119L-11.6253 44.2396C-9.50651 67.8261 -2.56096 90.8671 10.5328 111.284C25.2132 134.175 47.6169 153.762 79.5953 167.114C150.604 196.761 179.618 225.137 181.379 255.615C183.139 286.094 157.643 318.818 119.635 357.061C105.377 371.407 93.3269 389.519 84.0953 409.916C74.6094 430.873 68.0993 454.245 65.2235 478.419L65.9589 478.988Z" fill="white"/>
</mask>
<g mask="url(#mask21_1618_788)">
<path d="M-10.9073 43.3119L248.027 243.542L65.9597 478.988L-192.974 278.757L-10.9073 43.3119Z" fill="white" fill-opacity="0.15"/>
</g>
<mask id="mask22_1618_788" style="mask-type:luminance" maskUnits="userSpaceOnUse" x="-8" y="37" width="188" height="436">
<path d="M57.3469 472.327C61.3401 451.621 68.0013 431.769 76.861 413.826C86.7306 393.834 99.3248 376.213 113.986 362.419C153.411 325.328 180.094 293.331 179.35 262.503C178.606 231.676 150.427 202.092 80.1313 169.932C48.7765 155.587 27.1557 135.373 13.3338 112.131C-0.196954 89.3889 -6.26751 63.7439 -6.70089 37.8743L-7.48022 38.8821C-6.90717 64.5467 -0.784624 89.9625 12.6459 112.545C26.5508 135.914 48.2833 156.244 79.796 170.661C149.77 202.674 177.816 232.007 178.552 262.527C179.289 293.047 152.708 324.891 113.439 361.839C98.7089 375.699 86.058 393.397 76.1465 413.472C67.3131 431.363 60.6554 451.147 56.6418 471.778L57.3469 472.327Z" fill="white"/>
</mask>
<g mask="url(#mask22_1618_788)">
<path d="M-6.70273 37.8729L243.619 231.444L57.3469 472.327L-192.975 278.756L-6.70273 37.8729Z" fill="white" fill-opacity="0.15"/>
</g>
<mask id="mask23_1618_788" style="mask-type:luminance" maskUnits="userSpaceOnUse" x="-3" y="31" width="180" height="436">
<path d="M49.706 466.42C54.3587 449.105 60.8822 432.589 68.9618 417.518C79.4961 397.869 92.6761 380.68 107.793 367.387C148.439 331.64 176.18 300.557 176.473 269.721C176.766 238.886 149.595 208.374 80.4162 173.871C49.5592 158.481 28.631 137.551 15.5944 113.862C1.66105 88.5483 -3.26675 60.0753 -1.67721 31.8457L-1.64758 31.3386L-2.50724 32.4503C-3.99253 60.6091 0.993773 88.9875 14.8963 114.247C28.0081 138.074 49.0471 159.119 80.0575 174.585C148.918 208.929 175.964 239.187 175.676 269.715C175.387 300.242 147.754 331.182 107.264 366.793C92.0761 380.149 78.8377 397.414 68.2589 417.145C60.2009 432.173 53.6854 448.637 49.0204 465.9L49.706 466.42Z" fill="white"/>
</mask>
<g mask="url(#mask23_1618_788)">
<path d="M-1.6489 31.3368L241.033 219L49.7065 466.42L-192.976 278.756L-1.6489 31.3368Z" fill="white" fill-opacity="0.15"/>
</g>
<mask id="mask24_1618_788" style="mask-type:luminance" maskUnits="userSpaceOnUse" x="1" y="23" width="173" height="439">
<path d="M42.9547 461.2C47.8267 447.11 53.9484 433.693 61.1228 421.323C72.3106 402.04 86.0619 385.306 101.613 372.524C143.436 338.16 172.207 308.026 173.532 277.218C174.856 246.41 148.727 215.003 80.7441 178.196C50.4228 161.781 30.2093 140.159 17.9739 116.045C4.89901 90.2781 0.929372 61.6564 3.46597 33.4995C3.77828 30.0376 4.18682 26.5856 4.69159 23.1434L3.70509 24.4192C3.28984 27.4141 2.94615 30.4164 2.674 33.4259C0.125596 61.728 4.11744 90.4979 17.2657 116.409C29.5711 140.659 49.8918 162.4 80.3667 178.899C148.036 215.534 174.05 246.683 172.737 277.183C171.425 307.683 142.769 337.679 101.11 371.908C85.4838 384.747 71.6698 401.562 60.4395 420.924C53.2817 433.263 47.168 446.639 42.2939 460.687L42.9547 461.2Z" fill="white"/>
</mask>
<g mask="url(#mask24_1618_788)">
<path d="M4.68893 23.142L247.381 210.813L49.7161 466.429L-192.976 278.758L4.68893 23.142Z" fill="white" fill-opacity="0.15"/>
</g>
<mask id="mask25_1618_788" style="mask-type:luminance" maskUnits="userSpaceOnUse" x="6" y="12" width="165" height="445">
<path d="M37.0267 456.616C41.6364 445.748 47.0908 435.258 53.3398 425.243C65.1698 406.346 79.4721 390.08 95.4464 377.83C138.394 344.887 168.162 315.737 170.522 284.99C172.882 254.243 147.818 221.978 81.1094 182.913C51.357 165.488 31.8784 143.199 20.4627 118.687C8.25969 92.4954 5.25232 63.7573 8.73169 35.6975C9.72162 27.776 11.2012 19.9236 13.1619 12.1851L11.9549 13.746C10.1985 20.9472 8.85769 28.2434 7.93896 35.5985C4.44302 63.7984 7.46793 92.6869 19.7388 119.025C31.2231 143.674 50.8017 166.084 80.7074 183.596C147.108 222.482 172.065 254.486 169.73 284.927C167.395 315.367 137.746 344.383 94.9611 377.194C78.9129 389.502 64.5467 405.839 52.6662 424.816C46.4319 434.808 40.9858 445.271 36.3773 456.109L37.0267 456.616Z" fill="white"/>
</mask>
<g mask="url(#mask25_1618_788)">
<path d="M13.1622 12.1847L257.054 200.784L50.9169 467.356L-192.975 278.757L13.1622 12.1847Z" fill="white" fill-opacity="0.15"/>
</g>
</svg>
