<svg width="754" height="329" viewBox="0 0 754 329" fill="none" xmlns="http://www.w3.org/2000/svg">
<mask id="mask0_1573_348" style="mask-type:luminance" maskUnits="userSpaceOnUse" x="11" y="0" width="925" height="526">
<path d="M11.573 514.626C53.0544 493.452 105.256 491.885 184.572 514.585C214.948 523.278 244.019 525.982 271.412 523.827C329.501 519.256 380.069 492.827 419.615 455.31C459.161 417.794 487.705 369.163 501.711 320.224C509.658 292.461 512.927 264.596 510.881 238.602C505.381 168.701 507.661 114.78 535.226 85.8656C562.791 56.9509 615.568 53.1303 710.989 83.5118C753.545 97.0643 791.881 96.5049 825.376 86.2631C861.172 75.323 891.445 53.3135 915.45 25.6511C922.307 17.7339 928.661 9.39481 934.474 0.682855L935.143 1.54618C929.358 10.1921 923.043 18.4707 916.233 26.3342C892.11 54.1348 861.668 76.2559 825.681 87.259C791.996 97.5597 753.448 98.1209 710.678 84.504C615.698 54.2624 563.26 57.9674 535.98 86.5855C508.7 115.204 506.442 168.896 511.921 238.521C513.976 264.64 510.692 292.629 502.713 320.51C488.659 369.618 460.03 418.404 420.333 456.064C380.636 493.724 329.839 520.272 271.5 524.861C243.989 527.027 214.795 524.311 184.292 515.581C105.486 493.028 53.5485 494.538 12.2717 515.515L11.573 514.626Z" fill="white"/>
</mask>
<g mask="url(#mask0_1573_348)">
<path d="M822.254 -144.123L-3.19336 495.572L139.933 680.259L965.381 40.564L822.254 -144.123Z" fill="white" fill-opacity="0.2"/>
</g>
<mask id="mask1_1573_348" style="mask-type:luminance" maskUnits="userSpaceOnUse" x="27" y="-4" width="906" height="541">
<path d="M27.7431 535.492C69.0214 511.114 121.827 506.985 204.224 527.603C234.878 535.274 264.022 537.001 291.328 533.928C349.229 527.409 398.881 499.298 437.146 460.477C475.411 421.657 502.301 372.094 514.662 322.711C521.671 294.696 524.006 266.735 521.089 240.825C513.245 171.15 513.716 117.184 540.293 87.3627C566.87 57.541 619.499 51.9425 715.874 79.1131C758.863 91.2274 797.157 89.3854 830.288 78.0244C865.693 65.8862 895.216 42.8765 918.279 14.4214C922.906 8.71405 927.27 2.80235 931.372 -3.31394L932.039 -2.45301C927.976 3.5753 923.657 9.41772 919.083 15.0742C895.906 43.669 866.228 66.7952 830.631 78.9985C797.309 90.4245 758.809 92.2797 715.599 80.1056C619.661 53.066 567.376 58.5251 541.065 88.0498C514.754 117.575 514.306 171.304 522.118 240.709C525.051 266.742 522.714 294.823 515.668 322.96C503.269 372.511 476.293 422.232 437.884 461.202C399.476 500.171 349.601 528.408 291.446 534.954C264.016 538.046 234.754 536.308 203.976 528.607C122.075 508.113 69.52 512.181 28.4374 536.383L27.7431 535.492Z" fill="white"/>
</mask>
<g mask="url(#mask1_1573_348)">
<path d="M824.067 -141.783L-1.38062 497.912L150.124 693.41L975.572 53.7153L824.067 -141.783Z" fill="white" fill-opacity="0.2"/>
</g>
<mask id="mask2_1573_348" style="mask-type:luminance" maskUnits="userSpaceOnUse" x="44" y="-8" width="885" height="566">
<path d="M44.1995 556.727C85.126 528.892 138.43 522.047 224.067 540.446C254.962 547.085 284.153 547.827 311.333 543.843C368.983 535.387 417.663 505.624 454.605 465.539C491.547 425.454 516.766 375.016 527.457 325.248C533.517 297.018 534.917 268.992 531.133 243.195C520.955 173.821 519.615 119.869 545.173 89.1738C570.732 58.4785 623.142 51.1198 720.383 75.0341C763.758 85.6977 801.966 82.574 834.696 70.1082C869.673 56.782 898.406 32.8011 920.502 3.5865C923.193 0.028739 925.785 -3.60348 928.279 -7.31031L928.946 -6.44935C926.5 -2.82728 923.96 0.727298 921.327 4.21426C899.123 33.5684 870.238 57.6768 835.061 71.067C802.141 83.6053 763.724 86.7601 720.136 76.0387C623.348 52.2328 571.277 59.4494 545.967 89.8349C520.657 120.22 522.015 173.944 532.153 243.045C535.956 268.966 534.558 297.114 528.466 325.467C517.736 375.406 492.443 426.007 455.365 466.24C418.286 506.472 369.389 536.37 311.482 544.866C284.176 548.872 254.866 548.12 223.848 541.456C138.69 523.159 85.6272 529.955 44.8799 557.61L44.1995 556.727Z" fill="white"/>
</mask>
<g mask="url(#mask2_1573_348)">
<path d="M825.97 -139.328L0.521973 500.367L160.235 706.457L985.683 66.7625L825.97 -139.328Z" fill="white" fill-opacity="0.2"/>
</g>
<mask id="mask3_1573_348" style="mask-type:luminance" maskUnits="userSpaceOnUse" x="60" y="-12" width="866" height="592">
<path d="M60.9685 578.365C101.387 546.812 155.053 537.078 244.101 553.104C275.198 558.7 304.393 558.469 331.432 553.572C388.767 543.183 436.423 511.805 471.994 470.502C507.565 429.199 531.083 377.944 540.095 327.847C545.209 299.426 545.661 271.374 541.009 245.72C528.507 176.731 525.359 122.853 549.877 91.314C574.395 59.7753 626.524 50.6656 724.514 71.3035C768.216 80.5079 806.301 76.0997 838.596 62.5419C873.109 48.054 901.022 23.1172 922.122 -6.81708C923.163 -8.29391 924.186 -9.7825 925.193 -11.2827L925.86 -10.4217C924.91 -9.01217 923.946 -7.61226 922.967 -6.22185C901.76 23.8627 873.7 48.9287 839.003 63.4932C806.527 77.1249 768.23 81.5636 724.303 72.3126C626.766 51.7694 574.967 60.7231 550.696 91.9443C526.425 123.165 529.585 176.808 542.037 245.535C546.707 271.313 546.253 299.492 541.116 328.035C532.065 378.304 508.487 429.724 472.776 471.18C437.064 512.635 389.201 544.157 331.616 554.589C304.461 559.509 275.142 559.742 243.918 554.122C155.333 538.179 101.904 547.86 61.6494 579.244L60.9685 578.365Z" fill="white"/>
</mask>
<g mask="url(#mask3_1573_348)">
<path d="M827.972 -136.744L2.52441 502.95L170.267 719.402L995.715 79.7069L827.972 -136.744Z" fill="white" fill-opacity="0.2"/>
</g>
<mask id="mask4_1573_348" style="mask-type:luminance" maskUnits="userSpaceOnUse" x="78" y="-16" width="845" height="618">
<path d="M78.0914 600.46C117.818 564.901 171.679 552.095 264.317 565.577C295.59 570.123 324.758 568.916 351.614 563.113C408.565 550.809 455.139 517.848 489.308 475.374C523.477 432.9 545.256 380.888 552.586 330.516C556.744 301.936 556.256 273.884 550.749 248.399C535.942 179.864 530.984 126.124 554.426 93.7784C577.868 61.4332 629.662 50.5751 728.291 67.9196C772.281 75.6567 810.198 69.9723 842.021 55.3421C875.45 39.9691 902.166 14.719 922.143 -15.2279L922.812 -14.3658C902.756 15.6042 875.963 40.8722 842.457 56.2802C810.448 71.0004 772.329 76.7166 728.118 68.9451C629.947 51.6865 578.475 62.3727 555.265 94.3931C532.055 126.413 537.011 179.918 551.76 248.184C557.293 273.794 557.786 301.97 553.611 330.668C546.255 381.216 524.414 433.397 490.117 476.027C455.819 518.658 409.039 551.764 351.835 564.125C324.859 569.956 295.567 571.17 264.169 566.604C171.974 553.185 118.337 565.937 78.7732 601.34L78.0914 600.46Z" fill="white"/>
</mask>
<g mask="url(#mask4_1573_348)">
<path d="M830.083 -134.021L4.63501 505.673L180.218 732.242L1005.67 92.547L830.083 -134.021Z" fill="white" fill-opacity="0.2"/>
</g>
<mask id="mask5_1573_348" style="mask-type:luminance" maskUnits="userSpaceOnUse" x="95" y="-20" width="825" height="644">
<path d="M95.6242 623.085C134.446 583.2 188.29 567.117 284.707 577.857C316.111 581.355 345.224 579.167 371.87 572.465C428.38 558.256 473.822 523.751 506.547 480.156C539.271 436.56 559.291 383.845 564.926 333.253C568.123 304.552 566.694 276.532 560.335 251.247C543.24 183.241 536.481 129.7 558.822 96.5939C581.163 63.488 632.569 50.8951 731.725 64.9136C775.946 71.1646 813.651 64.2122 844.96 48.5151C875.841 33.0381 900.519 9.05677 919.111 -19.143L919.782 -18.2773C901.117 9.93554 876.372 33.9275 845.425 49.4386C813.932 65.2198 776.024 72.2146 731.577 65.9339C632.885 51.9794 581.803 64.3891 559.681 97.1685C537.559 129.948 544.304 183.257 561.336 250.989C567.729 276.404 569.166 304.549 565.954 333.369C560.299 384.132 540.22 437.018 507.372 480.777C474.523 524.537 428.881 559.195 372.123 573.468C345.358 580.199 316.121 582.398 284.589 578.887C188.605 568.188 134.979 584.221 96.3051 623.963L95.6242 623.085Z" fill="white"/>
</mask>
<g mask="url(#mask5_1573_348)">
<path d="M832.307 -131.15L6.85938 508.545L190.084 744.974L1015.53 105.279L832.307 -131.15Z" fill="white" fill-opacity="0.2"/>
</g>
<mask id="mask6_1573_348" style="mask-type:luminance" maskUnits="userSpaceOnUse" x="113" y="-23" width="804" height="671">
<path d="M113.605 646.286C151.285 601.722 204.865 582.154 305.267 589.937C336.77 592.382 365.793 589.215 392.201 581.624C448.201 565.526 492.456 529.52 523.704 484.847C554.951 440.174 573.187 386.819 577.121 336.069C579.35 307.279 576.983 279.321 569.785 254.258C550.409 186.872 541.863 133.582 563.082 99.7422C584.301 65.9029 635.256 51.5947 734.823 62.2781C779.23 67.0446 816.681 58.8295 847.449 42.0949C876.021 26.5592 898.839 3.66612 916.129 -22.9981L916.799 -22.1336C899.438 4.5344 876.566 27.4355 847.944 43.0022C817.002 59.8306 779.347 68.0963 734.713 63.3065C635.607 52.672 584.969 66.7895 563.96 100.291C542.937 133.816 551.481 186.85 570.776 253.97C578.018 279.148 580.396 307.231 578.153 336.144C574.204 387.073 555.914 440.6 524.554 485.438C493.194 530.275 448.736 566.45 392.488 582.616C365.967 590.24 336.819 593.419 305.187 590.967C205.197 583.215 151.832 602.732 114.292 647.173L113.605 646.286Z" fill="white"/>
</mask>
<g mask="url(#mask6_1573_348)">
<path d="M834.654 -128.122L9.20605 511.573L200.697 758.668L1026.14 118.974L834.654 -128.122Z" fill="white" fill-opacity="0.2"/>
</g>
<mask id="mask7_1573_348" style="mask-type:luminance" maskUnits="userSpaceOnUse" x="132" y="-27" width="782" height="699">
<path d="M132.086 670.134C168.353 620.487 221.385 597.227 325.99 601.812C357.561 603.196 386.462 599.061 412.598 590.587C468.023 572.622 511.052 535.147 540.78 489.457C570.507 443.768 586.943 389.821 589.169 338.966C590.434 310.114 587.127 282.255 579.089 257.453C557.467 190.752 547.131 137.781 567.206 103.247C587.281 68.7124 637.723 52.7058 737.594 60.0405C782.137 63.3129 819.291 53.8466 849.476 36.0927C875.962 20.5127 897.098 -1.45257 913.17 -26.7993L913.844 -25.9301C897.709 -0.590157 876.528 21.3767 850 36.9813C819.639 54.8469 782.277 64.3579 737.515 61.0759C638.111 53.7705 587.976 69.578 568.106 103.765C548.236 137.952 558.538 190.692 580.075 257.128C588.156 282.053 591.478 310.038 590.209 339.007C587.973 390.037 571.477 444.148 541.643 490.017C511.81 535.886 468.591 573.528 412.916 591.568C386.664 600.077 357.638 604.234 325.947 602.843C221.737 598.274 168.914 621.49 132.781 671.031L132.086 670.134Z" fill="white"/>
</mask>
<g mask="url(#mask7_1573_348)">
<path d="M837.132 -124.924L11.6843 514.771L211.572 772.701L1037.02 133.006L837.132 -124.924Z" fill="white" fill-opacity="0.2"/>
</g>
<mask id="mask8_1573_348" style="mask-type:luminance" maskUnits="userSpaceOnUse" x="151" y="-31" width="760" height="727">
<path d="M151.156 694.741C185.709 639.565 237.823 612.364 346.869 613.481C378.459 613.809 407.21 608.701 433.054 599.357C487.851 579.543 529.591 540.642 557.767 493.978C585.942 447.314 600.566 392.853 601.085 341.951C601.381 313.073 597.141 285.341 588.272 260.821C564.425 194.884 552.318 142.291 571.222 107.103C590.126 71.9155 640.003 54.2228 740.062 58.2046C784.689 59.9795 821.502 49.2684 851.081 30.5102C875.709 14.8882 895.326 -6.31882 910.266 -30.5541L910.941 -29.6837C895.949 -5.45926 876.29 15.7425 851.632 31.3799C821.891 50.2451 784.874 61.0176 740.019 59.2329C640.424 55.2715 590.846 72.7523 572.13 107.589C553.415 142.425 565.488 194.787 589.238 260.469C598.155 285.105 602.409 312.955 602.114 341.958C601.591 393.035 586.931 447.671 558.649 494.508C530.368 541.345 488.437 580.422 433.403 600.325C407.453 609.711 378.583 614.841 346.859 614.513C238.181 613.403 186.286 640.56 151.861 695.651L151.156 694.741Z" fill="white"/>
</mask>
<g mask="url(#mask8_1573_348)">
<path d="M839.748 -121.549L14.3003 518.146L222.36 786.622L1047.81 146.927L839.748 -121.549Z" fill="white" fill-opacity="0.2"/>
</g>
<mask id="mask9_1573_348" style="mask-type:luminance" maskUnits="userSpaceOnUse" x="170" y="-35" width="739" height="757">
<path d="M170.868 720.177C203.369 658.955 254.151 627.582 367.898 624.932C399.484 624.195 428.043 618.129 453.555 607.921C507.652 586.275 548.07 546.001 574.663 498.418C601.256 450.834 614.041 395.911 612.854 345.021C612.18 316.152 607.012 288.576 597.326 264.369C571.278 199.269 557.416 147.113 575.126 111.303C592.835 75.4923 642.093 56.1449 742.228 56.7661C786.891 57.0429 823.325 45.1063 852.255 25.363C875.241 9.67735 893.495 -10.9387 907.385 -34.2713L908.065 -33.3938C894.129 -10.082 875.84 10.5211 852.839 26.2166C823.743 46.0729 787.11 58.079 742.223 57.8013C642.549 57.1832 593.587 76.3182 576.051 111.764C558.515 147.209 572.34 199.135 598.284 263.977C608.016 288.3 613.209 316.001 613.88 344.998C615.072 396.064 602.252 451.16 575.558 498.92C548.865 546.681 508.269 587.142 453.933 608.882C428.312 619.132 399.633 625.225 367.912 625.965C254.522 628.61 203.969 659.951 171.581 721.106L170.868 720.177Z" fill="white"/>
</mask>
<g mask="url(#mask9_1573_348)">
<path d="M842.506 -117.99L17.0581 521.704L233.057 800.425L1058.51 160.73L842.506 -117.99Z" fill="white" fill-opacity="0.2"/>
</g>
<mask id="mask10_1573_348" style="mask-type:luminance" maskUnits="userSpaceOnUse" x="191" y="-38" width="715" height="786">
<path d="M191.333 746.584C221.409 678.726 270.343 642.924 389.065 636.164C420.611 634.369 448.948 627.346 474.105 616.286C527.447 592.838 566.487 551.229 591.469 502.78C616.452 454.332 627.385 399.011 624.491 348.19C622.85 319.36 616.76 291.974 606.266 268.102C578.044 203.916 562.442 152.252 578.943 115.874C595.445 79.4952 644.022 58.4992 744.123 55.7597C788.77 54.5381 824.784 41.3869 853.033 20.6841C874.584 4.89098 891.626 -15.2991 904.544 -37.9371L905.226 -37.0573C892.265 -14.4503 875.199 5.71457 853.643 21.5102C825.229 42.3314 789.02 55.5621 744.148 56.7902C644.513 59.5154 596.218 80.2835 579.882 116.298C563.546 152.312 579.103 203.745 607.211 267.682C617.752 291.663 623.87 319.174 625.519 348.13C628.42 399.129 617.462 454.622 592.385 503.253C567.308 551.884 528.093 593.679 474.52 617.231C449.259 628.339 420.8 635.391 389.119 637.191C270.734 643.937 222.032 679.714 192.074 747.541L191.333 746.584Z" fill="white"/>
</mask>
<g mask="url(#mask10_1573_348)">
<path d="M845.416 -114.235L19.9678 525.459L243.662 814.11L1069.11 174.415L845.416 -114.235Z" fill="white" fill-opacity="0.2"/>
</g>
<mask id="mask11_1573_348" style="mask-type:luminance" maskUnits="userSpaceOnUse" x="212" y="-42" width="691" height="818">
<path d="M212.655 774.098C239.906 698.919 286.363 658.418 410.367 647.171C441.833 644.318 469.92 636.348 494.694 624.449C547.219 599.223 584.843 556.327 608.185 507.068C631.527 457.809 640.593 402.156 635.997 351.459C633.394 322.707 626.384 295.533 615.095 272.029C584.738 208.823 567.408 157.713 582.678 120.803C597.948 83.8929 645.796 61.2761 745.749 55.1784C790.33 52.4584 825.881 38.1043 853.426 16.471C873.741 0.508419 889.706 -19.4238 901.724 -41.576L902.418 -40.6809C890.36 -18.5731 874.375 1.32361 854.062 17.2843C826.362 39.0458 790.619 53.4821 745.815 56.2151C646.326 62.2846 598.76 84.6647 583.639 121.202C568.518 157.74 585.797 208.63 616.031 271.583C627.372 295.198 634.409 322.487 637.029 351.369C641.643 402.242 632.549 458.075 609.119 507.52C585.688 556.965 547.9 600.052 495.145 625.389C470.27 637.336 442.064 645.337 410.465 648.203C286.77 659.416 240.549 699.904 213.421 775.086L212.655 774.098Z" fill="white"/>
</mask>
<g mask="url(#mask11_1573_348)">
<path d="M848.484 -110.276L23.0361 529.418L254.174 827.674L1079.62 187.979L848.484 -110.276Z" fill="white" fill-opacity="0.2"/>
</g>
<mask id="mask12_1573_348" style="mask-type:luminance" maskUnits="userSpaceOnUse" x="234" y="-46" width="666" height="850">
<path d="M234.955 802.873C258.932 719.572 302.178 674.107 431.796 657.948C463.151 654.037 490.956 645.136 515.311 632.416C566.958 605.442 603.12 561.307 624.797 511.29C646.474 461.273 653.672 405.346 647.376 354.832C643.804 326.174 635.889 299.256 623.821 276.146C591.361 213.995 572.325 163.497 586.348 126.096C600.371 88.6948 647.432 64.483 747.123 55.036C791.587 50.8208 826.637 35.2822 853.437 12.7312C872.712 -3.48767 887.723 -23.3365 898.907 -45.2117L899.606 -44.3095C888.388 -22.4907 873.361 -2.68431 854.1 13.5236C827.147 36.2029 791.909 51.8304 747.221 56.0662C647.99 65.4704 601.199 89.4294 587.316 126.458C573.433 163.486 592.403 213.761 624.736 275.669C636.865 298.893 644.811 325.932 648.402 354.704C654.72 405.392 647.503 461.493 625.747 511.703C603.991 561.914 567.665 606.235 515.79 633.33C491.332 646.102 463.404 655.05 431.925 658.975C302.602 675.095 259.612 720.566 235.758 803.91L234.955 802.873Z" fill="white"/>
</mask>
<g mask="url(#mask12_1573_348)">
<path d="M851.717 -106.105L26.269 533.589L264.588 841.111L1090.04 201.416L851.717 -106.105Z" fill="white" fill-opacity="0.2"/>
</g>
<mask id="mask13_1573_348" style="mask-type:luminance" maskUnits="userSpaceOnUse" x="258" y="-49" width="639" height="884">
<path d="M258.393 833.118C278.618 740.76 317.756 690.042 453.343 668.495C484.551 663.536 512.039 653.702 535.954 640.173C586.669 611.48 621.329 566.156 641.315 515.441C661.301 464.725 666.617 408.589 658.629 358.316C654.098 329.795 645.282 303.156 632.447 280.467C597.922 219.444 577.198 169.607 589.959 131.754C602.721 93.902 648.942 68.1288 748.259 55.3408C792.557 49.6368 827.064 32.9297 853.094 9.48987C871.508 -7.09119 885.682 -27.0474 896.08 -48.8594L896.79 -47.9431C886.357 -26.1961 872.174 -6.29856 853.784 10.2612C827.608 33.8314 792.919 50.6345 748.392 56.3648C649.528 69.0976 603.572 94.6108 590.934 132.09C578.297 169.568 598.955 219.168 633.34 279.958C646.25 302.765 655.098 329.509 659.651 358.154C667.671 408.597 662.334 464.913 642.276 515.823C622.218 566.733 587.402 612.253 536.466 641.071C512.45 654.658 484.84 664.538 453.506 669.517C318.197 691.022 279.34 741.743 259.229 834.197L258.393 833.118Z" fill="white"/>
</mask>
<g mask="url(#mask13_1573_348)">
<path d="M855.119 -101.714L29.6716 537.981L274.906 854.426L1100.35 214.731L855.119 -101.714Z" fill="white" fill-opacity="0.2"/>
</g>
<mask id="mask14_1573_348" style="mask-type:luminance" maskUnits="userSpaceOnUse" x="284" y="-53" width="610" height="908">
<path d="M608.747 603.901C630.615 579.111 646.82 550.193 657.73 519.53C676.009 468.156 679.433 411.887 669.763 361.912C664.277 333.558 654.574 307.236 640.981 284.983C604.431 225.152 582.041 176.043 593.529 137.781C605.018 99.5183 650.342 72.2126 749.177 56.0985C793.254 48.9117 827.184 31.0551 852.413 6.75641C870.14 -10.317 883.573 -30.5755 893.219 -52.5521L893.94 -51.6215C884.258 -29.7261 870.817 -9.53979 853.128 7.50227C827.757 31.9381 793.648 49.8943 749.341 57.119C650.964 73.1593 605.887 100.202 594.52 138.08C583.153 175.958 605.453 224.844 641.866 284.441C655.524 306.798 665.269 333.24 670.775 361.707C680.48 411.857 677.044 468.322 658.704 519.87C648.314 549.064 633.143 576.687 612.87 600.694L608.747 603.901ZM284.768 854.974C301.467 758.785 337.769 705.357 475.002 678.803C499.298 674.102 521.215 666.487 540.842 656.525L536.738 659.706C518.214 668.606 497.724 675.46 475.201 679.817C339.193 706.137 302.737 758.994 285.995 854.023L284.768 854.974Z" fill="white"/>
</mask>
<g mask="url(#mask14_1573_348)">
<path d="M858.701 -97.0931L39.1526 538.03L284.772 854.971L1104.32 219.848L858.701 -97.0931Z" fill="white" fill-opacity="0.2"/>
</g>
<mask id="mask15_1573_348" style="mask-type:luminance" maskUnits="userSpaceOnUse" x="321" y="-57" width="571" height="884">
<path d="M655.759 567.467C663.126 553.393 669.244 538.7 674.044 523.557C690.586 471.601 692.122 415.246 680.779 365.622C674.344 337.47 663.765 311.484 649.433 289.704C610.89 231.13 586.875 182.8 597.062 144.179C607.249 105.558 651.644 76.7411 749.879 57.3209C793.694 48.661 827.005 29.674 851.403 4.54266C868.61 -13.1795 881.387 -33.9603 890.291 -56.3299L891.022 -55.3864C882.076 -33.1084 869.301 -12.4144 852.144 5.25766C827.608 30.5312 794.12 49.62 750.082 58.3262C652.302 77.6605 608.155 106.2 598.064 144.439C587.973 182.678 611.901 230.785 650.293 289.129C664.695 311.015 675.322 337.115 681.784 365.385C693.166 415.181 691.626 471.73 675.025 523.865C670.432 538.351 664.64 552.428 657.708 565.951L655.759 567.467ZM321.342 826.63C340.235 757.169 383.077 714.856 496.76 688.873C497.886 688.615 499.004 688.353 500.115 688.087L498.137 689.619L496.988 689.885C384.676 715.556 341.801 757.268 322.756 825.534L321.342 826.63Z" fill="white"/>
</mask>
<g mask="url(#mask15_1573_348)">
<path d="M862.464 -92.2359L79.4866 514.546L321.342 826.631L1104.32 219.849L862.464 -92.2359Z" fill="white" fill-opacity="0.2"/>
</g>
<mask id="mask16_1573_348" style="mask-type:luminance" maskUnits="userSpaceOnUse" x="368" y="-61" width="521" height="852">
<path d="M684.692 545.046C686.74 539.265 688.594 533.423 690.256 527.521C705.046 475.038 704.69 418.663 691.689 369.449C684.313 341.529 672.868 315.914 657.812 294.624C617.326 237.376 591.701 189.881 600.592 150.938C609.482 111.995 652.879 81.7066 750.408 58.9978C793.905 48.8702 826.559 28.778 850.101 2.84148C866.932 -15.7005 879.106 -37.2332 887.261 -60.2517L888.013 -59.2811C879.817 -36.3741 867.642 -14.9426 850.868 3.53853C827.195 29.6234 794.364 49.8228 750.643 60.0028C653.564 82.6048 610.406 112.617 601.594 151.16C592.782 189.702 618.321 237.009 658.65 294.033C673.777 315.423 685.276 341.151 692.682 369.189C705.728 418.576 706.084 475.147 691.245 527.806C689.722 533.211 688.036 538.571 686.189 543.886L684.692 545.046ZM368.026 790.452C386.243 759.793 415.508 735.873 463.177 716.713L460.119 719.083C416.059 737.371 388.272 759.97 370.505 788.531L368.026 790.452Z" fill="white"/>
</mask>
<g mask="url(#mask16_1573_348)">
<path d="M866.417 -87.1344L130.12 483.472L368.022 790.455L1104.32 219.849L866.417 -87.1344Z" fill="white" fill-opacity="0.2"/>
</g>
<mask id="mask17_1573_348" style="mask-type:luminance" maskUnits="userSpaceOnUse" x="602" y="-65" width="283" height="593">
<path d="M707.278 527.543C719.253 475.732 716.767 420.966 702.48 373.411C694.171 345.753 681.872 320.536 666.111 299.764C623.725 243.909 596.521 197.3 604.101 158.079C611.681 118.859 654.035 87.131 750.746 61.1631C793.883 49.5818 825.844 28.4052 848.502 1.69412C865.105 -17.8796 876.716 -40.4313 884.07 -64.3597L884.846 -63.3584C877.441 -39.5587 865.831 -17.1282 849.292 2.36958C826.506 29.2346 794.376 50.527 751.023 62.166C654.755 88.0147 612.622 119.452 605.12 158.281C597.617 197.109 624.719 243.506 666.938 299.144C682.774 320.014 695.129 345.343 703.473 373.118C717.698 420.461 720.267 474.928 708.576 526.546L707.278 527.543Z" fill="white"/>
</mask>
<g mask="url(#mask17_1573_348)">
<path d="M870.564 -81.7838L473.522 225.911L707.277 527.542L1104.32 219.848L870.564 -81.7838Z" fill="white" fill-opacity="0.2"/>
</g>
<mask id="mask18_1573_348" style="mask-type:luminance" maskUnits="userSpaceOnUse" x="606" y="-69" width="276" height="582">
<path d="M726.144 512.922C732.195 466.473 727.182 419.02 713.17 377.495C703.937 350.132 690.799 325.34 674.348 305.109C630.113 250.707 601.362 205.036 607.624 165.593C613.886 126.15 655.149 93.0079 750.931 63.8135C793.653 50.7906 824.888 28.5531 846.635 1.09895C863.148 -19.7517 874.198 -43.6166 880.661 -68.7481L881.459 -67.7185C874.935 -42.7395 863.887 -19.0231 847.443 1.73536C825.572 29.3482 794.169 51.7047 751.233 64.7972C655.888 93.8609 614.835 126.695 608.639 165.753C602.443 204.811 631.088 250.275 675.148 304.464C691.675 324.789 704.872 349.689 714.144 377.167C728.1 418.533 733.161 465.755 727.295 512.032L726.144 512.922Z" fill="white"/>
</mask>
<g mask="url(#mask18_1573_348)">
<path d="M874.362 -76.8839L496.187 216.189L726.144 512.922L1104.32 219.849L874.362 -76.8839Z" fill="white" fill-opacity="0.2"/>
</g>
<mask id="mask19_1573_348" style="mask-type:luminance" maskUnits="userSpaceOnUse" x="610" y="-74" width="268" height="575">
<path d="M742.389 500.333C744.102 459.087 737.364 417.969 723.76 381.712C713.614 354.672 699.651 330.336 682.531 310.669C636.496 257.782 606.227 213.102 611.158 173.464C616.089 133.825 656.221 99.326 750.971 66.9314C793.237 52.4873 823.702 29.21 844.519 1.04133C861.079 -21.3721 871.532 -46.8868 876.956 -73.5368L877.789 -72.4612C872.288 -45.9869 861.827 -20.6381 845.352 1.65522C824.42 29.9848 793.787 53.3877 751.313 67.9097C656.999 100.154 617.068 134.35 612.185 173.593C607.302 212.835 637.454 257.313 683.313 309.992C700.513 329.751 714.538 354.194 724.725 381.345C738.282 417.475 745.044 458.409 743.457 499.503L742.389 500.333Z" fill="white"/>
</mask>
<g mask="url(#mask19_1573_348)">
<path d="M876.953 -73.5412L515.022 206.943L742.388 500.331L1104.32 219.846L876.953 -73.5412Z" fill="white" fill-opacity="0.2"/>
</g>
<mask id="mask20_1573_348" style="mask-type:luminance" maskUnits="userSpaceOnUse" x="614" y="-79" width="260" height="569">
<path d="M756.619 489.305C755.158 453.074 747.309 417.591 734.255 386.059C723.205 359.377 708.436 335.524 690.667 316.441C642.882 265.129 611.13 221.489 614.727 181.708C618.325 141.927 657.278 106.101 750.891 70.5434C792.643 54.6835 822.315 30.4016 842.172 1.5497C858.906 -22.7656 868.674 -50.3357 872.836 -78.8537L873.714 -77.7203C869.451 -49.4045 859.664 -22.0442 843.019 2.13236C823.049 31.1487 793.219 55.5648 751.257 71.5044C658.08 106.903 619.325 142.411 615.755 181.799C612.185 221.187 643.825 264.625 691.424 315.734C709.277 334.907 724.116 358.866 735.209 385.66C748.219 417.088 756.08 452.425 757.619 488.526L756.619 489.305Z" fill="white"/>
</mask>
<g mask="url(#mask20_1573_348)">
<path d="M872.836 -78.8538L525.135 190.603L756.619 489.305L1104.32 219.848L872.836 -78.8538Z" fill="white" fill-opacity="0.2"/>
</g>
<mask id="mask21_1573_348" style="mask-type:luminance" maskUnits="userSpaceOnUse" x="618" y="-85" width="252" height="565">
<path d="M769.185 479.567C765.476 448.147 757.011 417.767 744.656 390.549C732.72 364.251 717.156 340.907 698.756 322.432C649.277 272.753 616.079 230.202 618.338 190.319C620.598 150.437 658.327 113.326 750.692 74.6493C791.89 57.3972 820.73 32.1324 839.607 2.62986C856.655 -24.0046 865.591 -54.0996 868.161 -84.8847L869.092 -83.6841C866.379 -53.1286 857.414 -23.2734 840.481 3.1915C821.496 32.8623 792.502 58.265 751.097 75.6036C659.158 114.104 621.613 150.9 619.374 190.382C617.134 229.863 650.205 272.218 699.491 321.704C717.979 340.268 733.613 363.713 745.598 390.12C757.914 417.254 766.379 447.52 770.137 478.829L769.185 479.567Z" fill="white"/>
</mask>
<g mask="url(#mask21_1573_348)">
<path d="M868.161 -84.8848L533.026 174.833L769.184 479.567L1104.32 219.849L868.161 -84.8848Z" fill="white" fill-opacity="0.2"/>
</g>
<mask id="mask22_1573_348" style="mask-type:luminance" maskUnits="userSpaceOnUse" x="621" y="-92" width="243" height="563">
<path d="M780.332 470.929C775.131 444.112 766.475 418.406 754.975 395.177C742.163 369.294 725.825 346.485 706.816 328.637C655.697 280.646 621.09 239.235 622.011 199.302C622.933 159.369 659.394 121.009 750.407 79.2553C791.002 60.6315 818.981 34.4184 836.854 4.29386C854.35 -25.1839 862.178 -58.411 862.704 -91.9216L863.715 -90.6172C863.008 -57.3721 855.112 -24.4417 837.745 4.82808C819.766 35.1187 791.642 61.4816 750.842 80.1996C660.246 121.763 623.957 159.796 623.044 199.331C622.132 238.867 656.607 280.079 707.523 327.886C726.622 345.818 743.034 368.727 755.9 394.717C767.366 417.88 776.017 443.497 781.244 470.216L780.332 470.929Z" fill="white"/>
</mask>
<g mask="url(#mask22_1573_348)">
<path d="M862.707 -91.9234L538.719 159.157L780.332 470.929L1104.32 219.849L862.707 -91.9234Z" fill="white" fill-opacity="0.2"/>
</g>
<mask id="mask23_1573_348" style="mask-type:luminance" maskUnits="userSpaceOnUse" x="625" y="-101" width="233" height="565">
<path d="M790.219 463.266C784.169 440.843 775.696 419.458 765.21 399.947C751.538 374.51 734.442 352.262 714.843 335.064C662.144 288.814 626.168 248.588 625.746 208.647C625.324 168.705 660.479 129.144 750.042 84.3571C789.991 64.3804 817.072 37.2399 833.926 6.53754C851.94 -26.2714 858.285 -63.1602 856.187 -99.7249L856.148 -100.382L857.263 -98.9429C859.226 -62.4697 852.805 -25.7034 834.831 7.0351C817.879 37.9166 790.655 65.2059 750.507 85.2818C661.357 129.863 626.364 169.094 626.779 208.637C627.194 248.18 663.03 288.22 715.528 334.293C735.219 351.574 752.39 373.919 766.12 399.462C776.578 418.918 785.04 440.236 791.107 462.591L790.219 463.266Z" fill="white"/>
</mask>
<g mask="url(#mask23_1573_348)">
<path d="M856.15 -100.385L542.05 143.033L790.219 463.265L1104.32 219.847L856.15 -100.385Z" fill="white" fill-opacity="0.2"/>
</g>
<mask id="mask24_1573_348" style="mask-type:luminance" maskUnits="userSpaceOnUse" x="629" y="-111" width="223" height="568">
<path d="M798.959 456.493C792.629 438.248 784.681 420.877 775.371 404.864C760.852 379.901 743.017 358.243 722.855 341.707C668.634 297.252 631.325 258.256 629.567 218.352C627.809 178.447 661.613 137.728 749.624 89.9588C788.878 68.654 815.032 40.6195 830.848 9.36648C847.749 -24.0281 852.853 -61.1082 849.529 -97.5774C849.119 -102.061 848.585 -106.532 847.927 -110.99L849.206 -109.339C849.748 -105.46 850.198 -101.572 850.554 -97.6739C853.894 -61.0166 848.762 -23.7444 831.766 9.83698C815.859 41.2657 789.567 69.4548 750.114 90.8685C662.509 138.416 628.855 178.8 630.596 218.305C632.338 257.811 669.498 296.627 723.506 340.908C743.765 357.518 761.682 379.281 776.255 404.346C785.544 420.319 793.481 437.638 799.814 455.828L798.959 456.493Z" fill="white"/>
</mask>
<g mask="url(#mask24_1573_348)">
<path d="M847.93 -110.992L533.816 132.436L790.207 463.276L1104.32 219.849L847.93 -110.992Z" fill="white" fill-opacity="0.2"/>
</g>
<mask id="mask25_1573_348" style="mask-type:luminance" maskUnits="userSpaceOnUse" x="633" y="-126" width="213" height="577">
<path d="M806.631 450.548C800.645 436.476 793.565 422.896 785.457 409.931C770.108 385.469 751.559 364.419 730.85 348.573C675.173 305.958 636.575 268.24 633.476 228.416C630.378 188.591 662.799 146.763 749.157 96.0691C787.672 73.4582 812.873 44.5596 827.627 12.7933C843.399 -21.1507 847.255 -58.3804 842.71 -94.7226C841.417 -104.982 839.49 -115.152 836.94 -125.173L838.505 -123.153C840.79 -113.827 842.537 -104.378 843.737 -94.8519C848.304 -58.3283 844.425 -20.9037 828.565 13.2292C813.723 45.1735 788.392 74.2291 749.678 96.9542C663.719 147.415 631.436 188.905 634.502 228.332C637.568 267.759 676.012 305.304 731.478 347.748C752.283 363.669 770.914 384.812 786.329 409.378C794.418 422.312 801.487 435.858 807.471 449.89L806.631 450.548Z" fill="white"/>
</mask>
<g mask="url(#mask25_1573_348)">
<path d="M836.939 -125.173L521.273 119.458L788.653 464.48L1104.32 219.849L836.939 -125.173Z" fill="white" fill-opacity="0.2"/>
</g>
</svg>
