<svg width="626" height="847" viewBox="0 0 626 847" fill="none" xmlns="http://www.w3.org/2000/svg">
<mask id="mask0_1573_19" style="mask-type:luminance" maskUnits="userSpaceOnUse" x="-147" y="115" width="763" height="454">
<path d="M615.313 564.037C581.078 545.48 537.476 543.089 470.708 560.421C445.136 567.059 420.781 568.718 397.928 566.349C349.467 561.326 307.746 538.187 275.467 506.01C243.188 473.832 220.335 432.591 209.641 391.394C203.573 368.023 201.418 344.664 203.665 322.978C209.71 264.663 208.921 219.545 186.478 194.805C164.035 170.065 119.999 165.779 39.6096 189.199C3.75749 199.646 -28.2754 198.385 -56.0605 189.131C-85.7552 179.245 -110.605 160.221 -130.098 136.602C-135.665 129.842 -140.803 122.74 -145.482 115.338L-146.059 116.045C-141.403 123.392 -136.295 130.443 -130.766 137.157C-111.177 160.894 -86.1894 180.015 -56.3365 189.957C-28.3934 199.264 3.81649 200.531 39.849 190.035C119.867 166.723 163.622 170.905 185.833 195.391C208.043 219.877 208.819 264.804 202.798 322.889C200.539 344.679 202.705 368.142 208.797 391.613C219.529 432.952 242.449 474.324 274.851 506.625C307.254 538.925 349.164 562.168 397.833 567.212C420.785 569.592 445.243 567.925 470.921 561.26C537.26 544.039 580.642 546.377 614.71 564.766L615.313 564.037Z" fill="white"/>
</mask>
<g mask="url(#mask0_1573_19)">
<path d="M-48.6825 -3.37933L628.05 548.416L504.591 699.829L-172.142 148.034L-48.6825 -3.37933Z" fill="#E8F0FD"/>
</g>
<mask id="mask1_1573_19" style="mask-type:luminance" maskUnits="userSpaceOnUse" x="-144" y="112" width="746" height="470">
<path d="M601.365 581.144C567.366 559.912 523.312 555.367 454.011 570.896C428.23 576.673 403.833 577.514 381.072 574.38C332.808 567.732 291.888 543.207 260.706 509.965C229.525 476.724 208.074 434.739 198.764 393.204C193.485 369.642 192.112 346.221 195.087 324.625C203.086 266.547 203.81 221.429 182.212 195.951C160.613 170.474 116.738 164.704 35.6174 185.421C-0.567191 194.657 -32.5378 192.324 -59.9961 182.142C-89.3396 171.263 -113.541 151.419 -132.229 127.156C-135.979 122.29 -139.504 117.258 -142.807 112.06L-143.382 112.766C-140.11 117.889 -136.622 122.862 -132.915 127.685C-114.134 152.067 -89.8053 172.012 -60.3034 182.949C-32.6866 193.19 -0.543246 195.538 35.8265 186.256C116.579 165.64 160.17 171.286 181.552 196.509C202.933 221.733 202.196 266.654 194.229 324.506C191.239 346.206 192.611 369.727 197.918 393.392C207.256 435.067 228.776 477.186 260.074 510.555C291.372 543.924 332.476 568.559 380.952 575.235C403.816 578.387 428.312 577.54 454.198 571.74C523.082 556.305 566.927 560.794 600.766 581.874L601.365 581.144Z" fill="white"/>
</mask>
<g mask="url(#mask1_1573_19)">
<path d="M-50.2462 -1.46161L626.487 550.334L495.8 710.61L-180.933 158.815L-50.2462 -1.46161Z" fill="#E8F0FD"/>
</g>
<mask id="mask2_1573_19" style="mask-type:luminance" maskUnits="userSpaceOnUse" x="-141" y="108" width="729" height="492">
<path d="M587.17 598.553C553.536 574.439 509.122 567.613 437.159 581.22C411.197 586.13 386.782 586.146 364.145 582.253C316.132 573.992 276.057 548.106 246.008 513.835C215.959 479.564 195.923 436.882 188.017 395.061C183.535 371.338 182.946 347.883 186.642 326.398C196.586 268.62 198.823 223.551 178.095 197.364C157.366 171.177 113.71 163.941 31.9334 181.918C-4.54375 189.933 -36.4166 186.531 -63.5166 175.434C-92.4777 163.571 -115.998 142.931 -133.863 118.053C-136.039 115.024 -138.131 111.934 -140.138 108.784L-140.714 109.49C-138.744 112.568 -136.695 115.592 -134.566 118.561C-116.614 143.557 -92.9686 164.307 -63.842 176.228C-36.5838 187.39 -4.53766 190.822 32.1187 182.763C113.515 164.867 156.891 171.977 177.418 197.9C197.944 223.822 195.698 268.701 185.793 326.251C182.078 347.84 182.663 371.396 187.168 395.222C195.104 437.188 215.198 480.007 245.358 514.405C275.518 548.802 315.772 574.805 363.999 583.105C386.741 587.019 411.256 586.997 437.321 582.069C508.882 568.538 553.095 575.317 586.583 599.277L587.17 598.553Z" fill="white"/>
</mask>
<g mask="url(#mask2_1573_19)">
<path d="M-51.8873 0.551334L624.845 552.347L487.078 721.307L-189.655 169.512L-51.8873 0.551334Z" fill="#E8F0FD"/>
</g>
<mask id="mask3_1573_19" style="mask-type:luminance" maskUnits="userSpaceOnUse" x="-139" y="105" width="712" height="513">
<path d="M572.705 616.293C539.573 589.082 494.916 579.834 420.151 591.386C394.042 595.421 369.643 594.623 347.143 589.97C299.433 580.099 260.248 552.884 231.37 517.624C202.492 482.363 183.895 439.033 177.399 396.971C173.712 373.109 173.915 349.651 178.335 328.304C190.213 270.896 193.959 225.926 174.118 199.056C154.277 172.186 110.892 163.492 28.557 178.714C-8.16283 185.503 -39.906 181.03 -66.6201 169.029C-95.1691 156.204 -117.985 134.782 -135.002 109.324C-135.841 108.068 -136.666 106.803 -137.477 105.528L-138.052 106.234C-137.287 107.432 -136.51 108.622 -135.721 109.804C-118.617 135.39 -95.6812 156.923 -66.9799 169.816C-40.1164 181.882 -8.19635 186.385 28.7124 179.562C110.667 164.409 153.779 172.966 173.421 199.566C193.063 226.165 189.311 270.938 177.479 328.128C173.042 349.579 172.838 373.142 176.541 397.107C183.066 439.314 201.71 482.783 230.702 518.174C259.695 553.565 299.05 580.904 346.968 590.816C369.565 595.491 394.067 596.292 420.283 592.241C494.659 580.748 539.119 589.946 572.117 617.013L572.705 616.293Z" fill="white"/>
</mask>
<g mask="url(#mask3_1573_19)">
<path d="M-53.6146 2.6695L623.118 554.465L478.425 731.92L-198.308 180.124L-53.6146 2.6695Z" fill="#E8F0FD"/>
</g>
<mask id="mask4_1573_19" style="mask-type:luminance" maskUnits="userSpaceOnUse" x="-136" y="102" width="694" height="534">
<path d="M557.935 634.407C525.464 603.862 480.708 592.042 402.994 601.394C376.76 604.547 352.404 602.934 330.076 597.527C282.727 586.063 244.478 557.548 216.796 521.337C189.114 485.127 171.987 441.2 166.903 398.944C164.018 374.968 165.007 351.53 170.138 330.342C183.933 273.361 189.19 228.543 170.265 201.021C151.34 173.499 108.272 163.351 25.47 175.807C-11.4604 181.364 -43.0368 175.828 -69.3337 162.94C-96.9582 149.398 -118.767 127.739 -134.846 102.293L-135.422 103C-119.279 128.466 -97.4057 150.142 -69.7178 163.715C-43.2665 176.682 -11.522 182.249 25.5939 176.668C108.01 164.274 150.813 174.272 169.551 201.518C188.289 228.763 183.039 273.384 169.297 330.141C164.142 351.433 163.147 374.975 166.043 399.049C171.145 441.454 188.321 485.523 216.107 521.867C243.893 558.211 282.31 586.852 329.87 598.368C352.298 603.8 376.758 605.422 403.097 602.255C480.439 592.947 525.009 604.717 557.347 635.128L557.935 634.407Z" fill="white"/>
</mask>
<g mask="url(#mask4_1573_19)">
<path d="M-55.4351 4.90192L621.298 556.697L469.841 742.446L-206.891 190.651L-55.4351 4.90192Z" fill="#E8F0FD"/>
</g>
<mask id="mask5_1573_19" style="mask-type:luminance" maskUnits="userSpaceOnUse" x="-133" y="99" width="676" height="555">
<path d="M542.811 652.955C511.186 618.812 466.512 604.254 385.697 611.236C359.375 613.51 335.085 611.078 312.95 604.924C266.009 591.878 228.739 562.095 202.288 524.977C175.837 487.859 160.194 443.381 156.531 400.976C154.453 376.919 156.228 353.527 162.066 332.524C177.763 276.033 184.521 231.418 166.532 203.283C148.543 175.148 105.835 163.558 22.6624 173.223C-14.4311 177.533 -45.8037 170.941 -71.6494 157.172C-97.142 143.596 -117.273 123.039 -132.23 99.083L-132.809 99.7927C-117.791 123.762 -97.604 144.328 -72.0569 157.934C-46.0591 171.777 -14.5176 178.409 22.7645 174.079C105.548 164.458 147.99 175.888 165.803 203.746C183.615 231.604 176.874 276.024 161.235 332.287C155.365 353.399 153.581 376.895 155.669 401.051C159.346 443.6 175.034 488.222 201.586 525.48C228.137 562.737 265.571 592.652 312.719 605.758C334.951 611.938 359.345 614.382 385.774 612.099C466.226 605.144 510.719 619.655 542.224 653.675L542.811 652.955Z" fill="white"/>
</mask>
<g mask="url(#mask5_1573_19)">
<path d="M-57.3541 7.25568L619.379 559.051L461.331 752.884L-215.402 201.089L-57.3541 7.25568Z" fill="#E8F0FD"/>
</g>
<mask id="mask6_1573_19" style="mask-type:luminance" maskUnits="userSpaceOnUse" x="-131" y="95" width="659" height="578">
<path d="M527.301 671.977C496.728 633.946 452.346 616.481 368.261 620.908C341.878 622.299 317.683 619.052 295.766 612.16C249.291 597.545 213.044 566.532 187.85 528.544C162.655 490.556 148.517 445.58 146.279 403.077C145.012 378.966 147.569 355.646 154.104 334.845C171.695 278.92 179.943 234.552 162.906 205.827C145.87 177.102 103.574 164.088 20.1273 170.957C-17.091 174.021 -48.2255 166.379 -73.5969 151.754C-97.1583 138.177 -115.757 118.569 -129.658 95.9227L-130.236 96.6314C-116.276 119.282 -97.6321 138.898 -74.0297 152.502C-48.5143 167.21 -17.2102 174.898 20.1972 171.818C103.258 164.981 145.293 177.83 162.161 206.268C179.04 234.726 170.8 278.879 153.282 334.584C146.708 355.48 144.138 378.904 145.414 403.119C147.661 445.771 161.842 490.892 187.127 529.02C212.411 567.148 248.825 598.306 295.506 612.983C317.517 619.905 341.815 623.166 368.306 621.771C452.047 617.361 496.249 634.78 526.708 672.704L527.301 671.977Z" fill="white"/>
</mask>
<g mask="url(#mask6_1573_19)">
<path d="M-59.3785 9.73859L617.354 561.534L452.176 764.112L-224.557 212.317L-59.3785 9.73859Z" fill="#E8F0FD"/>
</g>
<mask id="mask7_1573_19" style="mask-type:luminance" maskUnits="userSpaceOnUse" x="-128" y="92" width="640" height="601">
<path d="M511.359 691.528C482.073 649.278 438.226 628.738 350.693 630.405C324.275 630.909 300.203 626.853 278.532 619.23C232.575 603.065 197.383 570.85 173.481 532.044C149.579 493.237 136.956 447.804 136.148 405.25C135.688 381.106 139.029 357.888 146.262 337.323C165.716 282.016 175.452 237.953 159.387 208.671C143.322 179.389 101.489 164.965 17.8569 169.028C-19.4435 170.842 -50.3032 162.16 -75.1668 146.695C-96.9835 133.124 -114.196 114.326 -127.106 92.8062L-127.687 93.5188C-114.725 115.034 -97.4743 133.834 -75.6236 147.427C-50.6153 162.989 -19.582 171.712 17.9016 169.896C101.143 165.847 142.722 180.098 158.624 209.086C174.525 238.073 164.822 281.944 145.444 337.031C138.174 357.697 134.817 381.021 135.279 405.262C136.091 447.963 148.759 493.535 172.747 532.493C196.735 571.452 232.081 603.811 278.246 620.043C300.013 627.698 324.19 631.774 350.708 631.267C437.91 629.606 481.583 650.105 510.76 692.263L511.359 691.528Z" fill="white"/>
</mask>
<g mask="url(#mask7_1573_19)">
<path d="M-61.516 12.3597L615.217 564.155L442.795 775.616L-233.937 223.821L-61.516 12.3597Z" fill="#E8F0FD"/>
</g>
<mask id="mask8_1573_19" style="mask-type:luminance" maskUnits="userSpaceOnUse" x="-126" y="89" width="621" height="624">
<path d="M494.91 711.701C467.17 664.866 424.172 641.05 333 639.726C306.587 639.347 282.66 634.482 261.252 626.137C215.858 608.441 181.773 575.06 159.188 535.471C136.603 495.882 125.506 450.056 126.126 407.498C126.477 383.354 130.595 360.26 138.516 339.948C159.815 285.327 171.023 241.616 155.95 211.812C140.877 182.007 99.5515 166.186 15.8318 167.443C-21.5074 168.003 -52.0572 158.287 -76.3931 141.996C-96.6558 128.428 -112.614 110.295 -124.601 89.7279L-125.182 90.4415C-113.152 111.001 -97.159 129.13 -76.8719 142.711C-52.4024 159.096 -21.6837 168.867 15.8466 168.303C99.1786 167.054 140.258 182.692 155.181 212.198C170.103 241.705 158.928 285.224 137.716 339.634C129.752 360.042 125.62 383.233 125.266 407.482C124.646 450.187 135.769 496.16 158.439 535.895C181.11 575.631 215.35 609.163 260.94 626.938C282.436 635.321 306.462 640.207 332.986 640.59C423.851 641.912 466.667 665.686 494.301 712.448L494.91 711.701Z" fill="white"/>
</mask>
<g mask="url(#mask8_1573_19)">
<path d="M-63.7723 15.1273L612.96 566.923L433.49 787.029L-243.243 235.233L-63.7723 15.1273Z" fill="#E8F0FD"/>
</g>
<mask id="mask9_1573_19" style="mask-type:luminance" maskUnits="userSpaceOnUse" x="-123" y="86" width="601" height="648">
<path d="M477.907 732.555C452.007 680.708 410.209 653.433 315.185 648.863C288.798 647.593 265.052 641.932 243.938 632.871C199.167 613.658 166.216 579.157 144.973 538.832C123.73 498.507 114.18 452.334 116.225 409.821C117.386 385.703 122.277 362.76 130.874 342.726C153.995 288.849 166.662 245.541 152.6 215.241C138.538 184.941 97.765 167.749 14.0513 166.196C-23.2868 165.502 -53.494 154.771 -77.2675 137.669C-96.156 124.082 -110.988 106.471 -122.116 86.6804L-122.702 87.3998C-111.536 107.174 -96.6744 124.775 -77.7735 138.37C-53.864 155.57 -23.4918 166.364 14.0347 167.061C97.3629 168.608 137.893 185.616 151.817 215.607C165.741 245.598 153.111 288.716 130.082 342.379C121.444 362.509 116.53 385.555 115.368 409.78C113.315 452.44 122.89 498.759 144.214 539.234C165.538 579.708 198.634 614.369 243.602 633.666C264.806 642.765 288.652 648.451 315.152 649.726C409.877 654.284 451.485 681.528 477.292 733.317L477.907 732.555Z" fill="white"/>
</mask>
<g mask="url(#mask9_1573_19)">
<path d="M-66.151 18.0443L610.582 569.84L424.262 798.345L-252.47 246.55L-66.151 18.0443Z" fill="#E8F0FD"/>
</g>
<mask id="mask10_1573_19" style="mask-type:luminance" maskUnits="userSpaceOnUse" x="-121" y="83" width="582" height="672">
<path d="M460.254 754.205C436.518 696.861 396.357 665.922 297.259 657.813C270.928 655.66 247.386 649.203 226.587 639.438C182.485 618.733 150.714 583.145 130.835 542.131C110.955 501.117 102.962 454.648 106.432 412.228C108.401 388.164 114.059 365.398 123.324 345.662C148.243 292.595 162.354 249.732 149.314 218.983C136.274 188.233 96.1042 169.677 12.4879 165.315C-24.8063 163.37 -54.637 151.632 -77.8213 133.742C-95.5082 120.094 -109.336 102.865 -119.665 83.6751L-120.253 84.3965C-109.888 103.561 -96.0397 120.77 -78.3482 134.42C-55.0285 152.412 -25.0364 164.221 12.446 166.176C95.6727 170.517 135.612 188.876 148.521 219.318C161.43 249.76 147.362 292.43 122.544 345.291C113.236 365.118 107.552 387.987 105.575 412.157C102.094 454.726 110.105 501.338 130.06 542.507C150.014 583.675 181.928 619.423 226.221 640.219C247.106 650.027 270.748 656.51 297.192 658.671C396.008 666.76 435.977 697.674 459.614 754.989L460.254 754.205Z" fill="white"/>
</mask>
<g mask="url(#mask10_1573_19)">
<path d="M-68.6612 21.1229L608.072 572.918L415.115 809.564L-261.618 257.769L-68.6612 21.1229Z" fill="#E8F0FD"/>
</g>
<mask id="mask11_1573_19" style="mask-type:luminance" maskUnits="userSpaceOnUse" x="-118" y="80" width="560" height="698">
<path d="M441.861 776.762C420.638 713.357 382.645 678.542 279.225 666.574C252.982 663.537 229.67 656.294 209.208 645.835C165.825 623.661 135.265 587.027 116.773 545.369C98.2815 503.711 91.8557 457.004 96.7468 414.723C99.5177 390.743 105.94 368.175 115.863 348.761C142.545 296.558 158.089 254.194 146.09 223.026C134.09 191.858 94.5631 171.962 11.1405 164.796C-26.0673 161.6 -55.4868 148.865 -78.0632 130.212C-94.7138 116.449 -107.646 99.4576 -117.233 80.6922L-117.831 81.4261C-108.21 100.155 -95.2603 117.117 -78.6117 130.879C-55.9079 149.642 -26.3303 162.449 11.0644 165.661C94.0988 172.794 133.396 192.486 145.278 223.34C157.161 254.194 141.665 296.374 115.09 348.369C105.121 367.874 98.674 390.538 95.8857 414.626C90.9759 457.055 97.4216 503.913 115.983 545.728C134.545 587.543 165.239 624.341 208.812 646.611C229.357 657.112 252.768 664.384 279.121 667.434C382.283 679.368 420.08 714.168 441.2 777.572L441.861 776.762Z" fill="white"/>
</mask>
<g mask="url(#mask11_1573_19)">
<path d="M-71.3082 24.369L605.425 576.164L406.047 820.685L-270.686 268.89L-71.3082 24.369Z" fill="#E8F0FD"/>
</g>
<mask id="mask12_1573_19" style="mask-type:luminance" maskUnits="userSpaceOnUse" x="-116" y="77" width="539" height="725">
<path d="M422.626 800.353C404.308 730.226 369.101 691.328 261.09 675.138C234.962 671.22 211.905 663.204 191.81 652.067C149.198 628.452 119.884 590.811 102.8 548.554C85.7163 506.297 80.8574 459.4 87.1661 417.307C90.7451 393.426 97.9181 371.09 108.485 352.022C136.903 300.743 153.86 258.927 142.913 227.374C131.966 195.821 93.1298 174.609 9.99582 164.648C-27.0834 160.205 -56.0599 146.491 -77.9945 127.086C-93.7699 113.13 -105.907 96.2279 -114.802 77.7114L-115.405 78.4511C-106.48 96.9212 -94.329 113.788 -78.5651 127.735C-56.5049 147.25 -27.3734 161.042 9.89257 165.508C92.6433 175.423 131.259 196.418 142.097 227.657C152.935 258.895 136.037 300.526 107.729 351.604C97.1101 370.766 89.9083 393.203 86.3115 417.179C79.9804 459.417 84.8523 506.46 101.998 548.88C119.144 591.3 148.591 629.1 191.391 652.822C211.571 664.004 234.73 672.062 260.961 675.994C368.726 692.146 403.719 731.044 421.933 801.203L422.626 800.353Z" fill="white"/>
</mask>
<g mask="url(#mask12_1573_19)">
<path d="M-74.0965 27.7889L602.636 579.584L397.064 831.702L-279.669 279.906L-74.0965 27.7889Z" fill="#E8F0FD"/>
</g>
<mask id="mask13_1573_19" style="mask-type:luminance" maskUnits="userSpaceOnUse" x="-113" y="74" width="516" height="753">
<path d="M402.408 825.148C387.415 747.53 355.749 704.325 242.861 683.508C216.878 678.717 194.104 669.928 174.394 658.124C132.597 633.09 104.564 594.487 88.9078 551.682C73.2514 508.876 69.9703 461.842 77.6881 419.986C82.0655 396.239 89.9859 374.155 101.185 355.455C131.306 305.162 149.661 263.933 139.778 232.029C129.894 200.125 91.7926 177.625 9.03958 164.88C-27.8697 159.195 -56.368 144.515 -77.6406 124.384C-92.6895 110.143 -104.124 93.1683 -112.364 74.7208L-112.976 75.4721C-104.705 93.8659 -93.2619 110.791 -78.2335 125.014C-56.8413 145.258 -28.1926 160.021 8.90731 165.733C91.2823 178.423 129.168 200.7 138.955 232.289C148.743 263.879 130.449 304.91 100.449 355.011C89.1854 373.808 81.2357 395.98 76.8369 419.83C69.0892 461.827 72.3846 509.011 88.0967 551.981C103.809 594.952 131.968 633.722 173.948 658.864C193.742 670.718 216.615 679.548 242.704 684.358C355.361 705.135 386.791 748.336 401.687 826.033L402.408 825.148Z" fill="white"/>
</mask>
<g mask="url(#mask13_1573_19)">
<path d="M-77.0313 31.389L599.701 583.184L388.164 842.618L-288.568 290.822L-77.0313 31.389Z" fill="#E8F0FD"/>
</g>
<mask id="mask14_1573_19" style="mask-type:luminance" maskUnits="userSpaceOnUse" x="-111" y="71" width="491" height="772">
<path d="M114.3 626.298C96.5338 605.123 83.587 580.617 75.1023 554.76C60.8868 511.439 59.1893 464.334 68.3067 422.761C73.4798 399.174 82.135 377.373 93.9577 359.053C125.748 309.799 145.48 269.213 136.669 236.993C127.858 204.772 90.5382 181.009 8.25709 165.494C-28.4372 158.574 -56.4291 142.946 -77.0139 122.113C-91.4781 107.474 -102.287 90.2627 -109.895 71.6933L-110.517 72.4562C-102.877 90.9585 -92.0608 108.11 -77.6276 122.721C-56.9263 143.672 -28.7864 159.387 8.09874 166.343C89.9984 181.788 127.117 205.325 135.835 237.222C144.553 269.119 124.9 309.52 93.2297 358.582C81.35 376.987 72.6571 398.888 67.4653 422.569C58.3147 464.288 60.0182 511.556 74.2815 555.024C82.3617 579.642 94.4709 603.045 110.919 623.532L114.3 626.298ZM379.91 842.871C367.943 762.123 338.704 716.712 224.544 691.675C204.333 687.243 186.17 680.424 169.971 671.691L173.335 674.435C188.635 682.258 205.62 688.411 224.356 692.519C337.498 717.335 366.877 762.272 378.904 842.051L379.91 842.871Z" fill="white"/>
</mask>
<g mask="url(#mask14_1573_19)">
<path d="M-80.1206 35.1768L591.776 583.029L379.907 842.869L-291.99 295.017L-80.1206 35.1768Z" fill="#E8F0FD"/>
</g>
<mask id="mask15_1573_19" style="mask-type:luminance" maskUnits="userSpaceOnUse" x="-109" y="68" width="459" height="751">
<path d="M75.757 594.871C69.8906 582.954 65.0806 570.546 61.3823 557.788C48.6302 514.017 48.5131 466.88 59.0214 425.634C64.9834 402.236 74.3641 380.734 86.7953 362.825C120.224 314.662 141.299 274.761 133.583 242.268C125.867 209.774 89.3554 184.768 7.64493 166.501C-28.7999 158.356 -56.2506 141.795 -76.1242 120.283C-90.1406 105.114 -100.391 87.4788 -107.37 68.5962L-108.001 69.3698C-100.984 88.1767 -90.7341 105.739 -76.7584 120.866C-56.7732 142.499 -29.1759 159.148 7.45421 167.337C88.7866 185.523 125.097 210.292 132.74 242.464C140.384 274.636 119.387 314.353 86.0875 362.327C73.5969 380.322 64.1734 401.919 58.187 425.416C47.6417 466.803 47.7584 514.103 60.5561 558.026C64.0952 570.229 68.6453 582.116 74.1591 593.563L75.757 594.871ZM349.925 818.422C335.57 759.97 300.635 723.715 206.148 699.642C205.212 699.404 204.283 699.162 203.36 698.916L204.981 700.238L205.937 700.484C299.284 724.266 334.259 760.02 348.766 817.477L349.925 818.422Z" fill="white"/>
</mask>
<g mask="url(#mask15_1573_19)">
<path d="M-83.3669 39.159L558.547 562.564L349.925 818.423L-291.989 295.018L-83.3669 39.159Z" fill="#E8F0FD"/>
</g>
<mask id="mask16_1573_19" style="mask-type:luminance" maskUnits="userSpaceOnUse" x="-106" y="65" width="418" height="723">
<path d="M52.0364 575.53C50.4446 570.655 49.0154 565.734 47.7488 560.766C36.4728 516.59 37.9372 469.475 49.8229 428.607C56.5664 405.422 66.6633 384.247 79.6892 366.764C114.716 319.749 137.118 280.579 130.493 247.844C123.868 215.108 88.2199 188.892 7.16784 167.891C-28.9808 158.526 -55.86 141.055 -75.0012 118.888C-88.6857 103.041 -98.4159 84.7898 -104.756 65.3803L-105.405 66.176C-99.028 85.4932 -89.2949 103.659 -75.6565 119.455C-56.4092 141.748 -29.384 159.312 6.95036 168.727C87.6289 189.629 123.083 215.609 129.651 248.008C136.218 280.407 113.892 319.421 79.0006 366.252C65.9138 383.818 55.7698 405.086 48.9981 428.369C37.0711 469.38 35.6029 516.66 46.9161 560.983C48.0775 565.533 49.3753 570.048 50.8094 574.529L52.0364 575.53ZM311.651 787.215C297.059 761.21 273.092 740.611 233.643 723.609L236.15 725.653C272.6 741.851 295.359 761.317 309.619 785.558L311.651 787.215Z" fill="white"/>
</mask>
<g mask="url(#mask16_1573_19)">
<path d="M-86.7771 43.3409L516.867 535.541L311.654 787.218L-291.99 295.018L-86.7771 43.3409Z" fill="#E8F0FD"/>
</g>
<mask id="mask17_1573_19" style="mask-type:luminance" maskUnits="userSpaceOnUse" x="-103" y="62" width="232" height="499">
<path d="M33.5203 560.432C24.5827 516.877 27.7951 471.15 40.7211 431.696C48.239 408.749 59.0419 387.925 72.6463 370.889C109.232 325.078 132.936 286.682 127.412 253.741C121.888 220.8 87.1422 193.403 6.84068 169.695C-28.9767 159.121 -55.2541 140.759 -73.6409 117.962C-87.1137 101.257 -96.3521 82.1664 -102.004 62.0129L-102.673 62.8338C-96.9764 82.8808 -87.736 101.87 -74.3149 118.51C-55.8243 141.438 -29.4082 159.901 6.58839 170.527C86.5215 194.127 121.089 221.277 126.556 253.888C132.024 286.5 108.409 324.721 71.9675 370.353C58.2986 387.47 47.4466 408.386 39.8978 431.43C27.0267 470.709 23.7523 516.184 32.4557 559.572L33.5203 560.432Z" fill="white"/>
</mask>
<g mask="url(#mask17_1573_19)">
<path d="M-90.3537 47.7279L235.156 313.143L33.5214 560.431L-291.989 295.017L-90.3537 47.7279Z" fill="#E8F0FD"/>
</g>
<mask id="mask18_1573_19" style="mask-type:luminance" maskUnits="userSpaceOnUse" x="-100" y="58" width="225" height="490">
<path d="M18.0528 547.82C13.9569 508.869 19.129 469.308 31.7015 434.888C39.9851 412.207 51.4803 391.756 65.6499 375.185C103.752 330.628 128.729 293.048 124.311 259.949C119.894 226.849 86.0886 198.292 6.63124 171.906C-28.8095 160.136 -54.4582 140.902 -72.0673 117.503C-85.4393 99.733 -94.1816 79.556 -99.0636 58.4153L-99.7518 59.2594C-94.8153 80.2739 -86.0714 100.327 -72.7562 118.019C-55.0464 141.552 -29.2596 160.89 6.35864 172.722C85.4538 198.99 119.089 227.285 123.46 260.061C127.831 292.837 102.946 330.246 64.9949 374.63C50.7595 391.277 39.213 411.817 30.8939 434.594C18.3718 468.882 13.164 508.249 17.1093 547.052L18.0528 547.82Z" fill="white"/>
</mask>
<g mask="url(#mask18_1573_19)">
<path d="M-93.6297 51.7449L216.413 304.548L18.0529 547.82L-291.989 295.017L-93.6297 51.7449Z" fill="#E8F0FD"/>
</g>
<mask id="mask19_1573_19" style="mask-type:luminance" maskUnits="userSpaceOnUse" x="-97" y="54" width="219" height="483">
<path d="M4.73443 536.961C4.15707 502.448 10.6402 468.218 22.7622 438.193C31.8024 415.802 43.9774 395.749 58.6947 379.664C98.2697 336.409 124.495 299.689 121.194 266.454C117.893 233.219 85.0617 203.551 6.5333 174.512C-28.497 161.563 -53.4805 141.475 -70.2981 117.499C-83.6762 98.4212 -91.8853 76.8776 -95.8673 54.4891L-96.5864 55.3709C-92.5358 77.6141 -84.3168 99.0192 -71.0067 117.995C-54.0963 142.108 -28.9758 162.304 6.22648 175.322C84.3945 204.227 117.064 233.638 120.333 266.541C123.602 299.444 97.4786 335.998 58.0556 379.081C43.2688 395.242 31.0398 415.383 21.9629 437.867C9.88329 467.786 3.38369 501.863 3.85919 536.245L4.73443 536.961Z" fill="white"/>
</mask>
<g mask="url(#mask19_1573_19)">
<path d="M-95.8649 54.4859L200.859 296.429L4.73531 536.959L-291.989 295.016L-95.8649 54.4859Z" fill="#E8F0FD"/>
</g>
<mask id="mask20_1573_19" style="mask-type:luminance" maskUnits="userSpaceOnUse" x="-94" y="50" width="213" height="478">
<path d="M-6.93139 527.449C-4.96001 497.194 2.33522 467.698 13.8992 441.611C23.6882 419.537 36.5266 399.904 51.7747 384.321C92.7792 342.419 120.223 306.599 118.04 273.272C115.857 239.946 84.0384 209.193 6.52483 177.533C-28.0466 163.412 -52.3459 142.501 -68.347 117.973C-81.8312 97.3019 -89.4254 74.0544 -92.3132 50.1306L-93.0709 51.0598C-90.0936 74.8166 -82.4791 97.8892 -69.0663 118.442C-52.9747 143.11 -28.5457 164.136 6.19966 178.329C83.3512 209.846 115.011 240.33 117.179 273.327C119.348 306.324 92.002 341.978 51.157 383.714C35.8366 399.37 22.9369 419.09 13.1104 441.257C1.58467 467.258 -5.71762 496.633 -7.75168 526.777L-6.93139 527.449Z" fill="white"/>
</mask>
<g mask="url(#mask20_1573_19)">
<path d="M-92.3133 50.1305L192.745 282.562L-6.93137 527.449L-291.99 295.018L-92.3133 50.1305Z" fill="#E8F0FD"/>
</g>
<mask id="mask21_1573_19" style="mask-type:luminance" maskUnits="userSpaceOnUse" x="-90" y="45" width="205" height="475">
<path d="M-17.2337 519.048C-13.483 492.862 -5.77844 467.643 5.11244 445.148C15.6338 423.413 29.1263 404.222 44.8894 389.16C87.276 348.659 115.907 313.779 114.844 280.395C113.781 247.011 83.0119 215.21 6.60661 180.969C-27.4728 165.695 -51.0568 143.98 -66.2252 118.928C-79.9233 96.3124 -86.7699 70.9716 -88.2812 45.1857L-89.0838 46.1701C-87.449 71.7669 -80.573 96.9079 -66.9667 119.38C-51.7119 144.574 -28.0024 166.408 6.24796 181.758C82.3012 215.843 112.922 247.377 113.977 280.425C115.031 313.474 86.5113 348.193 44.2904 388.537C28.4522 403.671 14.8989 422.944 4.33363 444.77C-6.52269 467.196 -14.2246 492.319 -18.0139 518.412L-17.2337 519.048Z" fill="white"/>
</mask>
<g mask="url(#mask21_1573_19)">
<path d="M-88.2809 45.1859L186.475 269.217L-17.2332 519.049L-291.989 295.018L-88.2809 45.1859Z" fill="#E8F0FD"/>
</g>
<mask id="mask22_1573_19" style="mask-type:luminance" maskUnits="userSpaceOnUse" x="-85" y="39" width="197" height="473">
<path d="M-26.372 511.597C-21.4697 489.289 -13.7026 467.981 -3.60852 448.802C7.63624 427.433 21.7647 408.705 38.024 394.18C81.7466 355.124 111.531 321.225 111.588 287.827C111.644 254.428 81.9609 221.61 6.74942 184.824C-26.7981 168.417 -49.6423 145.927 -63.958 120.376C-77.9722 95.3742 -83.8281 67.4382 -83.5743 39.4165L-84.4463 40.4859C-84.5432 68.2895 -78.6246 95.9787 -64.7143 120.804C-50.3124 146.496 -27.3505 169.114 6.36594 185.605C81.2331 222.222 110.779 254.765 110.723 287.83C110.668 320.896 80.9977 354.631 37.4487 393.537C21.1123 408.132 6.92025 426.941 -4.37229 448.399C-14.4364 467.523 -22.1978 488.757 -27.12 510.982L-26.372 511.597Z" fill="white"/>
</mask>
<g mask="url(#mask22_1573_19)">
<path d="M-83.5762 39.415L182.041 255.995L-26.372 511.597L-291.99 295.017L-83.5762 39.415Z" fill="#E8F0FD"/>
</g>
<mask id="mask23_1573_19" style="mask-type:luminance" maskUnits="userSpaceOnUse" x="-80" y="32" width="189" height="473">
<path d="M-34.4785 504.987C-28.957 486.37 -21.4322 468.67 -12.263 452.578C-0.308131 431.598 14.4425 413.356 31.1811 399.386C76.1884 361.818 107.093 328.938 108.272 295.561C109.452 262.183 80.8856 228.387 6.94899 189.097C-26.0302 171.572 -48.1046 148.325 -61.5574 122.312C-75.9358 94.5152 -80.4753 63.5493 -77.9653 33.0291L-77.919 32.4808L-78.8809 33.6604C-81.2761 64.107 -76.6705 94.9721 -62.324 122.71C-48.7936 148.874 -26.6026 172.248 6.54069 189.86C80.137 228.97 108.575 262.487 107.409 295.532C106.244 328.576 75.4604 361.303 30.6247 398.728C13.8077 412.764 -1.00832 431.087 -13.0137 452.154C-22.1583 468.2 -29.6729 485.844 -35.2064 504.405L-34.4785 504.987Z" fill="white"/>
</mask>
<g mask="url(#mask23_1573_19)">
<path d="M-77.9202 32.4785L179.591 242.448L-34.4778 504.986L-291.989 295.016L-77.9202 32.4785Z" fill="#E8F0FD"/>
</g>
<mask id="mask24_1573_19" style="mask-type:luminance" maskUnits="userSpaceOnUse" x="-75" y="23" width="181" height="477">
<path d="M-41.6434 499.145C-35.9746 484.025 -28.9715 469.67 -20.8579 456.477C-8.20567 435.912 7.15086 418.178 24.346 404.774C70.589 368.736 102.582 336.913 104.877 303.594C107.173 270.275 79.7596 235.539 7.18213 193.788C-25.1885 175.167 -46.4697 151.192 -59.0432 124.741C-72.4794 96.4773 -75.9774 65.3771 -72.444 34.962C-72.0091 31.2225 -71.4702 27.4963 -70.8275 23.7835L-71.9312 25.1372C-72.4646 28.3683 -72.9206 31.6093 -73.2994 34.8601C-76.8497 65.4321 -73.3318 96.6934 -59.8201 125.115C-47.1747 151.715 -25.7808 175.822 6.75385 194.538C78.9968 236.095 106.292 270.548 104.018 303.534C101.745 336.52 69.8798 368.197 23.8183 404.092C6.54053 417.557 -8.88618 435.377 -21.5866 456.027C-29.6813 469.186 -36.6747 483.498 -42.3446 498.572L-41.6434 499.145Z" fill="white"/>
</mask>
<g mask="url(#mask24_1573_19)">
<path d="M-70.8298 23.7821L186.692 233.76L-34.4684 504.996L-291.99 295.017L-70.8298 23.7821Z" fill="#E8F0FD"/>
</g>
<mask id="mask25_1573_19" style="mask-type:luminance" maskUnits="userSpaceOnUse" x="-70" y="12" width="172" height="483">
<path d="M-47.933 494.017C-42.6382 482.379 -36.4394 471.174 -29.3936 460.504C-16.0568 440.375 -0.116816 423.163 17.5212 410.347C64.9427 375.879 97.9874 345.15 101.402 311.926C104.816 278.701 78.5816 243.067 7.44646 198.905C-24.2799 179.208 -44.7467 154.53 -56.4217 127.672C-68.902 98.9726 -71.3548 67.7732 -66.8033 37.4896C-65.5101 28.9406 -63.6886 20.4799 -61.3494 12.1561L-62.7 13.8124C-64.8029 21.5602 -66.4586 29.4224 -67.6589 37.3602C-72.2322 67.7951 -69.7645 99.1578 -57.2148 128.017C-45.4696 155.026 -24.8978 179.837 6.99212 199.634C77.7989 243.592 103.925 278.942 100.546 311.835C97.1668 344.727 64.2549 375.315 17.0136 409.645C-0.706087 422.522 -16.7173 439.809 -30.111 460.024C-37.1402 470.668 -43.3293 481.844 -48.6219 493.45L-47.933 494.017Z" fill="white"/>
</mask>
<g mask="url(#mask25_1573_19)">
<path d="M-61.3493 12.1561L197.446 223.173L-33.1942 506.034L-291.989 295.018L-61.3493 12.1561Z" fill="#E8F0FD"/>
</g>
</svg>
