<svg width="691" height="456" viewBox="0 0 691 456" fill="none" xmlns="http://www.w3.org/2000/svg">
<mask id="mask0_1573_184" style="mask-type:luminance" maskUnits="userSpaceOnUse" x="9" y="108" width="763" height="454">
<path d="M9.98248 557.037C44.2176 538.48 87.8193 536.089 154.588 553.421C180.159 560.059 204.515 561.718 227.367 559.349C275.828 554.326 317.549 531.187 349.828 499.01C382.108 466.832 404.96 425.591 415.655 384.394C421.722 361.023 423.878 337.664 421.63 315.978C415.585 257.663 416.375 212.545 438.817 187.805C461.26 163.065 505.296 158.779 585.686 182.199C621.538 192.646 653.571 191.385 681.356 182.131C711.051 172.245 735.9 153.221 755.393 129.602C760.96 122.842 766.099 115.74 770.778 108.338L771.355 109.045C766.698 116.392 761.591 123.443 756.061 130.157C736.473 153.894 711.485 173.015 681.632 182.957C653.689 192.264 621.479 193.531 585.446 183.035C505.428 159.723 461.673 163.905 439.463 188.391C417.253 212.877 416.476 257.804 422.497 315.889C424.756 337.679 422.591 361.142 416.498 384.613C405.767 425.952 382.847 467.324 350.444 499.625C318.042 531.925 276.132 555.168 227.462 560.212C204.511 562.592 180.052 560.925 154.375 554.26C88.0357 537.039 44.6531 539.377 10.5849 557.766L9.98248 557.037Z" fill="white"/>
</mask>
<g mask="url(#mask0_1573_184)">
<path d="M673.978 -10.3793L-2.75488 541.416L120.705 692.829L797.437 141.034L673.978 -10.3793Z" fill="#E8F0FD" fill-opacity="0.2"/>
</g>
<mask id="mask1_1573_184" style="mask-type:luminance" maskUnits="userSpaceOnUse" x="23" y="105" width="746" height="470">
<path d="M23.9308 574.144C57.9298 552.912 101.984 548.367 171.285 563.896C197.066 569.674 221.463 570.514 244.224 567.38C292.487 560.732 333.408 536.207 364.589 502.965C395.771 469.724 417.222 427.739 426.532 386.204C431.811 362.642 433.183 339.222 430.208 317.625C422.21 259.548 421.486 214.429 443.084 188.951C464.682 163.474 508.557 157.705 589.678 178.421C625.863 187.657 657.833 185.325 685.292 175.142C714.635 164.263 738.836 144.419 757.525 120.156C761.274 115.29 764.8 110.258 768.102 105.061L768.678 105.767C765.406 110.89 761.917 115.863 758.211 120.685C739.429 145.067 715.101 165.012 685.599 175.949C657.982 186.19 625.839 188.538 589.469 179.256C508.716 158.64 465.125 164.286 443.744 189.51C422.362 214.733 423.1 259.654 431.066 317.507C434.057 339.207 432.684 362.727 427.377 386.392C418.039 428.067 396.52 470.187 365.222 503.556C333.924 536.925 292.819 561.56 244.343 568.235C221.48 571.388 196.984 570.54 171.098 564.74C102.214 549.305 58.3686 553.794 24.5295 574.874L23.9308 574.144Z" fill="white"/>
</mask>
<g mask="url(#mask1_1573_184)">
<path d="M675.542 -8.46136L-1.19116 543.334L129.496 703.611L806.228 151.815L675.542 -8.46136Z" fill="#E8F0FD" fill-opacity="0.2"/>
</g>
<mask id="mask2_1573_184" style="mask-type:luminance" maskUnits="userSpaceOnUse" x="38" y="101" width="729" height="492">
<path d="M38.1258 591.554C71.7591 567.439 116.174 560.614 188.137 574.221C214.098 579.13 238.514 579.146 261.15 575.254C309.164 566.993 349.239 541.106 379.288 506.835C409.337 472.564 429.372 429.882 437.279 388.061C441.76 364.338 442.35 340.883 438.653 319.398C428.71 261.621 426.472 216.551 447.201 190.364C467.929 164.178 511.586 156.942 593.362 174.918C629.839 182.934 661.712 179.532 688.812 168.434C717.773 156.571 741.294 135.931 759.159 111.054C761.334 108.024 763.426 104.935 765.433 101.785L766.009 102.49C764.04 105.569 761.99 108.592 759.861 111.562C741.909 136.558 718.264 157.307 689.137 169.228C661.879 180.39 629.833 183.823 593.177 175.763C511.781 157.868 468.405 164.978 447.878 190.9C427.351 216.823 429.598 261.701 439.502 319.252C443.218 340.84 442.632 364.397 438.127 388.223C430.192 430.188 410.098 473.008 379.937 507.405C349.777 541.802 309.524 567.805 261.296 576.106C238.554 580.02 214.039 579.998 187.974 575.07C116.414 561.538 72.2001 568.318 38.7128 592.277L38.1258 591.554Z" fill="white"/>
</mask>
<g mask="url(#mask2_1573_184)">
<path d="M677.183 -6.44818L0.449951 545.347L138.217 714.308L814.95 162.512L677.183 -6.44818Z" fill="#E8F0FD" fill-opacity="0.2"/>
</g>
<mask id="mask3_1573_184" style="mask-type:luminance" maskUnits="userSpaceOnUse" x="52" y="98" width="712" height="513">
<path d="M52.5908 609.293C85.7224 582.082 130.38 572.834 205.144 584.387C231.254 588.421 255.652 587.623 278.152 582.97C325.863 573.099 365.047 545.885 393.926 510.624C422.804 475.363 441.401 432.034 447.897 389.971C451.583 366.109 451.381 342.652 446.961 321.305C435.083 263.896 431.336 218.926 451.177 192.056C471.018 165.186 514.403 156.492 596.738 171.714C633.458 178.503 665.201 174.03 691.915 162.029C720.464 149.205 743.28 127.783 760.298 102.324C761.137 101.068 761.962 99.8029 762.772 98.528L763.348 99.2339C762.583 100.432 761.805 101.622 761.016 102.804C743.912 128.39 720.977 149.923 692.275 162.816C665.412 174.883 633.492 179.386 596.583 172.562C514.628 157.41 471.516 165.966 451.875 192.566C432.233 219.165 435.985 263.939 447.816 321.128C452.254 342.579 452.457 366.142 448.755 390.108C442.23 432.314 423.586 475.783 394.593 511.174C365.601 546.565 326.245 573.904 278.328 583.817C255.731 588.491 231.229 589.293 205.012 585.241C130.636 573.748 86.1763 582.947 53.1781 610.014L52.5908 609.293Z" fill="white"/>
</mask>
<g mask="url(#mask3_1573_184)">
<path d="M678.91 -4.33001L2.17725 547.465L146.871 724.92L823.603 173.125L678.91 -4.33001Z" fill="#E8F0FD" fill-opacity="0.2"/>
</g>
<mask id="mask4_1573_184" style="mask-type:luminance" maskUnits="userSpaceOnUse" x="67" y="95" width="694" height="534">
<path d="M67.3606 627.407C99.8311 596.862 144.588 585.042 222.301 594.394C248.535 597.547 272.891 595.934 295.219 590.527C342.569 579.063 380.817 550.548 408.499 514.337C436.181 478.127 453.309 434.2 458.393 391.944C461.277 367.968 460.288 344.53 455.158 323.342C441.362 266.361 436.105 221.543 455.03 194.021C473.955 166.499 517.024 156.351 599.825 168.807C636.756 174.364 668.332 168.828 694.629 155.94C722.254 142.398 744.063 120.739 760.141 95.293L760.718 95.9998C744.574 121.466 722.701 143.142 695.013 156.715C668.562 169.682 636.817 175.249 599.702 169.668C517.286 157.274 474.483 167.272 455.744 194.518C437.006 221.763 442.256 266.384 455.998 323.141C461.153 344.433 462.149 367.975 459.253 392.049C454.15 434.454 436.974 478.523 409.188 514.867C381.402 551.211 342.985 579.852 295.425 591.368C272.997 596.8 248.538 598.422 222.198 595.255C144.856 585.947 100.287 597.717 67.9487 628.128L67.3606 627.407Z" fill="white"/>
</mask>
<g mask="url(#mask4_1573_184)">
<path d="M680.731 -2.09808L3.9978 549.697L155.454 735.446L832.187 183.651L680.731 -2.09808Z" fill="#E8F0FD" fill-opacity="0.2"/>
</g>
<mask id="mask5_1573_184" style="mask-type:luminance" maskUnits="userSpaceOnUse" x="82" y="92" width="677" height="555">
<path d="M82.4844 645.955C114.109 611.813 158.783 597.255 239.599 604.236C265.921 606.51 290.211 604.078 312.345 597.925C359.286 584.878 396.556 555.096 423.007 517.978C449.458 480.86 465.101 436.381 468.765 393.976C470.842 369.919 469.068 346.528 463.229 325.524C447.532 269.033 440.774 224.419 458.763 196.284C476.752 168.149 519.461 156.558 602.633 166.224C639.727 170.533 671.099 163.941 696.945 150.172C722.437 136.596 742.568 116.04 757.525 92.0833L758.104 92.793C743.086 116.762 722.899 137.329 697.352 150.935C671.355 164.778 639.813 171.409 602.531 167.079C519.747 157.458 477.305 168.889 459.493 196.746C441.68 224.604 448.422 269.024 464.06 325.288C469.93 346.399 471.715 369.895 469.626 394.051C465.95 436.6 450.261 481.222 423.71 518.48C397.159 555.738 359.724 585.652 312.577 598.758C290.344 604.939 265.951 607.382 239.522 605.099C159.069 598.144 114.576 612.655 83.0718 646.676L82.4844 645.955Z" fill="white"/>
</mask>
<g mask="url(#mask5_1573_184)">
<path d="M682.65 0.255924L5.91675 552.051L163.965 745.885L840.698 194.089L682.65 0.255924Z" fill="#E8F0FD" fill-opacity="0.2"/>
</g>
<mask id="mask6_1573_184" style="mask-type:luminance" maskUnits="userSpaceOnUse" x="97" y="88" width="659" height="578">
<path d="M97.9946 664.978C128.568 626.947 172.95 609.482 257.034 613.909C283.417 615.3 307.612 612.053 329.529 605.16C376.005 590.545 412.251 559.532 437.446 521.544C462.64 483.556 476.778 438.581 479.016 396.077C480.283 371.967 477.727 348.646 471.191 327.846C453.6 271.92 445.353 227.553 462.389 198.828C479.425 170.103 521.721 157.088 605.168 163.957C642.386 167.022 673.521 159.38 698.892 144.755C722.454 131.177 741.053 111.569 754.953 88.9232L755.531 89.6319C741.572 112.283 722.927 131.899 699.325 145.503C673.81 160.21 642.506 167.899 605.098 164.819C522.037 157.981 480.002 170.83 463.134 199.268C446.256 227.726 454.495 271.879 472.013 327.584C478.588 348.48 481.157 371.905 479.881 396.119C477.634 438.771 463.454 483.892 438.169 522.02C412.884 560.148 376.471 591.307 329.789 605.983C307.778 612.906 283.48 616.166 256.989 614.771C173.249 610.362 129.046 627.78 98.5874 665.705L97.9946 664.978Z" fill="white"/>
</mask>
<g mask="url(#mask6_1573_184)">
<path d="M684.674 2.73883L7.94141 554.534L173.12 757.112L849.853 205.317L684.674 2.73883Z" fill="#E8F0FD" fill-opacity="0.2"/>
</g>
<mask id="mask7_1573_184" style="mask-type:luminance" maskUnits="userSpaceOnUse" x="113" y="85" width="640" height="601">
<path d="M113.936 684.528C143.223 642.278 187.069 621.738 274.602 623.405C301.02 623.909 325.092 619.853 346.763 612.23C392.72 596.065 427.912 563.85 451.814 525.044C475.716 486.237 488.339 440.804 489.147 398.25C489.607 374.106 486.266 350.888 479.033 330.323C459.579 275.016 449.843 230.953 465.908 201.671C481.974 172.389 523.806 157.965 607.438 162.028C644.739 163.842 675.598 155.16 700.462 139.695C722.279 126.124 739.491 107.326 752.401 85.8062L752.982 86.5188C740.02 108.034 722.77 126.834 700.919 140.427C675.91 155.989 644.877 164.712 607.394 162.896C524.152 158.847 482.573 173.098 466.671 202.086C450.77 231.073 460.473 274.944 479.851 330.031C487.121 350.697 490.478 374.021 490.016 398.262C489.204 440.963 476.536 486.535 452.548 525.493C428.56 564.452 393.214 596.811 347.049 613.043C325.282 620.698 301.105 624.774 274.587 624.267C187.385 622.606 143.712 643.105 114.535 685.263L113.936 684.528Z" fill="white"/>
</mask>
<g mask="url(#mask7_1573_184)">
<path d="M686.811 5.35993L10.0781 557.155L182.5 768.616L859.232 216.821L686.811 5.35993Z" fill="#E8F0FD" fill-opacity="0.2"/>
</g>
<mask id="mask8_1573_184" style="mask-type:luminance" maskUnits="userSpaceOnUse" x="130" y="82" width="621" height="624">
<path d="M130.385 704.702C158.125 657.866 201.123 634.05 292.296 632.727C318.708 632.347 342.635 627.482 364.044 619.137C409.438 601.441 443.522 568.06 466.107 528.471C488.693 488.882 499.789 443.057 499.169 400.498C498.819 376.354 494.7 353.26 486.78 332.949C465.481 278.327 454.273 234.616 469.345 204.812C484.418 175.008 525.744 159.186 609.464 160.443C646.803 161.003 677.353 151.288 701.688 134.996C721.951 121.428 737.909 103.295 749.896 82.7281L750.478 83.4417C738.448 104.001 722.454 122.13 702.167 135.711C677.698 152.096 646.979 161.867 609.449 161.304C526.117 160.054 485.038 175.692 470.115 205.199C455.192 234.705 466.367 278.224 487.58 332.634C495.543 353.042 499.675 376.233 500.029 400.482C500.649 443.187 489.526 489.16 466.856 528.896C444.186 568.631 409.946 602.163 364.356 619.939C342.859 628.321 318.833 633.207 292.309 633.59C201.444 634.912 158.628 658.686 130.994 705.448L130.385 704.702Z" fill="white"/>
</mask>
<g mask="url(#mask8_1573_184)">
<path d="M689.068 8.12751L12.335 559.923L191.805 780.029L868.538 228.234L689.068 8.12751Z" fill="#E8F0FD" fill-opacity="0.2"/>
</g>
<mask id="mask9_1573_184" style="mask-type:luminance" maskUnits="userSpaceOnUse" x="147" y="79" width="601" height="648">
<path d="M147.389 725.555C173.288 673.708 215.086 646.433 310.11 641.863C336.497 640.593 360.243 634.932 381.358 625.871C426.128 606.658 459.079 572.157 480.322 531.832C501.565 491.508 511.116 445.334 509.07 402.821C507.909 378.703 503.018 355.76 494.421 335.726C471.3 281.85 458.633 238.541 472.695 208.241C486.757 177.941 527.53 160.75 611.244 159.196C648.582 158.503 678.789 147.771 702.563 130.669C721.451 117.082 736.284 99.4714 747.411 79.6807L747.997 80.4C736.831 100.174 721.97 117.775 703.069 131.37C679.159 148.57 648.787 159.364 611.261 160.061C527.933 161.608 487.402 178.616 473.478 208.607C459.554 238.598 472.185 281.716 495.214 335.379C503.852 355.509 508.766 378.556 509.927 402.78C511.98 445.44 502.405 491.76 481.081 532.234C459.757 572.708 426.662 607.369 381.694 626.666C360.49 635.765 336.643 641.452 310.143 642.726C215.418 647.285 173.811 674.529 148.004 726.317L147.389 725.555Z" fill="white"/>
</mask>
<g mask="url(#mask9_1573_184)">
<path d="M691.446 11.0445L14.7136 562.84L201.033 791.346L877.766 239.55L691.446 11.0445Z" fill="#E8F0FD" fill-opacity="0.2"/>
</g>
<mask id="mask10_1573_184" style="mask-type:luminance" maskUnits="userSpaceOnUse" x="165" y="76" width="581" height="672">
<path d="M165.042 747.205C188.777 689.861 228.939 658.922 328.036 650.813C354.368 648.66 377.909 642.203 398.708 632.438C442.81 611.734 474.581 576.145 494.461 535.131C514.34 494.117 522.334 447.649 518.863 405.228C516.894 381.164 511.237 358.399 501.971 338.662C477.052 285.595 462.941 242.733 475.981 211.983C489.021 181.233 529.191 162.678 612.807 158.316C650.102 156.37 679.932 144.632 703.117 126.742C720.804 113.095 734.631 95.8654 744.961 76.6754L745.549 77.3967C735.183 96.5617 721.335 113.77 703.644 127.42C680.324 145.412 650.332 157.221 612.849 159.176C529.623 163.517 489.684 181.876 476.775 212.318C463.865 242.76 477.934 285.43 502.752 338.291C512.06 358.119 517.743 380.987 519.721 405.157C523.202 447.726 515.19 494.338 495.236 535.507C475.281 576.676 443.368 612.423 399.075 633.219C378.19 643.027 354.547 649.51 328.103 651.672C229.287 659.76 189.318 690.674 165.681 747.989L165.042 747.205Z" fill="white"/>
</mask>
<g mask="url(#mask10_1573_184)">
<path d="M693.957 14.1231L17.2239 565.918L210.181 802.565L886.913 250.769L693.957 14.1231Z" fill="#E8F0FD" fill-opacity="0.2"/>
</g>
<mask id="mask11_1573_184" style="mask-type:luminance" maskUnits="userSpaceOnUse" x="183" y="73" width="561" height="698">
<path d="M183.434 769.762C204.657 706.357 242.651 671.542 346.071 659.574C372.313 656.537 395.626 649.294 416.088 638.835C459.47 616.662 490.031 580.027 508.522 538.369C527.014 496.711 533.44 450.004 528.549 407.723C525.778 383.744 519.355 361.175 509.432 341.762C482.75 289.558 467.206 247.195 479.206 216.026C491.206 184.858 530.732 164.962 614.155 157.796C651.363 154.6 680.782 141.866 703.359 123.213C720.009 109.449 732.941 92.4578 742.528 73.6925L743.127 74.4263C733.505 93.1554 720.556 110.118 703.907 123.879C681.203 142.643 651.626 155.45 614.231 158.662C531.197 165.794 491.9 185.486 480.017 216.34C468.134 247.194 483.631 289.374 510.206 341.37C520.174 360.874 526.621 383.539 529.41 407.627C534.32 450.055 527.874 496.913 509.312 538.728C490.751 580.543 460.056 617.341 416.484 639.611C395.939 650.113 372.527 657.385 346.174 660.435C243.012 672.368 205.215 707.168 184.095 770.572L183.434 769.762Z" fill="white"/>
</mask>
<g mask="url(#mask11_1573_184)">
<path d="M696.604 17.3692L19.8708 569.165L219.248 813.685L895.981 261.89L696.604 17.3692Z" fill="#E8F0FD" fill-opacity="0.2"/>
</g>
<mask id="mask12_1573_184" style="mask-type:luminance" maskUnits="userSpaceOnUse" x="202" y="70" width="539" height="725">
<path d="M202.669 793.353C220.987 723.227 256.194 684.328 364.205 668.139C390.333 664.22 413.391 656.204 433.485 645.068C476.097 621.452 505.411 583.811 522.495 541.554C539.579 499.298 544.438 452.4 538.129 410.308C534.55 386.427 527.377 364.09 516.811 345.023C488.392 293.744 471.435 251.928 482.382 220.375C493.329 188.822 532.165 167.609 615.299 157.649C652.379 153.205 681.355 139.491 703.29 120.086C719.065 106.13 731.202 89.2284 740.097 70.7119L740.701 71.4516C731.775 89.9216 719.624 106.789 703.86 120.735C681.8 140.25 652.669 154.042 615.403 158.508C532.652 168.423 494.037 189.419 483.198 220.657C472.36 251.896 489.258 293.527 517.566 344.605C528.185 363.766 535.387 386.203 538.984 410.179C545.315 452.418 540.443 499.461 523.297 541.881C506.151 584.301 476.704 622.1 433.904 645.822C413.724 657.004 390.565 665.062 364.334 668.994C256.569 685.146 221.576 724.044 203.362 794.203L202.669 793.353Z" fill="white"/>
</mask>
<g mask="url(#mask12_1573_184)">
<path d="M699.391 20.7896L22.6587 572.585L228.231 824.703L904.963 272.907L699.391 20.7896Z" fill="#E8F0FD" fill-opacity="0.2"/>
</g>
<mask id="mask13_1573_184" style="mask-type:luminance" maskUnits="userSpaceOnUse" x="222" y="67" width="517" height="753">
<path d="M222.887 818.148C237.881 740.53 269.546 697.325 382.434 676.508C408.418 671.717 431.191 662.928 450.901 651.124C492.698 626.09 520.731 587.487 536.388 544.682C552.044 501.876 555.325 454.843 547.607 412.986C543.23 389.239 535.31 367.155 524.111 348.455C493.989 298.162 475.634 256.934 485.518 225.029C495.401 193.125 533.503 170.625 616.256 157.88C653.165 152.195 681.663 137.516 702.936 117.384C717.985 103.143 729.419 86.1685 737.659 67.721L738.272 68.4723C730.001 86.8661 718.557 103.792 703.529 118.014C682.137 138.258 653.488 153.022 616.388 158.733C534.013 171.423 496.128 193.7 486.34 225.29C476.552 256.879 494.847 297.911 524.847 348.011C536.11 366.808 544.06 388.98 548.459 412.83C556.206 454.828 552.911 502.012 537.199 544.982C521.487 587.952 493.327 626.722 451.347 651.865C431.554 663.718 408.68 672.548 382.592 677.359C269.935 698.135 238.505 741.336 223.609 819.033L222.887 818.148Z" fill="white"/>
</mask>
<g mask="url(#mask13_1573_184)">
<path d="M702.327 24.3892L25.594 576.185L237.131 835.618L913.864 283.822L702.327 24.3892Z" fill="#E8F0FD" fill-opacity="0.2"/>
</g>
<mask id="mask14_1573_184" style="mask-type:luminance" maskUnits="userSpaceOnUse" x="245" y="64" width="491" height="772">
<path d="M510.996 619.298C528.762 598.124 541.708 573.617 550.193 547.76C564.409 504.439 566.106 457.335 556.989 415.761C551.816 392.174 543.16 370.373 531.338 352.053C499.547 302.799 479.816 262.214 488.626 229.993C497.437 197.772 534.757 174.01 617.038 158.494C653.733 151.574 681.724 135.946 702.309 115.113C716.773 100.475 727.583 83.263 735.191 64.6935L735.813 65.4564C728.173 83.9588 717.356 101.11 702.923 115.722C682.222 136.672 654.082 152.388 617.197 159.344C535.297 174.788 498.178 198.325 489.46 230.222C480.743 262.119 500.395 302.52 532.066 351.582C543.945 369.988 552.638 391.888 557.83 415.569C566.981 457.288 565.277 504.557 551.014 548.024C542.934 572.642 530.824 596.046 514.376 616.532L510.996 619.298ZM245.386 835.872C257.353 755.124 286.591 709.713 400.752 684.676C420.963 680.244 439.125 673.425 455.325 664.691L451.96 667.435C436.66 675.258 419.675 681.411 400.939 685.519C287.798 710.335 258.419 755.272 246.391 835.052L245.386 835.872Z" fill="white"/>
</mask>
<g mask="url(#mask14_1573_184)">
<path d="M705.416 28.1771L33.5198 576.029L245.389 835.869L917.285 288.017L705.416 28.1771Z" fill="#E8F0FD" fill-opacity="0.2"/>
</g>
<mask id="mask15_1573_184" style="mask-type:luminance" maskUnits="userSpaceOnUse" x="275" y="61" width="459" height="751">
<path d="M549.538 587.871C555.405 575.954 560.215 563.546 563.913 550.789C576.665 507.017 576.782 459.88 566.274 418.635C560.312 395.237 550.931 373.734 538.5 355.825C505.071 307.663 483.996 267.762 491.712 235.268C499.428 202.775 535.94 177.768 617.65 159.502C654.095 151.356 681.546 134.796 701.42 113.284C715.436 98.1141 725.686 80.4793 732.665 61.5967L733.296 62.3702C726.279 81.1772 716.029 98.7393 702.054 113.866C682.069 135.5 654.471 152.149 617.841 160.338C536.509 178.523 500.198 203.293 492.555 235.465C484.912 267.636 505.908 307.353 539.208 355.327C551.698 373.323 561.122 394.919 567.108 418.416C577.654 459.804 577.537 507.103 564.739 551.026C561.2 563.229 556.65 575.116 551.136 586.564L549.538 587.871ZM275.37 811.423C289.725 752.971 324.66 716.715 419.147 692.643C420.083 692.405 421.012 692.162 421.935 691.916L420.314 693.239L419.359 693.485C326.011 717.267 291.036 753.021 276.53 810.477L275.37 811.423Z" fill="white"/>
</mask>
<g mask="url(#mask15_1573_184)">
<path d="M708.662 32.1594L66.748 555.564L275.37 811.423L917.285 288.018L708.662 32.1594Z" fill="#E8F0FD" fill-opacity="0.2"/>
</g>
<mask id="mask16_1573_184" style="mask-type:luminance" maskUnits="userSpaceOnUse" x="313" y="58" width="418" height="723">
<path d="M573.259 568.53C574.851 563.656 576.28 558.734 577.547 553.766C588.823 509.59 587.358 462.476 575.472 421.608C568.729 398.422 558.632 377.248 545.606 359.764C510.579 312.75 488.177 273.58 494.802 240.844C501.427 208.109 537.075 181.893 618.128 160.892C654.276 151.526 681.155 134.055 700.297 111.888C713.981 96.041 723.711 77.7903 730.051 58.3808L730.7 59.1765C724.323 78.4937 714.59 96.6599 700.952 112.455C681.705 134.749 654.679 152.313 618.345 161.727C537.667 182.629 502.213 208.61 495.645 241.009C489.077 273.408 511.404 312.422 546.295 359.253C559.382 376.819 569.526 398.086 576.297 421.37C588.224 462.381 589.693 509.66 578.379 553.984C577.218 558.533 575.92 563.049 574.486 567.53L573.259 568.53ZM313.644 780.216C328.236 754.211 352.203 733.611 391.652 716.609L389.145 718.653C352.695 734.852 329.936 754.317 315.676 778.558L313.644 780.216Z" fill="white"/>
</mask>
<g mask="url(#mask16_1573_184)">
<path d="M712.073 36.3413L108.428 528.542L313.641 780.218L917.285 288.018L712.073 36.3413Z" fill="#E8F0FD" fill-opacity="0.2"/>
</g>
<mask id="mask17_1573_184" style="mask-type:luminance" maskUnits="userSpaceOnUse" x="497" y="55" width="231" height="499">
<path d="M591.775 553.432C600.713 509.877 597.501 464.15 584.575 424.696C577.057 401.749 566.254 380.925 552.649 363.889C516.064 318.078 492.359 279.682 497.883 246.741C503.408 213.8 538.153 186.403 618.455 162.695C654.272 152.121 680.55 133.759 698.937 110.962C712.409 94.2572 721.648 75.1664 727.299 55.0129L727.969 55.8338C722.272 75.8808 713.032 94.8703 699.611 111.51C681.12 134.438 654.704 152.901 618.707 163.527C538.774 187.127 504.207 214.277 498.739 246.888C493.272 279.5 516.887 317.721 553.328 363.353C566.997 380.47 577.849 401.386 585.398 424.43C598.269 463.709 601.543 509.184 592.84 552.572L591.775 553.432Z" fill="white"/>
</mask>
<g mask="url(#mask17_1573_184)">
<path d="M715.65 40.7279L390.14 306.143L591.774 553.431L917.284 288.017L715.65 40.7279Z" fill="#E8F0FD" fill-opacity="0.2"/>
</g>
<mask id="mask18_1573_184" style="mask-type:luminance" maskUnits="userSpaceOnUse" x="500" y="51" width="226" height="490">
<path d="M607.243 540.82C611.339 501.869 606.166 462.308 593.594 427.888C585.31 405.207 573.815 384.756 559.646 368.185C521.544 323.628 496.566 286.048 500.984 252.949C505.402 219.849 539.207 191.292 618.664 164.906C654.105 153.136 679.754 133.902 697.363 110.503C710.735 92.733 719.477 72.556 724.359 51.4153L725.047 52.2594C720.111 73.2739 711.367 93.3267 698.052 111.019C680.342 134.552 654.555 153.89 618.937 165.722C539.842 191.99 506.206 220.285 501.835 253.061C497.465 285.837 522.35 323.246 560.301 367.63C574.536 384.277 586.082 404.817 594.402 427.594C606.924 461.882 612.131 501.249 608.186 540.052L607.243 540.82Z" fill="white"/>
</mask>
<g mask="url(#mask18_1573_184)">
<path d="M718.925 44.7451L408.883 297.548L607.243 540.82L917.285 288.017L718.925 44.7451Z" fill="#E8F0FD" fill-opacity="0.2"/>
</g>
<mask id="mask19_1573_184" style="mask-type:luminance" maskUnits="userSpaceOnUse" x="503" y="47" width="219" height="483">
<path d="M620.561 529.961C621.138 495.449 614.655 461.218 602.533 431.194C593.493 408.802 581.318 388.749 566.601 372.664C527.026 329.409 500.8 292.689 504.101 259.454C507.402 226.219 540.234 196.551 618.762 167.512C653.792 154.563 678.776 134.476 695.593 110.499C708.972 91.4214 717.181 69.8778 721.163 47.4893L721.882 48.3712C717.831 70.6143 709.612 92.0195 696.302 110.995C679.392 135.108 654.271 155.305 619.069 168.323C540.901 197.227 508.231 226.638 504.962 259.541C501.693 292.444 527.817 328.998 567.24 372.082C582.027 388.242 594.256 408.383 603.333 430.867C615.412 460.786 621.912 494.863 621.436 529.246L620.561 529.961Z" fill="white"/>
</mask>
<g mask="url(#mask19_1573_184)">
<path d="M721.16 47.4859L424.436 289.429L620.56 529.959L917.284 288.016L721.16 47.4859Z" fill="#E8F0FD" fill-opacity="0.2"/>
</g>
<mask id="mask20_1573_184" style="mask-type:luminance" maskUnits="userSpaceOnUse" x="507" y="43" width="212" height="478">
<path d="M632.227 520.449C630.255 490.195 622.96 460.698 611.396 434.611C601.607 412.537 588.769 392.904 573.521 377.321C532.516 335.419 505.072 299.599 507.255 266.272C509.438 232.946 541.257 202.193 618.77 170.533C653.342 156.412 677.641 135.501 693.642 110.973C707.127 90.3021 714.721 67.0546 717.609 43.1308L718.366 44.06C715.389 67.8169 707.774 90.8894 694.362 111.443C678.27 136.11 653.841 157.137 619.096 171.329C541.944 202.847 510.284 233.33 508.116 266.327C505.947 299.324 533.293 334.978 574.138 376.714C589.459 392.371 602.358 412.09 612.185 434.257C623.711 460.258 631.013 489.633 633.047 519.777L632.227 520.449Z" fill="white"/>
</mask>
<g mask="url(#mask20_1573_184)">
<path d="M717.609 43.1308L432.55 275.562L632.227 520.449L917.285 288.018L717.609 43.1308Z" fill="#E8F0FD" fill-opacity="0.2"/>
</g>
<mask id="mask21_1573_184" style="mask-type:luminance" maskUnits="userSpaceOnUse" x="510" y="38" width="205" height="475">
<path d="M642.529 512.049C638.778 485.862 631.074 460.643 620.183 438.148C609.662 416.413 596.169 397.222 580.406 382.161C538.019 341.659 509.389 306.779 510.452 273.395C511.515 240.011 542.284 208.21 618.689 173.969C652.768 158.695 676.352 136.98 691.521 111.929C705.219 89.3126 712.065 63.9719 713.577 38.186L714.379 39.1703C712.744 64.7671 705.868 89.9081 692.262 112.38C677.007 137.574 653.298 159.408 619.047 174.758C542.994 208.843 512.373 240.377 511.319 273.426C510.264 306.474 538.784 341.193 581.005 381.537C596.843 396.671 610.396 415.945 620.962 437.77C631.818 460.196 639.52 485.319 643.309 511.412L642.529 512.049Z" fill="white"/>
</mask>
<g mask="url(#mask21_1573_184)">
<path d="M713.576 38.1864L438.82 262.217L642.529 512.049L917.284 288.018L713.576 38.1864Z" fill="#E8F0FD" fill-opacity="0.2"/>
</g>
<mask id="mask22_1573_184" style="mask-type:luminance" maskUnits="userSpaceOnUse" x="513" y="32" width="197" height="473">
<path d="M651.667 504.597C646.765 482.29 638.998 460.982 628.904 441.803C617.659 420.433 603.531 401.706 587.271 387.181C543.549 348.124 513.764 314.225 513.708 280.827C513.651 247.429 543.334 214.61 618.546 177.825C652.093 161.417 674.938 138.927 689.253 113.377C703.268 88.3746 709.123 60.4387 708.87 32.417L709.742 33.4864C709.838 61.29 703.92 88.9792 690.01 113.805C675.608 139.496 652.646 162.115 618.929 178.605C544.062 215.223 514.516 247.765 514.572 280.831C514.627 313.896 544.298 347.631 587.847 386.538C604.183 401.132 618.375 419.941 629.668 441.399C639.732 460.523 647.493 481.757 652.415 503.983L651.667 504.597Z" fill="white"/>
</mask>
<g mask="url(#mask22_1573_184)">
<path d="M708.871 32.4155L443.254 248.995L651.667 504.597L917.285 288.018L708.871 32.4155Z" fill="#E8F0FD" fill-opacity="0.2"/>
</g>
<mask id="mask23_1573_184" style="mask-type:luminance" maskUnits="userSpaceOnUse" x="516" y="25" width="189" height="473">
<path d="M659.774 497.987C654.252 479.37 646.728 461.67 637.558 445.578C625.604 424.599 610.853 406.356 594.114 392.386C549.107 354.818 518.202 321.939 517.023 288.561C515.844 255.183 544.41 221.388 618.346 182.097C651.326 164.572 673.4 141.325 686.853 115.313C701.231 87.5155 705.771 56.5496 703.261 26.0293L703.214 25.4811L704.176 26.6607C706.571 57.1072 701.966 87.9724 687.619 115.71C674.089 141.874 651.898 165.248 618.755 182.86C545.158 221.97 516.721 255.487 517.886 288.532C519.052 321.576 549.835 354.303 594.671 391.728C611.488 405.765 626.304 424.087 638.309 445.154C647.454 461.2 654.968 478.844 660.502 497.405L659.774 497.987Z" fill="white"/>
</mask>
<g mask="url(#mask23_1573_184)">
<path d="M703.216 25.4785L445.705 235.448L659.773 497.986L917.284 288.016L703.216 25.4785Z" fill="#E8F0FD" fill-opacity="0.2"/>
</g>
<mask id="mask24_1573_184" style="mask-type:luminance" maskUnits="userSpaceOnUse" x="520" y="16" width="180" height="477">
<path d="M666.939 492.145C661.27 477.025 654.267 462.67 646.153 449.477C633.501 428.912 618.144 411.178 600.949 397.774C554.706 361.736 522.713 329.913 520.418 296.594C518.123 263.275 545.536 228.539 618.113 186.788C650.484 168.167 671.765 144.192 684.338 117.741C697.775 89.4773 701.273 58.3771 697.739 27.962C697.304 24.2225 696.765 20.4963 696.123 16.7835L697.226 18.1372C697.76 21.3683 698.216 24.6093 698.595 27.8601C702.145 58.4321 698.627 89.6934 685.115 118.115C672.47 144.715 651.076 168.822 618.541 187.538C546.298 229.095 519.004 263.548 521.277 296.534C523.551 329.52 555.415 361.197 601.477 397.092C618.755 410.557 634.181 428.377 646.882 449.027C654.977 462.186 661.97 476.498 667.64 491.572L666.939 492.145Z" fill="white"/>
</mask>
<g mask="url(#mask24_1573_184)">
<path d="M696.125 16.7823L438.604 226.761L659.764 497.996L917.285 288.018L696.125 16.7823Z" fill="#E8F0FD" fill-opacity="0.2"/>
</g>
<mask id="mask25_1573_184" style="mask-type:luminance" maskUnits="userSpaceOnUse" x="523" y="5" width="173" height="483">
<path d="M673.229 487.017C667.934 475.379 661.735 464.174 654.689 453.504C641.352 433.375 625.412 416.163 607.774 403.347C560.353 368.879 527.308 338.15 523.894 304.926C520.479 271.701 546.714 236.067 617.849 191.905C649.576 172.208 670.042 147.53 681.717 120.672C694.198 91.9726 696.65 60.7732 692.099 30.4896C690.806 21.9406 688.984 13.4799 686.645 5.15612L687.996 6.81243C690.099 14.5602 691.754 22.4224 692.955 30.3602C697.528 60.7951 695.06 92.1578 682.51 121.017C670.765 148.026 650.193 172.837 618.304 192.634C547.497 236.592 521.371 271.942 524.75 304.835C528.129 337.727 561.041 368.315 608.282 402.645C626.002 415.522 642.013 432.809 655.407 453.024C662.436 463.668 668.625 474.844 673.918 486.45L673.229 487.017Z" fill="white"/>
</mask>
<g mask="url(#mask25_1573_184)">
<path d="M686.645 5.15612L427.85 216.173L658.49 499.034L917.285 288.018L686.645 5.15612Z" fill="#E8F0FD" fill-opacity="0.2"/>
</g>
</svg>
