<svg width="8" height="10" viewBox="0 0 8 10" fill="none" xmlns="http://www.w3.org/2000/svg">
<path d="M7.34793 3.72318L1.96189 0.205336C0.821421 -0.538863 -0.46602 0.882168 0.167468 2.18952L1.18328 4.29475C1.28766 4.51181 1.34234 4.75499 1.34234 5.0021C1.34234 5.24922 1.28766 5.4924 1.18328 5.70946L0.167468 7.81048C-0.46602 9.11783 0.821421 10.5389 1.96189 9.79466L7.34793 6.27682C7.54615 6.14756 7.71079 5.96149 7.82526 5.73735C7.93973 5.5132 8 5.25888 8 5C8 4.74112 7.93973 4.4868 7.82526 4.26265C7.71079 4.03851 7.54615 3.85244 7.34793 3.72318Z" fill="#4E4E4E"/>
</svg>
