<svg width="64" height="64" viewBox="0 0 64 64" fill="none" xmlns="http://www.w3.org/2000/svg">
  <rect width="64" height="64" rx="8" fill="#E3F2FD"/>
  <path d="M16 20C16 17.7909 17.7909 16 20 16H44C46.2091 16 48 17.7909 48 20V44C48 46.2091 46.2091 48 44 48H20C17.7909 48 16 46.2091 16 44V20Z" fill="#1976D2"/>
  <path d="M20 12H44C47.3137 12 50 14.6863 50 18V46C50 49.3137 47.3137 52 44 52H20C16.6863 52 14 49.3137 14 46V18C14 14.6863 16.6863 12 20 12Z" fill="#1976D2"/>
  <rect x="20" y="20" width="24" height="3" rx="1.5" fill="white"/>
  <rect x="20" y="26" width="18" height="2" rx="1" fill="white"/>
  <rect x="20" y="31" width="20" height="2" rx="1" fill="white"/>
  <rect x="20" y="36" width="16" height="2" rx="1" fill="white"/>
  <circle cx="32" cy="42" r="3" fill="white"/>
  <path d="M30 42L31.5 43.5L34 41" stroke="#1976D2" stroke-width="1.5" stroke-linecap="round" stroke-linejoin="round"/>
</svg>
