<svg width="15" height="14" viewBox="0 0 15 14" fill="none" xmlns="http://www.w3.org/2000/svg">
<path d="M14.4173 2.0127H10.5509V1.80897C10.5509 0.811498 9.73944 0 8.74193 0H7.01026C6.01279 0 5.20129 0.811469 5.20129 1.80897V2.0127H1.33485C1.02486 2.0127 0.773438 2.26411 0.773438 2.57412C0.773438 2.88411 1.02484 3.13554 1.33485 3.13554H2.24245L3.29063 12.3067C3.39511 13.2209 4.16771 13.9103 5.08788 13.9103H10.8868C11.8245 13.9103 12.5988 13.2063 12.6876 12.2729L13.5579 3.13559H14.4177C14.7277 3.13559 14.9792 2.88419 14.9792 2.57418C14.9792 2.26407 14.7278 2.01268 14.4177 2.01268L14.4173 2.0127ZM6.32403 1.80897C6.32403 1.43057 6.6318 1.12283 7.01018 1.12283H8.74185C9.12025 1.12283 9.42799 1.4306 9.42799 1.80897V2.0127H6.32406L6.32403 1.80897ZM11.5695 12.1664C11.5357 12.5205 11.2421 12.7875 10.8864 12.7875H5.08751C4.73854 12.7875 4.44545 12.526 4.40582 12.1792L3.37224 3.13549H12.4297L11.5695 12.1664Z" fill="#393939"/>
</svg>
