<svg width="57" height="51" viewBox="0 0 57 51" fill="none" xmlns="http://www.w3.org/2000/svg">
<path d="M42.297 30.5484C42.297 30.5484 41.0179 31.4012 40.7706 33.5331C40.6597 33.806 40.4508 33.5331 40.4508 33.5331C40.4508 33.5331 38.1398 31.5803 36.7754 27.6831C36.9954 26.9951 37.281 26.3297 37.6282 25.6962C37.6282 25.6962 37.8158 25.564 37.9479 25.6962C38.8086 27.758 40.3414 29.4681 42.297 30.5484Z" fill="#5B718F"/>
<path d="M43.4434 30.5484C43.4434 30.5484 44.7225 31.4012 44.9698 33.5331C45.0807 33.806 45.2896 33.5331 45.2896 33.5331C45.2896 33.5331 47.6006 31.5803 48.9693 27.6831C48.7487 26.9953 48.4631 26.33 48.1165 25.6962C48.1165 25.6962 47.9289 25.564 47.7967 25.6962C46.935 27.7587 45.4006 29.4688 43.4434 30.5484Z" fill="#5B718F"/>
<path d="M42.1258 34.1815C42.1258 34.1815 41.273 40.8459 41.1152 44.7131H44.6286C44.4794 40.8459 43.6181 34.1815 43.6181 34.1815C43.7479 34.0512 43.8488 33.895 43.9142 33.7231C43.9796 33.5511 44.008 33.3674 43.9976 33.1837C43.7204 32.186 43.1448 31.9941 43.1448 31.9941H42.5607C42.5607 31.9941 42.0021 32.186 41.7079 33.1837C41.7022 33.3703 41.7365 33.5558 41.8086 33.728C41.8807 33.9001 41.9888 34.0547 42.1258 34.1815Z" fill="#5B718F"/>
<path d="M38.1689 27.3677C36.3218 27.6429 34.5461 28.2758 32.9414 29.231C33.2224 29.5725 33.4857 29.9283 33.7302 30.2969C35.1009 29.5033 36.6052 28.9672 38.1689 28.715V27.3677Z" fill="#5B718F"/>
<path d="M56.4656 33.546C55.745 31.5761 53.6472 28.3953 47.567 27.3677V28.7065C52.7859 29.6531 54.5938 32.2924 55.212 33.9894C55.306 34.3309 55.3505 34.6842 55.3442 35.0383V43.9454C55.3442 44.2159 55.2909 44.4837 55.1874 44.7336C55.0839 44.9834 54.9322 45.2105 54.741 45.4017C54.5498 45.5929 54.3227 45.7446 54.0729 45.8481C53.823 45.9516 53.5552 46.0049 53.2848 46.0049H35.543V47.1177C35.543 47.1902 35.543 47.2627 35.543 47.3352H53.2677C54.1643 47.3285 55.0221 46.9691 55.6557 46.3347C56.2893 45.7003 56.6476 44.842 56.6532 43.9454V35.0767C56.6669 34.56 56.6037 34.0441 56.4656 33.546Z" fill="#5B718F"/>
<path d="M51.1845 17.1688C51.6578 15.3737 51.9478 13.5104 51.6962 12.3507C51.3679 10.8114 50.1271 10.8668 50.1271 10.8668C50.1271 10.8668 50.8349 9.16131 48.8011 7.70735C45.39 5.23859 40.8874 5.95492 37.6597 8.05272C36.2995 8.93533 35.0118 9.81795 34.0653 10.1335C32.7861 10.5599 32.0527 10.2443 32.0527 10.2443C32.0527 10.2443 32.1636 11.6812 33.9459 12.6108C33.7838 13.7705 34.061 15.476 34.4916 17.1304H34.4106C33.7455 17.2839 33.4044 18.2731 33.6474 19.3433C33.8691 20.3198 34.5002 21.019 35.1184 21.019H35.2165C36.7813 25.0014 40.6017 27.8412 42.7635 27.8412C45.1299 27.8412 48.8352 25.0014 50.3403 21.019H50.4128C51.0268 21.019 51.6621 20.3155 51.8838 19.3391C52.1055 18.3627 51.8071 17.3777 51.1845 17.1688ZM42.7635 26.3872C41.399 26.3872 38.0136 24.1487 36.5767 20.4946L36.4274 20.1151C36.1667 19.2565 36.0163 18.3681 35.9797 17.4715V17.1645C36.0125 15.8373 36.2855 14.5271 36.7856 13.2972C42.5162 13.8984 46.3025 12.8708 48.1572 12.1289C49.0314 13.6674 49.5077 15.3997 49.543 17.1688V17.4843C49.4987 18.5282 49.3004 19.5598 48.9546 20.5457C47.62 24.0634 44.3496 26.3915 42.7635 26.3915V26.3872Z" fill="#5B718F"/>
<path d="M45.9812 21.5076C45.5041 21.9219 44.4264 22.316 43.1726 22.316C41.9187 22.316 40.841 21.9219 40.3639 21.5076C40.3639 21.5076 40.3151 21.3733 40.3867 21.3017C40.4597 21.2287 40.5739 21.2446 40.5739 21.2446C41.0505 21.6591 41.9182 22.001 43.1726 22.001C44.4269 22.001 45.2946 21.6591 45.7712 21.2446C45.7712 21.2446 45.8878 21.2013 45.9444 21.2579C46.0535 21.367 45.9812 21.5076 45.9812 21.5076ZM42.3063 22.946H43.9863V23.2085H42.3063V22.946Z" fill="#5B718F"/>
<path fill-rule="evenodd" clip-rule="evenodd" d="M43.6293 18.2473C43.66 18.2473 43.6906 18.2473 43.7212 18.2473C43.9111 18.5053 43.9884 18.9017 44.0887 19.2448C44.1198 19.3511 44.0896 19.5371 44.0624 19.6123C43.9629 19.8876 43.6504 19.8827 43.3931 20.006C43.324 20.0391 43.2726 20.0963 43.1831 20.111C43.1248 20.0596 43.0543 20.0495 43.0256 19.9666C42.9547 19.869 43.0461 19.8081 43.1175 19.7698C43.2471 19.7003 43.6471 19.6318 43.695 19.5073C43.7542 19.4399 43.7148 19.2372 43.695 19.166C43.6441 18.9838 43.6197 18.8317 43.5506 18.6673C43.5047 18.5581 43.4241 18.443 43.4718 18.3129C43.5114 18.2959 43.5969 18.2766 43.6293 18.2473Z" fill="#5B718F"/>
<path d="M39.9944 16.2261H40.3619C40.5649 16.2261 40.7294 16.3906 40.7294 16.5936C40.7294 16.7965 40.5649 16.961 40.3619 16.961H39.9944C39.7915 16.961 39.627 16.7965 39.627 16.5936C39.627 16.3906 39.7915 16.2261 39.9944 16.2261ZM45.9792 16.2261H46.3467C46.5497 16.2261 46.7142 16.3906 46.7142 16.5936C46.7142 16.7965 46.5497 16.961 46.3467 16.961H45.9792C45.7763 16.961 45.6118 16.7965 45.6118 16.5936C45.6118 16.3906 45.7763 16.2261 45.9792 16.2261Z" fill="#5B718F"/>
<path d="M44.8251 15.3009C44.8251 15.3009 46.3967 14.4024 47.5193 15.3923L47.8163 15.4384C47.8163 15.4384 47.4359 14.0543 44.6664 14.9543L44.7435 15.2123M44.805 15.2123C44.805 15.2123 46.4038 14.294 47.4578 15.4539L48.0009 15.4384C48.0009 15.4384 47.3236 13.9599 44.5434 14.8927L44.805 15.2738M41.4483 15.3061C41.4483 15.3061 39.882 14.4156 38.7631 15.3967L38.4672 15.4423C38.4672 15.4423 38.8462 14.0705 41.6065 14.9625L41.5297 15.2182M41.4684 15.2182C41.4684 15.2182 39.8749 14.3081 38.8244 15.4577L38.2832 15.4423C38.2832 15.4423 38.9582 13.9769 41.7292 14.9016L41.4684 15.2792" fill="#5B718F"/>
<path d="M27.1004 13.5061C27.6803 11.3017 28.0342 9.02486 27.7272 7.60074C27.3221 5.71186 25.8042 5.78009 25.8042 5.78009C25.8042 5.78009 26.6569 3.67375 24.1797 1.90853C20.0011 -1.11453 14.4837 -0.223388 10.5354 2.33491C8.86398 3.41792 7.29063 4.5052 6.13086 4.89321C4.54472 5.42192 3.66211 5.02539 3.66211 5.02539C3.66211 5.02539 3.79855 6.78635 5.98163 7.92906C5.78549 9.34891 6.1266 11.4382 6.65532 13.472H6.55725C5.73859 13.6596 5.32074 14.8748 5.61921 16.1838C5.89209 17.3777 6.66811 18.239 7.42281 18.239H7.54219C9.45665 23.1211 14.1383 26.6046 16.7947 26.6046C19.6856 26.6046 24.2308 23.1211 26.0771 18.2475H26.1623C26.917 18.2475 27.6931 17.3948 27.9659 16.1881C28.2474 14.9217 27.8636 13.7577 27.1004 13.5061ZM16.7862 24.8437C15.1148 24.8437 10.9874 22.1276 9.20509 17.6804C8.68788 16.2308 8.43655 14.6997 8.46318 13.1608C8.46318 12.9135 8.46318 12.6704 8.51008 12.4317C8.51008 12.4317 8.51008 12.3975 8.51008 12.3805C8.64047 11.1384 8.94625 9.92105 9.41828 8.76477C16.5005 9.52373 21.1609 8.23179 23.4292 7.31933C24.3065 8.86908 24.8538 10.5835 25.0367 12.3549C25.0367 12.3549 25.0367 12.4018 25.0367 12.4402C25.0623 12.679 25.0708 12.922 25.0836 13.1693C25.1179 15.0391 24.7409 16.8935 23.9793 18.6014C22.1586 22.4389 18.6324 24.8437 16.7862 24.8437Z" fill="#5B718F"/>
<path d="M33.518 33.6485C32.6354 31.2352 30.0643 27.338 22.6154 26.0759V27.7218C29.0111 28.8815 31.224 32.1135 31.9958 34.1943C32.1097 34.6109 32.1643 35.0415 32.1578 35.4734V46.3931C32.1567 47.0622 31.8904 47.7036 31.4172 48.1767C30.9441 48.6498 30.3027 48.9161 29.6336 48.9173H4.14871C3.4796 48.9161 2.83822 48.6498 2.36508 48.1767C1.89195 47.7036 1.62565 47.0622 1.62452 46.3931V35.5331C1.62417 35.1028 1.67136 34.6739 1.76523 34.254C2.51992 32.1562 4.72006 28.9028 11.1243 27.7346V26.0802C3.64984 27.3593 1.10007 31.2906 0.23451 33.6954C0.0787796 34.2926 -2.79214e-05 34.9074 7.42071e-09 35.5246V46.3973C0.00337374 47.4966 0.441552 48.5499 1.21886 49.3272C1.99616 50.1045 3.04944 50.5427 4.14871 50.546H29.6038C30.703 50.5427 31.7563 50.1045 32.5336 49.3272C33.3109 48.5499 33.7491 47.4966 33.7525 46.3973V35.5033C33.7656 34.8769 33.6866 34.2519 33.518 33.6485Z" fill="#5B718F"/>
<path d="M16.1808 29.9604C16.1808 29.9604 14.633 31.0263 14.3089 33.6017C14.1768 33.9343 13.9167 33.6017 13.9167 33.6017C13.9167 33.6017 11.0897 31.2395 9.41406 26.4512C10.1986 24.3833 10.4715 24.0166 10.4715 24.0166C10.4715 24.0166 10.7017 23.8546 10.8638 24.0166C11.9184 26.5387 13.7913 28.6323 16.1808 29.9604Z" fill="#5B718F"/>
<path d="M17.5898 29.9603C17.5898 29.9603 19.1376 31.0263 19.4617 33.6016C19.5981 33.9342 19.8539 33.6016 19.8539 33.6016C19.8539 33.6016 22.6851 31.2096 24.3565 26.4342C23.572 24.3662 23.2991 23.9995 23.2991 23.9995C23.2991 23.9995 23.0689 23.8375 22.9068 23.9995C21.8571 26.529 19.9834 28.6296 17.5898 29.9603Z" fill="#5B718F"/>
<path d="M15.9595 34.4287C15.9595 34.4287 14.8978 42.5939 14.7188 47.3353H19.0252C18.8461 42.5939 17.7887 34.4287 17.7887 34.4287C17.9477 34.2687 18.0712 34.0771 18.1513 33.8663C18.2314 33.6554 18.2662 33.4301 18.2535 33.2049C17.9124 31.9812 17.2301 31.751 17.2301 31.751H16.5266C16.5266 31.751 15.8444 31.9812 15.5033 33.2049C15.4892 33.4295 15.5226 33.6545 15.6012 33.8654C15.6798 34.0762 15.8019 34.2681 15.9595 34.4287Z" fill="#5B718F"/>
<path d="M21.1596 20.7886C20.4808 21.378 18.9476 21.9388 17.1636 21.9388C15.3797 21.9388 13.8465 21.378 13.1676 20.7886C13.1676 20.7886 13.0982 20.5975 13.2001 20.4956C13.3039 20.3918 13.4664 20.4144 13.4664 20.4144C14.1445 21.0042 15.379 21.4906 17.1636 21.4906C18.9483 21.4906 20.1828 21.0042 20.8609 20.4144C20.8609 20.4144 21.0267 20.3528 21.1073 20.4333C21.2625 20.5885 21.1596 20.7886 21.1596 20.7886ZM15.9312 22.8351H18.3214V23.2085H15.9312V22.8351Z" fill="#5B718F"/>
<path fill-rule="evenodd" clip-rule="evenodd" d="M17.8153 16.1499C17.8589 16.1499 17.9024 16.1499 17.946 16.1499C18.2163 16.5169 18.3262 17.0809 18.4689 17.569C18.5131 17.7203 18.4702 17.9849 18.4315 18.0919C18.2899 18.4836 17.8453 18.4766 17.4792 18.6521C17.3809 18.6992 17.3077 18.7805 17.1804 18.8015C17.0974 18.7283 16.9972 18.714 16.9563 18.5961C16.8555 18.4572 16.9855 18.3704 17.0871 18.316C17.2714 18.2171 17.8405 18.1196 17.9087 17.9425C17.993 17.8466 17.9369 17.5582 17.9087 17.457C17.8363 17.1977 17.8016 16.9813 17.7033 16.7474C17.638 16.5921 17.5233 16.4283 17.5912 16.2433C17.6475 16.2191 17.7692 16.1916 17.8153 16.1499Z" fill="#5B718F"/>
<path d="M12.6439 13.2744H13.1668C13.4555 13.2744 13.6896 13.5085 13.6896 13.7973C13.6896 14.086 13.4555 14.3201 13.1668 14.3201H12.6439C12.3552 14.3201 12.1211 14.086 12.1211 13.7973C12.1211 13.5085 12.3552 13.2744 12.6439 13.2744ZM21.1588 13.2744H21.6816C21.9704 13.2744 22.2045 13.5085 22.2045 13.7973C22.2045 14.086 21.9704 14.3201 21.6816 14.3201H21.1588C20.87 14.3201 20.6359 14.086 20.6359 13.7973C20.6359 13.5085 20.87 13.2744 21.1588 13.2744Z" fill="#5B718F"/>
<path d="M19.5165 11.958C19.5165 11.958 21.7524 10.6796 23.3497 12.0881L23.7721 12.1535C23.7721 12.1535 23.231 10.1844 19.2906 11.4648L19.4004 11.8319M19.4879 11.8319C19.4879 11.8319 21.7625 10.5254 23.2621 12.1756L24.0347 12.1535C24.0347 12.1535 23.0712 10.05 19.1156 11.3773L19.4879 11.9194M14.7121 11.9654C14.7121 11.9654 12.4837 10.6984 10.8918 12.0943L10.4707 12.1592C10.4707 12.1592 11.01 10.2075 14.9372 11.4766L14.8279 11.8404M14.7407 11.8404C14.7407 11.8404 12.4736 10.5455 10.979 12.1811L10.209 12.1592C10.209 12.1592 11.1693 10.0743 15.1117 11.3898L14.7407 11.9271" fill="#5B718F"/>
</svg>
