<svg width="50" height="60" viewBox="0 0 50 60" fill="none" xmlns="http://www.w3.org/2000/svg">
<path d="M30.7692 7.5H34.6154V11.25H30.7692V7.5ZM38.4615 7.5H42.3077V11.25H38.4615V7.5ZM30.7692 15H34.6154V18.75H30.7692V15ZM38.4615 15H42.3077V18.75H38.4615V15ZM30.7692 22.5H34.6154V26.25H30.7692V22.5ZM38.4615 22.5H42.3077V26.25H38.4615V22.5ZM30.7692 30H34.6154V33.75H30.7692V30ZM38.4615 30H42.3077V33.75H38.4615V30ZM30.7692 37.5H34.6154V41.25H30.7692V37.5ZM38.4615 37.5H42.3077V41.25H38.4615V37.5ZM46.1538 0H26.9231C25.903 0 24.9247 0.395088 24.2034 1.09835C23.4821 1.80161 23.0769 2.75544 23.0769 3.75V15H3.84615C2.82609 15 1.84781 15.3951 1.12651 16.0984C0.405218 16.8016 0 17.7554 0 18.75V56.25C0 57.2446 0.405218 58.1984 1.12651 58.9016C1.84781 59.6049 2.82609 60 3.84615 60H46.1538C47.1739 60 48.1522 59.6049 48.8735 58.9016C49.5948 58.1984 50 57.2446 50 56.25V3.75C50 2.75544 49.5948 1.80161 48.8735 1.09835C48.1522 0.395088 47.1739 0 46.1538 0ZM15.3846 56.25H11.5385V48.75H15.3846V56.25ZM19.2308 56.25V45H7.69231V56.25H3.84615V18.75H23.0769V56.25H19.2308ZM38.4615 56.25H34.6154V48.75H38.4615V56.25ZM46.1538 56.25H42.3077V45H30.7692V56.25H26.9231V3.75H46.1538V56.25ZM7.69231 22.5H11.5385V26.25H7.69231V22.5ZM15.3846 22.5H19.2308V26.25H15.3846V22.5ZM7.69231 30H11.5385V33.75H7.69231V30ZM15.3846 30H19.2308V33.75H15.3846V30ZM7.69231 37.5H11.5385V41.25H7.69231V37.5ZM15.3846 37.5H19.2308V41.25H15.3846V37.5Z" fill="white"/>
</svg>
