<?xml version="1.0" encoding="utf-8"?>
<!-- Generator: Adobe Illustrator 27.3.1, SVG Export Plug-In . SVG Version: 6.00 Build 0)  -->
<svg version="1.1" id="Layer_1" xmlns="http://www.w3.org/2000/svg" xmlns:xlink="http://www.w3.org/1999/xlink" x="0px" y="0px"
	 viewBox="0 0 509 265" style="enable-background:new 0 0 509 265;" xml:space="preserve">
<style type="text/css">
	.st0{fill:#6D81A3;}
	.st1{fill:#709FA3;}
	.st2{fill:#CDE0FF;stroke:#CDE0FF;}
	.st3{fill:#FBA894;}
	.st4{fill:#527E90;}
	.st5{fill:#464F6A;}
	.st6{fill:#414D75;}
	.st7{fill:none;stroke:#29456A;stroke-width:0.8301;stroke-miterlimit:10;}
	.st8{fill:none;stroke:#29456A;stroke-width:0.8301;stroke-linecap:round;stroke-linejoin:round;stroke-miterlimit:10;}
	.st9{fill:#BA792D;}
	.st10{fill:#CDE0FF;}
	.st11{fill:none;stroke:#29456A;stroke-width:1.6268;stroke-linecap:round;stroke-linejoin:round;stroke-miterlimit:10;}
	.st12{fill:#7D92A5;}
	.st13{fill:#BA7F79;}
	.st14{fill:#686868;}
	.st15{fill:#373737;}
	.st16{fill:none;stroke:#29456A;stroke-width:0.4067;stroke-miterlimit:10;}
	.st17{fill:none;stroke:#CDE0FF;stroke-width:0.9311;stroke-miterlimit:10;}
	.st18{fill:none;stroke:#11B698;stroke-width:2;stroke-miterlimit:10;}
</style>
<path class="st0" d="M50.8,261.3H5.5c-2.8,0-5-2.2-5-5v-76.6c0-2.7,2.2-5,5-5h45.2c2.8,0,5,2.2,5,5v76.6
	C55.7,259.1,53.5,261.3,50.8,261.3z"/>
<path class="st1" d="M47.8,203.8H8.5c-1.4,0-2.6-1.2-2.6-2.6v-15.1c0-1.4,1.2-2.6,2.6-2.6h39.4c1.4,0,2.6,1.2,2.6,2.6v15.1
	C50.4,202.6,49.3,203.8,47.8,203.8z"/>
<path class="st1" d="M47.8,227.3H8.5c-1.4,0-2.6-1.2-2.6-2.6v-15.1c0-1.4,1.2-2.6,2.6-2.6h39.4c1.4,0,2.6,1.2,2.6,2.6v15.1
	C50.4,226.1,49.3,227.3,47.8,227.3z"/>
<path class="st2" d="M30,193.9c0,1-0.9,1.8-1.8,1.8s-1.8-0.9-1.8-1.8c0-1,0.9-1.8,1.8-1.8C29.2,192,30,192.8,30,193.9z"/>
<path class="st2" d="M30,217.5c0,1-0.9,1.8-1.8,1.8c-1,0-1.8-0.9-1.8-1.8c0-1,0.9-1.8,1.8-1.8C29.2,215.6,30,216.4,30,217.5z"/>
<path class="st3" d="M263.5,149.4l-0.3,3.3l-1.3,2.3v1h13.8l-1.8-2.8l-4.3-2.1L263.5,149.4z"/>
<path class="st4" d="M288.4,74.5c-3-4.9-9.9-5.9-14.4-2.1c-1.8,1.5-3.6,3.6-4.5,6.5c-1.6,5-5.7,19.9-8.1,28.7c-1,3.7,1.3,7.5,5,8.4
	c2.9,0.8,6-0.6,7.6-3.3c4.9-8.5,14.9-26.8,15.7-32.3C290,78.2,289.5,76.1,288.4,74.5z"/>
<path class="st3" d="M374,77.7l5.2-3.9l3.4-4.9l9-4.2c0.6-0.3,1.3,0.3,1.2,0.9c-0.1,0.6-0.3,1.3-0.8,1.9c-1.3,1.8-3.4,2.6-3.4,2.6
	l15.9-1.3l-0.5,2.9l-7.8,1.8c0,0-1.8,6-3.6,7.5c-1.8,1.7-10.7-0.4-10.7-0.4l-2.4,3.6L374,77.7z"/>
<path class="st3" d="M316.5,250v13l-8.1-0.3l1.6-13L316.5,250z"/>
<path class="st5" d="M304,259.1c0.3-0.1,0.6-0.3,0.8-0.5c0.4-0.6,1.4-1.7,2.7-1.4c1,0.3,1.6,1.1,1.8,1.8c0.3,0.6,0.8,0.8,1.4,0.8
	c0.4-0.1,0.8,0,1.1,0.3c0.7,0.5,2,1.3,3.5,0.8c0.3-0.1,0.5-0.2,0.7-0.3c0.8-0.3,1.6,0.2,1.8,1l0.3,1.8c0.1,0.8-0.4,1.4-1.2,1.4
	c-5.1,0.2-22.3,0.6-23-0.3C293.1,263.6,299.4,260.2,304,259.1z"/>
<path class="st3" d="M289.6,241.4l5.7,11.7l-7.4,3.3l-4.3-12.3L289.6,241.4z"/>
<path class="st5" d="M282.4,255.1c0.3-0.2,0.4-0.4,0.4-0.8c0.1-0.8,0.5-2.2,1.8-2.4c1-0.3,1.8,0.3,2.4,0.8c0.5,0.4,1.2,0.4,1.6,0
	c0.3-0.3,0.7-0.3,1.1-0.3c0.8,0.2,2.4,0.3,3.5-0.8c0.2-0.2,0.3-0.4,0.5-0.6c0.6-0.6,1.5-0.6,2,0.1l1.1,1.5c0.4,0.6,0.3,1.5-0.4,1.8
	c-4.5,2.3-19.8,10.4-20.8,9.9C274.5,263.9,278.8,258,282.4,255.1z"/>
<path class="st6" d="M291.2,243.4c-4.9,5.9-8.1,2.9-8.1,2.9S268.5,205,268.5,197s9.1-55.2,9.1-55.2c4.2-7.6,15.9-11.5,21.6-2.4
	c5.5,9.1-0.7,17-0.7,18L286,196.6c0,0,5.2,7.6,5.9,13.5C292.5,216.1,291.2,243.4,291.2,243.4z"/>
<path class="st6" d="M308.8,251.6c0,0-6-48.1-6.1-52.7c-0.1-4.5-4.9-53.9-4.9-53.9c2.1-15.5,23.4-10.7,25.7-5c2.3,5.7-3.6,47-3.8,56
	c0,0,2.6,11,2.9,18s-5.2,37.6-5.2,37.6S312.9,254.5,308.8,251.6z"/>
<path class="st4" d="M283.6,69.7c0,0-6.6-0.6-9.7,4.9c-3,5.5,2.6,68.8,2.6,68.8s20.1,6.4,47.5,1.7c0,0,6-63.8,5.5-68.2
	c-0.5-4.4-4-7.1-10.2-8.2C313.3,67.4,283.6,69.7,283.6,69.7z"/>
<path class="st3" d="M313.9,50.5c0,0,1.3,10.1-0.9,15.3c-1.7,2.3-8.8,0-12.3-3.9c-3.4-3.9-4.2-10.5-2.5-14.3
	c1.8-3.9,9.2-3.9,11.6-2.9C312.1,45.6,313.8,48.9,313.9,50.5z"/>
<path class="st3" d="M306.7,65.2l-0.8,7c0,0-0.3,1.5-4.5,4.2c-1.2,0.7-2.1-1.7-2.9-3c-1.8-2.6-3-5.8-3-5.8l3.9-11.2L306.7,65.2z"/>
<path class="st4" d="M317.9,68.3c0,0,7.3,0.7,10.7,3.4c3.4,2.8,19.8,20.8,19.8,20.8s23.2-15.3,27.4-17.4l5.9,7.6
	c0,0-24,24-31.6,27.1C342.5,113,312.6,88,312.6,88S303.6,75.2,317.9,68.3z"/>
<path class="st7" d="M348.5,94.7c0,0-2.1,3.1-1,9.7"/>
<path class="st7" d="M375.9,75.2l5.9,7.6l-3.4,3.9l-7-10.1"/>
<path class="st7" d="M328.5,85.5L328,99.8"/>
<path class="st7" d="M393.1,65c0,0-0.7,3.6-4.4,5.1c0,0-0.1,4.1-3.2,5.6"/>
<path class="st7" d="M404.5,68.8l-0.5,2.9l-12.8,2.9"/>
<path class="st7" d="M396.2,73.5l-1.2,2.9l-5.6,1"/>
<path class="st7" d="M389.2,79.6l4.5-0.7"/>
<path class="st8" d="M295.3,67.4c0,0,1.9,6.5,5.4,8.9l-6.8,4.7l-2.3-11.5L295.3,67.4z"/>
<path class="st8" d="M306.6,67.9c0,0,0.3,6.3-5.3,8.5l5.3,4.8l2.1-10.9L306.6,67.9z"/>
<path class="st8" d="M284.8,93.5c0,0,17.2,22.1,36.8,23.6"/>
<path class="st8" d="M283.2,137.3c0,0,23.2,5.2,35.7,3.1"/>
<path class="st4" d="M271.4,106.9c-4.2-2.8-9.9,0.2-10.3,5.2c-0.2,1.9-0.3,4-0.3,5.6c0,3.6,1.3,33.5,1.3,33.5h8.9
	c0,0,3.9-34.4,3.4-39.6C274.1,109.7,273,108,271.4,106.9z"/>
<path class="st8" d="M263.9,108.1c0,0,5-1.8,9.7,1.3"/>
<path class="st8" d="M275.4,82.4c0,0-0.8,13.5-1,21.9"/>
<path class="st8" d="M262.1,151.3h8.8l1-3.5l-7.6,0.3"/>
<path class="st9" d="M299,44.8c0,0,8.7-3.7,13.8-0.2c2.9,2.9,1.1,5.8-5.2,7.9c-2.9,1-5.1,0.8-5.1,0.8l1,3.2l-1,0.4l-1.9-2.2
	c0,0-1.3,1.1-0.7,2.5c0.6,1.3,0.3,2.2,0.3,2.2l-2.5,1.3l-0.6-3.3c0,0-3.2-6.2-1.9-9s3.9-2.9,3.9-2.9"/>
<path class="st8" d="M302.2,61.1c0,0,0.3,2.2,4.1,4.7"/>
<path class="st0" d="M152.5,97.4H50.9c-1.3,0-2.3-1-2.3-2.3V40.7c0-1.3,1-2.3,2.3-2.3h101.5c1.3,0,2.3,1,2.3,2.3v54.5
	C154.8,96.4,153.7,97.4,152.5,97.4z"/>
<path class="st10" d="M64.6,51.3h-4.9v38.2h4.9V51.3z"/>
<path class="st1" d="M71.6,68.6h-4.9v20.8h4.9V68.6z"/>
<path class="st10" d="M79.1,76.3h-4.9v13.2h4.9V76.3z"/>
<path class="st1" d="M86,71.5h-4.9v18H86V71.5z"/>
<path class="st10" d="M93.5,55.9h-4.9v33.5h4.9V55.9z"/>
<path class="st1" d="M100.5,62.4h-4.9v27.1h4.9V62.4z"/>
<path class="st10" d="M107.8,51.3H103v38.2h4.9L107.8,51.3L107.8,51.3z"/>
<path class="st1" d="M114.8,74.9h-4.9v14.6h4.9V74.9z"/>
<path class="st10" d="M122.3,56.1h-4.9v33.3h4.9V56.1z"/>
<path class="st1" d="M129.2,66.2h-4.9v23.2h4.9V66.2z"/>
<path class="st10" d="M136.7,58.4h-4.9v31h4.9V58.4z"/>
<path class="st1" d="M143.7,52.8h-4.9v36.6h4.9V52.8z"/>
<path class="st3" d="M212.6,155c0,0,4.4,3.6,10.7-0.8c6.2-4.4,22.9-37,22.9-37l9.4-6.4l-0.8-1.6c0,0-2.1-2.3-3.6-2.6
	c-1.6-0.3-7.6,1.9-7.6,1.9s3.4-2.6,3.6-4.7c0.1-0.8-0.8-1.4-1.5-1c-2.3,1.4-6.1,3.8-7.1,4.6c-1,1.3-2.1,7-2.1,7
	s-20.6,23.6-23.4,29.9C210.2,150.8,212.6,155,212.6,155z"/>
<path class="st7" d="M246.1,117.2c0-0.5,8.2-5.5,8.2-5.5s-0.4-0.7-1.6-0.7c-1.2,0-4.4,1.8-4.4,1.8"/>
<path class="st7" d="M247.8,111.1l6.5-2.1"/>
<path class="st7" d="M247.2,109.3l5.5-1.8"/>
<path class="st7" d="M247.2,104c0,0-1.8,3.8-3.6,4.7c0,0,1.7,2.9,0.3,4.8"/>
<path class="st3" d="M197.9,117.7c0,0,7.6-2.9,11.7,3.6c4.2,6.5,13.3,28.3,13.3,28.3s1.3,5.7-4.7,7.3s-9.1-4.4-9.1-4.4
	s-14.9-24.7-14.9-28.6C194.2,119.9,197.9,117.7,197.9,117.7z"/>
<path class="st4" d="M202.7,115.9c0,0,5.7,1.6,8.3,6s6.5,13.8,6.5,13.8s-11.2,9.9-15.6,10.1C197.5,145.8,191.4,122.4,202.7,115.9z"
	/>
<path class="st11" d="M196,201.1l6.4,60.9"/>
<path class="st11" d="M180.9,200.9l5.5,61"/>
<path class="st11" d="M153.2,200.9l-5.5,61"/>
<path class="st12" d="M185.2,201.9h-36.7c-1.6,0-2.9-1.2-3.1-2.7l-7.5-55.3c-0.3-1.8,1.2-3.5,3.1-3.5h36.7c1.6,0,2.9,1.2,3.1,2.7
	l7.5,55.3C188.7,200.3,187.2,201.9,185.2,201.9z"/>
<path class="st12" d="M204.4,201.9H161V197h38.4C202.1,197,204.4,199.2,204.4,201.9z"/>
<path class="st13" d="M196.3,248.2l-1,6l2.6,3.6c0,0,8.5,5,8.3,5.5s-21.1-0.2-21.1-0.2l3.9-14.4L196.3,248.2z"/>
<path class="st13" d="M245.9,248.2l2.1,6.7l2.9,3c0,0,8.5,5,8.3,5.5s-21.1-0.2-21.1-0.2l0.4-14.4L245.9,248.2z"/>
<path class="st5" d="M194.6,170.7c0,0,20.6,4,38.3,11.5c3.5,1.5,6,4.6,6.8,8.3c2.4,11.9,7.3,39.9,7,59.4h-8.6l-15.9-53.2
	c0,0-5.9,2.5-25.3,0.3c-19.5-2.3-23.5-15.8-23.5-15.8L194.6,170.7z"/>
<path class="st5" d="M165.7,169.1c0,0-11,18.9-0.5,25.3c10.5,6.5,28.5,3,28.5,3l-6.8,52.9l10.5,0.3c0,0,12.5-42.1,15.9-59.6
	c0.8-3.9-1.2-7.8-4.7-9.6l-19.3-9.8L165.7,169.1z"/>
<path class="st7" d="M197.9,258l-3,2.3"/>
<path class="st7" d="M196.1,255.4l-3.1,1.8"/>
<path class="st7" d="M250.8,258l-1.5,2.9"/>
<path class="st7" d="M248,254.9l-2.1,3.4"/>
<path class="st4" d="M204.7,116.6c0,0,3.6,1.3,4.7,4.4c1,3.1-9.1,38.2-9.1,38.2s1.1,10.1,0.3,12.2c-0.8,2.1-6.4,2.2-6.4,2.2
	s-17.5-0.5-26.4-1.5c-2.7-0.3-4.8-2.5-5-5.2c-0.4-6.5-1-17.8-1-17.8s0.5-27.8,3.9-34.9c2.9-1.6,13-1.3,13-1.3
	S200.5,114.7,204.7,116.6z"/>
<path class="st7" d="M193.7,197.4c0,0,0.6-6.5,8.1-8.9"/>
<path class="st3" d="M172.2,114.6c0,0-7.6-2.9-11.7,3.6c-4.2,6.5-13.3,28.3-13.3,28.3s-1.3,5.7,4.7,7.3s9.1-4.4,9.1-4.4
	s14.9-24.7,14.9-28.6C175.8,117,172.2,114.6,172.2,114.6z"/>
<path class="st3" d="M148.5,144.8c0,0,4.2-2.1,11.2-1c7,1,31.6,8.1,31.6,8.1s9.4-4.4,11.2-4.4s10.7,4.7,10.7,4.7l-1,3.9l-7.6-0.3
	c0,0-7,4.2-10.2,3.6c-3.1-0.5-3.1-0.5-3.1-0.5s-26.7,0.4-39.5-4.2c-3.3-1.2-5.3-4.8-4.3-8.1C147.6,145.7,148,145,148.5,144.8z"/>
<path class="st4" d="M172.2,113.2c0,0-7.6-1.3-11.8,4.2s-8.5,16.5-8.5,16.5s9.4,5.7,16.7,6c0,0,9.4-16.4,9.4-20
	C177.9,116.1,173.2,113.5,172.2,113.2z"/>
<path class="st7" d="M163.5,144.7c0,0-5.5-0.7-9.7,2.9"/>
<path class="st7" d="M202.4,147.4l-0.8,8.1"/>
<path class="st7" d="M202.2,149.1l8.5,3.4"/>
<path class="st7" d="M202.4,151.7l6.9,2.3"/>
<path class="st7" d="M201.9,154.1l5.5,1.2"/>
<path class="st7" d="M167.3,139.8c0,0,7-13.5,7.5-17.9"/>
<path class="st3" d="M200.2,94c0,0-0.3,10.1-3.3,14.9c-2,2-8.7-1.3-11.5-5.7c-2.8-4.4-2.6-11-0.3-14.6c2.4-3.6,9.7-2.3,11.9-1.1
	C199.2,88.8,200.3,92.4,200.2,94z"/>
<path class="st3" d="M192.4,107.5l-0.8,7c0,0,0.8,4-4.5,4.2s-7.5-5.4-7.5-5.4l5.4-14.6L192.4,107.5z"/>
<path class="st6" d="M181.8,91.2c0,0,0.8-4.7,5-6.6s9.4-0.3,10.4-0.5s2.8-2.9,4-1.9s0.7,2.9,0.7,2.9s1.9-2.1,3.1-0.7
	c1.2,1.4-2.1,4.5-2.1,4.5s2.1-1.2,2.6-0.2s-2.3,6-5.2,5.1s-8.4-3.4-10.2-3.2c-1.8,0.2-2.9,2.1-2.9,2.1v5.5l-1.6,0.5v-3.4
	c0,0-1.5-0.5-1.8,1.3s0.7,4.1,0.7,4.1l-1.4,3.4c0,0-4.2-6.8-3.6-9.6C179.8,91.9,181.8,91.2,181.8,91.2z"/>
<path class="st7" d="M195.5,98c0,1.6-1.3,2.9-2.9,2.9c-1.6,0-2.9-1.3-2.9-2.9s1.3-2.9,2.9-2.9C194.2,95.2,195.5,96.4,195.5,98z"/>
<path class="st7" d="M203.1,98c0,1.6-1.3,2.9-2.9,2.9c-1.6,0-2.9-1.3-2.9-2.9s1.3-2.9,2.9-2.9C201.8,95.2,203.1,96.4,203.1,98z"/>
<path class="st7" d="M195.5,98h1.9"/>
<path class="st7" d="M179.5,113.2c0,0,1.9,6.6,9.2,5.4"/>
<path class="st1" d="M250.5,155.7h-43.2c-1.3,0-2.2-1.1-2-2.3l3.9-29.3c0.2-1,1-1.8,2-1.8h43.1c1.3,0,2.2,1.1,2,2.3l-3.9,29.3
	C252.4,155,251.5,155.7,250.5,155.7z"/>
<path class="st14" d="M232.5,145.8c2.6,0,4.7-2.1,4.7-4.7c0-2.6-2.1-4.7-4.7-4.7c-2.6,0-4.7,2.1-4.7,4.7S229.9,145.8,232.5,145.8z"
	/>
<path class="st7" d="M172.5,144.6c0,0,16.7,0.8,27.4-9.6"/>
<path class="st7" d="M204.3,125.5c0,0,0.5,12.5-0.5,18.2"/>
<path class="st8" d="M186.5,103.8c0,0,0.2,3.1,4.8,4.8"/>
<path class="st1" d="M171,156.7h-43.1c-1.3,0-2.2-1.1-2-2.3l3.9-29.3c0.2-1,1-1.8,2-1.8h43.1c1.3,0,2.2,1.1,2,2.3L173,155
	C172.8,156,172,156.7,171,156.7z"/>
<path class="st6" d="M170.2,152.2l3.6-26.6h-41l-3.6,26.6H170.2z"/>
<path class="st1" d="M330.4,155.7h43.1c1.3,0,2.2-1.1,2-2.3l-3.9-29.3c-0.2-1-1-1.8-2-1.8h-43.1c-1.3,0-2.2,1.1-2,2.3l3.9,29.3
	C328.6,155,329.4,155.7,330.4,155.7z"/>
<path class="st6" d="M331.2,151.2l-3.6-26.6h41l3.6,26.6H331.2z"/>
<path class="st0" d="M444.7,155.9H31.8v5.1h412.9L444.7,155.9L444.7,155.9z"/>
<path class="st0" d="M399.6,122.2c0,0,5.5,1.6,7.1,6.5c1.6,4.9,5.5,28.3,5.5,28.3l-20.1-0.5L399.6,122.2z"/>
<path class="st3" d="M365.2,249.8l1.4,4.9l-6.6,5.7c0,0,4.4,0.7,6.6-0.3s8.5-0.8,8.5-0.8l-2.6-9.6L365.2,249.8z"/>
<path class="st6" d="M374.3,255.7c0,0-3-0.8-5.5,0.9c-2.4,1.7-3.4,4-8,3.8c-0.7-0.3,0-0.7,0-0.7s-3.6,0.4-4.3,2.2
	c-0.2,1.3,16.4,0.8,19.1,0.2C376.6,261.1,374.3,255.7,374.3,255.7z"/>
<path class="st3" d="M355.2,224.6l10.6,27.3l7-0.7c0,0,1.7-17.6-3.4-34C364.2,200.8,355.2,224.6,355.2,224.6z"/>
<path class="st3" d="M398.9,248.7l1.4,4.9l-6.6,5.7c0,0,4.4,0.7,6.6-0.3c2.3-1,8.5-0.8,8.5-0.8l-2.6-9.6L398.9,248.7z"/>
<path class="st6" d="M408,254.7c0,0-3-0.8-5.5,0.9c-2.4,1.7-3.4,4-8,3.8c-0.7-0.3,0-0.7,0-0.7s-3.6,0.4-4.3,2.2
	c-0.2,1.3,16.4,0.8,19.1,0.2C410.2,260,408,254.7,408,254.7z"/>
<path class="st3" d="M388.9,223.5l10.6,27.3l7-0.6c0,0,1.6-17.7-3.5-34C397.9,199.8,388.9,223.5,388.9,223.5z"/>
<path class="st1" d="M374.1,169.6c0,0-21.7,5.2-28,16.8c-6.1,12.2,6.5,40.8,9,41.8c2.6,0.9,39.5,7.5,52.1-4.7
	c-0.7-6.7-8.6-23.2-7.6-23.2c0.9,0,7.2-6.5,7.6-14.8c0.3-8.4-3.5-14.1-3.5-14.1S379,168.9,374.1,169.6z"/>
<path class="st3" d="M378,93.9c0,0-3.1,9.6-1.3,14.9c1,2.2,2.5,1.2,3.3,2s-1.4,13.1-1.4,13.1l12.3,0.6c0,0,5.5-16.9,5-23.1
	C395.2,95,382.7,89.7,378,93.9z"/>
<path class="st0" d="M371.1,131.7c0,0,1.9,21.1,6.4,27.5c0,0-3.4,6.9-3.4,10.3c0,0,19.6,2.9,33.9,1.5c-8.4-32.6-7.4-41.3-7.4-41.3
	L371.1,131.7z"/>
<path class="st0" d="M376.2,123.4c0,0,0.3-2.9,4.5-2.9s17.7,0,20.6,2.6s-0.3,19.3-0.3,19.3l-26-3.2L376.2,123.4z"/>
<path class="st3" d="M334.3,141.8c0,0,22.7,20.3,35.3,18c8.5-3.7,15.6-30.1,13.5-34.2c-2-4-6-4.3-6-4.3s-3.6-0.3-6.4,3.9
	c-2.7,4.3-7.9,19.5-7.9,19.5s-21.3-11.7-29-13.3l-9.2-3.8c0,0-0.9,2.2,0.8,3.6c1.7,1.4,5.5,2.4,5.5,2.4l-12.8,1.9c0,0,2.9,4.8,5.3,6
	C325.9,142.8,334.3,141.8,334.3,141.8z"/>
<path class="st0" d="M380.1,120.8c0,0-6.6-1.8-10.6,5s-7,18.4-7,18.4s-9.4-5.2-11.7-6.2c0,0-6.2,7.8-4.9,13.7c0,0,15.8,11.5,24,8.9
	c6.6-2.9,13.7-23.4,13.7-23.4S388.9,124,380.1,120.8z"/>
<path class="st7" d="M363.1,146.8c0,0,0.2,4.9,2.4,8.1"/>
<path class="st7" d="M319.8,137.8l6.4-0.8"/>
<path class="st7" d="M321.5,140l5.1-0.6"/>
<path class="st7" d="M324,141.8l4-1"/>
<path class="st7" d="M331.8,133.6l-13.7,2"/>
<path class="st7" d="M334.3,141.8c0,0-0.3-2.7,0.5-4.1"/>
<path class="st0" d="M377.2,121.3c0,0,0-5.4,2.3-5.7c2.3-0.3,14.8,1.2,15.6,2.9c0.7,1.6,0,5,0,5L377.2,121.3z"/>
<path class="st15" d="M376.7,93.6c0,0,0,0.3,0.1,0.9c0.3,2.2,1.3,8.1,5.9,12.9l-1.6,10.2c0,0,17,4.5,25.3-2.3
	c-0.9-6.7-2.9-19-10.9-24.4C387.5,85.5,378.7,87.8,376.7,93.6z"/>
<path class="st7" d="M384,132.8c0,0-4.7,14.8-7.8,20"/>
<path class="st7" d="M377.6,159.3c0,0-3.2,8.1-3.4,10.3c-0.3,2.3-0.1,0.6-0.1,0.6h3.9"/>
<path class="st7" d="M377.2,121.3c0,0,9.9-1.2,15.4-0.2"/>
<path class="st11" d="M367.6,201.1l-4.2,58"/>
<path class="st11" d="M382.9,200.9l-5.5,61"/>
<path class="st11" d="M410.5,200.9l5.5,61"/>
<path class="st12" d="M378.4,201.9h36.7c1.6,0,2.9-1.2,3.1-2.7l7.5-55.3c0.3-1.8-1.2-3.5-3.1-3.5h-36.7c-1.6,0-2.9,1.2-3.1,2.7
	l-7.5,55.3C375.1,200.3,376.5,201.9,378.4,201.9z"/>
<path class="st12" d="M359.3,201.9h43.4V197h-38.4C361.5,197,359.3,199.2,359.3,201.9z"/>
<path class="st1" d="M146,153h-38v3h38V153z"/>
<path class="st3" d="M87.1,249.8l-1.4,4.9l6.6,5.7c0,0-4.4,0.7-6.6-0.3s-8.5-0.8-8.5-0.8l2.6-9.6L87.1,249.8z"/>
<path class="st6" d="M78,255.7c0,0,3-0.8,5.5,0.9c2.4,1.7,3.4,4,8,3.8c0.7-0.3,0-0.7,0-0.7s3.6,0.4,4.3,2.2
	c0.2,1.3-16.4,0.8-19.1,0.2C75.8,261.1,78,255.7,78,255.7z"/>
<path class="st1" d="M104.8,184.5c-2.5-2.5-7.4-4.9-12.7-7c-0.4,1.8-0.9,4-1.6,6.6c1.4,4.9-0.1,9.6-3.6,11.9
	c-1.3,3.9-2.9,7.5-4.3,9.9c-1.3,3.9-2.9,9.4-3.2,13.9c-0.6,8.1-1.6,29.1-1.6,30.3c6.4,1.8,9.7,1,9.7,1S111.1,192.6,104.8,184.5z"/>
<path class="st3" d="M117.9,249.8l-1.4,4.9l6.6,5.7c0,0-4.4,0.7-6.6-0.3s-8.5-0.8-8.5-0.8l2.6-9.6L117.9,249.8z"/>
<path class="st6" d="M108.8,255.7c0,0,3-0.8,5.5,0.9c2.4,1.7,3.4,4,8,3.8c0.7-0.3,0-0.7,0-0.7s3.6,0.4,4.3,2.2
	c0.2,1.3-16.4,0.8-19.1,0.2C106.6,261.1,108.8,255.7,108.8,255.7z"/>
<path class="st1" d="M100.2,170.4c0,0,28.2,6.5,35.7,14.1c6.4,8.1-17.2,66.5-17.2,66.5s-3.4,0.8-9.7-1c0-1.2,1-22.2,1.6-30.3
	s5.1-19.4,5.1-19.4s-3.9-1.6-10.3-2.2c-6.4-0.6-24.3,0.6-34.2-7.5c-9.8-8.1-5.2-20.2-5.2-20.2S92.7,168.1,100.2,170.4z"/>
<path class="st3" d="M95,93.9c0,0,3.1,9.6,1.3,14.9c-1,2.2-2.5,1.2-3.3,2s1.4,13.1,1.4,13.1l-12.3,0.6c0,0-5.5-16.9-5-23.1
	C77.8,95,90.3,89.7,95,93.9z"/>
<path class="st0" d="M101.9,131.7c0,0-1.9,21.1-6.4,27.5c0,0,3.4,6.9,3.4,10.3c0,0-19.6,2.9-33.9,1.5c8.4-32.6,7.4-41.3,7.4-41.3
	L101.9,131.7z"/>
<path class="st3" d="M95.1,117.8c0,0,3.6-0.3,6.4,3.9c2.7,4.3,7.9,19.5,7.9,19.5s21.3-11.7,29-13.3c0,0,12.7-1,13.4,0.2
	s2.2,7.4-3,8.9c-5,0.8-10.7,1.3-10.7,1.3s-22.7,20.3-35.3,18c-8.5-3.7-15.6-30.1-13.5-34.2C91.2,118.1,95.1,117.8,95.1,117.8z"/>
<path class="st7" d="M144.4,129.4l7.9-0.2"/>
<path class="st7" d="M145.4,131.5l7.2-0.3"/>
<path class="st7" d="M146.5,133.5l5.9,0.1"/>
<path class="st7" d="M151.2,135.4l-3.6,0.1"/>
<path class="st7" d="M109.6,143.4c0,0-0.3,5-3,7.9"/>
<path class="st0" d="M93.6,117.5c0,0,3.2-1.1,6.3,1.1c3,2.3,6.1,10.2,6.5,10.9c0.3,0.7-8.1,6.7-15.9,6.5
	C82.7,135.4,93.6,117.5,93.6,117.5z"/>
<path class="st6" d="M82.5,84.8c0,0,9.6-0.7,12.8,6.4c2.9,6.9-7.6,9.8-6.9,16.4s8,7,6.6,15.1c-1.3,8-4.8,9.4-0.9,18.7
	c3.9,9.4,3.7,17.4-9.8,21.9s-25.8-1.8-28.8-15.3c-2.9-13.5,12.1-25.6,13.7-36.1s0.6-14.4,2.7-19.3C74.1,87.5,78.6,85.2,82.5,84.8z"
	/>
<path class="st7" d="M109,250.1c0,0,4.2,0.8,9.7,1"/>
<path class="st7" d="M115.7,200.3c0,0,8.1-0.3,12.3-8.3"/>
<path class="st11" d="M103.9,201.1l4.1,58"/>
<path class="st11" d="M88.6,200.9l5.5,61.1"/>
<path class="st11" d="M61,200.9L55.6,262"/>
<path class="st12" d="M93.1,201.9H56.3c-1.6,0-2.9-1.2-3.1-2.7l-7.5-55.3c-0.3-1.8,1.2-3.5,3.1-3.5h36.7c1.6,0,2.9,1.2,3.1,2.7
	l7.5,55.3C96.4,200.3,94.9,201.9,93.1,201.9z"/>
<path class="st12" d="M112.1,201.9H68.7V197h38.4C109.9,197,112.1,199.2,112.1,201.9z"/>
<path class="st16" d="M96.7,178.3l33.3,11.1c1.2,0.4,1.8,1.7,1.5,2.9l-15.9,56.9"/>
<path class="st0" d="M186.3,39.2h-26.6v37.5h26.6V39.2z"/>
<path class="st10" d="M182,46.1h-18.2v2.1H182V46.1z"/>
<path class="st10" d="M171.6,50.1h-7.8v2.1h7.8V50.1z"/>
<path class="st6" d="M219,21.5V0"/>
<path class="st6" d="M222.6,25.2h0.3V19h-7.3v6.2h0.3l-24.3,12.5h27.5h27.6L222.6,25.2z"/>
<path class="st6" d="M287.4,21.5V0"/>
<path class="st6" d="M291,25.2h0.3V19H284v6.2h0.4l-24.3,12.5h27.5h27.6L291,25.2z"/>
<path class="st0" d="M359.6,30.6l-13.8,15.8v-21c-12,0-21.6,10-21,22.1c0.6,10.6,9.2,19.3,19.8,19.8c12.1,0.7,22.2-9,22.2-21
	C366.8,40.1,364.1,34.5,359.6,30.6z"/>
<path class="st1" d="M359.1,27.8c-3.1-2.3-7-3.9-11.2-4.2c-0.8-0.1-1.5,0.6-1.5,1.3v15.8c0,1.3,1.6,1.8,2.4,0.9l10.4-11.9
	C359.8,29.2,359.7,28.2,359.1,27.8z"/>
<path class="st0" d="M213.6,94h-3.5v7.8h3.5V94z"/>
<path class="st0" d="M219.3,97.9h-3.5v3.9h3.5V97.9z"/>
<path class="st0" d="M225,90.4h-3.5v11.5h3.5V90.4z"/>
<path class="st0" d="M230.7,84.4h-3.5v17.5h3.5V84.4z"/>
<path class="st0" d="M492.5,144.5h-66.7l16.5-106.8H509L492.5,144.5z"/>
<path class="st1" d="M442,143.4h-3.8v119.3h3.8V143.4z"/>
<path class="st1" d="M485.9,143.4h-3.8v119.3h3.8V143.4z"/>
<path class="st17" d="M449.8,47.2l50.9-1.1l-1.9,10l-50.9,0.3L449.8,47.2z"/>
<path class="st17" d="M447.8,60.6l34.3,0.4l-1.3,6.9l-36.2,0.3L447.8,60.6z"/>
<path class="st18" d="M438.3,100.9l9.6-8.5l5.9,2.8l7.3-13.2l13.3,6l9.7-11.2l5.3,2.9l5.9-7.9"/>
<path class="st1" d="M29.7,107.3c0,1.1-0.8,1.9-1.9,1.9s-1.9-0.8-1.9-1.9s0.8-1.9,1.9-1.9C28.8,105.4,29.7,106.3,29.7,107.3z"/>
<path class="st1" d="M41.4,109.3c1.1,0,1.9-0.9,1.9-1.9c0-1.1-0.9-1.9-1.9-1.9c-1.1,0-1.9,0.9-1.9,1.9
	C39.4,108.4,40.3,109.3,41.4,109.3z"/>
<path class="st1" d="M56.9,107.3c0,1.1-0.8,1.9-1.9,1.9s-1.9-0.8-1.9-1.9s0.8-1.9,1.9-1.9C56,105.4,56.9,106.3,56.9,107.3z"/>
<path class="st0" d="M220.4,0.1h-2.1V19h2.1V0.1z"/>
<path class="st0" d="M288.6,0.1h-2.1V19h2.1V0.1z"/>
</svg>
