<svg width="57" height="62" viewBox="0 0 57 62" fill="none" xmlns="http://www.w3.org/2000/svg">
<path d="M11.0403 58.6693H11.6968V58.4193M11.0403 58.6693L11.9468 41.2088V58.4193H11.6968M11.0403 58.6693C10.0875 58.671 9.14372 58.4846 8.26312 58.1207M11.0403 58.6693L8.26312 58.1207M11.6968 58.4193H11.0403H11.0398C10.1199 58.4209 9.20877 58.2409 8.35858 57.8897C7.50839 57.5384 6.73591 57.0227 6.08544 56.3723C5.43498 55.7218 4.91932 54.9493 4.56806 54.0991C4.21679 53.249 4.03682 52.3378 4.03846 51.4179V51.4174L4.03846 49.6479C4.03846 49.6478 4.03846 49.6478 4.03846 49.6477C4.04424 44.4037 6.0548 39.3604 9.65834 35.5508C13.2013 31.8052 18.0204 29.5308 23.1572 29.1729V31.3023C23.1572 32.0111 23.2968 32.7129 23.5681 33.3678C23.8393 34.0226 24.2369 34.6177 24.7381 35.1189C25.2393 35.6201 25.8343 36.0176 26.4892 36.2889C27.1441 36.5601 27.8459 36.6998 28.5547 36.6998C29.2635 36.6998 29.9654 36.5601 30.6203 36.2889C31.2751 36.0176 31.8701 35.6201 32.3713 35.1189C32.8725 34.6177 33.2701 34.0226 33.5414 33.3678C33.8126 32.7129 33.9522 32.0111 33.9522 31.3023V29.1728C39.0914 29.53 43.9132 31.8036 47.4597 35.5488C51.0668 39.3581 53.0819 44.4019 53.0926 49.6482V51.4172C53.0918 52.3383 52.9094 53.2501 52.5559 54.1006C52.2024 54.9511 51.6848 55.7236 51.0325 56.3739C50.3803 57.0243 49.6063 57.5396 48.7547 57.8906C47.9031 58.2415 46.9907 58.4212 46.0697 58.4193H46.0692H45.4235V41.2088V41.2084C45.4223 40.2496 45.0408 39.3305 44.3629 38.6525C43.6849 37.9745 42.7657 37.5931 41.8069 37.5919H41.8066H15.3137H15.3134C14.3546 37.5931 13.4354 37.9745 12.7574 38.6525C12.0794 39.3305 11.698 40.2496 11.6968 41.2084V41.2088V58.4193ZM8.26312 58.1207C7.38251 57.7569 6.5824 57.2228 5.90867 56.549M8.26312 58.1207L5.90867 56.549M5.90867 56.549C5.23493 55.8753 4.70083 55.0752 4.337 54.1946M5.90867 56.549L4.337 54.1946M4.337 54.1946C3.97317 53.314 3.78676 52.3702 3.78846 51.4174L4.337 54.1946ZM19.3692 24.057C19.8501 24.9978 20.5123 25.8317 21.3155 26.5119C15.8496 27.2875 10.8265 29.973 7.14324 34.1026C3.32662 38.3817 1.21435 43.9135 1.20752 49.6473V49.6476L1.20752 51.4174L1.20752 51.4176C1.20928 54.0248 2.24578 56.5248 4.08936 58.3684C5.93295 60.2119 8.43289 61.2484 11.0401 61.2502H11.0403H46.0692H46.0693C48.6766 61.2484 51.1765 60.2119 53.0201 58.3684C54.8637 56.5248 55.9002 54.0248 55.9019 51.4176V51.4174V49.6476V49.6473C55.8951 43.9135 53.7828 38.3817 49.9662 34.1026C46.2829 29.973 41.2599 27.2875 35.794 26.5119C36.5958 25.8329 37.257 25.0007 37.7378 24.062C38.3109 22.9428 38.6112 21.704 38.6141 20.4467V20.4461V10.8094C38.6141 8.14147 37.5543 5.58283 35.6678 3.69633C33.7813 1.80983 31.2226 0.75 28.5547 0.75C25.8868 0.75 23.3282 1.80983 21.4417 3.69633C19.5552 5.58283 18.4953 8.14147 18.4953 10.8094V20.4353V20.4355C18.4965 21.6948 18.796 22.9358 19.3692 24.057ZM22.8473 24.1031C21.8744 23.1302 21.3274 21.811 21.3263 20.4351V15.6825C24.4775 15.7072 27.5357 14.6161 29.959 12.6035C30.5468 13.6464 31.3868 14.5276 32.404 15.1651L32.404 15.1651L32.4076 15.1673C33.3325 15.7255 34.3948 16.0145 35.4749 16.0019L35.478 16.0018C35.5798 15.9994 35.6816 15.9941 35.7832 15.9861V20.4353C35.7832 21.8079 35.2393 23.1246 34.2707 24.0971C33.3021 25.0695 31.9878 25.6186 30.6154 25.6242C30.6152 25.6242 30.6151 25.6242 30.6149 25.6242L26.5154 25.6242C25.1395 25.6231 23.8202 25.076 22.8473 24.1031ZM41.7958 40.4228L41.799 40.4228C41.9021 40.4215 42.0045 40.4408 42.1001 40.4797C42.1957 40.5186 42.2825 40.5762 42.3554 40.6491C42.4284 40.7221 42.486 40.8089 42.5249 40.9045C42.5637 41 42.5831 41.1024 42.5818 41.2056V41.2088V58.4193H14.5277V41.2088C14.5277 41.1055 14.548 41.0033 14.5875 40.908C14.627 40.8126 14.6849 40.726 14.7579 40.653C14.8309 40.58 14.9175 40.5221 15.0129 40.4826C15.1083 40.4431 15.2105 40.4228 15.3137 40.4228L41.7958 40.4228ZM46.0692 58.6693H45.4235H46.0692ZM31.1429 28.4443V31.3023C31.1429 31.9858 30.8713 32.6414 30.388 33.1247C29.9046 33.6081 29.2491 33.8796 28.5655 33.8796C27.882 33.8796 27.2264 33.6081 26.7431 33.1247C26.2597 32.6414 25.9882 31.9858 25.9882 31.3023V28.4443H31.1429Z" fill="#6D81A3" stroke="#6D81A3" stroke-width="0.5"/>
<path d="M28.5549 46.4883C27.9034 46.4883 27.2665 46.6815 26.7248 47.0436C26.1832 47.4057 25.7611 47.9203 25.512 48.5223C25.2628 49.1243 25.1979 49.7867 25.3253 50.4256C25.4528 51.0646 25.7669 51.6514 26.2279 52.1117C26.6889 52.5721 27.2762 52.8854 27.9153 53.0119C28.5544 53.1385 29.2167 53.0726 29.8184 52.8226C30.42 52.5726 30.934 52.1498 31.2953 51.6076C31.6566 51.0655 31.849 50.4283 31.8481 49.7768C31.8468 48.9042 31.4993 48.0678 30.8819 47.4512C30.2644 46.8346 29.4275 46.4883 28.5549 46.4883Z" fill="#6D81A3" stroke="#6D81A3" stroke-width="0.5"/>
</svg>
