<svg width="49" height="43" viewBox="0 0 49 43" fill="none" xmlns="http://www.w3.org/2000/svg">
<path d="M34.8415 25.9283C34.8639 25.9283 34.8809 25.9283 34.903 25.9261C35.0177 25.9185 37.7338 25.768 39.8471 28.8206V28.8203C39.9686 28.999 40.1567 29.1216 40.369 29.161C40.5814 29.2004 40.8006 29.1534 40.9782 29.0304C41.1558 28.9074 41.2769 28.719 41.3149 28.5063C41.3525 28.2932 41.3037 28.0744 41.1796 27.8979C38.6324 24.2188 35.246 24.2836 34.8152 24.3077C32.8825 24.3146 31.032 25.0887 29.6697 26.4592C28.3071 27.8298 27.5446 29.6851 27.5493 31.6177C27.554 33.55 28.3256 35.4017 29.6947 36.7658C31.0635 38.1298 32.9181 38.8945 34.8504 38.8924C36.783 38.8898 38.6354 38.1208 40.0013 36.7535C41.3668 35.3861 42.134 33.5327 42.134 31.6001C42.134 31.3852 42.0486 31.179 41.8967 31.0271C41.7448 30.8752 41.5386 30.7898 41.3237 30.7898H35.6519C35.2045 30.7898 34.8417 31.1526 34.8417 31.6001C34.8417 32.0475 35.2045 32.4103 35.6519 32.4103H40.456C40.2476 33.8528 39.4924 35.1597 38.3464 36.0601C37.2005 36.9604 35.7517 37.3851 34.3012 37.2462C32.8504 37.1069 31.5091 36.415 30.5549 35.3135C29.6006 34.2118 29.1073 32.7851 29.1767 31.3296C29.2465 29.874 29.8734 28.5009 30.9282 27.4953C31.9829 26.4898 33.3842 25.9283 34.8417 25.9283L34.8415 25.9283Z" fill="#6D81A3"/>
<path d="M48.6155 15.3949C48.6155 15.3215 48.6054 15.2488 48.5858 15.1782L44.5345 0.59359C44.4372 0.242716 44.1178 0 43.7539 0H4.86155C4.49765 0 4.17826 0.242716 4.08095 0.59359L0.0296612 15.1782C0.010128 15.2488 0 15.3215 0 15.3949C0 18.098 1.14445 20.0449 3.24103 21.0638V38.082C3.24212 39.156 3.66931 40.1858 4.42892 40.9454C5.18852 41.705 6.21834 42.1322 7.29232 42.1333H41.3232C42.3971 42.1322 43.427 41.705 44.1866 40.9454C44.9462 40.1858 45.3733 39.156 45.3745 38.082V21.0546C45.9362 20.7808 46.4495 20.4179 46.8948 19.9799C48.0204 18.8626 48.6155 17.2768 48.6155 15.3943V15.3949ZM46.7392 14.5846H36.4179L35.6977 1.62052H43.1384L46.7392 14.5846ZM23.4973 1.62052V14.5846H13.8205L14.5407 1.62052H23.4973ZM34.0742 1.62052L34.7944 14.5846H25.1176V1.62052H34.0742ZM23.4288 16.2052C23.1716 17.728 22.2062 19.0378 20.828 19.7341C19.4494 20.4304 17.8224 20.4304 16.4439 19.7341C15.0657 19.0378 14.1003 17.728 13.8431 16.2052H23.4288ZM34.7724 16.2052C34.5152 17.728 33.5498 19.0378 32.1716 19.7341C30.793 20.4304 29.1661 20.4304 27.7875 19.7341C26.4093 19.0378 25.4439 17.728 25.1867 16.2052H34.7724ZM5.47716 1.62052H12.9178L12.1976 14.5846H1.87635L5.47716 1.62052ZM1.66534 16.2052H12.0848C11.892 17.3374 11.3053 18.3646 10.4281 19.1062C9.55125 19.8473 8.44039 20.255 7.29195 20.2565C3.8585 20.2565 1.97027 18.8935 1.66534 16.2052ZM43.7534 38.0821C43.7527 38.7267 43.4962 39.3446 43.0408 39.8003C42.585 40.2557 41.9672 40.5122 41.3226 40.5129H7.29174C6.64716 40.5122 6.02931 40.2557 5.57353 39.8003C5.11812 39.3446 4.86166 38.7267 4.86094 38.0821V21.6223C5.65926 21.7977 6.4746 21.8828 7.29171 21.8766C8.44959 21.8759 9.58646 21.5652 10.5838 20.9766C11.5811 20.3881 12.4029 19.5435 12.9635 18.5303C13.7137 19.8882 14.9266 20.9322 16.3811 21.4719C17.8355 22.0115 19.435 22.0116 20.8896 21.4719C22.3442 20.9322 23.557 19.8882 24.3071 18.5303C25.0574 19.8882 26.2702 20.9322 27.7247 21.4719C29.1791 22.0115 30.7786 22.0116 32.2332 21.4719C33.6878 20.9322 34.9006 19.8882 35.6507 18.5303C36.2114 19.5435 37.0333 20.3881 38.0305 20.9766C39.0277 21.5652 40.1647 21.8759 41.3226 21.8766C42.1397 21.8835 42.955 21.7981 43.7533 21.6223L43.7534 38.0821ZM41.3226 20.2565C40.1742 20.255 39.0633 19.8473 38.1865 19.1062C37.3093 18.3646 36.7226 17.3373 36.5298 16.2052H46.9464C46.7045 18.2084 45.4485 20.2565 41.3224 20.2565H41.3226Z" fill="#6D81A3"/>
</svg>
