<svg width="599" height="462" viewBox="0 0 599 462" fill="none" xmlns="http://www.w3.org/2000/svg">
<path d="M435.3 132.293H401.081C400.641 132.293 400.295 131.947 400.295 131.507C400.295 131.067 400.641 130.721 401.081 130.721H435.3C435.74 130.721 436.086 131.067 436.086 131.507C436.086 131.932 435.74 132.293 435.3 132.293Z" fill="#FCE4E0"/>
<path d="M435.3 141.913H401.081C400.641 141.913 400.295 141.567 400.295 141.127C400.295 140.687 400.641 140.341 401.081 140.341H435.3C435.74 140.341 436.086 140.687 436.086 141.127C436.086 141.551 435.74 141.913 435.3 141.913Z" fill="#FCE4E0"/>
<path d="M435.3 151.532H401.081C400.641 151.532 400.295 151.186 400.295 150.746C400.295 150.306 400.641 149.96 401.081 149.96H435.3C435.74 149.96 436.086 150.306 436.086 150.746C436.086 151.171 435.74 151.532 435.3 151.532Z" fill="#FCE4E0"/>
<path d="M435.3 161.152H401.081C400.641 161.152 400.295 160.806 400.295 160.366C400.295 159.926 400.641 159.58 401.081 159.58H435.3C435.74 159.58 436.086 159.926 436.086 160.366C436.086 160.806 435.74 161.152 435.3 161.152Z" fill="#FCE4E0"/>
<path d="M107.038 217.879H1.50564C1.06553 217.879 0.719727 217.533 0.719727 217.093C0.719727 216.653 1.06553 216.307 1.50564 216.307H107.038C107.479 216.307 107.824 216.653 107.824 217.093C107.824 217.533 107.463 217.879 107.038 217.879Z" fill="#FCE4E0"/>
<path d="M107.038 228.018H1.50564C1.06553 228.018 0.719727 227.672 0.719727 227.232C0.719727 226.792 1.06553 226.446 1.50564 226.446H107.038C107.479 226.446 107.824 226.792 107.824 227.232C107.824 227.672 107.463 228.018 107.038 228.018Z" fill="#FCE4E0"/>
<path d="M107.038 238.156H1.50564C1.06553 238.156 0.719727 237.81 0.719727 237.37C0.719727 236.93 1.06553 236.584 1.50564 236.584H107.038C107.479 236.584 107.824 236.93 107.824 237.37C107.824 237.81 107.463 238.156 107.038 238.156Z" fill="#FCE4E0"/>
<path d="M107.038 248.294H1.50564C1.06553 248.294 0.719727 247.949 0.719727 247.509C0.719727 247.068 1.06553 246.723 1.50564 246.723H107.038C107.479 246.723 107.824 247.068 107.824 247.509C107.824 247.949 107.463 248.294 107.038 248.294Z" fill="#FCE4E0"/>
<path d="M67.1452 180.36C90.3234 180.36 109.113 161.57 109.113 138.392C109.113 115.214 90.3234 96.4238 67.1452 96.4238C43.9669 96.4238 25.1772 115.214 25.1772 138.392C25.1772 161.57 43.9669 180.36 67.1452 180.36Z" fill="#FCBAA2"/>
<path d="M547.436 343.235C558.348 277.643 514.021 215.624 448.429 204.712C382.837 193.8 320.818 238.127 309.906 303.719C298.994 369.311 343.321 431.33 408.913 442.242C474.505 453.154 536.524 408.827 547.436 343.235Z" fill="#FCE4E0"/>
<path d="M498.362 446.031C512.078 446.031 523.197 434.912 523.197 421.196C523.197 407.48 512.078 396.361 498.362 396.361C484.646 396.361 473.527 407.48 473.527 421.196C473.527 434.912 484.646 446.031 498.362 446.031Z" fill="#FCBAA2"/>
<path d="M308.354 99.4662C315.122 58.3944 287.314 19.6124 246.242 12.8441C205.17 6.07585 166.388 33.8843 159.62 74.956C152.852 116.028 180.66 154.81 221.732 161.578C262.803 168.346 301.585 140.538 308.354 99.4662Z" fill="#FCE4E0"/>
<path d="M207.858 355.645C230.914 332.589 230.914 295.209 207.858 272.153C184.803 249.098 147.422 249.098 124.367 272.153C101.311 295.209 101.311 332.589 124.367 355.645C147.422 378.701 184.803 378.701 207.858 355.645Z" fill="#FCE4E0"/>
<path d="M352.669 50.1804C359.015 50.1804 364.159 45.0361 364.159 38.6903C364.159 32.3445 359.015 27.2002 352.669 27.2002C346.323 27.2002 341.179 32.3445 341.179 38.6903C341.179 45.0361 346.323 50.1804 352.669 50.1804Z" fill="#FCBAA2"/>
<path d="M551.647 94.8992H455.293V157.269H551.647V94.8992Z" fill="white"/>
<path d="M551.647 94.8992H455.293V108.951H551.647V94.8992Z" fill="#4F47AA"/>
<path d="M544.998 101.485C544.998 102.916 543.835 104.079 542.405 104.079C540.974 104.079 539.811 102.916 539.811 101.485C539.811 100.055 540.974 98.8918 542.405 98.8918C543.851 98.8918 544.998 100.055 544.998 101.485Z" fill="#F6A1DC"/>
<path d="M533.901 101.485C533.901 102.916 532.738 104.079 531.307 104.079C529.877 104.079 528.714 102.916 528.714 101.485C528.714 100.055 529.877 98.8918 531.307 98.8918C532.738 98.8918 533.901 100.055 533.901 101.485Z" fill="white"/>
<path d="M522.788 101.485C522.788 102.916 521.624 104.079 520.194 104.079C518.764 104.079 517.601 102.916 517.601 101.485C517.601 100.055 518.764 98.8918 520.194 98.8918C521.624 98.8918 522.788 100.055 522.788 101.485Z" fill="white"/>
<path d="M546.994 90.9854H452.04C451.6 90.9854 451.254 91.3312 451.254 91.7713V153.151C451.254 153.591 451.6 153.937 452.04 153.937H546.994C547.434 153.937 547.78 153.591 547.78 153.151V91.7713C547.78 91.3469 547.419 90.9854 546.994 90.9854ZM546.208 92.5572V105.038H452.826V92.5572H546.208ZM452.826 152.365V106.609H546.208V152.365H452.826Z" fill="#18173F"/>
<path d="M531.04 116.858H476.733C476.388 116.858 476.089 116.575 476.089 116.213C476.089 115.867 476.372 115.569 476.733 115.569H531.04C531.386 115.569 531.685 115.852 531.685 116.213C531.685 116.575 531.402 116.858 531.04 116.858Z" fill="#18173F"/>
<path d="M536.211 126.587H476.733C476.388 126.587 476.089 126.305 476.089 125.943C476.089 125.597 476.372 125.299 476.733 125.299H536.211C536.557 125.299 536.856 125.582 536.856 125.943C536.856 126.305 536.573 126.587 536.211 126.587Z" fill="#18173F"/>
<path d="M527.849 136.317H476.733C476.388 136.317 476.089 136.034 476.089 135.673C476.089 135.327 476.372 135.028 476.733 135.028H527.849C528.195 135.028 528.494 135.311 528.494 135.673C528.494 136.034 528.195 136.317 527.849 136.317Z" fill="#18173F"/>
<path d="M534.844 146.062H476.733C476.388 146.062 476.089 145.779 476.089 145.418C476.089 145.072 476.372 144.773 476.733 144.773H534.844C535.19 144.773 535.488 145.056 535.488 145.418C535.488 145.779 535.205 146.062 534.844 146.062Z" fill="#18173F"/>
<path d="M467.569 116.119C467.569 116.857 466.972 117.455 466.233 117.455C465.494 117.455 464.897 116.857 464.897 116.119C464.897 115.38 465.494 114.782 466.233 114.782C466.972 114.782 467.569 115.38 467.569 116.119Z" fill="#BE350B"/>
<path d="M467.569 125.958C467.569 126.697 466.972 127.294 466.233 127.294C465.494 127.294 464.897 126.697 464.897 125.958C464.897 125.22 465.494 124.622 466.233 124.622C466.972 124.622 467.569 125.22 467.569 125.958Z" fill="#BE350B"/>
<path d="M466.249 137.118C466.987 137.118 467.585 136.52 467.585 135.782C467.585 135.044 466.987 134.446 466.249 134.446C465.511 134.446 464.913 135.044 464.913 135.782C464.913 136.52 465.511 137.118 466.249 137.118Z" fill="#BE350B"/>
<path d="M467.569 145.622C467.569 146.361 466.972 146.958 466.233 146.958C465.494 146.958 464.897 146.361 464.897 145.622C464.897 144.883 465.494 144.286 466.233 144.286C466.972 144.302 467.569 144.899 467.569 145.622Z" fill="#BE350B"/>
<path d="M598.111 155.996H369.283V328.206H598.111V155.996Z" fill="white"/>
<path d="M513.499 254.88L525.256 201.61C521.468 200.777 517.538 200.322 513.499 200.322C483.367 200.322 458.94 224.748 458.94 254.88C458.94 285.012 483.367 309.422 513.499 309.422C543.631 309.422 568.057 284.996 568.057 254.864C568.057 253.151 567.963 251.453 567.806 249.771L513.499 254.88Z" fill="#B87259"/>
<path d="M523.197 246.046L576.608 241.189C574.501 217.722 557.29 198.624 534.765 193.673L523.197 246.046Z" fill="#7D3319"/>
<path d="M598.111 155.996H369.283V170.048H598.111V155.996Z" fill="#4F47AA"/>
<path d="M591.478 162.582C591.478 164.012 590.314 165.176 588.884 165.176C587.454 165.176 586.291 164.012 586.291 162.582C586.291 161.152 587.454 159.989 588.884 159.989C590.314 159.989 591.478 161.152 591.478 162.582Z" fill="#F6A1DC"/>
<path d="M580.364 162.582C580.364 164.012 579.201 165.176 577.771 165.176C576.34 165.176 575.177 164.012 575.177 162.582C575.177 161.152 576.34 159.989 577.771 159.989C579.201 159.989 580.364 161.152 580.364 162.582Z" fill="white"/>
<path d="M569.267 162.582C569.267 164.012 568.104 165.176 566.674 165.176C565.243 165.176 564.08 164.012 564.08 162.582C564.08 161.152 565.243 159.989 566.674 159.989C568.104 159.989 569.267 161.152 569.267 162.582Z" fill="white"/>
<path d="M594.48 152.381H365.636C365.212 152.381 364.866 152.727 364.866 153.151V325.361C364.866 325.785 365.212 326.131 365.636 326.131H594.48C594.904 326.131 595.25 325.785 595.25 325.361V153.151C595.25 152.727 594.904 152.381 594.48 152.381ZM593.694 153.921V166.417H366.407V153.921H593.694ZM366.407 324.591V167.958H593.694V324.591H366.407Z" fill="#18173F"/>
<path d="M509.852 307.363C479.343 307.363 454.523 282.544 454.523 252.035C454.523 221.526 479.343 196.706 509.852 196.706C513.829 196.706 517.837 197.146 521.782 198.011C521.987 198.058 522.159 198.168 522.269 198.341C522.379 198.514 522.411 198.718 522.379 198.923L510.842 251.155L564.096 246.172C564.3 246.156 564.505 246.219 564.662 246.345C564.819 246.471 564.913 246.659 564.945 246.864C565.102 248.64 565.196 250.369 565.196 252.019C565.165 282.544 540.361 307.363 509.852 307.363ZM509.852 198.247C480.191 198.247 456.08 222.374 456.08 252.019C456.08 281.68 480.207 305.791 509.852 305.791C539.512 305.791 563.624 281.664 563.624 252.019C563.624 250.652 563.561 249.237 563.451 247.775L509.915 252.789C509.679 252.805 509.428 252.711 509.27 252.538C509.113 252.349 509.035 252.098 509.097 251.862L520.698 199.347C517.098 198.624 513.467 198.247 509.852 198.247Z" fill="#18173F"/>
<path d="M519.55 243.845C519.361 243.845 519.189 243.767 519.079 243.625C518.937 243.468 518.89 243.264 518.937 243.06L530.506 190.686C530.584 190.34 530.914 190.12 531.26 190.199C554.461 195.292 571.468 214.625 573.605 238.281C573.637 238.627 573.385 238.941 573.024 238.973L519.613 243.83C519.582 243.845 519.566 243.845 519.55 243.845ZM531.59 191.598L520.352 242.494L572.254 237.762C569.959 215.16 553.722 196.738 531.59 191.598Z" fill="#18173F"/>
<path d="M393.317 206.373H381.764C381.418 206.373 381.119 206.09 381.119 205.729C381.119 205.383 381.402 205.084 381.764 205.084H393.317C393.662 205.084 393.961 205.367 393.961 205.729C393.961 206.09 393.678 206.373 393.317 206.373Z" fill="#18173F"/>
<path d="M441.902 206.373H402.449C402.103 206.373 401.805 206.09 401.805 205.729C401.805 205.383 402.088 205.084 402.449 205.084H441.902C442.248 205.084 442.547 205.367 442.547 205.729C442.531 206.09 442.248 206.373 441.902 206.373Z" fill="#18173F"/>
<path d="M426.184 225.125H381.764C381.418 225.125 381.119 224.842 381.119 224.481C381.119 224.119 381.402 223.836 381.764 223.836H426.184C426.529 223.836 426.828 224.119 426.828 224.481C426.828 224.842 426.529 225.125 426.184 225.125Z" fill="#18173F"/>
<path d="M425.869 243.893H381.764C381.418 243.893 381.119 243.61 381.119 243.248C381.119 242.902 381.402 242.604 381.764 242.604H425.869C426.215 242.604 426.514 242.887 426.514 243.248C426.514 243.61 426.231 243.893 425.869 243.893Z" fill="#18173F"/>
<path d="M441.902 243.893H432.581C432.235 243.893 431.937 243.61 431.937 243.248C431.937 242.902 432.219 242.604 432.581 242.604H441.902C442.248 242.604 442.546 242.887 442.546 243.248C442.531 243.61 442.248 243.893 441.902 243.893Z" fill="#18173F"/>
<path d="M420.399 262.661H381.764C381.418 262.661 381.119 262.378 381.119 262.016C381.119 261.655 381.402 261.372 381.764 261.372H420.399C420.745 261.372 421.044 261.655 421.044 262.016C421.044 262.378 420.761 262.661 420.399 262.661Z" fill="#18173F"/>
<path d="M265.259 141.127H26.6553V313.337H265.259V141.127Z" fill="white"/>
<path d="M265.259 141.127H26.6553V155.179H265.259V141.127Z" fill="#4F47AA"/>
<path d="M258.61 147.713C258.61 149.143 257.447 150.306 256.017 150.306C254.587 150.306 253.423 149.143 253.423 147.713C253.423 146.282 254.587 145.119 256.017 145.119C257.447 145.119 258.61 146.282 258.61 147.713Z" fill="#F6A1DC"/>
<path d="M247.498 147.713C247.498 149.143 246.334 150.306 244.904 150.306C243.474 150.306 242.311 149.143 242.311 147.713C242.311 146.282 243.474 145.119 244.904 145.119C246.334 145.119 247.498 146.282 247.498 147.713Z" fill="white"/>
<path d="M236.4 147.713C236.4 149.143 235.237 150.306 233.806 150.306C232.376 150.306 231.213 149.143 231.213 147.713C231.213 146.282 232.376 145.119 233.806 145.119C235.237 145.119 236.4 146.282 236.4 147.713Z" fill="white"/>
<path d="M262.603 137.606H22.9455C22.5211 137.606 22.1753 137.952 22.1753 138.376V310.586C22.1753 311.01 22.5211 311.356 22.9455 311.356H262.619C263.043 311.356 263.389 311.01 263.389 310.586V138.392C263.373 137.952 263.027 137.606 262.603 137.606ZM261.833 139.162V151.658H23.7157V139.162H261.833ZM23.7157 309.831V153.198H261.848V309.831H23.7157Z" fill="#18173F"/>
<path d="M150.845 189.162H90.6442C90.3927 189.162 90.1884 189.319 90.1098 189.555L77.4723 231.57L71.6565 215.946C71.5779 215.726 71.3736 215.585 71.1378 215.585H57.4471C57.1328 215.585 56.897 215.836 56.897 216.135C56.897 216.449 57.1485 216.685 57.4471 216.685H70.7448L77.0007 233.504C77.0793 233.724 77.2836 233.865 77.5194 233.865H77.5351C77.7709 233.865 77.9753 233.692 78.0538 233.472L91.0372 190.262H150.814C151.128 190.262 151.364 190.011 151.364 189.712C151.396 189.414 151.144 189.162 150.845 189.162ZM108.909 217.094C111.298 216.449 113.231 215.27 114.457 213.651C116.045 211.561 116.407 208.92 115.526 205.981C115.07 204.472 114.175 203.45 112.854 202.963C108.799 201.438 102.15 205.493 101.867 205.682C101.6 205.839 101.521 206.185 101.694 206.452C101.851 206.719 102.197 206.798 102.464 206.625C102.527 206.578 108.925 202.68 112.477 204.016C113.467 204.393 114.127 205.148 114.489 206.327C115.275 208.904 114.96 211.215 113.593 213.007C111.927 215.192 108.799 216.465 104.885 216.559C104.539 216.543 104.193 216.559 103.832 216.559C103.533 216.559 103.297 216.811 103.297 217.109C103.297 217.408 103.533 217.659 103.832 217.659C104.193 217.675 104.539 217.675 104.885 217.659C108.783 217.769 111.927 219.043 113.593 221.212C114.96 223.004 115.259 225.314 114.489 227.892C114.127 229.071 113.483 229.825 112.477 230.203C108.94 231.539 102.527 227.625 102.464 227.578C102.197 227.42 101.867 227.499 101.694 227.766C101.537 228.034 101.616 228.364 101.867 228.537C102.103 228.678 106.85 231.586 110.764 231.586C111.502 231.586 112.21 231.492 112.838 231.24C114.159 230.737 115.055 229.731 115.511 228.222C116.407 225.283 116.029 222.642 114.442 220.552C113.231 218.901 111.298 217.738 108.909 217.094Z" fill="#18173F"/>
<path d="M260.072 239.397C260.072 239.397 254.948 262.11 254.005 267.392C253.077 272.657 254.005 282.198 254.005 282.198L235.929 281.287C235.929 281.287 243.631 264.61 246.208 260.35C248.786 256.075 260.072 239.397 260.072 239.397Z" fill="#FDD4CE"/>
<path d="M278.934 230.58L292.923 225.11C292.923 225.11 295.894 220.253 295.988 216.15C295.988 216.15 304.303 220.552 307.227 221.463C310.151 222.375 320.226 214.374 320.226 214.374C320.226 214.374 320.289 223.868 323.338 225.11L334.624 229.668C334.624 229.668 338.585 258.04 308.453 258.323C281.26 258.574 280.349 240.105 278.934 230.58Z" fill="#FDD4CE"/>
<path d="M287.768 206.704L284.561 188.895C284.561 188.895 295.36 182.356 300.232 174.45C300.232 174.45 313.797 188.125 330.223 188.077C330.223 188.077 327.504 202.994 326.136 206.798C324.769 210.602 312.241 221.007 307.227 221.463C305.073 221.652 291.116 215.082 287.768 206.704Z" fill="#FDD4CE"/>
<path d="M227.928 300.212C227.928 300.212 225.287 307.034 225.083 308.449C224.879 309.863 225.209 319.609 225.696 322.438C226.183 325.283 234.121 330.753 234.121 330.753L227.928 300.212Z" fill="#FDD4CE"/>
<path d="M362.996 282.12C362.996 282.12 363.106 268.162 361.283 261.262C359.459 254.362 356.457 240.404 356.457 240.404C356.457 240.404 365.636 248.829 371.499 263.132C373.857 268.885 380.412 281.523 380.412 281.523L362.996 282.12Z" fill="#FDD4CE"/>
<path d="M381.764 330.36L388.35 300.244C388.35 300.244 390.927 307.647 391.179 308.449C391.43 309.266 390.566 322.438 390.566 322.438L381.764 330.36Z" fill="#FDD4CE"/>
<path d="M254.005 282.199C254.005 282.199 253.376 268.005 256.724 253.701C260.072 239.398 260.072 239.398 260.072 239.398L278.934 230.58C278.934 230.58 276.812 256.138 301.443 258.26C326.089 260.382 335.52 242.447 334.608 229.668L356.205 239.398C356.205 239.398 359.852 253.387 361.377 265.254C362.901 277.122 361.99 283.205 361.99 283.205L254.005 282.199Z" fill="#8C82F3"/>
<path d="M191.823 386.238C191.823 386.238 181.276 375.896 180.459 368.194C179.641 360.492 186.338 354.409 188.774 351.768C191.21 349.127 194.448 346.094 194.448 346.094C194.448 346.094 225.885 342.652 237.249 345.481L240.896 361.498C240.896 361.498 264.222 364.94 274.973 371.227C285.724 377.515 311.675 386.647 316.139 387.04C316.139 387.04 294.039 394.145 291.399 394.349C288.758 394.553 282.062 396.785 282.062 396.785C282.062 396.785 271.515 394.962 268.073 396.172C264.63 397.383 255.089 398.813 255.089 398.813C255.089 398.813 198.724 389.885 191.823 386.238Z" fill="#18173F"/>
<path d="M309.962 390.074C309.931 390.074 309.899 390.074 309.852 390.058C309.617 389.995 286.731 383.55 261.44 373.915C236.212 364.311 198.928 359.077 198.551 359.03C198.362 358.998 198.221 358.857 198.221 358.668C198.205 358.48 198.315 358.323 198.504 358.26L206.316 355.87L204.194 354.503C204.052 354.409 203.989 354.236 204.021 354.079C204.052 353.921 204.209 353.796 204.367 353.78C205.404 353.701 229.72 351.988 239.827 355.635C240.031 355.713 240.141 355.933 240.063 356.138C239.984 356.342 239.764 356.452 239.56 356.373C230.868 353.245 210.733 354.189 205.624 354.487L207.463 355.666C207.589 355.745 207.667 355.902 207.636 356.043C207.62 356.201 207.51 356.326 207.369 356.373L200.421 358.495C208.092 359.659 239.56 364.72 261.754 373.176C286.998 382.796 309.868 389.225 310.088 389.288C310.292 389.35 310.418 389.571 310.355 389.775C310.292 389.963 310.135 390.074 309.962 390.074Z" fill="white"/>
<path d="M260.983 365.962L357.73 366.056C357.73 366.056 339.779 376.902 337.044 378.426C334.309 379.951 316.013 387.229 316.013 387.229C311.486 387.559 290.801 377.515 287.154 376.603C283.492 375.691 266.155 366.559 260.983 365.962Z" fill="#18173F"/>
<path d="M287.454 417.376C287.454 417.376 281.575 401.454 282.078 396.785C282.078 396.785 327.001 386.034 338.255 377.216C349.51 368.398 362.587 364.138 367.46 361.702C372.333 359.266 375.681 358.354 375.681 358.354L378.416 346.188C378.416 346.188 406.41 341.017 415.841 341.928C425.272 342.84 428.321 348.624 431.355 352.884C434.404 357.144 438.962 366.873 438.349 371.746C437.736 376.619 430.443 383.299 422.537 387.26C414.631 391.221 386.023 402.475 371.421 404.912C356.819 407.348 319.393 414.641 317.57 414.343C315.747 414.028 287.454 417.376 287.454 417.376Z" fill="#18173F"/>
<path d="M418.026 354.016L406.646 352.145L412.289 348.436C412.43 348.342 412.509 348.153 412.446 347.98C412.383 347.807 412.226 347.713 412.053 347.713C410.953 347.776 384.907 349.379 376.624 353.23C376.435 353.324 376.341 353.56 376.435 353.749C376.529 353.937 376.765 354.032 376.954 353.937C383.98 350.684 404.838 349.002 410.607 348.593L405.373 352.035C405.231 352.13 405.168 352.287 405.2 352.444C405.231 352.601 405.357 352.727 405.514 352.759L413.845 354.126C397.451 355.352 370.274 365.192 349.195 377.798C327.787 390.593 292.861 399.568 292.515 399.662C291.336 396.204 290.377 394.836 290.299 394.742C290.173 394.569 289.922 394.522 289.749 394.664C289.576 394.789 289.529 395.041 289.654 395.214C289.686 395.261 293.317 400.448 295.156 416.732C295.171 416.936 295.344 417.078 295.549 417.078C295.564 417.078 295.58 417.078 295.596 417.078C295.816 417.062 295.973 416.858 295.942 416.638C295.077 409.014 293.851 403.827 292.751 400.416C293.82 400.134 328.321 391.206 349.604 378.474C372.034 365.05 401.38 354.786 417.083 354.786C417.366 354.786 417.664 354.786 417.932 354.802C418.104 354.802 418.309 354.645 418.325 354.44C418.372 354.236 418.23 354.047 418.026 354.016ZM287.045 395.041C286.856 395.151 286.809 395.402 286.919 395.575C286.951 395.638 290.739 401.69 292.232 417.204C292.248 417.408 292.421 417.565 292.625 417.565C292.641 417.565 292.656 417.565 292.656 417.565C292.877 417.549 293.034 417.345 293.018 417.141C291.509 401.407 287.737 395.402 287.579 395.167C287.469 394.978 287.218 394.915 287.045 395.041Z" fill="white"/>
<path d="M226.136 290.718L240.911 361.498C248.409 362.52 259.16 365.962 259.16 365.962L357.73 366.056L361.581 363.934L375.68 358.354L389.67 290.718H226.136Z" fill="#4F47AA"/>
<path d="M229.657 282.293L225.397 286.553L390.581 286.254L386.023 281.995L229.657 282.293Z" fill="white"/>
<path d="M226.136 290.718L225.397 286.553L390.581 286.254L389.67 290.718H226.136Z" fill="#8C82F3"/>
<path d="M315.951 327.012C315.951 331.161 312.587 334.509 308.453 334.509C304.319 334.509 300.956 331.145 300.956 327.012C300.956 322.862 304.319 319.514 308.453 319.514C312.587 319.514 315.951 322.878 315.951 327.012Z" fill="#8C82F3"/>
<path d="M370.352 418.429L370.965 405.352C370.965 405.352 354.838 408.244 347.686 409.611C340.534 410.979 322.584 413.258 322.584 413.258C322.584 413.258 333.838 416.606 339.78 417.219C345.706 417.832 370.352 418.429 370.352 418.429Z" fill="#FE7D1F"/>
<path d="M221.137 418.744C221.137 418.744 217.176 415.239 217.334 410.979C217.491 406.72 220.98 404.896 225.554 403.214C230.113 401.548 233.618 402.303 233.618 402.303C233.618 402.303 236.667 407.631 236.211 411.278C235.756 414.925 233.932 421.463 233.932 421.463C233.932 421.463 225.083 421.18 221.137 418.744Z" fill="white"/>
<path d="M370.352 418.429C370.352 418.429 381.606 418.429 384.954 416.449C388.302 414.468 389.513 410.209 389.513 408.087C389.513 405.965 387.076 401.249 387.076 401.249L370.949 405.352L370.352 418.429Z" fill="white"/>
<path d="M277.409 409.612C276.733 406.232 278.07 400.841 278.793 398.279C271.358 397.32 261.66 399.238 252.464 400.935C245.423 402.24 237.611 402.224 233.712 402.114C234.813 404.566 236.196 408.26 236.196 411.278C236.196 416.292 233.76 422.076 233.76 422.076C233.76 422.076 248.519 422.076 251.71 421.322C254.901 420.567 261.597 420.866 263.577 420.866C265.558 420.866 282.439 418.131 282.439 418.131C282.439 418.131 278.321 414.186 277.409 409.612Z" fill="#FE7D1F"/>
<path d="M288.066 221.715L287.705 205.886L284.294 188.848C284.294 188.848 296.067 182.796 299.745 174.481C299.745 174.481 310.669 186.883 330.946 187.952L328.683 199.709C328.683 199.709 327.645 210.46 327.645 211.875C327.645 213.29 326.403 219.781 326.403 219.781C326.403 219.781 333.131 207.222 334.577 198.106C336.023 188.989 336.463 172.359 332.235 162.614C328.007 152.868 324.564 151.234 320.509 150.416C316.454 149.599 309.758 149.379 307.321 149.772C304.885 150.165 300.012 151.375 300.012 151.375C300.012 151.375 292.515 151.36 288.239 153.167C283.98 154.975 281.732 159.643 280.506 162.881C279.28 166.119 277.834 178.285 278.415 184.572C279.028 190.86 283.634 214.186 288.066 221.715Z" fill="#18173F"/>
<path d="M288.161 155.431C288.161 155.431 286.746 147.729 289.183 142.039C291.619 136.364 296.492 131.083 303.989 129.668C311.487 128.254 315.542 132.105 317.586 135.343C319.613 138.581 321.185 145.072 321.437 148.122C321.688 151.171 321.641 152.586 321.641 152.586L288.161 155.431Z" fill="#18173F"/>
<path d="M326.183 256.845C322.458 259.014 317.884 260.806 312.618 262.142C286.777 268.665 277.865 249.772 277.786 249.583C277.692 249.379 277.456 249.3 277.268 249.394C277.079 249.489 276.985 249.725 277.079 249.913C277.158 250.086 283.854 264.311 302.275 264.311C305.435 264.311 308.94 263.887 312.822 262.912C318.167 261.56 322.804 259.753 326.592 257.537C326.78 257.427 326.843 257.191 326.733 257.002C326.607 256.798 326.372 256.735 326.183 256.845ZM335.771 248.499C335.583 248.373 335.347 248.436 335.221 248.609C334.152 250.259 332.785 251.831 331.166 253.277C331.009 253.418 330.993 253.67 331.134 253.827C331.213 253.921 331.323 253.953 331.433 253.953C331.527 253.953 331.622 253.921 331.7 253.858C333.382 252.365 334.797 250.746 335.897 249.033C336.007 248.86 335.944 248.624 335.771 248.499Z" fill="#18173F"/>
<path d="M253.486 415.223C253.078 415.223 252.732 414.908 252.7 414.5L251.883 404.77C251.852 404.33 252.166 403.953 252.606 403.921C253.03 403.89 253.423 404.204 253.455 404.644L254.272 414.374C254.304 414.814 253.989 415.191 253.549 415.223C253.518 415.223 253.502 415.223 253.486 415.223Z" fill="white"/>
<path d="M260.166 415.223C259.758 415.223 259.412 414.908 259.381 414.5L258.563 404.77C258.532 404.33 258.846 403.953 259.286 403.921C259.695 403.89 260.104 404.204 260.135 404.644L260.952 414.374C260.984 414.814 260.669 415.191 260.229 415.223C260.214 415.223 260.198 415.223 260.166 415.223Z" fill="white"/>
<path d="M266.862 415.223C266.454 415.223 266.108 414.908 266.076 414.5L265.259 404.77C265.228 404.346 265.542 403.953 265.982 403.921C266.375 403.89 266.799 404.204 266.831 404.644L267.648 414.374C267.68 414.798 267.365 415.191 266.925 415.223C266.909 415.223 266.894 415.223 266.862 415.223Z" fill="white"/>
<path d="M292.499 152.412C292.122 152.412 291.792 152.145 291.729 151.768C291.65 151.344 291.933 150.935 292.358 150.856C296.099 150.165 299.321 150.558 300.154 150.683C301.506 150.243 309.443 147.838 317.476 149.284C317.9 149.363 318.183 149.772 318.104 150.196C318.026 150.62 317.617 150.903 317.193 150.825C308.972 149.347 300.563 152.192 300.484 152.224C300.358 152.271 300.217 152.271 300.091 152.255C300.06 152.255 296.617 151.658 292.641 152.397C292.609 152.412 292.546 152.412 292.499 152.412Z" fill="white"/>
<path d="M304.87 202.9C304.87 202.9 306.614 203.591 308.296 203.057C308.296 203.041 306.85 205.1 304.87 202.9Z" fill="#18173F"/>
<path d="M315.212 193.155C315.212 194.208 314.756 195.057 314.19 195.057C313.624 195.057 313.168 194.208 313.168 193.155C313.168 192.101 313.624 191.253 314.19 191.253C314.756 191.253 315.212 192.101 315.212 193.155Z" fill="#18173F"/>
<path d="M296.649 193.155C296.649 194.208 297.105 195.057 297.671 195.057C298.236 195.057 298.692 194.208 298.692 193.155C298.692 192.101 298.236 191.253 297.671 191.253C297.12 191.253 296.649 192.101 296.649 193.155Z" fill="#18173F"/>
<path d="M229.751 282.984H386.322C386.762 282.984 387.108 282.639 387.108 282.199C387.108 281.758 386.762 281.413 386.322 281.413H381.182C381.166 281.334 381.166 281.271 381.135 281.193C373.323 264.044 362.917 244.066 356.897 238.973C356.787 238.785 356.614 238.659 356.425 238.596C352.669 236.112 326.718 225.613 323.841 224.449C323.7 224.245 323.448 223.836 323.134 223.271C323.15 223.239 323.181 223.223 323.197 223.192C324.124 219.954 324.863 211.246 324.894 210.869C324.91 210.759 324.894 210.664 324.863 210.57C325.177 210.161 325.476 209.753 325.696 209.376C326.388 208.212 327.032 206.766 327.629 205.147C326.718 212.393 325.036 220.724 325.005 220.834C324.926 221.211 325.13 221.589 325.492 221.73C325.586 221.762 325.68 221.777 325.775 221.777C326.042 221.777 326.309 221.636 326.451 221.384C326.513 221.259 333.398 209.093 335.363 196.015C336.557 188.14 337.721 163.557 327.818 154.251C326.278 152.805 324.47 151.642 322.442 150.762C322.615 142.148 319.676 134.965 314.552 131.476C310.355 128.63 305.074 128.458 299.289 130.973C286.495 136.537 286.809 149.693 287.045 152.648C284.184 154.157 282.031 156.389 280.632 159.344C275.523 170.19 277.567 201.186 287.784 223.443C287.909 223.726 288.192 223.899 288.491 223.899C288.554 223.899 288.617 223.899 288.695 223.868C289.057 223.774 289.308 223.428 289.277 223.05C289.277 222.956 288.727 216.009 288.412 210.224C289.528 211.718 292.153 213.934 295.171 216.072C294.841 220.52 292.892 223.695 292.389 224.449C289.45 225.644 262.21 236.647 259.553 238.769C253.596 243.531 243.065 263.682 235.19 280.941C235.127 281.083 235.111 281.24 235.143 281.397H229.72C229.28 281.397 228.934 281.743 228.934 282.183C228.966 282.623 229.311 282.984 229.751 282.984ZM260.748 239.885C262.43 238.737 270.258 235.342 278.148 232.026C278.164 234.541 278.714 244.93 286.007 252.161C290.644 256.766 297.073 259.093 305.121 259.093C305.718 259.093 306.331 259.077 306.96 259.061C333.508 257.945 335.551 235.499 335.693 231.035C344.197 234.572 353.36 238.517 355.435 239.838C356.127 242.29 363.452 268.807 362.225 281.413H255.042C253.518 263.997 259.978 242.368 260.748 239.885ZM379.516 281.413H363.923C364.945 270.315 359.883 249.85 357.824 242.164C363.782 249.19 372.898 266.92 379.516 281.413ZM321.012 214.437C321.782 213.777 322.521 213.117 323.165 212.472C322.961 214.625 322.552 218.319 322.081 220.897C321.468 219.184 320.949 216.983 321.012 214.437ZM282.078 160.036C283.351 157.316 285.363 155.289 288.035 153.937C288.192 153.906 288.318 153.827 288.412 153.733C288.821 153.544 289.23 153.371 289.654 153.214C290.063 153.072 290.267 152.617 290.126 152.208C289.984 151.799 289.528 151.595 289.12 151.736C288.931 151.799 288.758 151.894 288.569 151.972C288.349 148.467 288.585 137.37 299.918 132.434C305.199 130.139 309.946 130.265 313.672 132.796C318.246 135.908 320.886 142.368 320.855 150.196C320.619 150.117 320.399 150.023 320.148 149.945C319.739 149.819 319.299 150.055 319.173 150.463C319.047 150.872 319.283 151.312 319.692 151.438C322.442 152.271 324.816 153.607 326.734 155.415C336.306 164.405 334.734 189.555 333.791 195.795C332.628 203.497 329.72 210.9 327.567 215.584C328.463 210.554 329.626 203.261 329.72 198.671C329.72 198.561 329.704 198.451 329.657 198.357C330.585 194.6 331.26 190.859 331.543 188.25C331.559 188.046 331.512 187.841 331.37 187.669C331.245 187.511 331.04 187.401 330.836 187.386C330.757 187.37 325.35 186.788 319.723 185.106C319.66 185.059 319.597 185.012 319.519 184.996C319.11 184.855 318.686 184.745 318.277 184.651C316.768 184.148 315.275 183.566 313.907 182.906C306.944 179.495 300.767 173.962 300.704 173.899C300.515 173.726 300.248 173.664 299.997 173.711C299.745 173.774 299.541 173.946 299.446 174.182C296.114 182.607 284.294 188.156 284.184 188.203C283.87 188.344 283.697 188.675 283.728 189.02C283.791 189.555 285.049 199.457 286.62 205.65C286.62 205.666 286.62 205.666 286.62 205.682C286.715 209.077 287.06 214.563 287.343 218.492C278.95 197.084 277.425 169.891 282.078 160.036ZM289.497 209.03C287.878 206.373 286.07 194.443 285.41 189.366C286.479 188.832 289.041 187.464 291.823 185.421C291.76 185.578 291.745 185.767 291.792 185.955C291.902 186.285 292.216 186.49 292.53 186.49C292.609 186.49 292.703 186.474 292.782 186.443C296.397 185.232 300.468 186.081 300.5 186.081C300.924 186.175 301.348 185.908 301.427 185.484C301.521 185.059 301.254 184.635 300.83 184.556C300.657 184.509 296.491 183.66 292.53 184.886C295.548 182.576 298.723 179.464 300.5 175.738C302.433 177.373 307.494 181.46 313.231 184.258C311.943 184.352 311.078 184.525 310.999 184.541C310.575 184.635 310.308 185.044 310.402 185.468C310.496 185.892 310.921 186.16 311.33 186.065C311.361 186.065 314.568 185.389 317.837 186.097C322.867 187.779 327.991 188.549 329.924 188.8C329.233 194.365 327.095 203.921 324.344 208.558C321.484 213.368 310.104 220.646 307.227 220.646C304.241 220.661 291.477 212.283 289.497 209.03ZM293.222 225.833C293.348 225.785 293.474 225.691 293.552 225.581C293.662 225.44 296.051 222.155 296.664 217.093C300.798 219.86 305.247 222.233 307.227 222.233C309.491 222.233 314.945 219.199 319.456 215.694C319.723 221.526 322.568 225.393 322.694 225.565C322.788 225.675 322.898 225.77 323.024 225.817C325.68 226.886 329.751 228.552 334.121 230.36C334.168 232.01 334.294 256.31 306.881 257.458C298.456 257.835 291.776 255.65 287.108 251.029C279.421 243.437 279.704 231.617 279.704 231.491C279.704 231.444 279.689 231.397 279.689 231.365C284.954 229.181 290.078 227.106 293.222 225.833ZM258.453 242.148C256.535 249.049 252.213 266.653 253.455 281.397H236.746C243.348 266.968 252.48 249.174 258.453 242.148Z" fill="#18173F"/>
<path d="M357.73 365.27H262.603C262.163 365.27 261.817 365.616 261.817 366.056C261.817 366.496 262.163 366.842 262.603 366.842H357.73C358.17 366.842 358.516 366.496 358.516 366.056C358.516 365.632 358.17 365.27 357.73 365.27Z" fill="#18173F"/>
<path d="M420.949 342.086C413.876 339.822 385.206 343.83 379.547 344.663L382.376 330.894C382.832 330.533 383.382 330.092 384.011 329.589C387.595 326.792 390.613 324.34 391.289 322.768C393.175 318.367 392.012 308.778 391.933 308.244C391.336 306.122 390.361 303.34 389.088 299.976C389.025 299.819 388.915 299.709 388.789 299.615L391.477 286.506C391.524 286.27 391.462 286.034 391.32 285.845C391.163 285.657 390.943 285.562 390.707 285.562H225.397C225.162 285.562 224.942 285.673 224.784 285.845C224.643 286.034 224.58 286.27 224.627 286.506L227.331 299.725C227.284 299.788 227.221 299.85 227.189 299.945C225.9 303.34 224.942 306.122 224.297 308.37C224.25 308.778 223.071 318.367 224.957 322.768C226.199 325.644 230.364 329.055 233.65 331.413C233.697 331.444 233.76 331.444 233.822 331.476L236.463 344.396C224.25 343.123 210.795 343.406 196.444 345.276C195.8 345.355 195.391 345.418 195.265 345.418C193.285 345.418 179.877 358.778 179.579 365.946C179.264 373.475 190.849 386.348 191.336 386.883C191.43 386.977 191.54 387.056 191.666 387.103C203.36 391.064 228.824 395.355 250.091 398.514C247.875 398.766 245.768 398.907 243.961 398.86C229.61 398.514 221.421 400.008 218.969 403.45C216.847 406.421 215.353 411.152 216.8 415.034C217.978 418.225 220.839 420.41 225.303 421.495C227.802 422.108 230.522 422.453 233.288 422.658C233.304 422.658 233.304 422.673 233.32 422.673C233.414 422.705 233.508 422.721 233.602 422.721C233.65 422.721 233.697 422.689 233.744 422.673C235.614 422.799 237.501 422.878 239.371 422.878C244.275 422.878 249.006 422.532 252.779 422.249C255.309 422.06 257.479 421.903 258.956 421.903C263.216 421.903 274.627 420.709 281.921 418.964C282.031 419.027 282.156 419.058 282.282 419.058C282.502 419.058 282.706 418.964 282.864 418.807C282.879 418.775 282.895 418.744 282.911 418.728C284.436 418.335 285.709 417.911 286.652 417.471C286.683 417.565 286.715 417.628 286.715 417.644C286.825 417.958 287.123 418.162 287.453 418.162C287.485 418.162 287.501 418.162 287.532 418.162C287.752 418.131 302.213 416.622 321.279 414.107C323.433 414.689 332.722 417.156 337.705 418.052C342.059 418.822 353.345 419.011 361.581 419.153C364.19 419.2 366.454 419.231 368.041 419.278C368.67 419.294 369.346 419.31 370.053 419.31C376.026 419.31 384.074 418.571 386.589 416.685C387.988 415.632 389.591 413.132 390.031 409.91C390.33 407.788 390.157 404.645 388.019 401.469C406.158 395.858 419.409 389.429 425.633 386.128C436.117 380.58 438.962 373.239 439.088 372.941C439.104 372.878 439.12 372.815 439.135 372.768C440.424 362.441 428.793 344.601 420.949 342.086ZM390.393 308.558C390.408 308.653 391.572 318.131 389.843 322.139C389.277 323.475 385.379 326.524 383.037 328.348C382.974 328.395 382.911 328.442 382.848 328.489L388.224 302.224C389.182 304.786 389.921 306.939 390.393 308.558ZM226.419 322.139C224.706 318.131 225.853 308.668 225.838 308.668C226.309 307.034 227.001 304.959 227.897 302.523L233.367 329.244C229.641 326.446 227.189 323.947 226.419 322.139ZM218.277 414.468C217.035 411.12 218.371 406.971 220.258 404.33C221.264 402.916 224.187 401.359 231.653 400.683C231.685 400.794 231.748 400.888 231.826 400.982C231.889 401.045 238.098 407.505 233.068 421.054C230.49 420.85 227.975 420.52 225.665 419.938C221.751 418.995 219.267 417.141 218.277 414.468ZM252.669 420.693C247.733 421.054 241.1 421.526 234.703 421.18C238.947 409.297 235.064 402.601 233.508 400.573C236.369 400.385 239.795 400.322 243.929 400.432C247.277 400.511 251.474 399.992 255.655 399.332C255.702 399.332 255.75 399.347 255.812 399.347C255.844 399.347 255.891 399.347 255.922 399.347C256.08 399.347 256.221 399.285 256.347 399.206C257.809 398.97 259.27 398.734 260.685 398.483C264.976 397.76 269.016 397.053 271.106 397.163C273.511 397.257 276.325 397.508 278.541 397.744C277.645 400.008 274.093 410.335 280.616 417.659C273.7 419.184 263.373 420.331 258.972 420.331C257.431 420.331 255.231 420.504 252.669 420.693ZM282.376 417.251C274.879 409.8 280.113 398.059 280.16 397.933C280.16 397.933 280.16 397.933 280.16 397.917C280.977 398.011 281.606 398.074 281.983 398.121C282.864 405.352 285.096 412.755 286.149 415.977C285.269 416.418 283.964 416.842 282.376 417.251ZM361.613 417.565C353.423 417.439 342.216 417.251 337.988 416.496C334.577 415.883 329.123 414.531 325.366 413.557C335.017 412.252 345.611 410.727 356.017 409.03C360.732 408.26 365.291 407.364 369.66 406.374C369.346 410.225 369.299 416.229 369.299 417.738C368.89 417.738 368.481 417.722 368.073 417.706C366.517 417.659 364.237 417.612 361.613 417.565ZM388.475 409.69C388.098 412.457 386.746 414.61 385.646 415.427C383.807 416.811 376.969 417.659 370.886 417.722C370.886 416.15 370.933 409.659 371.279 405.996C376.639 404.755 381.701 403.371 386.447 401.941C388.585 404.849 388.742 407.757 388.475 409.69ZM437.579 372.453C437.249 373.239 434.247 379.778 424.894 384.729C415.511 389.696 389.968 401.862 355.765 407.458C343.992 409.391 331.983 411.089 321.374 412.488C321.279 412.457 321.216 412.441 321.216 412.441C320.965 412.378 320.713 412.441 320.525 412.598C303.91 414.783 290.911 416.197 287.972 416.512C287.186 414.186 284.294 405.32 283.414 396.99C283.791 396.911 284.294 396.801 284.938 396.644C285.363 396.55 285.63 396.125 285.536 395.701C285.441 395.276 285.017 395.009 284.593 395.104C283.194 395.418 282.408 395.591 282.392 395.591C281.999 395.669 281.732 396.031 281.779 396.424C281.779 396.455 281.779 396.471 281.795 396.502C279.924 396.282 275.005 395.732 271.138 395.575C268.89 395.496 264.961 396.141 260.386 396.927C258.846 397.194 257.243 397.461 255.64 397.713C233.65 394.538 205.027 389.885 192.342 385.657C191.037 384.195 180.852 372.469 181.119 365.977C181.386 359.391 193.741 347.807 195.391 346.943C195.611 346.927 196.036 346.88 196.633 346.801C211.062 344.931 224.549 344.663 236.778 345.984L239.968 361.592C240.047 361.969 240.377 362.221 240.739 362.221C240.786 362.221 240.849 362.221 240.896 362.205C241.32 362.111 241.587 361.702 241.509 361.278L238.302 345.465C238.318 345.434 238.334 345.402 238.334 345.355C238.365 345.135 238.287 344.931 238.161 344.773L226.356 287.134H389.717L375.35 357.301C375.272 357.725 375.539 358.15 375.963 358.228C376.388 358.307 376.812 358.04 376.891 357.615L379.217 346.298C382.895 345.764 413.53 341.363 420.478 343.595C427.661 345.889 438.679 362.897 437.579 372.453Z" fill="#18173F"/>
<path d="M311.911 209.501C311.738 209.108 311.282 208.92 310.874 209.093C305.687 211.309 302.496 209.266 302.339 209.171C301.977 208.935 301.49 209.014 301.254 209.376C301.003 209.737 301.097 210.224 301.458 210.46C301.568 210.539 303.297 211.686 306.237 211.686C307.699 211.686 309.475 211.403 311.487 210.539C311.895 210.366 312.068 209.91 311.911 209.501Z" fill="#18173F"/>
<path d="M308.044 335.107C312.508 335.107 316.139 331.476 316.139 327.012C316.139 322.548 312.508 318.933 308.044 318.933C303.58 318.933 299.965 322.564 299.965 327.012C299.949 331.476 303.58 335.107 308.044 335.107ZM308.044 320.504C311.644 320.504 314.567 323.428 314.567 327.012C314.567 330.611 311.644 333.535 308.044 333.535C304.445 333.535 301.537 330.611 301.537 327.012C301.521 323.428 304.445 320.504 308.044 320.504Z" fill="#18173F"/>
<path d="M395.061 353.01C373.385 355.399 356.441 365.584 342.845 373.774C338.947 376.131 335.253 378.348 331.81 380.171C327.645 382.387 322.081 384.525 316.218 386.474C316.218 386.474 316.218 386.474 316.202 386.474C301.946 382.733 286.699 375.691 271.955 368.901C256.205 361.639 222.458 357.914 222.128 357.882C221.704 357.835 221.311 358.15 221.263 358.574C221.216 358.998 221.531 359.391 221.955 359.439C222.285 359.47 255.781 363.164 271.295 370.316C285.331 376.792 299.808 383.44 313.546 387.339C303.345 390.592 292.688 393.233 287.013 394.553C286.589 394.648 286.322 395.072 286.432 395.496C286.51 395.858 286.84 396.109 287.202 396.109C287.265 396.109 287.328 396.109 287.375 396.094C296.916 393.862 320.399 387.983 332.534 381.554C336.023 379.715 339.717 377.483 343.646 375.125C357.133 367.015 373.904 356.908 395.234 354.566C395.658 354.519 395.973 354.126 395.926 353.701C395.878 353.277 395.485 352.963 395.061 353.01Z" fill="white"/>
<path d="M579.877 77.1531H570.541V86.4898H579.877V77.1531Z" fill="#8AD3F4"/>
<path d="M579.877 96.2197H570.541V105.556H579.877V96.2197Z" fill="#8AD3F4"/>
<path d="M579.877 115.286H570.541V124.622H579.877V115.286Z" fill="#F6A1DC"/>
<path d="M577.787 84.6195H568.45C568.01 84.6195 567.664 84.2737 567.664 83.8335V74.4969C567.664 74.0567 568.01 73.7109 568.45 73.7109H577.787C578.227 73.7109 578.573 74.0567 578.573 74.4969V83.8335C578.573 84.2737 578.227 84.6195 577.787 84.6195ZM569.236 83.0476H577.001V75.2828H569.236V83.0476Z" fill="#18173F"/>
<path d="M577.787 103.685H568.45C568.01 103.685 567.664 103.34 567.664 102.899V93.5628C567.664 93.1227 568.01 92.7769 568.45 92.7769H577.787C578.227 92.7769 578.573 93.1227 578.573 93.5628V102.899C578.573 103.34 578.227 103.685 577.787 103.685ZM569.236 102.114H577.001V94.3487H569.236V102.114Z" fill="#18173F"/>
<path d="M577.787 122.752H568.45C568.01 122.752 567.664 122.406 567.664 121.966V112.629C567.664 112.189 568.01 111.844 568.45 111.844H577.787C578.227 111.844 578.573 112.189 578.573 112.629V121.966C578.573 122.406 578.227 122.752 577.787 122.752ZM569.236 121.18H577.001V113.415H569.236V121.18Z" fill="#18173F"/>
<path d="M71.8137 66.8103H62.4771V76.147H71.8137V66.8103Z" fill="#BE350B"/>
<path d="M71.8137 85.8611H62.4771V95.1978H71.8137V85.8611Z" fill="#FE7D1F"/>
<path d="M71.8137 104.927H62.4771V114.264H71.8137V104.927Z" fill="#FE7D1F"/>
<path d="M69.6758 74.984H60.3391C59.899 74.984 59.5532 74.6382 59.5532 74.198V64.8614C59.5532 64.4212 59.899 64.0754 60.3391 64.0754H69.6758C70.1159 64.0754 70.4617 64.4212 70.4617 64.8614V74.198C70.4617 74.6382 70.1159 74.984 69.6758 74.984ZM61.1408 73.4121H68.9056V65.6473H61.1408V73.4121Z" fill="#18173F"/>
<path d="M69.6758 94.0499H60.3391C59.899 94.0499 59.5532 93.7041 59.5532 93.264V83.9273C59.5532 83.4872 59.899 83.1414 60.3391 83.1414H69.6758C70.1159 83.1414 70.4617 83.4872 70.4617 83.9273V93.264C70.4617 93.7041 70.1159 94.0499 69.6758 94.0499ZM61.1408 92.478H68.9056V84.7132H61.1408V92.478Z" fill="#18173F"/>
<path d="M69.6758 113.117H60.3391C59.899 113.117 59.5532 112.771 59.5532 112.331V102.994C59.5532 102.554 59.899 102.208 60.3391 102.208H69.6758C70.1159 102.208 70.4617 102.554 70.4617 102.994V112.331C70.4617 112.771 70.1159 113.117 69.6758 113.117ZM61.1408 111.545H68.9056V103.78H61.1408V111.545Z" fill="#18173F"/>
<path d="M28.7183 370.454V379.791H38.055V370.454H28.7183Z" fill="#FDC307"/>
<path d="M47.7832 370.453V379.789H57.1199V370.453H47.7832Z" fill="#FDC307"/>
<path d="M35.9917 378.395H26.6551C26.2149 378.395 25.8691 378.049 25.8691 377.609V368.272C25.8691 367.832 26.2149 367.486 26.6551 367.486H35.9917C36.4319 367.486 36.7777 367.832 36.7777 368.272V377.609C36.7777 378.049 36.4161 378.395 35.9917 378.395ZM27.441 376.823H35.2058V369.058H27.441V376.823Z" fill="#18173F"/>
<path d="M55.0581 378.395H45.7215C45.2814 378.395 44.9355 378.049 44.9355 377.609V368.272C44.9355 367.832 45.2814 367.486 45.7215 367.486H55.0581C55.4983 367.486 55.8441 367.832 55.8441 368.272V377.609C55.8441 378.049 55.4825 378.395 55.0581 378.395ZM46.5074 376.823H54.2722V369.058H46.5074V376.823Z" fill="#18173F"/>
<path d="M508.846 71.0384H467.57C467.129 71.0384 466.784 70.6926 466.784 70.2525C466.784 69.8124 467.129 69.4666 467.57 69.4666H508.846C509.286 69.4666 509.632 69.8124 509.632 70.2525C509.632 70.6926 509.286 71.0384 508.846 71.0384Z" fill="#18173F"/>
<path d="M495.925 60.9947H467.57C467.129 60.9947 466.784 60.6489 466.784 60.2088C466.784 59.7687 467.129 59.4229 467.57 59.4229H495.925C496.366 59.4229 496.711 59.7687 496.711 60.2088C496.711 60.6489 496.35 60.9947 495.925 60.9947Z" fill="#18173F"/>
<path d="M490.691 50.9507H467.585C467.145 50.9507 466.799 50.6049 466.799 50.1648C466.799 49.7247 467.145 49.3789 467.585 49.3789H490.691C491.131 49.3789 491.477 49.7247 491.477 50.1648C491.477 50.6049 491.116 50.9507 490.691 50.9507Z" fill="#18173F"/>
<path d="M497.827 40.9224H467.57C467.129 40.9224 466.784 40.5766 466.784 40.1365C466.784 39.6964 467.129 39.3506 467.57 39.3506H497.827C498.268 39.3506 498.613 39.6964 498.613 40.1365C498.613 40.5609 498.252 40.9224 497.827 40.9224Z" fill="#18173F"/>
<path d="M346.162 77.3262V115.459V134.321L359.962 115.459H431.952V77.3262H346.162Z" fill="#FDC307"/>
<path d="M343.128 132.262C343.05 132.262 342.971 132.246 342.892 132.23C342.578 132.12 342.358 131.837 342.358 131.507V74.5126C342.358 74.0882 342.704 73.7424 343.128 73.7424H428.919C429.343 73.7424 429.689 74.0882 429.689 74.5126V112.645C429.689 113.07 429.343 113.415 428.919 113.415H357.306L343.741 131.963C343.6 132.152 343.364 132.262 343.128 132.262ZM343.898 75.2828V129.15L356.3 112.189C356.442 111.985 356.677 111.875 356.913 111.875H428.149V75.2828H343.898Z" fill="#18173F"/>
<path d="M417.162 82.1673H353.471C353.046 82.1673 352.701 81.8215 352.701 81.3971C352.701 80.9727 353.046 80.627 353.471 80.627H417.162C417.586 80.627 417.932 80.9727 417.932 81.3971C417.916 81.8372 417.586 82.1673 417.162 82.1673Z" fill="white"/>
<path d="M421.217 89.3663H353.471C353.046 89.3663 352.701 89.0205 352.701 88.5961C352.701 88.1717 353.046 87.8259 353.471 87.8259H421.217C421.641 87.8259 421.987 88.1717 421.987 88.5961C421.987 89.0205 421.641 89.3663 421.217 89.3663Z" fill="white"/>
<path d="M413.703 96.5812H353.471C353.046 96.5812 352.701 96.2354 352.701 95.811C352.701 95.3866 353.046 95.0408 353.471 95.0408H413.703C414.128 95.0408 414.474 95.3866 414.474 95.811C414.474 96.2354 414.128 96.5812 413.703 96.5812Z" fill="white"/>
<path d="M419.378 103.78H353.455C353.031 103.78 352.685 103.434 352.685 103.009C352.685 102.585 353.031 102.239 353.455 102.239H419.378C419.802 102.239 420.148 102.585 420.148 103.009C420.148 103.434 419.802 103.78 419.378 103.78Z" fill="white"/>
<path d="M220.823 221.715H163.074V256.845H220.823V221.715Z" fill="#8AD3F4"/>
<path d="M218.922 219.577C218.922 219.53 218.906 219.467 218.89 219.42C218.874 219.372 218.859 219.325 218.843 219.278C218.827 219.262 218.827 219.247 218.827 219.231C218.812 219.2 218.78 219.184 218.764 219.168C218.733 219.121 218.702 219.09 218.654 219.042C218.623 219.011 218.576 218.979 218.529 218.964C218.482 218.932 218.434 218.917 218.387 218.901C218.34 218.885 218.277 218.869 218.23 218.869C218.199 218.869 218.167 218.854 218.136 218.854H160.449C160.418 218.854 160.387 218.869 160.371 218.869C160.308 218.869 160.261 218.885 160.214 218.901C160.167 218.917 160.119 218.932 160.072 218.964C160.025 218.995 159.994 219.011 159.946 219.042C159.899 219.074 159.868 219.121 159.836 219.168C159.821 219.2 159.789 219.215 159.774 219.231C159.758 219.247 159.758 219.262 159.758 219.278C159.726 219.325 159.726 219.372 159.711 219.42C159.695 219.467 159.679 219.53 159.679 219.577C159.679 219.593 159.664 219.608 159.664 219.624V254C159.664 254.44 160.009 254.786 160.449 254.786H218.136C218.576 254.786 218.922 254.44 218.922 254V219.624C218.922 219.608 218.922 219.593 218.922 219.577ZM215.291 220.41L189.308 235.892L163.326 220.41H215.291ZM217.35 253.214H161.235V221.007L188.884 237.496C189.01 237.574 189.151 237.606 189.293 237.606C189.434 237.606 189.576 237.574 189.701 237.496L217.35 221.007V253.214Z" fill="#18173F"/>
<path d="M145.957 275.565H46.0986V351.123H145.957V275.565Z" fill="#FF9CDC"/>
<path d="M142.766 348.892H42.9236C42.4835 348.892 42.1377 348.546 42.1377 348.106V272.548C42.1377 272.108 42.4835 271.762 42.9236 271.762H142.782C143.222 271.762 143.568 272.108 143.568 272.548V348.106C143.552 348.546 143.207 348.892 142.766 348.892ZM43.7095 347.32H141.996V273.334H43.7095V347.32Z" fill="#18173F"/>
<path d="M138.994 279.464H46.6959C46.2715 279.464 45.9414 279.134 45.9414 278.709C45.9414 278.285 46.2715 277.955 46.6959 277.955H138.994C139.418 277.955 139.748 278.285 139.748 278.709C139.748 279.134 139.403 279.464 138.994 279.464Z" fill="white"/>
<path d="M105.813 311.325L84.5618 299.049C83.2257 298.279 81.5596 299.237 81.5596 300.778V325.33C81.5596 326.87 83.2257 327.829 84.5618 327.059L105.813 314.783C107.149 314.013 107.149 312.095 105.813 311.325Z" fill="white"/>
<path d="M164.851 91.0952H108.815C108.5 91.0952 108.265 90.8437 108.265 90.545C108.265 90.2464 108.516 89.9949 108.815 89.9949H164.851C165.165 89.9949 165.401 90.2464 165.401 90.545C165.401 90.8437 165.149 91.0952 164.851 91.0952Z" fill="#18173F"/>
<path d="M164.851 108.228H108.815C108.5 108.228 108.265 107.976 108.265 107.678C108.265 107.379 108.516 107.128 108.815 107.128H164.851C165.165 107.128 165.401 107.379 165.401 107.678C165.401 107.976 165.149 108.228 164.851 108.228Z" fill="#18173F"/>
<path d="M164.85 114.468H124.077C123.763 114.468 123.527 114.217 123.527 113.918C123.527 113.604 123.778 113.368 124.077 113.368H164.85C165.165 113.368 165.4 113.619 165.4 113.918C165.4 114.217 165.149 114.468 164.85 114.468Z" fill="#18173F"/>
<path d="M164.851 120.693H136.825C136.511 120.693 136.275 120.441 136.275 120.143C136.275 119.844 136.526 119.593 136.825 119.593H164.851C165.165 119.593 165.401 119.844 165.401 120.143C165.401 120.441 165.149 120.693 164.851 120.693Z" fill="#18173F"/>
<path d="M282.974 112.409H257.337C255.121 112.409 253.313 110.602 253.313 108.386V101.988C253.313 101.548 253.659 101.202 254.099 101.202H259.522L248.378 89.4449L237.233 101.202H242.656C243.096 101.202 243.442 101.548 243.442 101.988V108.386C243.442 110.602 241.634 112.409 239.418 112.409H216.689C212.838 112.409 209.475 109.91 208.532 106.326C207.651 102.963 208.249 99.3003 210.355 95.4336C211.927 92.5257 214.127 90.7181 216.894 90.0265C220.949 89.0205 225.177 90.7338 227.425 91.897C226.623 87.3229 227.582 83.189 230.207 80.1239C233.037 76.8074 239.088 73.1607 251.757 74.5439C257.604 75.1884 261.754 77.3418 264.112 80.9884C266.862 85.2481 266.406 90.3566 265.872 93.0287C269.252 91.3625 277.362 88.5018 286.18 93.9246C292.373 97.7442 292.625 102.538 291.744 105.902C290.707 109.737 287.108 112.409 282.974 112.409ZM254.869 102.774V108.386C254.869 109.737 255.97 110.838 257.321 110.838H282.958C286.384 110.838 289.355 108.637 290.173 105.493C291.257 101.359 289.622 97.9171 285.3 95.2607C274.69 88.7219 265.463 94.962 265.07 95.2292C264.788 95.4179 264.426 95.4179 264.159 95.2135C263.892 95.0092 263.782 94.6634 263.876 94.3333C263.892 94.2547 266.155 87.1029 262.728 81.8058C260.654 78.5835 256.881 76.6659 251.537 76.0843C242.169 75.0626 235.001 76.8545 231.339 81.1299C228.683 84.2264 227.975 88.4232 229.28 93.2487C229.358 93.5631 229.248 93.9089 228.981 94.0975C228.714 94.2861 228.352 94.2862 228.085 94.1133C228.022 94.0818 222.301 90.2937 217.208 91.5512C214.898 92.117 213.043 93.6731 211.691 96.1724C209.789 99.6775 209.223 102.963 210.009 105.918C210.764 108.81 213.499 110.822 216.642 110.822H239.371C240.723 110.822 241.823 109.722 241.823 108.37V102.758H235.363C235.048 102.758 234.766 102.57 234.64 102.287C234.514 102.004 234.577 101.658 234.797 101.438L247.78 87.763C248.079 87.4487 248.629 87.4487 248.912 87.763L261.88 101.438C262.1 101.674 262.163 102.004 262.037 102.287C261.911 102.57 261.628 102.758 261.314 102.758H254.869V102.774Z" fill="#18173F"/>
<path d="M569.77 344.003H539.654C539.214 344.003 538.868 343.657 538.868 343.217C538.868 342.777 539.214 342.431 539.654 342.431H569.77C570.211 342.431 570.556 342.777 570.556 343.217C570.556 343.657 570.211 344.003 569.77 344.003Z" fill="#18173F"/>
<path d="M563.514 351.611H539.654C539.214 351.611 538.868 351.265 538.868 350.825C538.868 350.385 539.214 350.039 539.654 350.039H563.514C563.955 350.039 564.3 350.385 564.3 350.825C564.3 351.265 563.955 351.611 563.514 351.611Z" fill="#18173F"/>
<path d="M569.77 359.218H539.654C539.214 359.218 538.868 358.873 538.868 358.432C538.868 357.992 539.214 357.646 539.654 357.646H569.77C570.211 357.646 570.556 357.992 570.556 358.432C570.556 358.873 570.211 359.218 569.77 359.218Z" fill="#18173F"/>
<path d="M499.478 375.314H471.216C470.776 375.314 470.43 375.66 470.43 376.1C470.43 376.54 470.776 376.886 471.216 376.886H499.478C499.918 376.886 500.264 376.54 500.264 376.1C500.264 375.66 499.918 375.314 499.478 375.314Z" fill="#18173F"/>
<path d="M514.08 375.314H506.787C506.347 375.314 506.001 375.66 506.001 376.1C506.001 376.54 506.347 376.886 506.787 376.886H514.08C514.52 376.886 514.866 376.54 514.866 376.1C514.866 375.66 514.52 375.314 514.08 375.314Z" fill="#18173F"/>
<path d="M465.149 374.355C465.165 374.34 465.196 374.34 465.212 374.324L488.113 354.299L492.467 350.495C492.797 350.212 492.829 349.709 492.546 349.379L486.431 342.4C486.148 342.07 485.646 342.038 485.315 342.321L480.961 346.125L458.06 366.15C458.044 366.166 458.028 366.182 458.013 366.213C457.981 366.245 457.95 366.292 457.918 366.339C457.887 366.386 457.871 366.433 457.856 366.48C457.84 366.512 457.824 366.528 457.824 366.543L455.608 374.638C455.545 374.89 455.608 375.173 455.781 375.361C455.938 375.534 456.142 375.628 456.378 375.628C456.409 375.628 456.441 375.628 456.488 375.628L464.803 374.512C464.834 374.512 464.85 374.497 464.866 374.497C464.929 374.481 464.976 374.465 465.039 374.434C465.07 374.402 465.117 374.371 465.149 374.355ZM485.756 344.003L490.833 349.803L487.658 352.57L482.58 346.77L485.756 344.003ZM481.417 347.807L483.948 350.715L483.979 350.746L478.84 355.242C478.509 355.525 478.478 356.028 478.761 356.358C478.918 356.531 479.138 356.625 479.358 356.625C479.547 356.625 479.72 356.562 479.877 356.436L485.017 351.941L486.479 353.623L464.756 372.611L463.294 370.929L476.906 359.03C477.236 358.747 477.268 358.244 476.985 357.914C476.702 357.584 476.199 357.552 475.869 357.835L462.272 369.734L459.695 366.795L481.417 347.807ZM458.956 368.351L461.596 371.369L463.137 373.129L457.447 373.899L458.956 368.351Z" fill="#18173F"/>
<path d="M138.679 369.074H105.215C104.775 369.074 104.429 368.728 104.429 368.288C104.429 367.848 104.775 367.502 105.215 367.502H138.679C139.12 367.502 139.465 367.848 139.465 368.288C139.465 368.728 139.12 369.074 138.679 369.074Z" fill="#18173F"/>
<path d="M129.39 375.911H105.231C104.791 375.911 104.445 375.565 104.445 375.125C104.445 374.685 104.791 374.339 105.231 374.339H129.39C129.83 374.339 130.176 374.685 130.176 375.125C130.176 375.549 129.814 375.911 129.39 375.911Z" fill="#18173F"/>
<path d="M123.873 382.749H105.215C104.775 382.749 104.429 382.403 104.429 381.963C104.429 381.523 104.775 381.177 105.215 381.177H123.873C124.313 381.177 124.659 381.523 124.659 381.963C124.659 382.403 124.313 382.749 123.873 382.749Z" fill="#18173F"/>
</svg>
