<svg width="456" height="334" viewBox="0 0 456 334" fill="none" xmlns="http://www.w3.org/2000/svg">
<path d="M114.186 82.0254C137.667 74.3747 155.443 64.3084 153.889 59.5418C152.336 54.7752 132.042 57.1132 108.562 64.764C85.0808 72.4148 67.3049 82.481 68.858 87.2476C70.4112 92.0143 90.7051 89.6762 114.186 82.0254Z" fill="#1A3366"/>
<path d="M435.263 150.648C446.489 122.53 432.796 90.6357 404.679 79.4092C376.561 68.1827 344.666 81.8757 333.44 109.993C322.213 138.111 335.906 170.006 364.024 181.232C392.142 192.459 424.036 178.766 435.263 150.648Z" fill="#DAA100"/>
<path d="M430.385 150.642C441.611 122.525 427.918 90.6298 399.801 79.4033C371.683 68.1768 339.788 81.8699 328.562 109.988C317.335 138.105 331.028 170 359.146 181.227C387.264 192.453 419.158 178.76 430.385 150.642Z" fill="#F6DE2F"/>
<path d="M412.525 163.36C394.297 181.588 364.633 181.588 346.405 163.36C328.177 145.132 328.177 115.468 346.405 97.2401C364.633 79.0121 394.297 79.0121 412.525 97.2401C430.753 115.468 430.753 145.132 412.525 163.36Z" fill="#DEE9FF"/>
<path opacity="0.9" d="M412.536 97.2401C394.308 79.0121 364.644 79.0121 346.416 97.2401L412.536 163.36C430.774 145.132 430.774 115.468 412.536 97.2401Z" fill="white"/>
<path d="M398.028 128.015H381.813V105.123C381.813 103.907 380.828 102.911 379.601 102.911C378.385 102.911 377.39 103.896 377.39 105.123V130.227C377.39 131.443 378.375 132.439 379.601 132.439H398.028C399.244 132.439 400.24 131.453 400.24 130.227C400.24 129.001 399.255 128.015 398.028 128.015Z" fill="#2E56C4"/>
<path d="M379.465 87.5972C378.533 87.5972 377.778 88.3519 377.778 89.2848V93.1002C377.778 94.033 378.533 94.7877 379.465 94.7877C380.398 94.7877 381.153 94.033 381.153 93.1002V89.2848C381.143 88.3519 380.388 87.5972 379.465 87.5972Z" fill="#2E56C4"/>
<path d="M379.465 165.823C378.533 165.823 377.778 166.578 377.778 167.511V171.326C377.778 172.259 378.533 173.014 379.465 173.014C380.398 173.014 381.153 172.259 381.153 171.326V167.511C381.143 166.578 380.388 165.823 379.465 165.823Z" fill="#2E56C4"/>
<path d="M342.254 128.613H338.439C337.506 128.613 336.751 129.367 336.751 130.3C336.751 131.233 337.506 131.988 338.439 131.988H342.254C343.187 131.988 343.942 131.233 343.942 130.3C343.942 129.367 343.187 128.613 342.254 128.613Z" fill="#2E56C4"/>
<path d="M420.481 128.613H416.665C415.732 128.613 414.978 129.367 414.978 130.3C414.978 131.233 415.732 131.988 416.665 131.988H420.481C421.413 131.988 422.168 131.233 422.168 130.3C422.168 129.367 421.413 128.613 420.481 128.613Z" fill="#2E56C4"/>
<path d="M351.961 105.185C352.286 105.51 352.716 105.678 353.156 105.678C353.586 105.678 354.015 105.51 354.351 105.185C355.011 104.525 355.011 103.456 354.351 102.806L351.657 100.112C351.017 99.4727 349.906 99.4727 349.277 100.112C348.617 100.772 348.617 101.842 349.277 102.491L351.961 105.185Z" fill="#2E56C4"/>
<path d="M406.959 155.415C406.299 154.755 405.23 154.755 404.58 155.415C404.266 155.729 404.087 156.159 404.087 156.61C404.087 157.061 404.266 157.48 404.58 157.805L407.274 160.499C407.588 160.813 408.018 160.991 408.469 160.991C408.92 160.991 409.339 160.813 409.664 160.499C410.324 159.838 410.324 158.769 409.664 158.119L406.959 155.415Z" fill="#2E56C4"/>
<path d="M351.961 155.415L349.267 158.109C348.606 158.769 348.606 159.838 349.267 160.488C349.581 160.802 350.011 160.981 350.462 160.981C350.912 160.981 351.332 160.802 351.657 160.488L354.35 157.794C354.665 157.48 354.843 157.05 354.843 156.599C354.843 156.149 354.665 155.729 354.35 155.404C353.69 154.754 352.621 154.754 351.961 155.415Z" fill="#2E56C4"/>
<path d="M407.274 100.102L404.58 102.796C404.266 103.11 404.087 103.54 404.087 103.991C404.087 104.441 404.266 104.861 404.58 105.185C404.905 105.51 405.335 105.678 405.775 105.678C406.205 105.678 406.635 105.51 406.97 105.185L409.664 102.492C410.324 101.831 410.324 100.762 409.664 100.112C409.024 99.4624 407.913 99.4624 407.274 100.102Z" fill="#2E56C4"/>
<path d="M384.905 228.337C384.905 220.528 390.021 214.197 396.341 214.197H313.964C307.643 214.197 302.528 220.528 302.528 228.337C302.528 236.146 307.643 242.477 313.964 242.477H396.341C390.031 242.477 384.905 236.146 384.905 228.337Z" fill="#E263A2"/>
<path d="M396.341 214.208C390.02 214.208 384.905 220.539 384.905 228.348C384.905 236.157 390.02 242.488 396.341 242.488H440.239V238.819H435.942V217.866H440.239V214.197H396.341V214.208Z" fill="#C1327A"/>
<path d="M435.942 238.809H397.851C393.176 238.809 389.381 234.124 389.381 228.338C389.381 222.552 393.176 217.866 397.851 217.866H435.942V238.809Z" fill="#EAE8F9"/>
<path d="M405.513 228.338C405.513 222.552 409.307 217.866 413.982 217.866H397.851C393.176 217.866 389.381 222.552 389.381 228.338C389.381 234.124 393.176 238.809 397.851 238.809H413.982C409.307 238.809 405.513 234.124 405.513 228.338Z" fill="#ACABDF"/>
<path d="M384.905 256.607C384.905 248.798 390.021 242.467 396.341 242.467H313.964C307.643 242.467 302.528 248.798 302.528 256.607C302.528 264.416 307.643 270.747 313.964 270.747H396.341C390.031 270.747 384.905 264.416 384.905 256.607Z" fill="#F6DE2F"/>
<path d="M396.341 242.478C390.02 242.478 384.905 248.809 384.905 256.618C384.905 264.427 390.02 270.758 396.341 270.758H440.239V267.089H435.942V246.146H440.239V242.478H396.341Z" fill="#DAA100"/>
<path d="M435.942 267.079H397.851C393.176 267.079 389.381 262.393 389.381 256.607C389.381 250.821 393.176 246.136 397.851 246.136H435.942V267.079Z" fill="#EAE8F9"/>
<path d="M405.513 256.607C405.513 250.821 409.307 246.136 413.982 246.136H397.851C393.176 246.136 389.381 250.821 389.381 256.607C389.381 262.393 393.176 267.079 397.851 267.079H413.982C409.307 267.079 405.513 262.393 405.513 256.607Z" fill="#ACABDF"/>
<path d="M384.905 200.068C384.905 192.259 390.021 185.928 396.341 185.928H313.964C307.643 185.928 302.528 192.259 302.528 200.068C302.528 207.877 307.643 214.208 313.964 214.208H396.341C390.031 214.208 384.905 207.877 384.905 200.068Z" fill="#80AEFF"/>
<path d="M396.341 185.928C390.02 185.928 384.905 192.259 384.905 200.068C384.905 207.877 390.02 214.208 396.341 214.208H440.239V210.539H435.942V189.596H440.239V185.928H396.341Z" fill="#5285F2"/>
<path d="M435.942 210.539H397.851C393.176 210.539 389.381 205.854 389.381 200.068C389.381 194.282 393.176 189.596 397.851 189.596H435.942V210.539Z" fill="#EAE8F9"/>
<path d="M405.513 200.068C405.513 194.282 409.307 189.596 413.982 189.596H397.851C393.176 189.596 389.381 194.282 389.381 200.068C389.381 205.854 393.176 210.539 397.851 210.539H413.982C409.307 210.539 405.513 205.854 405.513 200.068Z" fill="#ACABDF"/>
<path d="M41.3926 325.934V329.582H223.872V325.934L132.627 314.079L41.3926 325.934Z" fill="#C1327A"/>
<path d="M228.694 325.934H36.5605V329.592H228.694V325.934Z" fill="#E263A2"/>
<path d="M132.627 312.832C128.864 303.283 117.995 298.125 107.743 297.822C97.4816 297.518 87.5552 301.071 77.807 304.268C68.0589 307.475 57.7971 310.41 47.6611 308.827L64.9353 295.61C75.2075 297.79 78.3416 296.207 87.4189 294.048C96.4963 291.889 105.794 289.352 114.536 291.354C123.277 293.367 131.485 301.113 132.627 312.832Z" fill="#EAE8F9"/>
<path d="M132.627 312.832C136.39 303.283 147.26 298.125 157.511 297.822C167.763 297.518 177.7 301.071 187.448 304.268C197.196 307.475 207.458 310.41 217.594 308.827L200.319 295.61C190.047 297.79 186.913 296.207 177.836 294.048C168.759 291.889 159.461 289.352 150.719 291.354C141.988 293.367 133.78 301.113 132.627 312.832Z" fill="#EAE8F9"/>
<path d="M107.743 297.811C97.4812 297.507 87.5548 301.06 77.8067 304.257C68.0585 307.465 57.7967 310.4 47.6607 308.817L41.3926 325.934C41.3926 325.934 63.2997 324.498 73.7711 323.638C84.2425 322.779 94.9026 321.825 105.919 321.909C116.936 321.993 128.602 323.376 132.637 325.944V312.842C128.874 303.282 118.005 298.125 107.743 297.811Z" fill="#C3C3ED"/>
<path d="M157.521 297.811C167.783 297.507 177.71 301.06 187.458 304.257C197.206 307.465 207.468 310.4 217.604 308.817L223.872 325.913C223.872 325.913 201.965 324.477 191.493 323.617C181.022 322.758 170.362 321.804 159.345 321.888C148.329 321.972 136.662 323.355 132.627 325.923V312.821C136.39 303.283 147.26 298.125 157.521 297.811Z" fill="#C3C3ED"/>
<path d="M136.684 316.951C137.732 314.739 139.546 312.905 141.558 311.458C143.592 310.022 145.856 308.922 148.193 308.094C152.868 306.406 157.847 305.704 162.794 305.683C167.731 305.704 172.637 306.322 177.417 307.329C182.207 308.324 186.882 309.655 191.515 311.154C186.683 310.546 181.892 309.687 177.123 309.027C172.343 308.377 167.574 307.863 162.805 307.884C158.057 307.863 153.298 308.44 148.728 309.718C146.453 310.379 144.21 311.207 142.145 312.37C140.049 313.513 138.152 314.991 136.684 316.951Z" fill="#ACABDF"/>
<path d="M139.608 319.823C141.883 318.188 144.524 317.045 147.197 316.165C149.891 315.305 152.669 314.708 155.478 314.352C161.117 313.607 166.809 313.848 172.396 314.467C177.993 315.138 183.496 316.217 188.947 317.412C194.397 318.597 199.816 319.823 205.319 320.861C199.722 320.735 194.146 319.98 188.632 319.1C183.119 318.251 177.637 317.266 172.144 316.647C169.398 316.301 166.652 316.081 163.895 315.966C161.138 315.83 158.392 315.861 155.646 316.05C152.899 316.249 150.164 316.605 147.47 317.192C144.776 317.779 142.124 318.607 139.608 319.823Z" fill="#ACABDF"/>
<path d="M128.581 316.951C127.533 314.739 125.72 312.905 123.707 311.458C121.674 310.022 119.41 308.922 117.072 308.094C112.397 306.406 107.418 305.704 102.471 305.683C97.5339 305.704 92.6284 306.322 87.8486 307.329C83.0584 308.324 78.3835 309.655 73.7505 311.154C78.5826 310.546 83.3624 309.687 88.1421 309.027C92.9219 308.377 97.6911 307.863 102.46 307.884C107.209 307.863 111.967 308.44 116.538 309.718C118.812 310.379 121.055 311.207 123.12 312.37C125.206 313.513 127.114 314.991 128.581 316.951Z" fill="#ACABDF"/>
<path d="M125.657 319.823C123.382 318.188 120.741 317.045 118.068 316.165C115.374 315.305 112.596 314.708 109.787 314.352C104.148 313.607 98.4563 313.848 92.8694 314.467C87.2721 315.138 81.7691 316.217 76.3185 317.412C70.8679 318.597 65.4488 319.823 59.9458 320.861C65.5431 320.735 71.1195 319.98 76.633 319.1C82.1464 318.251 87.6285 317.266 93.121 316.647C95.8672 316.301 98.6135 316.081 101.37 315.966C104.127 315.83 106.873 315.861 109.619 316.05C112.366 316.249 115.101 316.605 117.795 317.192C120.479 317.779 123.131 318.607 125.657 319.823Z" fill="#ACABDF"/>
<path d="M132.627 314.079C126.076 314.079 120.772 319.383 120.772 325.934H144.482C144.482 319.383 139.178 314.079 132.627 314.079Z" fill="#E263A2"/>
<path d="M350.305 230.549H100.239C96.2765 230.549 93.0586 227.331 93.0586 223.369V66.4552C93.0586 62.4931 96.2765 59.2751 100.239 59.2751H350.305C354.267 59.2751 357.485 62.4931 357.485 66.4552V223.369C357.485 227.331 354.267 230.549 350.305 230.549Z" fill="#ACACE4"/>
<path d="M344.32 230.549H94.2641C90.3019 230.549 87.084 227.331 87.084 223.369V66.4552C87.084 62.4931 90.3019 59.2751 94.2641 59.2751H344.32C348.282 59.2751 351.5 62.4931 351.5 66.4552V223.369C351.5 227.331 348.293 230.549 344.32 230.549Z" fill="#3E3D3B"/>
<path d="M87.084 198.286V223.359C87.084 227.321 90.3019 230.539 94.2641 230.539H344.32C348.282 230.539 351.5 227.321 351.5 223.359V198.286H87.084Z" fill="#EAE8F9"/>
<path d="M344.226 65.7742H94.3481V190.97H344.226V65.7742Z" fill="#81B1FF"/>
<path d="M257.111 230.549H181.484V260.831H257.111V230.549Z" fill="#ACABDF"/>
<path d="M286.187 270.747H152.396C152.396 265.265 156.841 260.832 162.312 260.832H276.282C281.753 260.832 286.187 265.276 286.187 270.747Z" fill="#EAE8F9"/>
<path d="M257.111 230.549H181.484V234.218H257.111V230.549Z" fill="#ACABDF"/>
<path d="M325.735 177.71H254.102C249.071 177.71 244.993 173.633 244.993 168.601V31.7706C244.993 26.7393 249.071 22.6619 254.102 22.6619H325.735C330.766 22.6619 334.844 26.7393 334.844 31.7706V168.601C334.833 173.633 330.756 177.71 325.735 177.71Z" fill="#ACACE4"/>
<path d="M322.171 174.157H250.538C245.507 174.157 241.429 170.079 241.429 165.048V28.2069C241.429 23.1756 245.507 19.0981 250.538 19.0981H322.171C327.202 19.0981 331.28 23.1756 331.28 28.2069V165.048C331.28 170.079 327.202 174.157 322.171 174.157Z" fill="#EAE8F9"/>
<path d="M264.437 43.5313H253.326C252.205 43.5313 251.293 42.6194 251.293 41.4978C251.293 40.3763 252.205 39.4644 253.326 39.4644H264.437C265.559 39.4644 266.471 40.3763 266.471 41.4978C266.46 42.6194 265.548 43.5313 264.437 43.5313Z" fill="#C3C3ED"/>
<path d="M283.2 43.5313H272.089C270.968 43.5313 270.056 42.6194 270.056 41.4978C270.056 40.3763 270.968 39.4644 272.089 39.4644H283.2C284.321 39.4644 285.233 40.3763 285.233 41.4978C285.223 42.6194 284.321 43.5313 283.2 43.5313Z" fill="#C3C3ED"/>
<path d="M301.963 43.5313H290.852C289.73 43.5313 288.818 42.6194 288.818 41.4978C288.818 40.3763 289.73 39.4644 290.852 39.4644H301.963C303.084 39.4644 303.996 40.3763 303.996 41.4978C303.986 42.6194 303.084 43.5313 301.963 43.5313Z" fill="#C3C3ED"/>
<path d="M320.725 43.5313H309.614C308.492 43.5313 307.581 42.6194 307.581 41.4978C307.581 40.3763 308.492 39.4644 309.614 39.4644H320.725C321.846 39.4644 322.758 40.3763 322.758 41.4978C322.758 42.6194 321.846 43.5313 320.725 43.5313Z" fill="#C3C3ED"/>
<path d="M282.214 55.533H253.316C252.194 55.533 251.282 54.6211 251.282 53.4996C251.282 52.378 252.194 51.4661 253.316 51.4661H282.214C283.336 51.4661 284.248 52.378 284.248 53.4996C284.248 54.6316 283.336 55.533 282.214 55.533Z" fill="#C3C3ED"/>
<path d="M292.088 55.533H289.876C288.755 55.533 287.843 54.6211 287.843 53.4996C287.843 52.378 288.755 51.4661 289.876 51.4661H292.088C293.209 51.4661 294.121 52.378 294.121 53.4996C294.121 54.6316 293.209 55.533 292.088 55.533Z" fill="#C3C3ED"/>
<path d="M301.962 55.533H299.75C298.629 55.533 297.717 54.6211 297.717 53.4996C297.717 52.378 298.629 51.4661 299.75 51.4661H301.962C303.084 51.4661 303.995 52.378 303.995 53.4996C303.985 54.6316 303.084 55.533 301.962 55.533Z" fill="#C3C3ED"/>
<path d="M320.725 55.533H309.614C308.492 55.533 307.581 54.6211 307.581 53.4996C307.581 52.378 308.492 51.4661 309.614 51.4661H320.725C321.846 51.4661 322.758 52.378 322.758 53.4996C322.758 54.6316 321.846 55.533 320.725 55.533Z" fill="#C3C3ED"/>
<path d="M264.437 67.5455H253.326C252.204 67.5455 251.292 66.6336 251.292 65.512C251.292 64.3904 252.204 63.4785 253.326 63.4785H264.437C265.558 63.4785 266.47 64.3904 266.47 65.512C266.46 66.6336 265.548 67.5455 264.437 67.5455Z" fill="#C3C3ED"/>
<path d="M274.3 67.5455H272.089C270.967 67.5455 270.055 66.6336 270.055 65.512C270.055 64.3904 270.967 63.4785 272.089 63.4785H274.3C275.422 63.4785 276.334 64.3904 276.334 65.512C276.334 66.6336 275.422 67.5455 274.3 67.5455Z" fill="#C3C3ED"/>
<path d="M284.174 67.5455H281.963C280.841 67.5455 279.929 66.6336 279.929 65.512C279.929 64.3904 280.841 63.4785 281.963 63.4785H284.174C285.296 63.4785 286.208 64.3904 286.208 65.512C286.208 66.6336 285.296 67.5455 284.174 67.5455Z" fill="#C3C3ED"/>
<path d="M320.725 67.5455H291.826C290.704 67.5455 289.792 66.6336 289.792 65.512C289.792 64.3904 290.704 63.4785 291.826 63.4785H320.725C321.846 63.4785 322.758 64.3904 322.758 65.512C322.758 66.6336 321.846 67.5455 320.725 67.5455Z" fill="#C3C3ED"/>
<path d="M309.614 99.4941H320.724C321.846 99.4941 322.758 100.406 322.758 101.528C322.758 102.649 321.846 103.561 320.724 103.561H309.614C308.492 103.561 307.58 102.649 307.58 101.528C307.591 100.406 308.492 99.4941 309.614 99.4941Z" fill="#C3C3ED"/>
<path d="M290.851 99.4941H301.962C303.084 99.4941 303.996 100.406 303.996 101.528C303.996 102.649 303.084 103.561 301.962 103.561H290.851C289.73 103.561 288.818 102.649 288.818 101.528C288.818 100.406 289.73 99.4941 290.851 99.4941Z" fill="#C3C3ED"/>
<path d="M272.089 99.4941H283.199C284.321 99.4941 285.233 100.406 285.233 101.528C285.233 102.649 284.321 103.561 283.199 103.561H272.089C270.967 103.561 270.055 102.649 270.055 101.528C270.055 100.406 270.967 99.4941 272.089 99.4941Z" fill="#C3C3ED"/>
<path d="M253.326 99.4941H264.437C265.558 99.4941 266.47 100.406 266.47 101.528C266.47 102.649 265.558 103.561 264.437 103.561H253.326C252.204 103.561 251.292 102.649 251.292 101.528C251.292 100.406 252.204 99.4941 253.326 99.4941Z" fill="#C3C3ED"/>
<path d="M291.826 87.4924H320.725C321.846 87.4924 322.758 88.4044 322.758 89.5259C322.758 90.6475 321.846 91.5594 320.725 91.5594H291.826C290.704 91.5594 289.792 90.6475 289.792 89.5259C289.803 88.4044 290.715 87.4924 291.826 87.4924Z" fill="#C3C3ED"/>
<path d="M281.963 87.4924H284.174C285.296 87.4924 286.208 88.4044 286.208 89.5259C286.208 90.6475 285.296 91.5594 284.174 91.5594H281.963C280.841 91.5594 279.929 90.6475 279.929 89.5259C279.929 88.4044 280.841 87.4924 281.963 87.4924Z" fill="#C3C3ED"/>
<path d="M272.089 87.4924H274.3C275.422 87.4924 276.334 88.4044 276.334 89.5259C276.334 90.6475 275.422 91.5594 274.3 91.5594H272.089C270.967 91.5594 270.055 90.6475 270.055 89.5259C270.055 88.4044 270.967 87.4924 272.089 87.4924Z" fill="#C3C3ED"/>
<path d="M253.326 87.4924H264.437C265.558 87.4924 266.47 88.4044 266.47 89.5259C266.47 90.6475 265.558 91.5594 264.437 91.5594H253.326C252.204 91.5594 251.292 90.6475 251.292 89.5259C251.292 88.4044 252.204 87.4924 253.326 87.4924Z" fill="#C3C3ED"/>
<path d="M309.614 75.491H320.724C321.846 75.491 322.758 76.4029 322.758 77.5245C322.758 78.646 321.846 79.5579 320.724 79.5579H309.614C308.492 79.5579 307.58 78.646 307.58 77.5245C307.591 76.3924 308.492 75.491 309.614 75.491Z" fill="#C3C3ED"/>
<path d="M299.74 75.491H301.952C303.073 75.491 303.985 76.4029 303.985 77.5245C303.985 78.646 303.073 79.5579 301.952 79.5579H299.74C298.618 79.5579 297.707 78.646 297.707 77.5245C297.717 76.3924 298.618 75.491 299.74 75.491Z" fill="#C3C3ED"/>
<path d="M289.876 75.491H292.088C293.209 75.491 294.121 76.4029 294.121 77.5245C294.121 78.646 293.209 79.5579 292.088 79.5579H289.876C288.755 79.5579 287.843 78.646 287.843 77.5245C287.843 76.3924 288.755 75.491 289.876 75.491Z" fill="#C3C3ED"/>
<path d="M253.326 75.491H282.225C283.346 75.491 284.258 76.4029 284.258 77.5245C284.258 78.646 283.346 79.5579 282.225 79.5579H253.326C252.204 79.5579 251.292 78.646 251.292 77.5245C251.292 76.3924 252.204 75.491 253.326 75.491Z" fill="#C3C3ED"/>
<path d="M264.437 115.563H253.326C252.204 115.563 251.292 114.651 251.292 113.529C251.292 112.408 252.204 111.496 253.326 111.496H264.437C265.558 111.496 266.47 112.408 266.47 113.529C266.46 114.651 265.548 115.563 264.437 115.563Z" fill="#C3C3ED"/>
<path d="M283.199 115.563H272.089C270.967 115.563 270.055 114.651 270.055 113.529C270.055 112.408 270.967 111.496 272.089 111.496H283.199C284.321 111.496 285.233 112.408 285.233 113.529C285.222 114.651 284.321 115.563 283.199 115.563Z" fill="#C3C3ED"/>
<path d="M301.962 115.563H290.851C289.73 115.563 288.818 114.651 288.818 113.529C288.818 112.408 289.73 111.496 290.851 111.496H301.962C303.084 111.496 303.996 112.408 303.996 113.529C303.985 114.651 303.084 115.563 301.962 115.563Z" fill="#C3C3ED"/>
<path d="M320.724 115.563H309.614C308.492 115.563 307.58 114.651 307.58 113.529C307.58 112.408 308.492 111.496 309.614 111.496H320.724C321.846 111.496 322.758 112.408 322.758 113.529C322.758 114.651 321.846 115.563 320.724 115.563Z" fill="#C3C3ED"/>
<path d="M302.665 164.042L300.568 158.696L295.254 160.855L302.654 143.613L310.075 146.799L302.665 164.042Z" fill="#E263A2"/>
<path d="M315.337 164.042L317.434 158.696L322.759 160.855L315.348 143.613L307.927 146.799L315.337 164.042Z" fill="#E263A2"/>
<path d="M309.006 152.082C315.194 152.082 320.211 147.065 320.211 140.877C320.211 134.688 315.194 129.672 309.006 129.672C302.817 129.672 297.801 134.688 297.801 140.877C297.801 147.065 302.817 152.082 309.006 152.082Z" fill="#C1327A"/>
<path d="M309.006 147.952C305.107 147.952 301.931 144.776 301.931 140.877C301.931 136.977 305.107 133.801 309.006 133.801C312.906 133.801 316.082 136.977 316.082 140.877C316.082 144.776 312.906 147.952 309.006 147.952Z" fill="#E263A2"/>
<path d="M108.561 64.7782C132.04 57.1264 152.333 54.7994 153.884 59.5687L143.497 27.6828C141.946 22.9135 121.653 25.251 98.1732 32.8923C74.6938 40.5336 56.9165 50.6067 58.4783 55.3759L68.8659 87.2619C67.3041 82.4926 85.0814 72.4195 108.561 64.7782Z" fill="#2E56C4"/>
<path d="M190.215 13.5635L88.7814 4.08789L50.5959 37.7872L12.3999 71.4864L16.1629 72L16.3306 71.8533L65.3334 76.4339L58.4678 55.3758C56.9165 50.6065 74.6833 40.5439 98.1627 32.8921C121.642 25.2403 141.935 22.9134 143.486 27.6826L150.352 48.7407L187.259 16.1735L187.479 16.1945L190.215 13.5635Z" fill="#214AA5"/>
<path d="M143.109 27.0223C143.004 26.8966 142.889 26.7812 142.763 26.6764C142.721 26.645 142.679 26.6031 142.637 26.5716C142.459 26.4353 142.249 26.3096 142.019 26.1943C141.977 26.1733 141.924 26.1523 141.882 26.1314C141.683 26.037 141.463 25.9532 141.222 25.8798C141.138 25.8484 141.054 25.8274 140.97 25.796C140.719 25.7226 140.446 25.6492 140.163 25.5863C140.111 25.5758 140.058 25.5653 140.006 25.5549C139.66 25.4815 139.293 25.4291 138.895 25.3767C138.801 25.3662 138.696 25.3557 138.601 25.3452C138.287 25.3138 137.952 25.2823 137.606 25.2614C137.49 25.2509 137.375 25.2509 137.26 25.2404C136.809 25.2195 136.348 25.1985 135.855 25.1985C135.363 25.1985 134.849 25.209 134.325 25.2194C134.189 25.2194 134.052 25.2299 133.906 25.2299C133.465 25.2509 133.015 25.2719 132.553 25.3033C132.438 25.3138 132.323 25.3138 132.207 25.3243C131.62 25.3662 131.023 25.4186 130.405 25.471C130.31 25.4815 130.216 25.492 130.122 25.5025C129.587 25.5549 129.042 25.6178 128.486 25.6911C128.319 25.7121 128.161 25.7331 127.994 25.754C127.396 25.8274 126.778 25.9113 126.149 26.0056C126.086 26.0161 126.034 26.0161 125.981 26.0266C125.279 26.1314 124.566 26.2467 123.843 26.3725C123.686 26.3934 123.539 26.4249 123.382 26.4563C122.784 26.5611 122.176 26.6659 121.558 26.7812C121.39 26.8127 121.222 26.8441 121.055 26.8756C120.29 27.0223 119.514 27.1796 118.717 27.3368L129.105 59.2227C142.868 56.3507 152.836 56.2668 153.905 59.5476L143.517 27.6617C143.455 27.4731 143.36 27.3053 143.245 27.1481C143.192 27.1167 143.151 27.0643 143.109 27.0223Z" fill="#164282"/>
<path d="M56.2567 118.162C54.6216 118.152 53.2904 116.821 53.3008 115.186L53.6258 32.3996C53.6363 30.7644 54.9675 29.4332 56.6026 29.4437C58.2378 29.4541 59.569 30.7854 59.5585 32.4205L59.2336 115.206C59.2336 116.842 57.9024 118.173 56.2567 118.162Z" fill="#EAE8F9"/>
<path d="M59.3802 134.242L53.0177 134.221C49.957 134.21 47.8816 131.086 49.0556 128.256L54.7053 114.63L57.8289 114.64L63.3738 128.309C64.5373 131.149 62.4409 134.252 59.3802 134.242Z" fill="#EAE8F9"/>
<path d="M62.4724 115.563C62.4619 118.991 59.6737 121.747 56.2461 121.737C52.8185 121.726 50.0618 118.938 50.0723 115.511C50.0828 112.083 52.871 109.326 56.2985 109.337C59.7156 109.358 62.4829 112.146 62.4724 115.563Z" fill="#F6DE2F"/>
<path d="M131.946 270.747H50.4388C45.4075 270.747 41.3301 266.67 41.3301 261.639V186.012C41.3301 180.981 45.4075 176.903 50.4388 176.903H131.946C136.977 176.903 141.055 180.981 141.055 186.012V261.639C141.055 266.67 136.977 270.747 131.946 270.747Z" fill="#C1327A"/>
<path d="M128.393 267.194H46.8856C41.8543 267.194 37.7769 263.116 37.7769 258.085V182.458C37.7769 177.427 41.8543 173.349 46.8856 173.349H128.393C133.424 173.349 137.502 177.427 137.502 182.458V258.085C137.502 263.116 133.424 267.194 128.393 267.194Z" fill="#E263A2"/>
<path d="M79.3169 196.431L113.006 215.875C116.391 217.824 116.391 222.709 113.006 224.669L79.3169 244.113C75.9312 246.062 71.707 243.62 71.707 239.721V200.823C71.707 196.913 75.9417 194.471 79.3169 196.431Z" fill="#EAE8F9"/>
<path d="M195.729 101.15H110.364C109.242 101.15 108.331 100.239 108.331 99.117C108.331 97.9954 109.242 97.0835 110.364 97.0835H195.739C196.861 97.0835 197.773 97.9954 197.773 99.117C197.762 100.239 196.85 101.15 195.729 101.15Z" fill="white"/>
<path d="M208.6 102.932C208.558 102.932 208.516 102.932 208.474 102.932C208.003 102.901 207.552 102.681 207.248 102.314L203.768 98.2574C203.129 97.5132 203.212 96.3917 203.967 95.7523C204.711 95.1129 205.833 95.1967 206.472 95.9514L208.768 98.6348L220.162 88.5302C220.895 87.8804 222.017 87.9433 222.677 88.677C223.327 89.4107 223.264 90.5323 222.531 91.1926L209.785 102.492C209.46 102.775 209.04 102.932 208.6 102.932Z" fill="#F6DE2F"/>
<path d="M195.729 119.179H110.364C109.242 119.179 108.331 118.267 108.331 117.146C108.331 116.024 109.242 115.112 110.364 115.112H195.739C196.861 115.112 197.773 116.024 197.773 117.146C197.762 118.278 196.85 119.179 195.729 119.179Z" fill="white"/>
<path d="M208.6 120.961C208.558 120.961 208.516 120.961 208.474 120.961C208.003 120.93 207.552 120.71 207.248 120.343L203.768 116.286C203.129 115.542 203.212 114.42 203.967 113.781C204.711 113.142 205.833 113.226 206.472 113.98L208.768 116.664L220.162 106.559C220.895 105.909 222.017 105.972 222.677 106.706C223.327 107.44 223.264 108.561 222.531 109.221L209.785 120.521C209.46 120.804 209.04 120.961 208.6 120.961Z" fill="#F6DE2F"/>
<path d="M195.729 137.219H110.364C109.242 137.219 108.331 136.307 108.331 135.185C108.331 134.064 109.242 133.152 110.364 133.152H195.739C196.861 133.152 197.773 134.064 197.773 135.185C197.762 136.307 196.85 137.219 195.729 137.219Z" fill="white"/>
<path d="M208.6 138.99C208.558 138.99 208.516 138.99 208.474 138.99C208.003 138.959 207.552 138.738 207.248 138.372L203.768 134.315C203.129 133.571 203.212 132.449 203.967 131.81C204.711 131.17 205.833 131.254 206.472 132.009L208.768 134.692L220.162 124.588C220.895 123.938 222.017 124.001 222.677 124.735C223.327 125.468 223.264 126.59 222.531 127.25L209.785 138.55C209.46 138.833 209.04 138.99 208.6 138.99Z" fill="#F6DE2F"/>
<path d="M195.729 155.248H110.364C109.242 155.248 108.331 154.336 108.331 153.214C108.331 152.093 109.242 151.181 110.364 151.181H195.739C196.861 151.181 197.773 152.093 197.773 153.214C197.762 154.336 196.85 155.248 195.729 155.248Z" fill="white"/>
<path d="M208.6 157.03C208.558 157.03 208.516 157.03 208.474 157.03C208.003 156.998 207.552 156.778 207.248 156.411L203.768 152.355C203.129 151.611 203.212 150.489 203.967 149.85C204.711 149.21 205.833 149.294 206.472 150.049L208.768 152.732L220.162 142.628C220.895 141.978 222.017 142.041 222.677 142.774C223.327 143.508 223.264 144.63 222.531 145.29L209.785 156.59C209.46 156.862 209.04 157.03 208.6 157.03Z" fill="#F6DE2F"/>
<path d="M366.562 17.0749H360.462V10.9744C360.462 9.85284 359.55 8.94092 358.428 8.94092C357.307 8.94092 356.395 9.85284 356.395 10.9744V17.0749H350.294C349.173 17.0749 348.261 17.9868 348.261 19.1083C348.261 20.2299 349.173 21.1418 350.294 21.1418H356.395V27.2423C356.395 28.3639 357.307 29.2758 358.428 29.2758C359.55 29.2758 360.462 28.3639 360.462 27.2423V21.1418H366.562C367.684 21.1418 368.596 20.2299 368.596 19.1083C368.596 17.9868 367.684 17.0749 366.562 17.0749Z" fill="#E263A2"/>
<path d="M30.691 155.928H24.5906V149.828C24.5906 148.706 23.6786 147.794 22.5571 147.794C21.4355 147.794 20.5236 148.706 20.5236 149.828V155.928H14.4231C13.3016 155.928 12.3896 156.84 12.3896 157.962C12.3896 159.083 13.3016 159.995 14.4231 159.995H20.5236V166.096C20.5236 167.217 21.4355 168.129 22.5571 168.129C23.6786 168.129 24.5906 167.217 24.5906 166.096V159.995H30.691C31.8126 159.995 32.7245 159.083 32.7245 157.962C32.7245 156.84 31.8126 155.928 30.691 155.928Z" fill="#F6DE2F"/>
<path d="M304.541 295.767H298.44V289.667C298.44 288.545 297.528 287.633 296.407 287.633C295.285 287.633 294.373 288.545 294.373 289.667V295.767H288.273C287.151 295.767 286.239 296.679 286.239 297.801C286.239 298.922 287.151 299.834 288.273 299.834H294.373V305.935C294.373 307.056 295.285 307.968 296.407 307.968C297.528 307.968 298.44 307.056 298.44 305.935V299.834H304.541C305.662 299.834 306.574 298.922 306.574 297.801C306.564 296.679 305.662 295.767 304.541 295.767Z" fill="#81B1FF"/>
<path d="M379.821 42.3784C379.821 43.5105 378.909 44.4224 377.777 44.4224C376.645 44.4224 375.733 43.5105 375.733 42.3784C375.733 41.2464 376.645 40.3345 377.777 40.3345C378.909 40.3345 379.821 41.2569 379.821 42.3784Z" fill="#81B1FF"/>
<path d="M4.08793 183.286C4.08793 184.418 3.17601 185.33 2.04396 185.33C0.911921 185.33 0 184.418 0 183.286C0 182.154 0.911921 181.242 2.04396 181.242C3.17601 181.242 4.08793 182.154 4.08793 183.286Z" fill="#E263A2"/>
<path d="M259.144 287.633C259.144 288.765 258.232 289.677 257.1 289.677C255.968 289.677 255.056 288.765 255.056 287.633C255.056 286.501 255.968 285.589 257.1 285.589C258.232 285.589 259.144 286.512 259.144 287.633Z" fill="#F6DE2F"/>
<path d="M268.504 331.626C268.504 332.758 267.592 333.67 266.46 333.67C265.328 333.67 264.416 332.758 264.416 331.626C264.416 330.494 265.328 329.582 266.46 329.582C267.592 329.582 268.504 330.504 268.504 331.626Z" fill="#E263A2"/>
<path d="M407.116 4.08794C408.245 4.08794 409.16 3.17282 409.16 2.04397C409.16 0.915113 408.245 0 407.116 0C405.987 0 405.072 0.915113 405.072 2.04397C405.072 3.17282 405.987 4.08794 407.116 4.08794Z" fill="#F6DE2F"/>
<path d="M13.0498 106.108C13.0498 107.24 12.1379 108.152 11.0059 108.152C9.87384 108.152 8.96191 107.24 8.96191 106.108C8.96191 104.976 9.87384 104.064 11.0059 104.064C12.1379 104.064 13.0498 104.976 13.0498 106.108Z" fill="#81B1FF"/>
</svg>
