<svg width="53" height="53" viewBox="0 0 53 53" fill="none" xmlns="http://www.w3.org/2000/svg">
<path d="M48.9824 14.998H43.6859C42.9052 15.0004 42.1474 15.2617 41.5311 15.7409C40.9148 16.2201 40.4749 16.8901 40.2803 17.6463H39.2723C38.5704 17.6471 37.8969 17.9265 37.4008 18.4226C36.9042 18.9192 36.6248 19.5923 36.624 20.2946V23.8255H35.4366C35.8149 22.7142 35.69 21.493 35.0942 20.4817L24.4629 2.06923C21.8546 -2.30352 15.1839 0.9031 17.0179 5.67031L9.80389 15.4656C9.20292 16.2853 9.00863 17.3347 9.2766 18.3156L4.27454 21.2034C3.28145 21.7796 2.57251 22.7427 2.31828 23.8626C1.5782 23.9513 0.910636 24.3501 0.481069 24.9594C0.0515223 25.5686 -0.0998049 26.3312 0.0653131 27.0583L3.51587 42.2576C3.67902 42.9878 4.07153 43.647 4.6362 44.1378C5.20131 44.6288 5.90825 44.9259 6.65429 44.9854C5.98318 45.8571 5.66279 46.9483 5.75619 48.0446C5.84959 49.1406 6.35007 50.162 7.15869 50.9076C7.96773 51.6532 9.02627 52.069 10.1261 52.073C11.2264 52.0769 12.2881 51.669 13.1022 50.9293C13.9164 50.1897 14.4243 49.1717 14.5256 48.0766C14.6269 46.9811 14.3148 45.8875 13.6499 45.011H28.7019C28.034 45.8914 27.7215 46.9909 27.8267 48.0907C27.9319 49.1906 28.447 50.2109 29.2698 50.9486C30.0927 51.6863 31.163 52.0875 32.268 52.0726C33.3726 52.0576 34.4315 51.6273 35.2342 50.8679C36.0366 50.1081 36.5237 49.0741 36.5993 47.9718C36.6746 46.8691 36.3325 45.7788 35.6409 44.9169C36.4204 44.7396 37.1164 44.3033 37.6156 43.6788C38.1149 43.0545 38.3876 42.2794 38.3892 41.4802V20.2944C38.3896 19.8069 38.7845 19.412 39.272 19.4116H40.28C40.4747 20.1679 40.9145 20.8379 41.5308 21.3171C42.1471 21.7963 42.9049 22.0575 43.6856 22.0599H48.982C50.236 22.0489 51.3898 21.3734 52.0137 20.2853C52.6376 19.1973 52.6375 17.8606 52.0137 16.7725C51.3899 15.6845 50.236 15.0091 48.982 14.998L48.9824 14.998ZM18.5585 3.52745C18.7308 2.92254 19.1331 2.40905 19.6793 2.09772C20.2259 1.786 20.8725 1.70088 21.4806 1.86048C22.089 2.02008 22.6104 2.41179 22.9335 2.95165L33.5647 21.3641C33.9789 22.1018 33.9718 23.0043 33.5458 23.7353C33.1198 24.4667 32.3383 24.918 31.4919 24.9215C30.6458 24.9251 29.8608 24.4805 29.4285 23.7527L18.7973 5.33918C18.4785 4.79141 18.3926 4.13886 18.5585 3.52719L18.5585 3.52745ZM11.2258 16.5113L17.943 7.39114C20.2562 11.3978 24.9111 19.461 27.2239 23.4661L15.9672 24.7228H15.9668C15.6634 24.7583 15.356 24.7035 15.0829 24.5656C14.8102 24.4277 14.584 24.2125 14.4327 23.9473L12.7815 21.0878L11.1457 18.2552C10.9853 17.9888 10.9072 17.6814 10.9214 17.3708C10.9356 17.0607 11.0416 16.7612 11.2256 16.511L11.2258 16.5113ZM4.04406 24.1821C4.20643 23.5693 4.6072 23.0471 5.15692 22.7319L10.0577 19.9028C10.6532 20.9337 11.8511 23.0085 12.4462 24.039L7.54466 26.8689H7.54506C6.99571 27.1775 6.34665 27.2579 5.73862 27.0924C5.13095 26.9269 4.61234 26.5289 4.29506 25.9843C3.97822 25.44 3.88797 24.7926 4.04402 24.1822L4.04406 24.1821ZM17.4405 32.2588V32.2584C17.7956 32.6616 17.9111 33.2227 17.744 33.7331C17.5769 34.2438 17.1517 34.6276 16.6268 34.7423C16.1019 34.857 15.5557 34.6856 15.1904 34.2911L9.37338 27.8526L12.0594 26.3019L17.4405 32.2588ZM7.49311 47.6589C7.50375 46.7198 8.01093 45.8568 8.8259 45.3902C9.64087 44.9236 10.6422 44.9236 11.4572 45.3902C12.2721 45.8568 12.779 46.7198 12.7896 47.6589C12.7789 48.598 12.2721 49.461 11.4568 49.9276C10.6418 50.3942 9.64085 50.3942 8.8259 49.9276C8.01095 49.461 7.5038 48.5979 7.49311 47.6589ZM32.2099 50.3071C31.2708 50.2965 30.4078 49.7893 29.9412 48.9743C29.475 48.1594 29.475 47.1584 29.9412 46.3434C30.4078 45.5281 31.2712 45.0213 32.2099 45.0106C33.149 45.0213 34.0124 45.5285 34.4786 46.3434C34.9452 47.1584 34.9452 48.1594 34.4786 48.9743C34.0124 49.7897 33.1489 50.2964 32.2099 50.3071ZM36.6236 41.4797C36.6232 41.9478 36.4368 42.3963 36.1057 42.7273C35.7751 43.0583 35.3263 43.2444 34.8581 43.2451H6.95441C6.55402 43.2459 6.16546 43.1096 5.85295 42.8589C5.54083 42.6079 5.3237 42.258 5.23818 41.8667L1.7856 26.6623C1.68668 26.2462 1.91013 25.8214 2.30855 25.6661C2.55642 26.8365 3.29887 27.8422 4.344 28.4239C5.38946 29.0055 6.63519 29.106 7.76025 28.6997L13.8807 35.4743H13.8811C14.6677 36.3405 15.8566 36.7224 17.0007 36.4761C18.1451 36.2298 19.0715 35.3928 19.4322 34.2795C19.7928 33.1659 19.5331 31.9446 18.7508 31.0744L14.2844 26.1303V26.1299C14.8629 26.4282 15.5163 26.5492 16.1629 26.4778L28.252 25.1281C28.9692 26.0357 30.0328 26.6015 31.1863 26.6895C32.3394 26.7774 33.4771 26.3786 34.3232 25.5901H36.6243L36.6236 41.4797ZM48.9819 20.2939H43.6855C43.055 20.2939 42.4722 19.9573 42.1565 19.4111C41.8412 18.865 41.8412 18.1919 42.1565 17.6457C42.4721 17.0995 43.055 16.7629 43.6855 16.7629H48.9819C49.6081 16.77 50.1835 17.1081 50.4944 17.6516C50.8053 18.1946 50.8053 18.8622 50.4944 19.4053C50.1835 19.9487 49.6081 20.2868 48.9819 20.2939V20.2939Z" fill="#6D81A3"/>
<path d="M31.0813 10.5228C31.3252 10.9445 31.8647 11.0891 32.2871 10.846L35.1198 9.21053C35.5418 8.96659 35.6865 8.4271 35.4429 8.00465C35.199 7.58259 34.6595 7.43796 34.237 7.68151L31.4044 9.31695V9.31655C31.2015 9.4336 31.0537 9.6263 30.993 9.8525C30.9323 10.0787 30.9642 10.3199 31.0813 10.5228V10.5228Z" fill="#6D81A3"/>
<path d="M28.6017 7.74348C29.0241 7.98623 29.5636 7.8416 29.808 7.42033L31.4434 4.58769H31.443C31.5604 4.38474 31.592 4.14357 31.5317 3.91736C31.471 3.69116 31.3228 3.49807 31.1203 3.38102C30.9173 3.26397 30.6761 3.23245 30.4499 3.29314C30.2237 3.35383 30.031 3.502 29.914 3.70495L28.2785 6.53759C28.1615 6.74015 28.1296 6.98133 28.1903 7.20753C28.2509 7.43373 28.3991 7.62643 28.6017 7.74348V7.74348Z" fill="#6D81A3"/>
<path d="M32.2485 14.0607C32.2481 14.2948 32.3411 14.5194 32.5067 14.6849C32.6722 14.8505 32.8968 14.9435 33.1313 14.9435H36.4018C36.8892 14.9435 37.2845 14.5482 37.2845 14.0607C37.2845 13.5732 36.8892 13.178 36.4018 13.178H33.1313C32.8968 13.178 32.6722 13.271 32.5067 13.4365C32.3411 13.602 32.2481 13.8266 32.2485 14.0607Z" fill="#6D81A3"/>
</svg>
