<svg width="475" height="378" viewBox="0 0 475 378" fill="none" xmlns="http://www.w3.org/2000/svg">
<g opacity="0.6">
<path d="M37.5967 334.916C-22.7693 334.841 0.908897 322.633 38.003 322.633C78.2292 322.633 107.413 335.001 37.5967 334.916Z" fill="#CDD0D1"/>
</g>
<path d="M40.633 293.792C40.633 293.792 22.3853 293.802 22.1929 296.988V297.266C22.1929 297.266 22.428 303.733 22.8022 305.775C23.0588 307.207 24.7585 307.56 24.7585 307.56C24.7585 307.56 28.8741 326.054 29.3765 327.08C30.2424 328.854 33.6632 329.998 40.633 329.998C47.6028 329.998 51.0236 328.854 51.8895 327.08C52.3919 326.054 56.5076 307.56 56.5076 307.56C56.5076 307.56 58.2072 307.207 58.4638 305.775C58.838 303.733 59.0731 297.266 59.0731 297.266V296.988C58.8807 293.802 40.633 293.792 40.633 293.792Z" fill="#E9581C"/>
<path opacity="0.4" d="M40.633 293.792C40.633 293.792 22.3853 293.802 22.1929 296.988V297.266C22.1929 297.266 22.428 303.733 22.8022 305.775C23.0588 307.207 24.7585 307.56 24.7585 307.56C24.7585 307.56 25.1861 309.474 25.7847 312.103C26.5651 310.318 36.1325 309.591 40.633 309.591C45.1335 309.591 54.701 310.318 55.4813 312.103C56.08 309.474 56.5076 307.56 56.5076 307.56C56.5076 307.56 58.2072 307.207 58.4638 305.775C58.838 303.733 59.0731 297.266 59.0731 297.266V296.988C58.8807 293.802 40.633 293.792 40.633 293.792Z" fill="#E9581C"/>
<path d="M40.633 293.792C40.633 293.792 22.3853 293.802 22.1929 296.988V297.266C22.1929 297.266 22.428 303.733 22.8022 305.775C23.0588 307.207 24.7585 307.56 24.7585 307.56C24.7585 307.56 29.3337 308.811 40.633 308.811C51.9323 308.811 56.5076 307.56 56.5076 307.56C56.5076 307.56 58.2072 307.207 58.4638 305.775C58.838 303.733 59.0731 297.266 59.0731 297.266V296.988C58.8807 293.802 40.633 293.792 40.633 293.792Z" fill="#ED701B"/>
<path d="M58.9983 296.656C57.63 293.781 40.6437 293.792 40.6437 293.792C40.6437 293.792 23.6574 293.781 22.2891 296.656C22.2356 296.763 22.3746 298.933 40.6437 298.805C58.9021 298.933 59.0411 296.763 58.9983 296.656Z" fill="#F2921A"/>
<path d="M57.8969 296.453C57.48 294.272 40.6433 294.037 40.6433 294.037C40.6433 294.037 23.8067 294.272 23.3898 296.453C23.3684 296.56 23.796 298.26 40.6433 298.142C57.4907 298.26 57.9183 296.56 57.8969 296.453Z" fill="#E9581C"/>
<path opacity="0.4" d="M57.8969 296.453C57.48 294.272 40.6433 294.037 40.6433 294.037C40.6433 294.037 23.8067 294.272 23.3898 296.453C23.3684 296.56 23.796 298.26 40.6433 298.142C57.4907 298.26 57.9183 296.56 57.8969 296.453Z" fill="#E9581C"/>
<path opacity="0.4" d="M25.5069 297.351C27.6663 297.79 31.985 298.206 40.6332 298.142C48.9606 298.206 53.2687 297.811 55.5029 297.394C56.3687 297.234 51.9431 296.09 40.6332 296.09C29.3232 296.09 24.7907 297.202 25.5069 297.351Z" fill="#5B2816"/>
<path d="M53.3858 263.945C48.4043 265.57 43.487 267.355 38.5696 269.312C38.5696 269.312 39.4782 268.916 40.8786 268.307C42.279 267.687 44.1497 266.842 46.0739 265.912C49.933 264.041 53.9738 261.925 54.69 260.214C51.451 261.39 48.2119 262.641 45.0049 263.977C46.5443 262.94 48.105 261.925 49.6764 260.952C51.2479 259.979 52.8086 259.028 54.4014 258.119C48.3295 259.99 42.3004 262.139 36.3247 264.555C36.3247 268.339 36.453 272.134 36.7095 275.907C41.9049 272.54 47.1643 269.461 52.5413 266.671C49.7192 267.473 46.8864 268.328 44.0749 269.215C47.1643 267.366 50.243 265.602 53.3858 263.945Z" fill="#007E57"/>
<path d="M36.7949 276.762C36.8698 277.671 36.9232 278.569 37.0194 279.478C37.0194 279.478 37.9174 278.975 39.3391 278.195C40.7502 277.404 42.653 276.324 44.6093 275.148C46.5869 273.962 48.618 272.679 50.2749 271.439C51.9639 270.188 53.236 268.98 53.7278 267.89C48.0087 270.551 42.343 273.513 36.7949 276.762Z" fill="#007E57"/>
<path d="M36.3783 261.337C36.3462 262.278 36.3569 263.219 36.3462 264.159C36.3462 264.159 41.6698 262.107 47.2927 259.787C50.0934 258.622 53.0011 257.393 55.2888 256.195C57.6298 255.019 59.3295 253.876 59.864 252.817C58.6347 253.01 57.3947 253.202 56.176 253.427C57.3519 252.625 58.5385 251.855 59.7144 251.096C51.8145 253.822 44.0216 257.296 36.3783 261.337Z" fill="#007E57"/>
<path d="M59.4902 243.56C56.5397 244.041 53.6428 244.65 50.7137 245.323C52.1355 244.618 53.5359 243.934 54.9683 243.314C56.4008 242.683 57.8332 242.095 59.2443 241.539H58.9984L60.5378 240.78C57.8439 241.101 55.1928 241.55 52.5096 242.052C53.461 241.593 54.4124 241.154 55.3638 240.727C56.3259 240.31 57.288 239.914 58.2501 239.54C60.1422 238.76 62.1092 238.15 64.0013 237.562C55.15 238.952 46.2133 241.945 37.4689 245.836C37.3406 246.938 37.191 248.039 37.0947 249.15C38.9655 248.252 40.879 247.408 42.7818 246.606L42.8032 246.66C42.8032 246.66 41.4669 247.44 40.0772 248.252C38.6982 249.076 37.2658 249.963 37.0092 250.059C36.9558 250.668 36.881 251.288 36.8382 251.898C38.602 251.01 40.3873 250.166 42.1511 249.353C43.1453 248.915 44.1501 248.477 45.1657 248.071C45.1657 248.071 43.808 248.862 42.119 249.856C40.4086 250.829 38.3134 252.005 36.7847 252.582L36.6565 254.41C38.0675 253.576 40.0238 252.71 41.6273 252.09C42.4397 251.78 43.1666 251.524 43.6798 251.353C44.2036 251.181 44.5243 251.096 44.5349 251.107C41.8625 252.25 39.2648 253.48 36.6244 254.773C36.5709 255.447 36.5603 256.12 36.5175 256.794C39.0724 255.682 41.6594 254.624 44.2463 253.64C44.2463 253.64 43.1453 254.431 41.6166 255.425C40.1093 256.42 38.1637 257.638 36.4427 258.386C36.4106 258.921 36.4106 259.455 36.3999 259.99C36.3999 259.99 38.1103 259.295 40.74 258.215C43.327 257.136 46.8226 255.682 50.4892 254.153C52.2745 253.384 54.0917 252.603 55.8342 251.834C57.566 251.053 59.1908 250.273 60.6554 249.525C63.5416 247.996 65.6796 246.574 66.1714 245.099C64.1082 245.409 62.0878 245.826 60.0247 246.253C57.9722 246.681 55.909 247.151 53.8779 247.686C57.8867 246.147 61.9168 244.821 65.9576 243.795C62.462 244.126 58.945 244.564 55.4601 245.142C56.7963 244.575 58.1325 244.041 59.4902 243.56Z" fill="#007E57"/>
<path d="M38.3023 240.107C38.0243 241.603 37.8319 243.121 37.6074 244.629C47.6025 240.513 54.861 237.349 59.5859 235.467C60.7832 234.997 61.7987 234.591 62.6646 234.238C63.5519 233.917 64.2681 233.639 64.8347 233.425C65.3906 233.201 65.8075 233.03 66.0961 232.912C66.374 232.805 66.513 232.752 66.513 232.752C64.5995 232.72 62.7181 232.891 60.7618 233.051L61.9056 232.57C61.9056 232.57 60.8794 232.709 59.1904 233.019C57.5441 233.361 55.2244 233.885 52.6909 234.644C47.6453 236.109 41.7551 238.599 38.3023 240.107Z" fill="#007E57"/>
<path d="M41.3813 227.246C41.8089 226.883 42.9528 226.167 44.3959 225.258C45.1335 224.82 45.9459 224.339 46.8225 223.815C47.2501 223.558 47.6777 223.302 48.1267 223.035C48.565 222.778 49.0246 222.522 49.4736 222.254C50.3395 221.731 51.2054 221.207 52.0713 220.683C52.9051 220.159 53.6427 219.614 54.3482 219.122C55.0324 218.609 55.5669 218.032 56.0372 217.508C56.2617 217.23 56.4435 216.941 56.5824 216.621C56.6573 216.46 56.7107 216.3 56.7642 216.129C56.8176 215.969 56.8711 215.819 56.9031 215.648C56.2938 215.766 55.7272 215.99 55.1179 216.193C54.53 216.407 53.8886 216.61 53.3006 216.877C52.1354 217.433 50.8526 217.978 49.6874 218.705L47.8701 219.785C47.2822 220.18 46.7049 220.587 46.1063 220.993C44.8983 221.805 43.7866 222.735 42.6214 223.676C42.1617 224.852 41.7983 226.06 41.3813 227.246Z" fill="#007E57"/>
<path d="M43.3804 222.265C43.5514 221.987 43.7331 221.677 43.9576 221.356C44.1821 221.036 44.4387 220.704 44.6952 220.341C45.2297 219.635 45.7856 218.834 46.4591 218.053C47.1218 217.262 47.7632 216.418 48.5115 215.627C48.875 215.22 49.2278 214.814 49.5698 214.408C49.9226 214.002 50.3074 213.628 50.6602 213.232C51.013 212.847 51.3551 212.452 51.6864 212.067C52.0392 211.703 52.3813 211.34 52.6913 210.976C53.012 210.624 53.2792 210.228 53.5893 209.897C53.8886 209.555 54.1558 209.213 54.4017 208.871C54.6476 208.529 54.8507 208.165 55.0431 207.834C55.2462 207.513 55.4172 207.182 55.5455 206.839C55.8128 206.166 55.9303 205.45 55.8555 204.723C52.9372 206.893 50.4785 209.63 48.4367 212.633C46.3949 215.637 44.7487 218.898 43.3804 222.265Z" fill="#007E57"/>
<path d="M41.0284 228.391L40.4404 230.422C40.4404 230.422 41.5094 229.823 43.1877 228.893C44.0002 228.433 44.9943 227.91 46.0526 227.364C47.1003 226.809 48.2227 226.231 49.3986 225.686C50.5531 225.13 51.6969 224.564 52.8407 224.083C53.3859 223.837 53.9311 223.591 54.4549 223.345C54.968 223.099 55.4919 222.907 55.9622 222.693C56.4326 222.479 56.8709 222.276 57.2664 222.062C57.6619 221.848 58.0467 221.688 58.3674 221.496C59.0195 221.132 59.4471 220.694 59.7037 220.32C56.7319 220.641 53.5035 221.56 50.3821 223.003C48.7679 223.687 47.2606 224.542 45.6571 225.43C44.8874 225.889 44.1178 226.37 43.3481 226.862C42.557 227.332 41.7767 227.846 41.0284 228.391Z" fill="#007E57"/>
<path d="M40.2158 231.255C39.9379 232.41 39.6172 233.554 39.3713 234.719C41.039 233.832 42.7814 233.008 44.4491 232.239L44.4704 232.271C44.4704 232.271 43.8397 232.709 42.8669 233.318C41.8942 233.917 40.5686 234.687 39.2431 235.318L38.8689 237.092C40.5365 236.312 42.2897 235.66 42.2897 235.66L43.4442 235.285C43.4442 235.285 43.0594 235.724 42.2683 236.29C41.4879 236.857 40.2586 237.562 38.6765 238.108L38.4199 239.561C39.2751 239.134 40.28 238.674 41.3383 238.214C42.4073 237.755 43.5511 237.295 44.6628 236.868C46.8543 236.002 48.9816 235.285 50.243 234.794C50.8737 234.548 51.761 234.11 52.7872 233.682C53.792 233.254 54.9038 232.784 55.9514 232.346C56.9883 231.929 57.9611 231.597 58.656 231.352C59.3508 231.116 59.7891 230.967 59.7891 230.967C60.4626 230.667 61.1788 230.443 61.8523 230.208C61.136 230.272 60.4091 230.347 59.6822 230.443C55.2993 231.138 50.7775 232.388 46.3519 234.099C46.3519 234.099 47.0895 233.735 48.244 233.169C49.3771 232.634 50.9378 231.897 52.6055 231.106C53.4179 230.742 54.2624 230.379 55.0855 230.005C55.4811 229.823 55.8766 229.641 56.2721 229.459C56.657 229.288 57.0418 229.128 57.4159 228.968C58.1429 228.647 58.7842 228.326 59.3187 228.006C59.8746 227.717 60.3129 227.439 60.5908 227.15C58.378 227.375 56.1759 227.899 53.8989 228.497C51.6861 229.171 49.3878 229.94 47.175 230.892C47.175 230.892 47.8057 230.56 48.8212 230.026C49.8368 229.502 51.2265 228.818 52.6375 228.059C55.5559 226.605 58.6453 225.183 59.7784 223.954C53.3965 224.649 46.6084 227.471 40.2158 231.255Z" fill="#007E57"/>
<path d="M19.3063 263.795C24.2451 265.837 29.248 267.719 34.2402 269.429C34.2402 269.429 33.2994 269.098 31.8884 268.51C30.4666 267.922 28.5638 267.088 26.6182 266.072C22.7378 264.073 18.7291 261.337 18.1411 259.113C21.3053 260.802 24.4696 262.395 27.6765 263.913C26.1372 262.748 24.5978 261.551 23.1012 260.311C21.5833 259.081 20.076 257.82 18.6008 256.516C24.4482 259.466 30.3704 262.139 36.3568 264.544C36.3568 268.328 36.485 272.123 36.7416 275.896C31.1614 273.267 25.6134 270.327 20.1829 267.109C23.0371 267.997 25.8806 268.852 28.7455 269.654C25.5706 267.815 22.4064 265.859 19.3063 263.795Z" fill="#00A069"/>
<path d="M36.7951 276.762C36.8699 277.671 36.9234 278.569 37.0196 279.477C37.0196 279.477 36.0254 279.167 34.5074 278.611C32.9895 278.056 30.9477 277.232 28.8204 276.217C26.7145 275.201 24.5337 273.983 22.7485 272.668C20.9847 271.364 19.5736 269.963 19.0498 268.638C24.8865 271.652 30.8087 274.368 36.7951 276.762Z" fill="#00A069"/>
<path d="M36.378 261.337C36.3459 262.278 36.3566 263.219 36.3459 264.159C36.3459 264.159 31.001 262.15 25.5598 259.103C22.8232 257.585 20.0972 255.81 17.9485 254.004C15.8426 252.187 14.2819 250.359 14.0146 248.798C15.1799 249.311 16.3344 249.824 17.5209 250.326C16.5161 249.076 15.5433 247.793 14.5598 246.489C21.5724 252.09 28.895 256.986 36.378 261.337Z" fill="#00A069"/>
<path d="M17.2109 236.184C19.7017 238.086 22.2886 239.882 24.8542 241.614C23.7425 240.331 22.5987 239.016 21.519 237.669C20.4393 236.312 19.3703 234.933 18.312 233.511L18.5472 233.618L17.553 231.801C19.7551 233.639 22.0321 235.382 24.3197 237.049C23.6142 236.119 22.9194 235.168 22.2245 234.206C21.551 233.233 20.8883 232.25 20.2255 231.245C18.8786 229.246 17.6706 227.14 16.4413 224.98C22.7804 233.148 29.9533 239.904 37.4683 245.837C37.3401 246.938 37.1904 248.039 37.0942 249.15C35.4052 247.9 33.7696 246.617 32.1341 245.291L32.0913 245.334C32.0913 245.334 33.1924 246.489 34.3469 247.632C35.5228 248.776 36.7735 249.92 37.0087 250.059C36.9552 250.668 36.8804 251.288 36.8376 251.898C35.2342 250.743 33.6627 249.557 32.0806 248.327C31.1827 247.654 30.3061 246.97 29.4295 246.264C29.4295 246.264 30.5199 247.472 32.0165 248.851C33.5024 250.23 35.3411 251.769 36.7842 252.571L36.6559 254.399C35.3731 253.394 33.5665 252.229 32.0699 251.299C31.3216 250.839 30.6696 250.433 30.1885 250.155C29.7075 249.877 29.4081 249.717 29.3975 249.728C31.7599 251.481 34.2186 253.159 36.6345 254.773C36.5811 255.447 36.5704 256.12 36.5276 256.794C34.069 255.436 31.653 254.025 29.2371 252.55C29.2371 252.55 30.2099 253.587 31.5889 254.827C32.9893 256.067 34.8066 257.499 36.4528 258.376C36.4207 258.91 36.4207 259.445 36.41 259.979C36.41 259.979 35.9931 259.776 35.2448 259.423C34.5072 259.06 33.4382 258.536 32.1875 257.863C29.6754 256.516 26.2974 254.56 22.9942 252.165C21.3266 250.978 19.6803 249.674 18.1623 248.306C16.6337 246.938 15.2012 245.505 14.036 244.041C11.6415 241.133 10.177 238.118 10.348 235.596C12.0798 237.017 13.8864 238.364 15.6716 239.69C17.4568 241.015 19.2527 242.287 21.0914 243.517C17.6706 240.449 14.3353 237.167 11.1497 233.618C14.1857 235.788 17.243 237.851 20.3858 239.797C19.3062 238.632 18.2372 237.434 17.2109 236.184Z" fill="#00A069"/>
<path d="M38.302 240.107C38.024 241.603 37.8316 243.121 37.6071 244.628C29.0231 238.076 23.9881 230.7 21.4439 224.831C20.8132 223.366 20.3108 221.998 19.9153 220.779C19.5518 219.55 19.2953 218.47 19.1028 217.583C18.9211 216.696 18.7928 216.001 18.7287 215.52C18.6752 215.039 18.6646 214.782 18.6646 214.782C19.2204 215.787 19.8298 216.749 20.4391 217.701C21.0484 218.652 21.6791 219.582 22.2991 220.501L21.8822 218.844C21.8822 218.844 22.4809 219.978 23.475 221.699C24.5226 223.409 25.9658 225.707 27.6762 228.048C28.542 229.224 29.4507 230.411 30.3807 231.565C31.3107 232.72 32.2942 233.853 33.2349 234.901C35.095 237.007 36.9443 238.835 38.302 240.107Z" fill="#00A069"/>
<path d="M41.3809 227.247C41.2633 226.712 40.7823 225.472 40.2264 223.751C39.9591 222.896 39.7133 221.934 39.4781 220.865C39.3605 220.341 39.2322 219.785 39.1467 219.218C39.0612 218.652 38.997 218.075 38.9436 217.476C38.8901 216.877 38.8474 216.279 38.826 215.659C38.8046 215.049 38.8474 214.44 38.8901 213.82C38.9757 212.591 39.136 211.351 39.5102 210.196C39.8629 209.042 40.2798 207.93 40.9426 206.989C41.2633 206.519 41.6054 206.07 41.9688 205.674C42.1506 205.471 42.343 205.289 42.5354 205.108C42.7385 204.937 42.963 204.776 43.1875 204.627C42.9309 205.471 42.8027 206.337 42.6423 207.171C42.5033 208.015 42.3323 208.839 42.2468 209.662C42.0971 211.329 41.9154 212.922 41.9475 214.515L41.9581 216.867C42.0009 217.647 42.0544 218.417 42.1078 219.176C42.1933 220.683 42.4285 222.201 42.6316 223.655C42.1613 224.852 41.7978 226.06 41.3809 227.247Z" fill="#00A069"/>
<path d="M43.0273 222.126C43.0915 221.805 43.1663 221.442 43.2411 221.057C43.3267 220.672 43.4229 220.255 43.5298 219.817C43.7329 218.941 43.9253 217.936 44.246 216.92C44.556 215.894 44.8553 214.782 45.3257 213.713C45.5395 213.168 45.7747 212.623 46.0098 212.078C46.245 211.532 46.555 211.019 46.8436 210.506C47.143 209.993 47.4316 209.48 47.7523 208.999C48.0944 208.529 48.4471 208.08 48.7999 207.641C49.1634 207.214 49.4948 206.786 49.901 206.433C50.2965 206.081 50.692 205.76 51.0876 205.471C51.4831 205.183 51.8679 204.926 52.2634 204.734C52.6697 204.552 53.0759 204.413 53.4607 204.327C54.2411 204.146 54.968 204.156 55.6201 204.413C52.659 206.615 50.1789 209.384 48.1157 212.42C46.0633 215.445 44.4063 218.737 43.0273 222.126Z" fill="#00A069"/>
<path d="M41.0281 228.39L40.4401 230.421C40.4401 230.421 39.8308 229.363 38.9649 227.61C38.5159 226.723 38.0777 225.686 37.6073 224.499C37.137 223.313 36.6559 221.998 36.2817 220.608C35.8862 219.208 35.5228 217.733 35.3303 216.236C35.2234 215.488 35.1379 214.739 35.0738 213.991C35.0097 213.243 35.0203 212.505 35.031 211.789C35.0524 211.062 35.0952 210.356 35.17 209.683C35.2341 209.01 35.4052 208.357 35.5548 207.748C35.8969 206.54 36.2711 205.493 36.9018 204.723C36.6345 209.255 36.9659 213.435 37.7783 217.369C38.1204 219.325 38.6763 221.228 39.1787 223.056C39.4674 223.975 39.7667 224.884 40.0767 225.771C40.3653 226.637 40.6753 227.514 41.0281 228.39Z" fill="#00A069"/>
<path d="M40.2154 231.256C39.9375 232.41 39.6168 233.554 39.3709 234.719C38.2164 233.19 37.1474 231.63 36.0463 230.005L36.0143 230.026C36.0143 230.026 36.335 230.785 36.9015 231.833C37.4574 232.87 38.2592 234.185 39.2426 235.318L38.8685 237.092C37.6605 235.735 36.335 234.334 36.335 234.334L35.4477 233.447C35.4477 233.447 35.608 234.056 36.0891 234.954C36.5808 235.852 37.3505 237.007 38.6654 238.108L38.4088 239.562C37.746 238.867 36.9764 238.065 36.1639 237.21C35.3515 236.355 34.5177 235.435 33.6945 234.516C32.0376 232.677 30.5731 230.839 29.75 229.588C29.3544 228.968 28.7665 228.006 28.2106 226.862C27.644 225.729 27.0561 224.425 26.5216 223.174C25.9978 221.923 25.5809 220.715 25.2602 219.828C24.9502 218.93 24.7578 218.363 24.7578 218.363C24.5119 217.38 24.3409 216.364 24.1484 215.338C24.5226 216.14 24.9074 216.931 25.2923 217.711C27.7082 222.533 30.4448 226.883 33.4914 230.871C33.4914 230.871 33.0211 230.122 32.3369 228.904C31.6635 227.674 30.819 225.953 29.9958 223.997C28.4458 220.106 27.2485 215.114 28.0396 212.206C28.8093 214.985 29.8569 217.594 30.9045 220.085C32.0483 222.575 33.2135 224.927 34.5497 227.183C34.5497 227.183 34.2077 226.477 33.7159 225.301C33.2456 224.125 32.679 222.479 32.1552 220.587C31.2145 216.835 30.7762 211.971 32.0911 208.914C32.2621 209.993 32.4438 211.052 32.6469 212.099C32.8607 213.136 33.1387 214.152 33.4059 215.146C33.9083 217.145 34.5925 219.058 35.2767 220.908C35.9608 222.757 36.7946 224.542 37.5857 226.263C38.4195 227.974 39.2854 229.631 40.2154 231.256Z" fill="#00A069"/>
<path d="M40.2902 297.458C39.8305 297.619 39.3495 297.383 39.1998 296.924C38.5905 294.935 38.1415 292.926 37.7674 290.905C37.3825 288.885 37.0939 286.864 36.8374 284.833C36.3349 280.771 36.0249 276.698 35.8646 272.625C35.5546 264.48 35.8111 256.302 36.7305 248.21C37.6926 240.128 39.2747 232.068 42.0968 224.414C43.5293 220.598 45.2824 216.888 47.5059 213.478C49.7294 210.068 52.4554 206.957 55.7372 204.552C52.4981 207.021 49.847 210.164 47.6876 213.596C45.5283 217.027 43.8606 220.747 42.503 224.564C39.8305 232.218 38.4088 240.256 37.5963 248.306C36.8374 256.366 36.7198 264.49 37.1687 272.572C37.4039 276.613 37.7781 280.643 38.3446 284.641C38.644 286.64 38.954 288.628 39.3709 290.595C39.7664 292.562 40.2475 294.518 40.8568 296.4C41.0064 296.827 40.7499 297.298 40.2902 297.458Z" fill="#007E57"/>
<g opacity="0.6">
<path d="M432.365 334.916C371.999 334.841 395.677 322.633 432.772 322.633C473.008 322.633 502.181 335.001 432.365 334.916Z" fill="#CDD0D1"/>
</g>
<path d="M435.412 293.792C435.412 293.792 417.164 293.802 416.972 296.988V297.266C416.972 297.266 417.207 303.733 417.581 305.775C417.838 307.207 419.548 307.56 419.548 307.56C419.548 307.56 423.664 326.054 424.166 327.08C425.032 328.854 428.453 329.998 435.422 329.998C442.392 329.998 445.813 328.854 446.679 327.08C447.181 326.054 451.297 307.56 451.297 307.56C451.297 307.56 452.997 307.207 453.264 305.775C453.638 303.733 453.873 297.266 453.873 297.266V296.988C453.66 293.802 435.412 293.792 435.412 293.792Z" fill="#E9581C"/>
<path opacity="0.4" d="M435.412 293.792C435.412 293.792 417.164 293.802 416.972 296.988V297.266C416.972 297.266 417.207 303.733 417.581 305.775C417.838 307.207 419.548 307.56 419.548 307.56C419.548 307.56 419.976 309.474 420.574 312.103C421.355 310.318 430.922 309.591 435.422 309.591C439.923 309.591 449.49 310.318 450.271 312.103C450.869 309.474 451.297 307.56 451.297 307.56C451.297 307.56 452.997 307.207 453.264 305.775C453.638 303.733 453.873 297.266 453.873 297.266V296.988C453.66 293.802 435.412 293.792 435.412 293.792Z" fill="#E9581C"/>
<path d="M435.412 293.792C435.412 293.792 417.164 293.802 416.972 296.988V297.266C416.972 297.266 417.207 303.733 417.581 305.775C417.838 307.207 419.548 307.56 419.548 307.56C419.548 307.56 424.123 308.811 435.422 308.811C446.722 308.811 451.297 307.56 451.297 307.56C451.297 307.56 452.997 307.207 453.264 305.775C453.638 303.733 453.873 297.266 453.873 297.266V296.988C453.66 293.802 435.412 293.792 435.412 293.792Z" fill="#ED701B"/>
<path d="M453.766 296.656C452.398 293.781 435.412 293.792 435.412 293.792C435.412 293.792 418.425 293.781 417.057 296.656C417.004 296.763 417.143 298.933 435.412 298.805C453.681 298.933 453.809 296.763 453.766 296.656Z" fill="#F2921A"/>
<path d="M452.665 296.453C452.249 294.272 435.412 294.037 435.412 294.037C435.412 294.037 418.575 294.272 418.158 296.453C418.137 296.56 418.565 298.26 435.412 298.142C452.259 298.26 452.687 296.56 452.665 296.453Z" fill="#E9581C"/>
<path opacity="0.4" d="M452.665 296.453C452.249 294.272 435.412 294.037 435.412 294.037C435.412 294.037 418.575 294.272 418.158 296.453C418.137 296.56 418.565 298.26 435.412 298.142C452.259 298.26 452.687 296.56 452.665 296.453Z" fill="#E9581C"/>
<path opacity="0.4" d="M420.286 297.351C422.445 297.79 426.764 298.206 435.412 298.142C443.739 298.206 448.047 297.811 450.282 297.394C451.147 297.234 446.722 296.09 435.412 296.09C424.102 296.09 419.559 297.202 420.286 297.351Z" fill="#5B2816"/>
<path d="M454.333 258.386L438.704 263.101C438.704 263.101 442.606 261.828 446.743 260C450.891 258.172 455.274 255.757 456.247 253.426L446.016 257.371C449.426 255.094 452.858 252.817 456.268 250.497C449.95 252.689 443.632 254.816 437.325 256.964C436.716 261.561 436.096 266.169 435.551 270.776C441.345 267.751 447.171 264.854 452.997 261.935L444.156 263.892L454.333 258.386Z" fill="#007E57"/>
<path d="M435.433 271.824L435.059 275.138C435.059 275.138 439.078 273.588 443.44 271.439C447.812 269.28 452.537 266.5 453.927 263.731C447.759 266.393 441.591 269.034 435.433 271.824Z" fill="#007E57"/>
<path d="M437.849 253.052L437.39 256.483C437.39 256.483 443.002 254.73 448.924 252.175C451.885 250.903 454.932 249.417 457.391 247.856C459.839 246.274 461.72 244.639 462.34 243.035L458.577 243.922L462.329 240.448C454.205 244.842 446.027 248.957 437.849 253.052Z" fill="#007E57"/>
<path d="M462.361 228.86C459.421 230.154 456.471 231.405 453.531 232.634C456.375 230.378 459.229 228.091 462.04 225.707L461.784 225.75L463.28 224.157C460.619 225.386 457.946 226.584 455.284 227.749C459.026 224.478 462.757 221.11 466.391 217.497C457.807 223.676 449.041 229.042 440.222 234.152L439.752 238.214C441.687 237.124 443.622 236.012 445.535 234.89L445.557 234.954C445.557 234.954 444.21 236.001 442.788 237.07C441.366 238.129 439.869 239.208 439.613 239.315L439.335 241.571L444.808 238.439L447.887 236.707C447.887 236.707 446.519 237.819 444.744 239.08C442.98 240.341 440.81 241.763 439.217 242.415L438.939 244.639C440.415 243.687 442.446 242.683 444.113 241.924C444.947 241.549 445.685 241.229 446.219 241.004C446.754 240.79 447.085 240.673 447.085 240.694C444.359 242.18 441.612 243.634 438.875 245.088L438.555 247.546L446.604 243.987C446.604 243.987 445.428 244.981 443.803 246.167C442.178 247.343 440.094 248.712 438.298 249.492L438.042 251.438C438.042 251.438 439.859 250.786 442.606 249.631C445.353 248.476 449.052 246.852 452.804 244.863C460.309 240.919 468.091 235.456 469.096 230.175C464.948 232.1 460.822 233.96 456.663 235.734C458.705 234.483 460.747 233.222 462.778 231.918C464.809 230.614 466.851 229.309 468.861 227.93C465.354 229.309 461.816 230.603 458.288 231.875L462.361 228.86Z" fill="#007E57"/>
<path d="M440.97 227.107L440.393 232.677C450.431 227.172 457.379 220.854 461.698 215.68C462.799 214.408 463.697 213.178 464.467 212.088C465.236 210.987 465.878 210.036 466.348 209.223C467.3 207.577 467.738 206.625 467.738 206.625C465.942 208.122 464.167 209.597 462.318 210.966L463.291 209.458C463.291 209.458 463.056 209.683 462.617 210.078C462.179 210.474 461.559 211.04 460.789 211.746C460.02 212.43 459.1 213.243 458.085 214.141C457.059 215.017 455.926 215.958 454.739 216.92C452.387 218.865 449.757 220.854 447.342 222.65C444.904 224.435 442.649 226.006 440.97 227.107Z" fill="#007E57"/>
<path d="M442.082 210.933C442.381 210.367 443.301 209.127 444.38 207.416C444.926 206.561 445.546 205.588 446.144 204.53C446.732 203.461 447.341 202.307 447.908 201.077C449.009 198.619 449.939 195.882 450.271 193.156C450.602 190.43 450.345 187.715 449.212 185.534C447.876 193.423 445.129 199.955 442.168 206.294C442.168 207.844 442.146 209.383 442.082 210.933Z" fill="#007E57"/>
<path d="M442.382 204.349C442.799 201.195 443.868 195.316 443.451 189.618C443.408 188.912 443.29 188.207 443.194 187.512C443.077 186.817 443.002 186.144 442.82 185.481C442.638 184.829 442.457 184.187 442.253 183.578C442.157 183.279 442.05 182.979 441.943 182.691C441.815 182.402 441.676 182.135 441.537 181.868C440.511 179.719 438.929 178.329 437.475 178.126C439.699 182.071 440.789 186.518 441.462 190.943C442.115 195.38 442.36 199.87 442.382 204.349Z" fill="#007E57"/>
<path d="M442.029 212.388C442.007 213.253 441.954 214.109 441.9 214.975C441.9 214.975 442.136 214.718 442.552 214.258C442.969 213.799 443.557 213.125 444.241 212.291C444.936 211.458 445.738 210.453 446.604 209.33C447.448 208.197 448.336 206.936 449.223 205.599C450.976 202.916 452.644 199.87 453.745 196.887C454.825 193.915 455.348 191.008 454.931 188.891C453.328 193.563 451.222 197.603 449.052 201.473C447.94 203.387 446.818 205.257 445.631 207.064C444.466 208.871 443.237 210.645 442.029 212.388Z" fill="#007E57"/>
<path d="M441.836 216.033C441.762 217.487 441.655 218.941 441.537 220.384C443.098 218.983 444.658 217.562 446.187 216.108L446.209 216.15C446.209 216.15 445.663 216.899 444.808 217.893C443.942 218.887 442.745 220.127 441.484 221.132C441.43 221.87 441.377 222.607 441.302 223.345C442.093 222.735 442.905 222.148 443.515 221.699C444.135 221.26 444.552 220.961 444.552 220.961L445.653 220.245C445.653 220.245 444.316 222.842 441.184 224.606L441.024 226.402C442.659 225.162 444.926 223.591 447.032 222.03C449.138 220.469 451.147 218.941 452.312 217.861C453.456 216.781 455.648 214.397 457.454 212.142C458.363 211.019 459.207 209.961 459.806 209.17C460.394 208.368 460.768 207.855 460.768 207.855L462.457 205.076L460.501 206.989C456.578 210.977 452.473 214.558 448.357 218C448.357 218 449.031 217.326 450.068 216.204C451.105 215.092 452.505 213.531 453.895 211.725C454.589 210.827 455.327 209.886 455.99 208.892C456.653 207.909 457.283 206.893 457.85 205.899C458.983 203.921 459.763 201.922 460.02 200.383C456.375 205.183 452.505 209.459 448.56 213.499C448.56 213.499 449.116 212.837 449.961 211.736C450.805 210.634 451.949 209.084 453.061 207.256C453.617 206.348 454.205 205.396 454.718 204.381C455.231 203.376 455.723 202.328 456.15 201.291C456.588 200.265 456.909 199.196 457.166 198.191C457.412 197.176 457.593 196.235 457.604 195.337C457.027 196.342 456.407 197.293 455.797 198.255C455.177 199.207 454.6 200.158 453.948 201.056C452.655 202.863 451.415 204.637 450.057 206.326C448.731 208.026 447.395 209.683 446.005 211.287C444.648 212.911 443.247 214.483 441.836 216.033Z" fill="#007E57"/>
<path d="M420.553 253.897L434.407 262.545C434.407 262.545 430.965 260.311 427.448 257.446C423.931 254.581 420.328 251.096 419.986 248.637L428.827 255.094C426.122 252.005 423.429 248.915 420.713 245.869C426.261 249.535 431.788 253.266 437.325 256.976C436.716 261.572 436.096 266.18 435.551 270.787C430.623 266.49 425.748 262.085 420.884 257.702L428.912 261.925L420.553 253.897Z" fill="#00A069"/>
<path d="M435.433 271.824L435.059 275.138C435.059 275.138 431.456 272.786 427.726 269.568C423.995 266.361 420.136 262.31 419.516 259.22C424.807 263.453 430.099 267.708 435.433 271.824Z" fill="#00A069"/>
<path d="M437.849 253.052L437.389 256.483C437.389 256.483 432.44 253.308 427.373 249.332C424.839 247.343 422.274 245.173 420.296 243.089C418.297 241.015 416.897 239.037 416.662 237.445L420.104 239.155L417.271 235.104C424.198 240.897 431.029 246.969 437.849 253.052Z" fill="#00A069"/>
<path d="M419.633 224.756C422.284 226.423 424.914 228.123 427.555 229.855C425.214 227.204 422.872 224.595 420.478 222.072L420.724 222.158L419.516 220.544C421.942 222.019 424.358 223.526 426.785 225.066C423.674 221.442 420.531 217.903 417.292 214.611C425.16 220.522 432.761 227.225 440.233 234.152L439.763 238.214C438.148 236.696 436.523 235.178 434.888 233.682L434.845 233.735C434.845 233.735 435.936 235.039 437.069 236.386C438.202 237.733 439.388 239.144 439.624 239.305L439.346 241.56L434.77 237.231L432.173 234.868C432.173 234.868 433.252 236.226 434.674 237.851C436.096 239.476 437.86 241.368 439.228 242.394L438.95 244.617C437.753 243.324 436.032 241.849 434.61 240.726C433.894 240.16 433.252 239.679 432.782 239.347C432.312 239.016 432.023 238.824 432.012 238.845C434.321 240.908 436.598 242.982 438.897 245.077L438.576 247.536L431.681 242.095C431.681 242.095 432.579 243.324 433.851 244.874C435.123 246.413 436.78 248.263 438.319 249.481L438.063 251.427C438.063 251.427 436.491 250.315 434.129 248.509C431.766 246.702 428.624 244.179 425.47 241.4C419.163 235.809 412.813 229.256 412.76 224.681C416.458 227.075 420.168 229.523 423.835 232.057C422.113 230.475 420.382 228.903 418.629 227.375C416.886 225.835 415.144 224.317 413.369 222.842C416.619 224.574 419.815 226.38 423.033 228.208L419.633 224.756Z" fill="#00A069"/>
<path d="M440.971 227.107L440.394 232.677C431.81 225.098 425.973 218.278 422.146 213.585C421.216 212.398 420.371 211.361 419.677 210.442C418.971 209.533 418.426 208.731 417.966 208.111C417.047 206.871 416.63 206.187 416.63 206.187C418.383 207.299 420.168 208.432 421.889 209.672L421.013 208.411C421.013 208.411 421.248 208.592 421.643 208.935C422.05 209.277 422.638 209.779 423.365 210.388C424.091 211.019 424.947 211.757 425.898 212.591C426.828 213.446 427.854 214.386 428.923 215.37C431.083 217.348 433.338 219.582 435.476 221.656C437.571 223.762 439.517 225.696 440.971 227.107Z" fill="#00A069"/>
<path d="M442.082 210.933C441.815 210.346 441.024 209.041 439.955 207.352C439.442 206.508 438.854 205.567 438.234 204.562C437.603 203.568 436.962 202.51 436.352 201.419C435.732 200.34 435.091 199.249 434.546 198.159C434.011 197.058 433.445 196.021 433.049 194.973C432.205 192.91 431.756 191.007 432.023 189.286C432.504 189.853 433.006 190.43 433.498 191.029L434.877 192.953C435.112 193.284 435.347 193.605 435.572 193.947L436.224 194.984L437.528 197.111C438.33 198.576 439.174 200.062 439.933 201.601C440.682 203.141 441.473 204.701 442.168 206.283C442.168 207.844 442.146 209.383 442.082 210.933Z" fill="#00A069"/>
<path d="M441.996 204.349C441.548 201.184 440.158 195.465 438.822 190.377C438.661 189.735 438.458 189.126 438.308 188.506C438.137 187.897 438.02 187.277 437.849 186.71C437.678 186.133 437.539 185.577 437.411 185.021C437.346 184.743 437.293 184.476 437.25 184.209C437.186 183.952 437.122 183.696 437.068 183.45C436.705 181.419 436.502 179.772 437.143 178.308C439.335 182.188 440.414 186.593 441.088 190.986C441.74 195.412 441.986 199.88 441.996 204.349Z" fill="#00A069"/>
<path d="M442.029 212.387C442.007 213.253 441.954 214.109 441.9 214.974C441.9 214.974 441.099 213.863 439.827 212.11C438.597 210.388 436.93 208.047 435.155 205.557C434.3 204.327 433.381 203.087 432.557 201.869C431.734 200.639 430.879 199.495 430.195 198.384C428.762 196.203 427.747 194.364 427.619 193.017C430.345 195.423 432.835 198.544 435.251 201.837C436.438 203.493 437.624 205.215 438.725 206.978C439.869 208.742 440.938 210.549 442.029 212.387Z" fill="#00A069"/>
<path d="M441.836 216.033C441.762 217.486 441.655 218.94 441.537 220.383C440.211 218.769 438.875 217.166 437.496 215.605L437.475 215.637C437.475 215.637 437.935 216.407 438.672 217.486C439.399 218.566 440.383 219.934 441.484 221.132C441.43 221.869 441.377 222.607 441.302 223.345C440.639 222.618 439.934 221.901 439.388 221.378C438.843 220.854 438.48 220.501 438.48 220.501L437.496 219.646C437.496 219.646 438.458 222.318 441.195 224.617L441.035 226.413C439.634 224.884 437.721 222.96 435.871 221.153C434.011 219.346 432.269 217.647 431.232 216.535C430.184 215.423 428.356 213.007 426.667 210.987C425.833 209.971 425.075 209.031 424.508 208.368C423.931 207.705 423.567 207.288 423.567 207.288L421.942 205.097L423.856 206.615C427.747 209.822 431.456 213.414 435.144 217.144C435.144 217.144 434.567 216.417 433.648 215.274C432.761 214.13 431.553 212.569 430.238 210.88C429.618 210.046 428.966 209.17 428.324 208.304C427.683 207.449 427.074 206.604 426.528 205.781C425.449 204.135 424.529 202.713 424.251 201.548C428.121 204.904 431.841 208.796 435.444 212.911C435.444 212.911 434.941 212.238 434.172 211.169C433.413 210.089 432.386 208.603 431.296 207.01C430.751 206.209 430.216 205.364 429.682 204.53C429.137 203.707 428.613 202.873 428.153 202.061C427.704 201.238 427.255 200.489 426.924 199.763C426.582 199.046 426.357 198.341 426.208 197.731C426.924 198.341 427.597 199.025 428.292 199.688C428.976 200.361 429.703 201.035 430.355 201.762C431.681 203.205 433.06 204.68 434.332 206.251C435.636 207.801 436.919 209.405 438.159 211.04C439.399 212.655 440.628 214.333 441.836 216.033Z" fill="#00A069"/>
<path d="M435.059 297.458C434.599 297.629 434.108 297.276 433.947 296.688C433.873 296.368 433.755 296.047 433.723 295.726L433.584 294.764L433.456 293.802L433.402 292.851C433.295 291.579 433.306 290.317 433.306 289.056C433.327 287.794 433.37 286.544 433.434 285.293C433.53 284.042 433.584 282.791 433.701 281.551C434.129 276.57 434.749 271.62 435.401 266.682C436.727 256.804 438.213 246.959 439.442 237.092C440.671 227.225 441.719 217.316 441.943 207.374C442.05 202.403 441.954 197.422 441.366 192.483C440.757 187.565 439.699 182.616 437.293 178.233C439.763 182.584 440.896 187.533 441.58 192.461C442.243 197.4 442.403 202.403 442.371 207.385C442.285 217.358 441.377 227.3 440.297 237.199C439.207 247.098 437.86 256.975 436.684 266.853C436.107 271.791 435.562 276.73 435.209 281.68C435.102 282.92 435.07 284.149 434.995 285.389C434.952 286.618 434.92 287.858 434.92 289.088C434.941 290.317 434.952 291.546 435.07 292.754L435.134 293.663L435.273 294.55L435.412 295.438C435.444 295.737 435.551 296.004 435.626 296.282C435.786 296.752 435.519 297.298 435.059 297.458Z" fill="#007E57"/>
<path d="M222.832 329.988C336.305 329.988 428.293 322.847 428.293 314.038C428.293 305.23 336.305 298.089 222.832 298.089C109.359 298.089 17.3716 305.23 17.3716 314.038C17.3716 322.847 109.359 329.988 222.832 329.988Z" fill="#898B8E"/>
<path d="M76.647 126.088L76.6577 289.334C76.6577 303.712 88.3097 315.364 102.688 315.364H196.107V126.088H76.647Z" fill="#BAA68B"/>
<path d="M119.535 126.088V281.455C119.535 297.03 109.016 310.126 94.7021 314.091C97.225 314.904 99.9081 315.353 102.698 315.353H196.118V126.088H119.535Z" fill="#BAA68B"/>
<path d="M183.065 163.535H162.305V142.775H183.065V163.535Z" fill="#67481E"/>
<path d="M171.338 157.527L166.902 152.823L168.014 151.776L171.37 155.335L177.367 149.338L178.447 150.418L171.338 157.527Z" fill="#D1B78C"/>
<path d="M154.063 142.7H89.6992V151.156H154.063V142.7Z" fill="#67481E"/>
<path d="M154.063 156.8H89.6992V163.534H154.063V156.8Z" fill="#D1B78C"/>
<path d="M183.065 200.971H162.305V180.211H183.065V200.971Z" fill="#67481E"/>
<path d="M171.338 194.974L166.902 190.259L168.014 189.212L171.37 192.772L177.367 186.785L178.447 187.865L171.338 194.974Z" fill="#D1B78C"/>
<path d="M154.063 180.147H89.6992V188.602H154.063V180.147Z" fill="#67481E"/>
<path d="M154.063 194.247H89.6992V200.982H154.063V194.247Z" fill="#D1B78C"/>
<path d="M183.065 238.418H162.305V217.658H183.065V238.418Z" fill="#67481E"/>
<path d="M171.338 232.41L166.902 227.706L168.014 226.658L171.37 230.218L177.367 224.221L178.447 225.301L171.338 232.41Z" fill="#D1B78C"/>
<path d="M154.063 217.583H89.6992V226.039H154.063V217.583Z" fill="#67481E"/>
<path d="M154.063 231.683H89.6992V238.418H154.063V231.683Z" fill="#D1B78C"/>
<path d="M183.065 275.854H162.305V255.094H183.065V275.854Z" fill="#67481E"/>
<path d="M171.338 269.856L166.902 265.142L168.014 264.095L171.37 267.654L177.367 261.668L178.447 262.748L171.338 269.856Z" fill="#D1B78C"/>
<path d="M154.063 255.029H89.6992V263.485H154.063V255.029Z" fill="#67481E"/>
<path d="M154.063 269.129H89.6992V275.864H154.063V269.129Z" fill="#D1B78C"/>
<path d="M255.917 0.0534668L172.386 0.117604C152.556 0.117604 136.478 16.1953 136.478 36.0251V281.455C136.478 300.173 121.299 315.353 102.581 315.353H255.928V0.0534668H255.917Z" fill="#DFD6BF"/>
<path d="M174.214 0.117604C187.266 9.86682 195.829 25.6452 195.925 43.5294L196.107 75.5458V315.364H255.917V0.0534668L174.214 0.117604Z" fill="#C8B9A4"/>
<path d="M340.261 83.0073L340.079 51.9958C339.908 23.2827 316.625 0.0641396 287.901 0L175.828 0.128282C175.828 0.128282 220.801 -0.267248 220.801 55.5556V111.378L220.822 315.353H340.261V83.0073Z" fill="#F7F4E7"/>
<path d="M330.65 88.6517H309.891V67.8918H330.65V88.6517Z" fill="#67481E"/>
<path d="M318.924 82.6438L314.498 77.9403L315.61 76.8926L318.956 80.4524L324.953 74.4553L326.032 75.535L318.924 82.6438Z" fill="white"/>
<path d="M301.659 67.8169H237.295V76.2726H301.659V67.8169Z" fill="#67481E"/>
<path d="M301.659 81.9167H237.295V88.6514H301.659V81.9167Z" fill="#D1B78C"/>
<path d="M330.65 126.088H309.891V105.328H330.65V126.088Z" fill="#67481E"/>
<path d="M318.924 120.08L314.498 115.376L315.61 114.329L318.956 117.888L324.953 111.902L326.032 112.982L318.924 120.08Z" fill="white"/>
<path d="M301.659 105.264H237.295V113.719H301.659V105.264Z" fill="#67481E"/>
<path d="M301.659 119.364H237.295V126.098H301.659V119.364Z" fill="#D1B78C"/>
<path d="M330.65 163.535H309.891V142.775H330.65V163.535Z" fill="#67481E"/>
<path d="M318.924 157.527L314.498 152.823L315.61 151.776L318.956 155.335L324.953 149.338L326.032 150.418L318.924 157.527Z" fill="white"/>
<path d="M301.659 142.7H237.295V151.156H301.659V142.7Z" fill="#67481E"/>
<path d="M301.659 156.8H237.295V163.534H301.659V156.8Z" fill="#D1B78C"/>
<path d="M330.65 200.971H309.891V180.211H330.65V200.971Z" fill="#67481E"/>
<path d="M318.924 194.974L314.498 190.259L315.61 189.212L318.956 192.772L324.953 186.785L326.032 187.865L318.924 194.974Z" fill="white"/>
<path d="M301.659 180.147H237.295V188.602H301.659V180.147Z" fill="#67481E"/>
<path d="M301.659 194.247H237.295V200.982H301.659V194.247Z" fill="#D1B78C"/>
<path d="M330.65 238.418H309.891V217.658H330.65V238.418Z" fill="#67481E"/>
<path d="M318.924 232.41L314.498 227.706L315.61 226.658L318.956 230.218L324.953 224.221L326.032 225.301L318.924 232.41Z" fill="white"/>
<path d="M301.659 217.583H237.295V226.039H301.659V217.583Z" fill="#67481E"/>
<path d="M301.659 231.683H237.295V238.418H301.659V231.683Z" fill="#D1B78C"/>
<path d="M330.65 275.854H309.891V255.094H330.65V275.854Z" fill="#67481E"/>
<path d="M318.924 269.856L314.498 265.142L315.61 264.095L318.956 267.654L324.953 261.668L326.032 262.748L318.924 269.856Z" fill="white"/>
<path d="M301.659 255.029H237.295V263.485H301.659V255.029Z" fill="#67481E"/>
<path d="M301.659 269.129H237.295V275.864H301.659V269.129Z" fill="#D1B78C"/>
<path d="M317.684 342.954C314.894 346.054 329.272 357.92 400.06 353.815C430.901 352.03 429.351 347.016 422.21 342.965C415.507 339.159 397.591 333.269 371.935 333.911C347.316 334.52 323.146 336.882 317.684 342.954Z" fill="#CDD0D1"/>
<path d="M354.724 347.219V347.904C354.724 348.149 354.842 348.385 355.045 348.524C355.825 349.058 358.273 350.17 364.655 349.646C373.175 348.94 377.258 346.824 378.958 345.937C379.215 345.808 379.364 345.552 379.364 345.263V343.852C379.364 343.852 355.579 346.193 354.724 347.219Z" fill="#262226"/>
<path d="M354.724 347.219V347.904C354.724 348.149 354.842 348.385 355.045 348.524C355.825 349.058 358.273 350.17 364.655 349.646C373.175 348.94 377.258 346.824 378.958 345.937C379.215 345.808 379.364 345.552 379.364 345.263V343.852C379.364 343.852 355.579 346.193 354.724 347.219Z" fill="#262226"/>
<path d="M354.724 347.22C352.437 344.825 368.514 334.402 369.754 334.402L378.627 334.958C379.611 335.546 380.22 339.181 379.921 343.692C379.493 346.696 358.733 351.421 354.724 347.22Z" fill="#262226"/>
<path opacity="0.3" d="M367.199 344.365C364.869 342.73 364.335 339.854 360.999 339.854C357.076 342.772 353.57 346.011 354.724 347.219C357.215 349.838 366.205 348.994 372.737 347.251C373.784 344.365 368.685 345.413 367.199 344.365Z" fill="#262226"/>
<path d="M410.312 347.219V347.904C410.312 348.149 410.194 348.385 409.991 348.524C409.211 349.058 406.763 350.17 400.381 349.646C391.861 348.94 387.777 346.824 386.078 345.937C385.821 345.808 385.671 345.552 385.671 345.263V343.852C385.671 343.852 409.457 346.193 410.312 347.219Z" fill="#262226"/>
<path d="M410.312 347.219V347.904C410.312 348.149 410.194 348.385 409.991 348.524C409.211 349.058 406.763 350.17 400.381 349.646C391.861 348.94 387.777 346.824 386.078 345.937C385.821 345.808 385.671 345.552 385.671 345.263V343.852C385.671 343.852 409.457 346.193 410.312 347.219Z" fill="#262226"/>
<path d="M410.311 347.22C412.599 344.825 396.521 334.402 395.281 334.402L386.409 334.958C385.425 335.546 384.816 339.181 385.115 343.692C385.543 346.696 406.303 351.421 410.311 347.22Z" fill="#262226"/>
<path opacity="0.3" d="M397.836 344.365C400.167 342.73 400.701 339.854 404.036 339.854C407.96 342.772 411.466 346.011 410.311 347.219C407.821 349.838 398.83 348.994 392.299 347.251C391.251 344.365 396.35 345.413 397.836 344.365Z" fill="#262226"/>
<path d="M397.238 227.161H365.232C365.232 227.161 362.987 239.893 363.084 249.407C363.18 258.921 365.564 331.987 365.564 331.987C365.564 331.987 364.569 336.883 370.385 337.716C379.108 338.967 380.497 335.92 380.497 335.92C380.497 335.92 379.824 282.824 380.84 260.567C381.866 282.824 384.528 335.92 384.528 335.92C384.528 335.92 385.907 338.967 394.64 337.716C400.456 336.883 399.461 331.987 399.461 331.987C399.461 331.987 399.665 259.648 399.665 251.502C399.665 243.356 397.238 227.161 397.238 227.161Z" fill="#312E39"/>
<path d="M391.765 178.532L387.553 177.549L387.307 177.944C384.421 182.498 377.772 182.498 374.885 177.944L374.64 177.549L370.428 178.532L358.241 182.274L363.757 211.992L364.698 226.37C364.773 228.069 366.173 229.406 367.873 229.406H381.107H394.341C396.041 229.406 397.441 228.069 397.516 226.37L398.457 211.992L403.973 182.274L391.765 178.532Z" fill="#D90041"/>
<path d="M387.553 170.023H374.64V178.468L375.794 181.248C377.75 185.984 384.453 185.984 386.409 181.248L387.564 178.468V170.023H387.553Z" fill="#F4A48B"/>
<path d="M371.325 165.502H371.689V160.873C371.689 160.349 371.261 159.921 370.738 159.921C370.214 159.921 369.786 160.349 369.786 160.873V163.962C369.786 164.807 370.481 165.502 371.325 165.502Z" fill="#F4A48B"/>
<path d="M382.069 150.151H380.123H375.879C373.57 150.151 371.689 152.021 371.689 154.341V164.272C371.689 167.329 372.576 170.333 374.233 172.899L375.687 175.154C376.66 176.651 378.317 177.56 380.102 177.56H380.123H382.069H382.09C383.875 177.56 385.543 176.651 386.505 175.154L387.959 172.899C389.616 170.323 390.503 167.329 390.503 164.272V154.811C390.503 152.246 388.419 150.161 385.853 150.161H382.069V150.151Z" fill="#F5BEAD"/>
<path d="M390.856 165.502H390.493V160.873C390.493 160.349 390.92 159.921 391.444 159.921C391.968 159.921 392.395 160.349 392.395 160.873V163.962C392.395 164.807 391.711 165.502 390.856 165.502Z" fill="#F4A48B"/>
<path d="M374.532 148.601C373.132 148.13 371.678 149.167 371.678 150.643V160.67C371.678 160.67 372.181 157.591 373.806 156.49C376.446 154.705 375.195 151.049 375.195 151.049C375.195 151.049 377.216 154.705 384.474 153.978C390.065 153.411 390.482 158.756 390.482 158.756L390.599 155.132C390.696 152.225 390.92 150.418 386.302 148.195C381.705 145.971 377.258 147.008 374.532 148.601Z" fill="#251D27"/>
<path d="M331.089 215.905L350.202 221.111C353.794 221.977 357.482 220.052 358.829 216.61L363.03 208.112L358.231 182.263C358.231 182.263 353.399 207.278 350.138 209.694C341.512 209.694 331.26 208.849 331.26 208.849L331.089 215.905Z" fill="#CA003C"/>
<path d="M400.756 233.297C399.43 235.221 403.503 240.128 403.503 240.128C403.503 240.128 415.689 228.412 423.579 213.82C424.648 211.853 423.803 209.234 422.477 207.428L403.952 182.263L400.798 199.26L413.081 212.27C413.081 212.27 405.876 225.868 400.756 233.297Z" fill="#CA003C"/>
<path d="M328.844 315.321L337.62 351.336C337.663 351.592 338.026 351.592 338.091 351.346L348.503 315.685L328.844 315.321Z" fill="#F8CCC7"/>
<path d="M335.397 315.46L337.62 351.335C337.663 351.592 338.027 351.592 338.091 351.346L341.95 315.578L335.397 315.46Z" fill="#FADBD6"/>
<path d="M335.91 344.312L337.62 351.346C337.663 351.603 338.026 351.603 338.09 351.357L340.122 344.419L335.91 344.312Z" fill="#3C3C3B"/>
<path d="M345.67 150.621L348.952 150.685C350.758 150.717 352.201 152.214 352.169 154.021L348.513 315.706L345.125 321.788L341.96 315.588L345.67 150.621Z" fill="#FEEE5D"/>
<path d="M339.117 150.504L345.67 150.621L341.95 315.578L338.561 321.66L335.397 315.46L339.117 150.504Z" fill="#4B474B"/>
<path d="M335.835 150.439L339.117 150.504L335.397 315.46L332.008 321.543L328.844 315.342L332.5 153.657C332.532 151.84 334.028 150.407 335.835 150.439Z" fill="#FEEE5D"/>
<path d="M400.295 240.727C400.284 240.716 400.274 240.716 400.274 240.705C399.547 240.128 398.574 239.946 397.687 240.203C396.511 240.545 394.918 241.026 394.138 241.25C393.699 241.379 393.208 241.357 392.801 241.143C391.904 240.652 392.139 239.679 392.812 239.476L398.36 237.83L398.328 237.755C398.189 237.381 397.783 237.188 397.398 237.295L391.989 238.899C391.551 239.027 391.059 239.005 390.653 238.792C389.755 238.3 389.99 237.327 390.663 237.124L397.045 235.232L396.917 234.9C396.778 234.526 396.372 234.334 395.987 234.441L390.663 236.012C390.225 236.141 389.733 236.119 389.327 235.905C388.429 235.414 388.664 234.441 389.338 234.238L395.463 232.431C395.324 232.057 394.918 231.865 394.533 231.971L390.813 233.073C390.375 233.201 389.883 233.179 389.477 232.966C388.579 232.474 388.814 231.501 389.488 231.298L394.074 229.94C394.779 229.727 395.538 229.844 396.158 230.25L401.065 233.489C401.984 234.099 402.668 235.007 402.978 236.076L403.684 238.492C404.015 239.604 403.374 240.769 402.262 241.101C401.589 241.304 400.851 241.165 400.295 240.727Z" fill="#F5BEAD"/>
<path d="M332.222 213.991C332.233 213.98 332.233 213.97 332.243 213.97C332.767 213.2 333.633 212.74 334.574 212.73C335.792 212.708 337.46 212.687 338.272 212.676C338.732 212.665 339.192 212.505 339.512 212.174C340.229 211.436 339.716 210.57 339.01 210.581L333.227 210.656V210.581C333.248 210.185 333.58 209.875 333.975 209.875L339.619 209.801C340.079 209.79 340.539 209.63 340.859 209.298C341.576 208.561 341.062 207.695 340.357 207.705L333.708 207.791L333.729 207.438C333.751 207.043 334.082 206.733 334.477 206.733L340.026 206.658C340.485 206.647 340.945 206.487 341.266 206.155C341.982 205.418 341.469 204.552 340.763 204.562L334.381 204.648C334.403 204.252 334.734 203.942 335.13 203.942L339.01 203.889C339.47 203.878 339.929 203.718 340.25 203.387C340.966 202.649 340.453 201.783 339.748 201.794L334.969 201.858C334.232 201.869 333.537 202.2 333.077 202.767L329.357 207.31C328.662 208.165 328.277 209.234 328.299 210.346L328.341 212.869C328.363 214.023 329.314 214.953 330.469 214.932C331.164 214.932 331.826 214.568 332.222 213.991Z" fill="#F5BEAD"/>
<path d="M260.738 349.422C251.31 359.449 245.933 350.448 211.319 354.029C175.037 357.792 164.123 354.339 163.171 347.541C162.54 343.04 170.408 339.331 189.49 339.769C202.232 340.058 219.304 340.614 231.148 339.855C260.674 337.984 265.057 344.836 260.738 349.422Z" fill="#CDD0D1"/>
<path d="M217.412 335.984C217.412 335.984 217.893 339.865 218.096 341.949C218.203 342.954 218.075 346.46 218.278 348.117C218.481 349.774 220.469 350.587 222.682 350.319C224.895 350.042 227.835 348.214 230.946 347.882C235.189 347.422 239.102 346.15 239.818 344.75C242.031 340.399 229.866 340.805 227.247 339.694C224.639 338.582 224.04 335.161 224.04 335.161C224.04 335.161 218.727 335.215 217.412 335.984Z" fill="#F5BEAD"/>
<path d="M184.786 333.697C184.786 333.697 184.979 337.791 184.573 340.015C184.391 341.009 183.471 344.087 183.354 345.755C183.236 347.423 184.797 348.62 186.743 348.812C188.699 348.994 190.826 347.722 193.584 347.562C196.609 347.391 200.276 345.723 201.024 344.429C202.296 342.238 201.89 340.26 198.202 339.715C196.866 339.512 194.568 340.079 192.515 338.454C190.473 336.829 190.644 334.242 190.644 334.242C190.644 334.242 186.058 333.205 184.786 333.697Z" fill="#F5BEAD"/>
<path d="M228.497 340.025C227.086 341.896 224.863 343.19 221.816 343.19C220.416 343.19 219.186 342.922 218.128 342.441C218.171 343.81 217.187 345.67 217.786 349.785C219.689 351.624 226.862 349.71 231.287 348.941C235.499 348.214 239.112 346.151 239.829 344.74C241.785 340.902 232.474 340.774 228.497 340.025Z" fill="#262226"/>
<path d="M188.453 342.484C191.126 342.484 193.071 341.212 194.311 339.362C196.684 339.662 199.646 339.202 200.597 339.341C204.285 339.886 203.996 342.323 202.051 344.451C201.067 345.53 197.379 347.658 194.418 348.449C191.211 349.304 185.364 349.999 183.343 348.566C182.574 346.033 183.685 342.163 184.306 341.147C185.407 341.981 186.786 342.484 188.453 342.484Z" fill="#262226"/>
<path d="M185.588 232.527C185.588 232.527 184.145 237.958 184.145 250.016C184.145 255.66 184.658 279.574 185.364 292.861C185.545 296.218 183.087 326.855 182.167 336.305C182.167 336.305 188.464 338.7 193.819 336.359C193.819 336.359 198.138 309.057 199.346 288.222C199.795 280.44 200.394 265.827 201.185 264.576C201.185 264.576 207.813 294.101 208.593 297.437C208.86 298.591 215.157 337.16 215.285 338.443C215.285 338.443 222.693 339.608 225.911 336.989C225.911 336.989 225.216 307.656 223.676 295.299C223.089 290.584 222.575 270.07 221.239 246.275C220.769 237.915 218.748 231.64 218.748 231.64C218.748 231.64 190.003 232.335 185.588 232.527Z" fill="#1D3B6E"/>
<path d="M170.505 244.222C169.799 244.725 168.816 245.537 168.677 247.28C168.538 249.022 169.04 253.212 169.415 254.891C169.896 257.061 172.675 262.395 174.193 261.251C175.112 260.556 174.204 257.937 173.915 255.457C173.648 253.191 174.043 251.021 174.14 250.903C174.343 250.668 175.198 253.266 175.69 253.8C176.171 254.335 177.325 254.41 177.539 254.036C177.603 253.918 177.154 252.742 177.101 251.566C177.047 250.529 176.801 248.808 176.374 247.098C176.213 246.435 175.005 243.912 174.043 243.41C173.477 243.111 171.863 243.271 170.505 244.222Z" fill="#F5BEAD"/>
<path d="M247.419 144.239C247.419 144.239 247.921 138.809 248.562 138.253C249.193 137.708 250.401 136.457 250.626 135.858C250.882 135.153 251.395 128.076 250.914 126.932C250.305 125.478 245.783 123.64 245.452 123.522C245.238 118.915 246.467 114.617 244.393 114.307C242.736 114.061 242.769 118.305 242.491 123.169C242.277 127.071 240.834 133.346 241.09 134.415C241.251 135.078 241.838 136.542 241.935 137.184C242.031 137.825 241.058 143.801 241.058 143.801L247.419 144.239Z" fill="#F5BEAD"/>
<path d="M188.56 186.005C185.246 188.282 171.381 206.401 167.405 214.793C165.138 219.582 167.116 243.538 167.661 244.436C169.222 246.969 175.08 244.04 175.401 242.341C176.064 238.813 175.604 227.46 177.079 221.335C177.881 218 180.243 211.97 184.327 207.919C184.444 209.747 183.856 223.013 185.246 231.49C186.636 239.967 217.508 239.166 220.234 232.367C222.971 225.568 218.823 205.214 223.858 196.053C223.858 196.053 236.087 182.028 242.94 167.554C246.681 159.654 249.257 149.637 248.926 142.358C248.862 140.947 242.523 138.937 241.09 140.316C239.594 141.748 239.669 150.877 234.249 160.402C228.711 170.119 220.779 176.587 218.727 177.624C216.675 178.65 193.135 182.862 188.56 186.005Z" fill="#43B3DF"/>
<path d="M212.185 176.288C212.185 176.288 212.239 177.186 211.854 180.649C211.426 184.444 199.047 186.828 199.657 182.894C200.191 179.43 200.811 176.843 200.811 176.843L212.185 176.288Z" fill="#F5BEAD"/>
<path d="M217.316 164.753C217.316 164.753 218.417 164.144 218.749 165.138C219.08 166.132 218.257 170.055 216.408 170.911C216.408 170.911 216.547 166.025 217.316 164.753Z" fill="#F5BEAD"/>
<path d="M196.973 164.774C196.973 164.774 195.872 164.165 195.541 165.159C195.209 166.153 195.936 170.077 197.775 170.932C197.775 170.932 197.743 166.047 196.973 164.774Z" fill="#F5BEAD"/>
<path d="M215.713 153.924C219.443 159.472 217.327 172.567 213.735 176.106C211.447 178.361 208.497 180.35 205.889 180.521C203.547 180.681 201.506 179.227 200.191 177.677C197.005 173.882 195.722 160.894 198.459 155.848C202.382 148.568 210.977 146.89 215.713 153.924Z" fill="#4A2A15"/>
<path d="M17.2644 365.457C14.4743 368.557 28.8523 380.423 99.641 376.318C130.481 374.532 128.931 369.519 121.791 365.467C115.088 361.662 97.1716 355.772 71.5158 356.413C46.8862 357.022 22.7269 359.374 17.2644 365.457Z" fill="#CDD0D1"/>
<path d="M56.2184 360.731C56.2184 360.731 51.4828 364.89 51.1942 366.739C50.8414 368.984 53.7063 369.198 53.7063 369.198C53.7063 369.198 66.6411 367.776 70.3826 365.381C74.1347 362.987 69.5167 359.459 66.5342 359.459C63.5517 359.459 58.4633 358.935 56.2184 360.731Z" fill="#8ECAE5"/>
<path d="M67.304 359.535C67.304 359.535 53.5247 356.841 48.5752 359.834C43.6258 362.838 40.6326 368.076 41.8299 369.733C43.0272 371.379 53.0757 370.481 55.4702 368.985C57.8648 367.488 56.8279 361.94 56.2185 360.732C58.2389 359.962 65.2195 359.684 67.9133 360.283C70.6072 360.892 67.304 359.535 67.304 359.535Z" fill="#262226"/>
<path d="M78.721 296.955C74.5947 295.159 69.9446 294.903 65.6579 296.26C59.4043 298.238 50.9058 302.065 48.2975 306.362C45.2615 311.376 43.8398 333.675 44.5881 335.471C45.3364 337.267 61.0506 346.931 70.896 347.519C78.8172 347.989 90.2448 345.456 90.8862 343.435C91.5276 341.415 93.3983 314.401 92.2652 310.157C91.7734 308.287 86.2895 300.258 78.721 296.955Z" fill="#D90041"/>
<path d="M80.2284 279.328C80.0787 275.907 75.2255 276.613 71.8368 276.26C68.4481 276.613 63.5842 275.907 63.4452 279.328C63.2955 282.781 63.7659 292.701 64.0545 295.235C64.3432 297.736 68.1808 302.557 71.8368 302.557C75.4928 302.557 79.3411 297.747 79.6191 295.235C79.9077 292.701 80.3781 282.77 80.2284 279.328Z" fill="#F5BEAD"/>
<path d="M79.5548 273.085C77.374 271.332 75.236 270.968 71.8366 270.968C68.4372 270.968 66.342 271.385 64.1185 273.085C60.8581 275.554 62.5792 285.956 62.8785 286.939C63.1778 287.912 63.5733 287.185 63.5733 287.185C63.5733 287.185 63.5199 282.107 65.551 281.583C67.5714 281.06 69.1321 283.497 71.8473 283.497C74.5626 283.497 76.1233 281.06 78.1437 281.583C80.1641 282.107 80.1213 287.185 80.1213 287.185C80.1213 287.185 80.6238 288.307 80.9231 287.335C81.2117 286.34 83.1787 275.982 79.5548 273.085Z" fill="#66140B"/>
<path d="M63.5627 287.174C63.5627 287.174 62.9748 286.18 61.9379 286.105C60.9116 286.03 61.5744 289.269 61.8737 290.51C62.173 291.75 63.3489 292.22 63.7659 291.504L63.5627 287.174Z" fill="#F4A48B"/>
<path d="M45.112 333.141C45.112 333.141 59.8321 339.363 73.9107 338.39C82.484 337.802 95.8999 335.397 95.8999 335.397C95.8999 335.397 100.539 343.2 97.0972 346.194C93.6443 349.197 73.0128 357.888 58.6669 351.742C44.321 345.595 43.8079 334.178 45.112 333.141Z" fill="#0D4682"/>
<path d="M63.8192 356.841C63.8192 356.841 81.2331 344.847 87.5295 340.763C93.0134 337.203 103.543 328.651 108.492 335.846C113.442 343.04 106.697 349.486 101.148 353.238C96.3166 356.499 76.2089 365.639 71.2701 368.3C68.7152 368.461 63.3916 361.192 63.8192 356.841Z" fill="#1D66AF"/>
<path d="M74.3058 362.239C74.3058 362.239 80.0463 365.852 85.9044 367.285C87.2085 367.584 88.3417 367.798 89.3145 367.958C91.5166 368.322 93.0987 365.938 91.9335 364.035C90.5973 361.844 88.8013 359.438 86.8985 358.337C82.9967 356.092 75.5031 355.034 74.3058 355.943C73.1085 356.841 73.4078 359.385 74.3058 362.239Z" fill="#8ECAE5"/>
<path d="M85.4554 357.621C85.4554 357.621 79.2553 361.17 82.4302 366.194C87.0803 368.739 100.4 369.925 100.4 367.819C100.4 365.724 98.8285 361.694 91.9335 358.69C85.0385 355.697 81.6284 355.43 81.2329 356.285C84.5147 357.247 85.4554 357.621 85.4554 357.621Z" fill="#262226"/>
<path d="M77.6091 355.044C77.6091 355.044 68.6082 348.802 59.4148 343.211C53.4284 339.576 43.2837 329.26 38.6336 331.056C33.9835 332.852 31.2896 338.336 32.7862 342.943C34.2828 347.551 45.4324 354.435 52.1243 357.535C60.3341 361.341 69.0678 363.864 73.921 364.58C77.0853 365.04 80.4312 356.242 77.6091 355.044Z" fill="#1E75BA"/>
<path d="M59.1262 338.026L88.6946 337L88.9618 334.916L58.4741 335.749L59.1262 338.026Z" fill="#EAE4D1"/>
<path d="M56.3682 337.085L57.9503 339.416L89.5176 338.496L90.437 335.941L56.3682 337.085Z" fill="#66140B"/>
<path d="M83.4673 337.267C82.9328 337.021 82.3128 336.946 81.7569 337.16C81.4148 337.288 81.0941 337.47 80.8055 337.695L79.7258 338.55C78.4324 339.565 76.6044 339.555 75.3216 338.528L73.0339 336.679C72.5315 336.273 71.9436 335.995 71.3129 335.856C71.1632 335.824 71.0029 335.824 70.8425 335.835C70.8425 335.835 69.5276 335.942 69.7094 336.497L69.0359 336.123C68.1059 335.61 67.2614 335.257 66.2245 335.45C65.5189 335.578 65.5189 336.027 65.5617 336.562C65.5617 336.562 65.6686 336.807 65.9572 337.128C65.5724 337.043 65.1768 337.01 64.7386 337.096C64.033 337.224 64.033 337.673 64.0758 338.208C64.0758 338.208 64.4392 339.063 65.7648 339.769L72.2643 344.098C73.0874 344.654 74.0602 344.942 75.0543 344.942H75.4285C75.7064 344.942 75.9844 344.921 76.2623 344.868C78.0689 344.472 79.6831 343.457 80.8269 341.992L83.2001 338.935C84.3118 337.481 83.4673 337.267 83.4673 337.267Z" fill="#F4A48B"/>
<path d="M80.1103 287.174C80.1103 287.174 80.6983 286.18 81.7352 286.105C82.7614 286.03 82.0987 289.269 81.7993 290.51C81.5 291.75 80.3241 292.22 79.9072 291.504L80.1103 287.174Z" fill="#F4A48B"/>
<path d="M60.8901 315.813L61.2536 315.417C62.1729 314.412 62.686 313.108 62.686 311.74V305.251C62.686 305.037 62.7074 304.834 62.7609 304.631L63.3595 302.087L64.065 295.032C64.0971 294.668 64.4606 294.422 64.8133 294.529L64.9951 294.583C65.3265 294.679 65.5616 294.978 65.5723 295.32L65.8716 302.547L67.0689 301.745C67.5927 301.392 68.3089 301.499 68.7045 302.001L69.2924 302.739L69.4314 302.653C69.9766 302.322 70.6821 302.482 71.0135 303.017L71.4518 303.712L72.5849 303.049C72.8736 302.878 73.237 302.996 73.3867 303.284L73.408 303.327C73.6539 303.808 73.5256 304.396 73.1194 304.749L71.5908 306.031C70.7249 306.769 70.2118 307.838 70.1904 308.982L70.1583 311.259C70.1262 313.055 69.4955 314.787 68.3517 316.166L65.1661 320.025L60.8901 315.813Z" fill="#F9D1C5"/>
<path d="M62.8677 315.022C62.8677 315.022 61.3284 313.525 59.7676 315.172C58.549 316.465 55.032 320.944 51.034 324.525C45.4324 329.56 45.0369 330.319 44.449 333.27C43.3693 338.7 48.5218 340.817 54.1234 336.006C59.7249 331.206 62.0874 327.273 63.9902 325.466C65.9037 323.67 67.3254 321.414 66.2778 319.512C65.2302 317.609 63.5305 315.738 62.8677 315.022Z" fill="#E72000"/>
</svg>
