<svg width="40" height="58" viewBox="0 0 40 58" fill="none" xmlns="http://www.w3.org/2000/svg">
<path d="M1.05894 57.3593C1.05894 57.3593 0.184172 45.4593 11.3842 44.3487H16.4058V42.0354C16.4058 42.0354 19.9381 43.5526 23.515 42.2047L23.6278 44.3487H29.4957C29.4957 44.3487 39.544 44.7433 39.0875 57.4722L1.05894 57.3593Z" fill="white"/>
<path d="M39.0532 57.8336H1.4289H0.699219L0.881359 54.7221C1.23699 48.6467 6.02374 44.0102 11.5015 44.0102H15.6704V44.6308H11.8341C6.55461 44.6308 1.94117 49.0937 1.59841 54.9416L1.47189 57.1001H38.9538L38.8837 54.9416C38.541 49.0937 33.9275 44.6308 28.6481 44.6308H23.5131V44.0102H28.9471C34.4249 44.0102 39.2117 48.6467 39.5673 54.7221L39.7494 57.8336H39.0532Z" fill="#3B434F"/>
<path d="M19.6214 51.0065C16.5988 51.0065 14.1484 48.5562 14.1484 45.5336C14.1484 45.0047 14.225 44.494 14.3649 44.0102H14.3741H14.9549H15.954V44.6308H14.7971C14.7423 44.9235 14.7127 45.225 14.7127 45.5336C14.7127 48.2446 16.9104 50.4423 19.6214 50.4423C22.3324 50.4423 24.5301 48.2446 24.5301 45.5336C24.5301 45.225 24.5004 44.9235 24.4457 44.6308H23.2888V44.0102H24.2879H24.8687H24.8779C25.0178 44.494 25.0943 45.0047 25.0943 45.5336C25.0943 48.5562 22.644 51.0065 19.6214 51.0065Z" fill="#3B434F"/>
<path d="M16.4038 41.7744V45.2543C16.4038 47.0601 17.869 48.524 19.6763 48.524C21.4837 48.524 22.9488 47.0601 22.9488 45.2543V41.8462C23.1387 41.7884 23.3269 41.7256 23.513 41.6577V45.278C23.513 47.4134 21.7827 49.1446 19.6481 49.1446C17.5136 49.1446 15.7832 47.4134 15.7832 45.278V41.5506C15.9876 41.6314 16.1947 41.7057 16.4038 41.7744Z" fill="#3B434F"/>
<path d="M19.8168 6.37656C26.8358 6.37656 32.3759 12.9358 32.1958 20.8169L32.0043 29.1931C31.8346 36.6179 26.38 42.4868 19.8168 42.4868C13.2537 42.4868 7.79903 36.6179 7.62932 29.1931L7.43786 20.8169C7.25773 12.9358 12.7978 6.37656 19.8168 6.37656Z" fill="white"/>
<path fill-rule="evenodd" clip-rule="evenodd" d="M32.7612 20.5572L32.5605 29.2737C32.3827 37.0001 26.6672 43.1074 19.79 43.1074C12.9129 43.1074 7.19737 37.0001 7.01955 29.2737L6.81893 20.5572C6.63018 12.3559 12.4353 5.53021 19.79 5.53021C27.1448 5.53021 32.9499 12.3559 32.7612 20.5572ZM19.7619 6.43297C12.8388 6.43297 7.37447 12.941 7.55214 20.7605L7.74098 29.0713C7.90837 36.438 13.2884 42.2611 19.7619 42.2611C26.2353 42.2611 31.6154 36.438 31.7828 29.0713L31.9716 20.7605C32.1493 12.941 26.6849 6.43297 19.7619 6.43297Z" fill="#3B434F"/>
<path opacity="0.059" fill-rule="evenodd" clip-rule="evenodd" d="M32.4067 22.0055L31.8425 31.2587C31.8425 31.2587 29.3365 41.9399 19.6553 43.2046V43.2202C19.6363 43.2179 19.6178 43.2148 19.5989 43.2124C19.5799 43.2148 19.5615 43.2179 19.5424 43.2202V43.2046C9.86121 41.9399 7.35524 31.2587 7.35524 31.2587L6.79102 22.0055C9.30327 33.1568 11.4176 33.8542 11.4176 33.8542C10.9898 30.4726 14.4644 30.8074 14.4644 30.8074C16.5821 31.1651 18.268 31.3379 19.5989 31.4026C20.9297 31.3379 22.6156 31.1651 24.7333 30.8074C24.7333 30.8074 28.2079 30.4726 27.7801 33.8542C27.7801 33.8542 29.8944 33.1568 32.4067 22.0055ZM26.1328 35.0011C25.9685 33.012 24.7691 33.1806 24.7691 33.1806C22.6368 33.8081 20.963 34.1566 19.6553 34.3338V34.3208C18.3568 34.1451 16.6947 33.7994 14.5773 33.1771C14.5773 33.1771 13.3862 33.0098 13.2231 34.9826C13.2231 34.9826 12.7449 36.9591 14.3516 37.8037L16.3828 39.9478C16.3828 39.9478 17.7709 40.3877 17.7369 38.7065C17.7369 38.7065 17.5956 37.4526 18.414 37.2395H19.6553V37.2766H20.9053C21.7294 37.4915 21.5872 38.7557 21.5872 38.7557C21.553 40.4508 22.9508 40.0073 22.9508 40.0073L24.9964 37.8455C26.6144 36.994 26.1328 35.0011 26.1328 35.0011Z" fill="#3B434F"/>
<path d="M25.8827 34.2605C24.8572 35.151 22.5407 35.9982 19.8455 35.9982C17.1503 35.9982 14.8339 35.151 13.8084 34.2605C13.8084 34.2605 13.7034 33.9718 13.8574 33.8178C14.0142 33.661 14.2597 33.6952 14.2597 33.6952C15.2842 34.5862 17.1493 35.3212 19.8455 35.3212C22.5418 35.3212 24.4069 34.5862 25.4313 33.6952C25.4313 33.6952 25.6819 33.6021 25.8037 33.7238C26.0381 33.9583 25.8827 34.2605 25.8827 34.2605ZM17.9836 37.3524H21.5946V37.9166H17.9836V37.3524Z" fill="#3B434F"/>
<path d="M6.80326 21.8283C6.80171 21.8284 6.66473 21.719 6.40607 21.6376C6.27679 21.5969 6.11612 21.5635 5.93299 21.5553C5.88725 21.5532 5.84018 21.5527 5.79201 21.5541C5.74385 21.5555 5.69459 21.5587 5.64451 21.564C5.54438 21.5747 5.44095 21.5939 5.33688 21.6239C4.92018 21.7436 4.49508 22.0348 4.24543 22.6357C4.1201 22.9362 4.03743 23.3142 4.01557 23.7871C4.01011 23.9054 4.00843 24.0295 4.01083 24.1599C4.01323 24.2903 4.01971 24.4268 4.03052 24.5699C4.05213 24.856 4.09115 25.1681 4.1493 25.5081C4.14803 25.5077 4.09507 26.5356 4.46252 27.7166C4.80796 28.8713 5.63748 30.2898 7.16905 30.6951C6.99291 27.7621 6.98743 24.7742 6.80326 21.8283Z" fill="white"/>
<path d="M6.97861 21.9465C6.97861 21.9465 4.31049 21.1198 4.40439 23.8628C4.40439 23.8628 4.80163 27.8402 4.97412 28.2067C4.97412 28.2067 6.02197 30.5225 7.75128 30.6251L7.77227 31.3716C7.77227 31.3716 4.73279 30.9819 4.14574 27.4792L3.68239 24.2971C3.68239 24.2971 3.32262 20.086 6.81243 21.1567L6.97861 21.9465Z" fill="#3B434F"/>
<path d="M6.09824 27.4725C6.09824 27.4725 5.94893 27.5853 5.82065 27.5853C5.69238 27.5853 5.54488 27.4725 5.54488 27.4725L5.26953 24.6977C5.26953 24.6977 5.64945 23.3313 7.26156 24.0534L7.29967 24.8468C7.29967 24.8468 5.88528 24.3452 5.91453 24.9698C5.94268 25.571 6.09824 27.4725 6.09824 27.4725Z" fill="#3B434F"/>
<path d="M32.7229 21.8348C32.7244 21.8349 32.862 21.7256 33.1218 21.6442C33.2516 21.6036 33.413 21.5702 33.597 21.5619C33.6429 21.5599 33.6902 21.5594 33.7385 21.5608C33.7869 21.5621 33.8364 21.5654 33.8867 21.5707C33.9873 21.5814 34.0911 21.6006 34.1957 21.6305C34.6142 21.7502 35.0411 22.0412 35.2919 22.6417C35.4178 22.942 35.5008 23.3197 35.5228 23.7923C35.5283 23.9105 35.5299 24.0345 35.5275 24.1648C35.5251 24.2951 35.5186 24.4316 35.5077 24.5745C35.486 24.8605 35.4468 25.1723 35.3884 25.5121C35.3897 25.5117 35.4429 26.5389 35.0739 27.7191C34.7269 28.873 33.8938 30.2905 32.3555 30.6956C32.5324 27.7646 32.5379 24.7787 32.7229 21.8348Z" fill="white"/>
<path d="M32.5481 21.9529C32.5481 21.9529 35.2279 21.1267 35.1336 23.8678C35.1336 23.8678 34.7346 27.8426 34.5614 28.2089C34.5614 28.2089 33.5089 30.5231 31.772 30.6256L31.751 31.3716C31.751 31.3716 34.8038 30.9821 35.3934 27.4818L35.8588 24.3019C35.8588 24.3019 36.2201 20.0936 32.715 21.1636L32.5481 21.9529Z" fill="#3B434F"/>
<path d="M33.4333 27.4751C33.4333 27.4751 33.5832 27.5879 33.7121 27.5879C33.8409 27.5879 33.989 27.4751 33.989 27.4751L34.2656 24.7023C34.2656 24.7023 33.884 23.3367 32.2648 24.0584L32.2266 24.8512C32.2266 24.8512 33.6471 24.3499 33.6178 24.9741C33.5895 25.575 33.4333 27.4751 33.4333 27.4751Z" fill="#3B434F"/>
<path fill-rule="evenodd" clip-rule="evenodd" d="M20.8313 27.2528C20.8971 27.2528 20.9629 27.2528 21.0287 27.2528C21.437 27.8073 21.6031 28.6594 21.8186 29.3968C21.8854 29.6254 21.8206 30.0252 21.7622 30.1868C21.5483 30.7786 20.8765 30.768 20.3235 31.0331C20.1749 31.1043 20.0644 31.2272 19.8721 31.2588C19.7467 31.1483 19.5953 31.1266 19.5335 30.9485C19.3812 30.7386 19.5776 30.6076 19.731 30.5253C20.0096 30.3759 20.8694 30.2287 20.9723 29.9611C21.0997 29.8162 21.015 29.3805 20.9723 29.2276C20.863 28.8359 20.8105 28.5088 20.662 28.1556C20.5633 27.9209 20.3901 27.6735 20.4927 27.3939C20.5778 27.3573 20.7616 27.3158 20.8313 27.2528Z" fill="#3B434F"/>
<path d="M13.0184 22.9083H13.8083C14.2446 22.9083 14.5983 23.2619 14.5983 23.6982C14.5983 24.1344 14.2446 24.4881 13.8083 24.4881H13.0184C12.5822 24.4881 12.2285 24.1344 12.2285 23.6982C12.2285 23.2619 12.5822 22.9083 13.0184 22.9083ZM25.8827 22.9083H26.6726C27.1089 22.9083 27.4625 23.2619 27.4625 23.6982C27.4625 24.1344 27.1089 24.4881 26.6726 24.4881H25.8827C25.4464 24.4881 25.0928 24.1344 25.0928 23.6982C25.0928 23.2619 25.4464 22.9083 25.8827 22.9083Z" fill="#3B434F"/>
<path d="M26.6175 26.6321C27.3965 26.6321 28.028 27.2637 28.028 28.0427C28.028 28.8217 27.3965 29.4532 26.6175 29.4532C25.8384 29.4532 25.2069 28.8217 25.2069 28.0427C25.2069 27.2637 25.8384 26.6321 26.6175 26.6321ZM12.9633 26.6321C13.7423 26.6321 14.3738 27.2637 14.3738 28.0427C14.3738 28.8217 13.7423 29.4532 12.9633 29.4532C12.1843 29.4532 11.5527 28.8217 11.5527 28.0427C11.5527 27.2637 12.1843 26.6321 12.9633 26.6321Z" fill="#EDF1F1"/>
<path d="M23.4036 20.9195C23.4036 20.9195 26.7816 18.9882 29.1948 21.116L29.8331 21.215C29.8331 21.215 29.0155 18.2399 23.0624 20.1744L23.2282 20.729M23.3604 20.729C23.3604 20.729 26.7969 18.7551 29.0625 21.2483L30.2298 21.215C30.2298 21.215 28.774 18.037 22.7979 20.0422L23.3604 20.8612M16.1452 20.9307C16.1452 20.9307 12.7785 19.0165 10.3734 21.1255L9.73719 21.2236C9.73719 21.2236 10.552 18.2748 16.4853 20.1922L16.3201 20.7418M16.1883 20.7418C16.1883 20.7418 12.7632 18.7855 10.5052 21.2566L9.3418 21.2236C9.3418 21.2236 10.7927 18.0737 16.7489 20.0611L16.1883 20.8729" fill="#3B434F"/>
<path d="M7.62474 27.7377C7.62474 27.7377 1.93097 25.499 1.16858 22.1162C0.406194 18.7334 1.05856 16.6041 2.00401 15.9074C2.00401 15.9074 1.59748 10.6996 3.55552 9.02126C3.55552 9.02126 4.43881 5.23982 8.92612 4.05421C8.92612 4.05421 15.8939 -3.29523 28.499 1.79646C28.499 1.79646 31.6035 4.79858 33.4744 5.88536C33.5276 5.91626 33.5798 5.94561 33.6309 5.9733C35.4792 6.97488 37.2222 9.06036 37.5693 13.0852C37.5693 13.0852 37.5345 16.687 39.3595 19.0682C39.3595 19.0682 41.3797 25.3394 31.8407 27.5348L31.4827 18.8425C31.4827 18.8425 27.0696 17.3261 26.5894 13.311C26.5894 13.311 20.1422 15.343 16.0869 13.1981C16.0869 13.1981 13.5688 12.4387 13.4613 13.5368C13.4613 13.5368 12.6178 18.0793 8.09069 19.294L7.62474 27.7377Z" fill="#5B718F"/>
</svg>
