<svg width="518" height="528" viewBox="0 0 518 528" fill="none" xmlns="http://www.w3.org/2000/svg">
<path opacity="0.8" d="M336.284 150.296C336.3 152.36 337.128 154.335 338.59 155.794C339.306 156.517 340.159 157.091 341.099 157.482C342.039 157.873 343.048 158.073 344.066 158.071H510.453C512.327 157.804 514.041 156.871 515.282 155.443C516.522 154.014 517.205 152.187 517.205 150.296C517.205 148.405 516.522 146.577 515.282 145.149C514.041 143.72 512.327 142.787 510.453 142.52H502.592C501.282 139.475 499.244 136.797 496.657 134.722C494.07 132.647 491.014 131.238 487.755 130.617C484.496 129.997 481.134 130.185 477.965 131.165C474.796 132.145 471.916 133.886 469.577 136.237C466.367 130.798 461.423 126.593 455.536 124.295C449.65 121.998 443.162 121.741 437.112 123.566C434.091 117.878 429.432 113.228 423.738 110.214C418.043 107.201 411.575 105.964 405.169 106.663C398.763 107.362 392.714 109.966 387.805 114.137C382.896 118.307 379.352 123.854 377.632 130.058C374.973 128.727 372.054 127.997 369.081 127.918C366.109 127.84 363.155 128.416 360.43 129.605C357.705 130.794 355.274 132.567 353.311 134.799C351.349 137.031 349.901 139.667 349.071 142.52H344.066C342.009 142.541 340.041 143.366 338.586 144.82C337.131 146.274 336.305 148.24 336.284 150.296Z" fill="url(#paint0_linear_32_600)"/>
<path opacity="0.8" d="M162.037 59.8171C162.051 62.4999 163.124 65.069 165.022 66.9661C166.921 68.8632 169.492 69.935 172.178 69.9488H389.24C391.248 69.9524 393.212 69.3602 394.883 68.2471C396.554 67.1341 397.857 65.5504 398.626 63.6968C399.395 61.8432 399.596 59.8032 399.203 57.8354C398.81 55.8676 397.841 54.0607 396.419 52.6437C395.482 51.694 394.364 50.9409 393.131 50.4284C391.898 49.9159 390.575 49.6544 389.24 49.6591H378.995C377.284 45.6867 374.625 42.1941 371.249 39.4872C367.874 36.7804 363.886 34.942 359.634 34.1332C355.382 33.3245 350.997 33.5699 346.862 34.8481C342.727 36.1263 338.969 38.3982 335.918 41.4647C331.746 34.3561 325.298 28.8594 317.615 25.8621C309.933 22.8648 301.463 22.5418 293.574 24.9451C289.667 17.4817 283.598 11.3687 276.16 7.40388C268.723 3.43907 260.261 1.80666 251.881 2.71974C243.501 3.63283 235.59 7.04899 229.183 12.5223C222.775 17.9956 218.168 25.2719 215.962 33.4013C212.493 31.666 208.685 30.7138 204.807 30.6121C200.93 30.5104 197.077 31.2617 193.522 32.8129C189.967 34.3641 186.797 36.6771 184.236 39.5883C181.675 42.4994 179.785 45.9375 178.702 49.6591H172.178C169.486 49.6661 166.906 50.7393 165.006 52.6436C163.105 54.5478 162.037 57.1275 162.037 59.8171Z" fill="url(#paint1_linear_32_600)"/>
<path opacity="0.8" d="M0 154.118C0 156.201 0.828181 158.199 2.30236 159.672C3.77655 161.145 5.77597 161.972 7.86078 161.972H174.247C175.768 161.931 177.244 161.451 178.497 160.588C179.749 159.726 180.724 158.519 181.304 157.114C181.884 155.709 182.043 154.166 181.763 152.672C181.482 151.179 180.774 149.798 179.724 148.699C179.011 147.969 178.159 147.39 177.219 146.994C176.278 146.598 175.268 146.395 174.247 146.395H166.387C165.074 143.352 163.034 140.677 160.446 138.604C157.858 136.532 154.8 135.125 151.542 134.507C148.283 133.89 144.923 134.08 141.755 135.062C138.587 136.043 135.708 137.786 133.371 140.138C130.182 134.678 125.239 130.456 119.346 128.156C113.453 125.856 106.955 125.613 100.906 127.467C97.8944 121.768 93.238 117.105 87.5412 114.083C81.8443 111.061 75.37 109.82 68.9583 110.52C62.5465 111.219 56.4931 113.829 51.5838 118.008C46.6744 122.188 43.1355 127.745 41.4263 133.959C38.7677 132.628 35.8486 131.898 32.8759 131.819C29.9031 131.741 26.9495 132.317 24.2242 133.506C21.499 134.695 19.0688 136.468 17.1059 138.7C15.143 140.932 13.6953 143.568 12.8655 146.421H7.67735C5.65141 146.468 3.72186 147.295 2.29137 148.729C0.860876 150.163 0.039987 152.094 0 154.118Z" fill="url(#paint2_linear_32_600)"/>
<path opacity="0.4" d="M484.534 440.788C484.534 444.85 411.565 448.085 321.447 448.085C231.33 448.085 158.482 444.777 158.482 440.788C158.482 436.799 231.452 433.491 321.447 433.491C411.443 433.491 484.534 436.726 484.534 440.788Z" fill="#64799B"/>
<path d="M505.257 161.485V349.746H133.404V161.485C133.401 159.122 133.864 156.782 134.766 154.599C135.667 152.415 136.991 150.431 138.66 148.759C140.33 147.087 142.312 145.761 144.495 144.856C146.677 143.951 149.017 143.486 151.379 143.486H487.258C492.032 143.486 496.61 145.382 499.985 148.757C503.361 152.133 505.257 156.711 505.257 161.485Z" fill="url(#paint3_linear_32_600)"/>
<path d="M329.012 150.296H309.748C308.835 150.296 308.094 151.036 308.094 151.95V152.339C308.094 153.253 308.835 153.993 309.748 153.993H329.012C329.926 153.993 330.666 153.253 330.666 152.339V151.95C330.666 151.036 329.926 150.296 329.012 150.296Z" fill="url(#paint4_linear_32_600)"/>
<path d="M492.561 164.014V327.15C492.561 327.682 492.456 328.209 492.251 328.701C492.047 329.192 491.747 329.638 491.37 330.014C490.992 330.389 490.544 330.686 490.051 330.887C489.559 331.089 489.031 331.191 488.499 331.188H150.042C149.225 331.194 148.426 330.947 147.755 330.482C147.216 330.109 146.775 329.611 146.47 329.031C146.165 328.451 146.005 327.805 146.004 327.15V164.014C146.004 162.943 146.429 161.916 147.187 161.159C147.944 160.402 148.971 159.977 150.042 159.977H488.596C489.265 159.973 489.923 160.136 490.514 160.45C491.104 160.764 491.607 161.22 491.977 161.777C492.388 162.448 492.591 163.227 492.561 164.014Z" fill="url(#paint5_linear_32_600)"/>
<path d="M322.76 191.694C311.394 191.046 300.126 194.111 290.654 200.426C290.499 200.533 290.371 200.673 290.279 200.836C290.186 201 290.132 201.182 290.12 201.369C290.109 201.557 290.14 201.744 290.211 201.918C290.282 202.092 290.392 202.247 290.532 202.372C290.746 202.532 291.006 202.618 291.274 202.618C291.541 202.618 291.801 202.532 292.016 202.372C302.732 195.218 315.783 192.445 328.483 194.623C341.182 196.802 352.563 203.766 360.283 214.082C368.002 224.399 371.473 237.282 369.98 250.08C368.488 262.878 362.145 274.617 352.259 282.88C342.372 291.143 329.694 295.301 316.834 294.499C303.974 293.696 291.911 287.994 283.129 278.566C274.347 269.138 269.513 256.701 269.623 243.817C269.733 230.932 274.779 218.581 283.722 209.304C283.953 209.072 284.083 208.757 284.083 208.428C284.083 208.1 283.953 207.785 283.722 207.553C283.497 207.344 283.201 207.228 282.894 207.228C282.588 207.228 282.292 207.344 282.068 207.553C273.745 216.188 268.626 227.409 267.56 239.354C266.493 251.299 269.544 263.25 276.205 273.223C282.866 283.195 292.737 290.59 304.18 294.18C315.623 297.77 327.949 297.339 339.113 292.959C350.277 288.578 359.607 280.512 365.556 270.098C371.504 259.685 373.712 247.55 371.814 235.709C369.916 223.867 364.026 213.031 355.121 204.998C346.216 196.966 334.831 192.22 322.858 191.548L322.76 191.694Z" fill="url(#paint6_linear_32_600)"/>
<path d="M299.191 273.323V211.761L351.802 242.554L299.191 273.323Z" fill="url(#paint7_linear_32_600)"/>
<path d="M505.307 349.746C505.314 355.917 503.384 361.934 499.788 366.949C496.192 371.963 491.112 375.722 485.264 377.694C482.223 378.714 479.035 379.231 475.827 379.226H162.861C157.415 379.242 152.073 377.734 147.44 374.872C146.32 374.182 145.247 373.418 144.229 372.586C143.718 372.172 143.232 371.734 142.745 371.297L142.04 370.591C139.307 367.868 137.141 364.63 135.667 361.065C134.193 357.499 133.441 353.677 133.454 349.819L505.307 349.746Z" fill="url(#paint8_linear_32_600)"/>
<path d="M343.751 359.573H294.934C293.04 359.573 291.505 361.108 291.505 363.002V363.854C291.505 365.748 293.04 367.283 294.934 367.283H343.751C345.645 367.283 347.181 365.748 347.181 363.854V363.002C347.181 361.108 345.645 359.573 343.751 359.573Z" fill="url(#paint9_linear_32_600)"/>
<path d="M374.351 379.177H264.41V425.051H374.351V379.177Z" fill="url(#paint10_linear_32_600)"/>
<path style="mix-blend-mode:multiply" d="M374.351 379.177H264.41V395.985H374.351V379.177Z" fill="url(#paint11_linear_32_600)"/>
<path d="M235.537 425.026H403.221C406.06 425.026 408.782 426.154 410.789 428.161C412.796 430.168 413.924 432.89 413.924 435.729V440.788H224.859V435.729C224.859 432.894 225.984 430.176 227.985 428.17C229.987 426.163 232.703 425.033 235.537 425.026Z" fill="url(#paint12_linear_32_600)"/>
<path d="M240.816 187.973H162.373C161.567 187.973 160.794 187.652 160.224 187.082C159.653 186.512 159.333 185.739 159.333 184.932C159.333 184.126 159.653 183.352 160.224 182.782C160.794 182.212 161.567 181.892 162.373 181.892H240.816C241.622 181.892 242.395 182.212 242.966 182.782C243.536 183.352 243.856 184.126 243.856 184.932C243.856 185.739 243.536 186.512 242.966 187.082C242.395 187.652 241.622 187.973 240.816 187.973Z" fill="#D2D2D2"/>
<path d="M240.816 204.391H162.373C161.567 204.391 160.794 204.07 160.224 203.5C159.653 202.93 159.333 202.157 159.333 201.35C159.333 200.544 159.653 199.771 160.224 199.2C160.794 198.63 161.567 198.31 162.373 198.31H240.816C241.622 198.31 242.395 198.63 242.966 199.2C243.536 199.771 243.856 200.544 243.856 201.35C243.856 202.157 243.536 202.93 242.966 203.5C242.395 204.07 241.622 204.391 240.816 204.391Z" fill="#D2D2D2"/>
<path d="M240.816 220.809H162.373C161.567 220.809 160.794 220.489 160.224 219.918C159.653 219.348 159.333 218.575 159.333 217.769C159.333 216.962 159.653 216.189 160.224 215.619C160.794 215.048 161.567 214.728 162.373 214.728H240.816C241.622 214.728 242.395 215.048 242.966 215.619C243.536 216.189 243.856 216.962 243.856 217.769C243.856 218.575 243.536 219.348 242.966 219.918C242.395 220.489 241.622 220.809 240.816 220.809Z" fill="#D2D2D2"/>
<path d="M240.816 237.227H162.373C161.567 237.227 160.794 236.907 160.224 236.337C159.653 235.766 159.333 234.993 159.333 234.187C159.333 233.38 159.653 232.607 160.224 232.037C160.794 231.467 161.567 231.146 162.373 231.146H240.816C241.622 231.146 242.395 231.467 242.966 232.037C243.536 232.607 243.856 233.38 243.856 234.187C243.856 234.993 243.536 235.766 242.966 236.337C242.395 236.907 241.622 237.227 240.816 237.227Z" fill="#D2D2D2"/>
<path d="M240.816 253.645H162.373C161.567 253.645 160.794 253.325 160.224 252.755C159.653 252.184 159.333 251.411 159.333 250.605C159.333 249.798 159.653 249.025 160.224 248.455C160.794 247.885 161.567 247.564 162.373 247.564H240.816C241.622 247.564 242.395 247.885 242.966 248.455C243.536 249.025 243.856 249.798 243.856 250.605C243.856 251.411 243.536 252.184 242.966 252.755C242.395 253.325 241.622 253.645 240.816 253.645Z" fill="#D2D2D2"/>
<path d="M240.816 270.063H162.373C161.567 270.063 160.794 269.743 160.224 269.173C159.653 268.603 159.333 267.829 159.333 267.023C159.333 266.217 159.653 265.443 160.224 264.873C160.794 264.303 161.567 263.983 162.373 263.983H240.816C241.622 263.983 242.395 264.303 242.966 264.873C243.536 265.443 243.856 266.217 243.856 267.023C243.856 267.829 243.536 268.603 242.966 269.173C242.395 269.743 241.622 270.063 240.816 270.063Z" fill="#D2D2D2"/>
<path d="M240.816 286.482H162.373C161.567 286.482 160.794 286.161 160.224 285.591C159.653 285.021 159.333 284.248 159.333 283.441C159.333 282.635 159.653 281.861 160.224 281.291C160.794 280.721 161.567 280.401 162.373 280.401H240.816C241.622 280.401 242.395 280.721 242.966 281.291C243.536 281.861 243.856 282.635 243.856 283.441C243.856 284.248 243.536 285.021 242.966 285.591C242.395 286.161 241.622 286.482 240.816 286.482Z" fill="#D2D2D2"/>
<path d="M240.816 302.9H162.373C161.567 302.9 160.794 302.579 160.224 302.009C159.653 301.439 159.333 300.666 159.333 299.859C159.333 299.053 159.653 298.28 160.224 297.709C160.794 297.139 161.567 296.819 162.373 296.819H240.816C241.622 296.819 242.395 297.139 242.966 297.709C243.536 298.28 243.856 299.053 243.856 299.859C243.856 300.666 243.536 301.439 242.966 302.009C242.395 302.579 241.622 302.9 240.816 302.9Z" fill="#D2D2D2"/>
<path d="M476.751 187.973H398.309C397.503 187.973 396.729 187.652 396.159 187.082C395.589 186.512 395.269 185.739 395.269 184.932C395.269 184.126 395.589 183.352 396.159 182.782C396.729 182.212 397.503 181.892 398.309 181.892H476.751C477.558 181.892 478.331 182.212 478.901 182.782C479.471 183.352 479.792 184.126 479.792 184.932C479.792 185.739 479.471 186.512 478.901 187.082C478.331 187.652 477.558 187.973 476.751 187.973Z" fill="#D2D2D2"/>
<path d="M476.751 204.391H398.309C397.503 204.391 396.729 204.07 396.159 203.5C395.589 202.93 395.269 202.157 395.269 201.35C395.269 200.544 395.589 199.771 396.159 199.2C396.729 198.63 397.503 198.31 398.309 198.31H476.751C477.558 198.31 478.331 198.63 478.901 199.2C479.471 199.771 479.792 200.544 479.792 201.35C479.792 202.157 479.471 202.93 478.901 203.5C478.331 204.07 477.558 204.391 476.751 204.391Z" fill="#D2D2D2"/>
<path d="M476.751 220.809H398.309C397.503 220.809 396.729 220.489 396.159 219.918C395.589 219.348 395.269 218.575 395.269 217.769C395.269 216.962 395.589 216.189 396.159 215.619C396.729 215.048 397.503 214.728 398.309 214.728H476.751C477.558 214.728 478.331 215.048 478.901 215.619C479.471 216.189 479.792 216.962 479.792 217.769C479.792 218.575 479.471 219.348 478.901 219.918C478.331 220.489 477.558 220.809 476.751 220.809Z" fill="#D2D2D2"/>
<path d="M476.751 237.227H398.309C397.503 237.227 396.729 236.907 396.159 236.337C395.589 235.766 395.269 234.993 395.269 234.187C395.269 233.38 395.589 232.607 396.159 232.037C396.729 231.467 397.503 231.146 398.309 231.146H476.751C477.558 231.146 478.331 231.467 478.901 232.037C479.471 232.607 479.792 233.38 479.792 234.187C479.792 234.993 479.471 235.766 478.901 236.337C478.331 236.907 477.558 237.227 476.751 237.227Z" fill="#D2D2D2"/>
<path d="M476.751 253.645H398.309C397.503 253.645 396.729 253.325 396.159 252.755C395.589 252.184 395.269 251.411 395.269 250.605C395.269 249.798 395.589 249.025 396.159 248.455C396.729 247.885 397.503 247.564 398.309 247.564H476.751C477.558 247.564 478.331 247.885 478.901 248.455C479.471 249.025 479.792 249.798 479.792 250.605C479.792 251.411 479.471 252.184 478.901 252.755C478.331 253.325 477.558 253.645 476.751 253.645Z" fill="#D2D2D2"/>
<path d="M476.751 270.063H398.309C397.503 270.063 396.729 269.743 396.159 269.173C395.589 268.603 395.269 267.829 395.269 267.023C395.269 266.217 395.589 265.443 396.159 264.873C396.729 264.303 397.503 263.983 398.309 263.983H476.751C477.558 263.983 478.331 264.303 478.901 264.873C479.471 265.443 479.792 266.217 479.792 267.023C479.792 267.829 479.471 268.603 478.901 269.173C478.331 269.743 477.558 270.063 476.751 270.063Z" fill="#D2D2D2"/>
<path d="M476.751 286.482H398.309C397.503 286.482 396.729 286.161 396.159 285.591C395.589 285.021 395.269 284.248 395.269 283.441C395.269 282.635 395.589 281.861 396.159 281.291C396.729 280.721 397.503 280.401 398.309 280.401H476.751C477.558 280.401 478.331 280.721 478.901 281.291C479.471 281.861 479.792 282.635 479.792 283.441C479.792 284.248 479.471 285.021 478.901 285.591C478.331 286.161 477.558 286.482 476.751 286.482Z" fill="#D2D2D2"/>
<path d="M476.751 302.9H398.309C397.503 302.9 396.729 302.579 396.159 302.009C395.589 301.439 395.269 300.666 395.269 299.859C395.269 299.053 395.589 298.28 396.159 297.709C396.729 297.139 397.503 296.819 398.309 296.819H476.751C477.558 296.819 478.331 297.139 478.901 297.709C479.471 298.28 479.792 299.053 479.792 299.859C479.792 300.666 479.471 301.439 478.901 302.009C478.331 302.579 477.558 302.9 476.751 302.9Z" fill="#D2D2D2"/>
<path opacity="0.4" d="M446.955 481.286C452.112 472.335 467.776 471.703 481.932 479.875C496.088 488.048 503.385 501.936 498.228 510.863C493.072 519.79 477.408 520.446 463.252 512.274C449.096 504.101 441.799 490.213 446.955 481.286Z" fill="#64799B"/>
<path d="M497.912 502.763C497.824 503.183 497.668 503.586 497.45 503.955C492.099 512.639 463.398 507.677 460.308 500.015L459.481 498.142C455.517 489.629 453.012 491.988 446.031 486.224C445.74 485.989 445.471 485.729 445.228 485.445C441.312 480.97 446.128 475.278 446.128 475.278L447.004 474.597C449.205 472.999 451.677 471.812 454.301 471.095C455.415 470.772 456.554 470.544 457.706 470.413C477.967 468.005 499.858 493.934 497.912 502.763Z" fill="white"/>
<path d="M497.425 503.955C492.074 512.639 463.372 507.677 460.283 500.015L459.456 498.142C455.467 489.653 452.767 492.231 446.005 486.224C445.714 485.956 445.446 485.713 445.203 485.445C441.287 480.97 446.103 475.278 446.103 475.278L446.978 474.597C446.419 476.251 445.884 479.973 450.408 483.597C451.471 484.444 452.65 485.132 453.91 485.64C454.908 486.078 456.902 487.586 460.453 492.523C466.121 500.453 465.318 501.45 477.942 504.904C490.565 508.358 497.133 504.174 497.425 503.955Z" fill="url(#paint13_linear_32_600)"/>
<path d="M466.608 477.273C459.311 471.216 454.13 470.997 454.13 470.997C455.244 470.675 456.383 470.447 457.536 470.316C461.226 471.605 464.406 474.043 466.608 477.273Z" fill="url(#paint14_linear_32_600)"/>
<path opacity="0.4" d="M160.549 527.281H464.054L423.969 463.652H200.633L160.549 527.281Z" fill="#64799B"/>
<path d="M170.741 507.652H454.544L426.888 463.652H198.372L170.741 507.652Z" fill="url(#paint15_linear_32_600)"/>
<path d="M170.716 517.625H454.519V507.652L170.716 507.652V517.625Z" fill="#A0A0A0"/>
<path d="M411.735 471.435H426.085L423.969 466.935H410.081L411.735 471.435Z" fill="white"/>
<path d="M409.886 471.435L408.062 466.935H394.173L395.535 471.435H409.886Z" fill="white"/>
<path d="M393.687 471.435L392.154 466.935H378.266L379.336 471.435H393.687Z" fill="white"/>
<path d="M377.439 471.435L376.199 466.935H362.31L363.088 471.435H377.439Z" fill="white"/>
<path d="M361.216 471.435L360.267 466.935H346.378L346.865 471.435H361.216Z" fill="white"/>
<path d="M344.993 471.435L344.336 466.935H330.447L330.666 471.435H344.993Z" fill="white"/>
<path d="M328.817 471.435L328.452 466.935H314.564L314.491 471.435H328.817Z" fill="white"/>
<path d="M312.764 471.435L312.667 466.935H298.778L298.414 471.435H312.764Z" fill="white"/>
<path d="M296.588 471.435L296.783 466.935H282.895L282.238 471.435H296.588Z" fill="white"/>
<path d="M280.365 471.435L280.851 466.935H266.963L266.014 471.435H280.365Z" fill="white"/>
<path d="M264.143 471.435L264.921 466.935H251.033L249.816 471.435H264.143Z" fill="white"/>
<path d="M247.894 471.435L248.964 466.935H235.075L233.567 471.435H247.894Z" fill="white"/>
<path d="M231.695 471.435L233.057 466.935H219.168L217.368 471.435H231.695Z" fill="white"/>
<path d="M215.496 471.435H201.169L203.261 466.935H217.15L215.496 471.435Z" fill="white"/>
<path d="M414.703 479.851H429.588L427.399 475.181H413L414.703 479.851Z" fill="white"/>
<path d="M412.78 479.851L410.907 475.181H396.508L397.919 479.851H412.78Z" fill="white"/>
<path d="M395.998 479.851L394.417 475.181H380.018L381.136 479.851H395.998Z" fill="white"/>
<path d="M379.142 479.851L377.853 475.181H363.478L364.281 479.851H379.142Z" fill="white"/>
<path d="M362.335 479.851L361.362 475.181H346.963L347.474 479.851H362.335Z" fill="white"/>
<path d="M345.528 479.851L344.847 475.181H330.447L330.666 479.851H345.528Z" fill="white"/>
<path d="M328.745 479.851L328.38 475.181H313.981L313.883 479.851H328.745Z" fill="white"/>
<path d="M312.083 479.851L312.01 475.181H297.61L297.221 479.851H312.083Z" fill="white"/>
<path d="M295.324 479.851L295.543 475.181H281.143L280.462 479.851H295.324Z" fill="white"/>
<path d="M278.516 479.851L279.027 475.181H264.628L263.63 479.851H278.516Z" fill="white"/>
<path d="M261.686 479.851L262.513 475.181H248.113L246.824 479.851H261.686Z" fill="white"/>
<path d="M244.853 479.851L245.948 475.181H231.573L229.992 479.851H244.853Z" fill="white"/>
<path d="M228.047 479.851L229.457 475.181H215.058L213.185 479.851H228.047Z" fill="white"/>
<path d="M211.262 479.851H196.401L198.566 475.181H212.965L211.262 479.851Z" fill="white"/>
<path d="M417.379 488.145H432.702L430.465 483.329H415.627L417.379 488.145Z" fill="white"/>
<path d="M415.408 488.145L413.462 483.329H398.625L400.084 488.145H415.408Z" fill="white"/>
<path d="M398.089 488.145L396.484 483.329H381.647L382.79 488.145H398.089Z" fill="white"/>
<path d="M380.748 488.145L379.434 483.329H364.597L365.424 488.145H380.748Z" fill="white"/>
<path d="M363.429 488.145L362.431 483.329H347.594L348.129 488.145H363.429Z" fill="white"/>
<path d="M346.111 488.145L345.406 483.329H330.593L330.812 488.145H346.111Z" fill="white"/>
<path d="M328.841 488.145L328.452 483.329H313.614L313.542 488.145H328.841Z" fill="white"/>
<path d="M311.694 488.145L311.596 483.329H296.759L296.37 488.145H311.694Z" fill="white"/>
<path d="M294.423 488.145L294.642 483.329H279.805L279.1 488.145H294.423Z" fill="white"/>
<path d="M277.106 488.145L277.617 483.329H262.804L261.783 488.145H277.106Z" fill="white"/>
<path d="M259.788 488.145L260.615 483.329H245.778L244.464 488.145H259.788Z" fill="white"/>
<path d="M242.421 488.145L243.565 483.329H228.752L227.122 488.145H242.421Z" fill="white"/>
<path d="M225.128 488.145L226.587 483.329H211.75L209.804 488.145H225.128Z" fill="white"/>
<path d="M207.834 488.145H192.51L194.772 483.329H209.585L207.834 488.145Z" fill="white"/>
<path d="M421.1 496.585H436.934L434.623 491.599H419.275L421.1 496.585Z" fill="white"/>
<path d="M419.056 496.585L417.037 491.599H401.689L403.198 496.585H419.056Z" fill="white"/>
<path d="M401.154 496.585L399.452 491.599H384.128L385.295 496.585H401.154Z" fill="white"/>
<path d="M383.179 496.585L381.817 491.599H366.469L367.345 496.585H383.179Z" fill="white"/>
<path d="M365.279 496.585L364.233 491.599H348.885L349.42 496.585H365.279Z" fill="white"/>
<path d="M278.736 491.599H294.083H296.297H311.621H313.737H329.06H346.622L347.351 496.585H329.474H313.639H311.718H295.883H293.84H278.006L278.736 491.599Z" fill="white"/>
<path d="M275.938 496.585L276.473 491.599H261.125L260.079 496.585H275.938Z" fill="white"/>
<path d="M258.013 496.585L258.888 491.599H243.54L242.178 496.585H258.013Z" fill="white"/>
<path d="M240.062 496.585L241.229 491.599H225.906L224.203 496.585H240.062Z" fill="white"/>
<path d="M222.16 496.585L223.668 491.599H208.32L206.301 496.585H222.16Z" fill="white"/>
<path d="M204.258 496.585H188.423L190.734 491.599H206.082L204.258 496.585Z" fill="white"/>
<path opacity="0.4" d="M14.7802 509.647L39.8574 481.602H175.824C176.344 481.813 176.809 482.14 177.182 482.56C177.555 482.979 177.826 483.479 177.974 484.02C178.122 484.562 178.144 485.13 178.037 485.681C177.929 486.231 177.697 486.75 177.356 487.196L162.057 507.263C160.061 509.888 157.486 512.017 154.533 513.485C151.58 514.953 148.329 515.72 145.031 515.728H17.5044C16.7996 515.729 16.1097 515.525 15.518 515.143C14.9263 514.76 14.4581 514.214 14.1699 513.571C13.8818 512.928 13.7861 512.215 13.8944 511.518C14.0027 510.822 14.3104 510.172 14.7802 509.647Z" fill="#64799B"/>
<path d="M177.162 470.122C175.411 476.64 154.347 498.483 149.847 503.104C148.313 505.048 146.374 506.634 144.164 507.751C141.954 508.869 139.528 509.491 137.053 509.574H33.2658C32.6207 509.574 32.0021 509.318 31.5459 508.862C31.0898 508.405 30.8335 507.787 30.8335 507.142C30.8335 506.497 31.0898 505.878 31.5459 505.422C32.0021 504.966 32.6207 504.709 33.2658 504.709H136.542C139.768 504.709 142.861 503.428 145.142 501.147C147.422 498.867 148.704 495.773 148.704 492.548C148.704 489.322 147.422 486.229 145.142 483.948C142.861 481.668 139.768 480.386 136.542 480.386H33.2658C32.6207 480.386 32.0021 480.13 31.5459 479.674C31.0898 479.218 30.8335 478.599 30.8335 477.954C30.8335 477.309 31.0898 476.69 31.5459 476.234C32.0021 475.778 32.6207 475.522 33.2658 475.522H33.4117L33.0226 474.695L76.3666 451.588H163.371C163.371 451.588 181.564 453.923 177.162 470.122Z" fill="url(#paint16_linear_32_600)"/>
<path opacity="0.2" d="M148.29 487.342L148.144 487.051C147.146 485.141 145.658 483.532 143.833 482.387C142.008 481.241 139.912 480.601 137.758 480.532C137.353 480.508 136.947 480.508 136.542 480.532H33.2658C32.6452 480.533 32.0477 480.297 31.5955 479.872C31.1434 479.447 30.8707 478.865 30.8335 478.246H136.518C139.21 478.245 141.827 479.138 143.957 480.784C146.088 482.43 147.612 484.737 148.29 487.342Z" fill="black"/>
<path d="M137.442 504.758H33.2656V480.435H137.442C139.67 480.466 141.846 481.109 143.733 482.293C145.62 483.476 147.146 485.156 148.144 487.148C149.04 488.877 149.507 490.795 149.507 492.742C149.507 494.689 149.04 496.608 148.144 498.337C147.107 500.274 145.564 501.894 143.68 503.025C141.795 504.155 139.639 504.754 137.442 504.758Z" fill="white"/>
<path d="M33.2656 487.853H136.104C136.296 487.82 136.47 487.72 136.596 487.571C136.721 487.422 136.79 487.233 136.79 487.038C136.79 486.844 136.721 486.655 136.596 486.506C136.47 486.357 136.296 486.257 136.104 486.224H33.2656V487.853Z" fill="#E8E8E8"/>
<path d="M33.2656 493.448H136.104C136.296 493.414 136.47 493.314 136.596 493.165C136.721 493.016 136.79 492.828 136.79 492.633C136.79 492.438 136.721 492.249 136.596 492.1C136.47 491.951 136.296 491.851 136.104 491.818H33.2656V493.448Z" fill="#E8E8E8"/>
<path d="M33.2656 499.042H136.104C136.317 499.042 136.521 498.957 136.672 498.807C136.822 498.656 136.907 498.452 136.907 498.239C136.907 498.026 136.822 497.822 136.672 497.672C136.521 497.521 136.317 497.437 136.104 497.437H33.2656V499.042Z" fill="#E8E8E8"/>
<path d="M177.429 436.069C175.557 442.904 152.522 466.595 149.579 469.587C148.042 471.435 146.131 472.936 143.972 473.993C141.813 475.049 139.455 475.636 137.053 475.716H33.2658C32.6207 475.716 32.0021 475.46 31.5459 475.004C31.0898 474.547 30.8335 473.929 30.8335 473.284C30.8335 472.639 31.0898 472.02 31.5459 471.564C32.0021 471.108 32.6207 470.851 33.2658 470.851H136.542C139.768 470.851 142.861 469.57 145.142 467.289C147.422 465.009 148.704 461.915 148.704 458.69C148.704 455.464 147.422 452.371 145.142 450.09C142.861 447.809 139.768 446.528 136.542 446.528H33.2658C32.6207 446.528 32.0021 446.272 31.5459 445.816C31.0898 445.36 30.8335 444.741 30.8335 444.096C30.8335 443.451 31.0898 442.832 31.5459 442.376C32.0021 441.92 32.6207 441.664 33.2658 441.664H33.7766L33.2658 440.666L76.6341 417.729H163.638C163.638 417.729 181.808 419.87 177.429 436.069Z" fill="url(#paint17_linear_32_600)"/>
<path opacity="0.2" d="M148.29 453.485L148.144 453.193C147.134 451.262 145.623 449.639 143.77 448.492C141.918 447.346 139.791 446.718 137.612 446.674H136.542H33.2658C32.6452 446.675 32.0477 446.439 31.5955 446.014C31.1434 445.589 30.8707 445.007 30.8335 444.388H136.518C139.21 444.387 141.827 445.28 143.957 446.926C146.088 448.572 147.612 450.879 148.29 453.485Z" fill="black"/>
<path d="M137.442 470.9H33.2656V446.577H137.442C139.649 446.59 141.812 447.203 143.697 448.352C145.583 449.5 147.12 451.14 148.144 453.096C149.04 454.824 149.507 456.743 149.507 458.69C149.507 460.637 149.04 462.555 148.144 464.284C147.133 466.258 145.601 467.918 143.715 469.084C141.829 470.25 139.659 470.878 137.442 470.9Z" fill="white"/>
<path d="M33.2656 453.995H136.104C136.317 453.995 136.521 453.911 136.672 453.76C136.822 453.61 136.907 453.406 136.907 453.193C136.907 452.98 136.822 452.776 136.672 452.625C136.521 452.475 136.317 452.39 136.104 452.39H33.2656V453.995Z" fill="#E8E8E8"/>
<path d="M33.2656 459.59H136.104C136.317 459.59 136.521 459.505 136.672 459.355C136.822 459.204 136.907 459 136.907 458.787C136.907 458.574 136.822 458.37 136.672 458.219C136.521 458.069 136.317 457.984 136.104 457.984H33.2656V459.59Z" fill="#E8E8E8"/>
<path d="M33.2656 465.257H136.104C136.296 465.224 136.47 465.124 136.596 464.975C136.721 464.826 136.79 464.637 136.79 464.442C136.79 464.247 136.721 464.059 136.596 463.91C136.47 463.761 136.296 463.661 136.104 463.627H33.2656V465.257Z" fill="#E8E8E8"/>
<path d="M114.409 420.308L116.841 349.916C112.279 348.795 107.647 347.983 102.977 347.484L101.469 347.338C96.4987 346.806 91.4819 346.896 86.5342 347.606L85.8045 347.727L70.4565 350.354L72.0862 420.356L114.409 420.308Z" fill="url(#paint18_linear_32_600)"/>
<path d="M85.3662 420.308H99.9601C99.9601 404.498 100.374 377.596 101.42 347.338C96.4496 346.806 91.4328 346.896 86.4851 347.606L85.7554 347.727C85.95 357.675 86.3635 395.474 85.3662 420.308Z" fill="white"/>
<path d="M99.4494 347.46V336.976H87.8472V347.46C89.6636 348.307 91.6438 348.747 93.6483 348.747C95.6528 348.747 97.6329 348.307 99.4494 347.46Z" fill="#FBB285"/>
<path d="M99.4494 336.976V345.198C95.2774 344.696 91.2929 343.176 87.8472 340.771V336.976H99.4494Z" fill="#F49365"/>
<path d="M80.6477 319.902C80.2916 319.072 79.7689 318.324 79.112 317.705C78.4551 317.086 77.678 316.608 76.8289 316.302C74.275 315.694 74.3966 322.066 75.9289 326.712C76.0436 327.301 76.2905 327.857 76.6511 328.337C77.0117 328.816 77.4765 329.208 78.0105 329.482C78.5445 329.756 79.1338 329.905 79.7339 329.919C80.334 329.932 80.9291 329.808 81.4746 329.558L80.6477 319.902Z" fill="#F49365"/>
<path d="M106.6 319.902C106.956 319.072 107.479 318.324 108.136 317.705C108.792 317.086 109.57 316.608 110.419 316.302C112.973 315.694 112.851 322.066 111.319 326.712C111.204 327.301 110.957 327.857 110.596 328.337C110.236 328.816 109.771 329.208 109.237 329.482C108.703 329.756 108.114 329.905 107.514 329.919C106.914 329.932 106.318 329.808 105.773 329.558L106.6 319.902Z" fill="#F49365"/>
<path d="M93.6601 341.647C85.9253 341.647 79.6499 333.352 79.6499 326.031V309.589H107.646V326.128C107.597 333.352 101.346 341.647 93.6601 341.647Z" fill="#FBB285"/>
<path d="M79.6018 321.531C79.6018 321.531 74.7372 314.234 78.1424 309.37C77.5643 308.102 77.2651 306.725 77.2651 305.332C77.2651 303.939 77.5643 302.562 78.1424 301.294C80.1856 297.354 88.8203 292.83 100.86 295.189C112.9 297.549 110.59 306.427 109.106 308.908C109.966 310.942 110.279 313.166 110.015 315.359C109.75 317.552 108.917 319.638 107.598 321.41C107.598 321.41 104.971 317.81 105.774 310.148C105.774 310.148 92.3715 313.967 81.4504 309.37C81.4991 309.589 82.9584 318.369 79.6018 321.531Z" fill="url(#paint19_linear_32_600)"/>
<path d="M114.141 417.973C114.141 417.973 113.703 433.077 110.079 437.577C106.455 442.077 85.5614 441.907 78.1428 438.891C70.7242 435.875 72.3053 417.973 72.3053 417.973H114.141Z" fill="url(#paint20_linear_32_600)"/>
<path d="M87.726 442.028C88.0096 438.5 88.0502 434.957 87.8476 431.423C86.7531 425.44 82.6425 413.522 73.0348 417.535C62.6002 421.913 66.5406 443.074 66.5406 443.074L71.5998 506.096H81.329C81.329 506.096 84.4181 474.621 87.726 442.028Z" fill="url(#paint21_linear_32_600)"/>
<path d="M63.8398 516.944H81.985C82.2772 514.675 82.2772 512.378 81.985 510.109L81.4985 506.096H71.5747L70.9666 508.65C64.4723 512.541 63.8398 516.944 63.8398 516.944Z" fill="#80423C"/>
<path d="M70.9917 508.698C70.9917 508.698 77.5833 508.698 79.7724 512.809C79.7724 512.809 79.1156 507.75 71.5998 506.144L70.9917 508.698Z" fill="#5C1A31"/>
<path d="M100.957 442.028C100.685 438.5 100.645 434.957 100.835 431.423C101.93 425.44 106.064 413.522 115.672 417.535C126.107 421.913 122.142 443.074 122.142 443.074L117.083 506.096H107.354C107.354 506.096 104.313 474.621 100.957 442.028Z" fill="url(#paint22_linear_32_600)"/>
<path d="M124.892 516.944H106.747C106.455 514.675 106.455 512.378 106.747 510.109L107.258 506.096H117.157L117.741 508.65C124.333 512.541 124.892 516.944 124.892 516.944Z" fill="#80423C"/>
<path d="M117.716 508.698C117.716 508.698 111.149 508.698 108.96 512.809C108.96 512.809 109.617 507.75 117.133 506.144L117.716 508.698Z" fill="#5C1A31"/>
<path d="M70.4321 350.306C70.4321 350.306 59.438 365.921 55.2544 379.129C55.2544 379.129 60.9704 385.915 64.8135 387.374L72.1104 372.075C72.1104 372.075 75.2481 358.016 70.4321 350.306Z" fill="url(#paint23_linear_32_600)"/>
<path d="M64.8131 387.423C64.8131 387.423 70.0182 396.131 79.7961 411.308L74.3478 415.224L56.3486 395.109C55.0558 394.016 54.0835 392.592 53.5353 390.991C52.987 389.389 52.8834 387.668 53.2352 386.012L55.254 379.177C55.254 379.177 62.5024 381.853 64.8131 387.423Z" fill="url(#paint24_linear_32_600)"/>
<path d="M116.816 349.916C116.816 349.916 127.81 365.532 131.993 378.739C131.993 378.739 126.277 385.55 122.434 386.985L115.137 371.71C115.137 371.71 112 357.651 116.816 349.916Z" fill="url(#paint25_linear_32_600)"/>
<path d="M122.434 386.985C122.434 386.985 117.229 395.717 107.451 410.895L112.9 414.811L130.899 394.671C132.192 393.578 133.164 392.155 133.712 390.553C134.26 388.951 134.364 387.23 134.012 385.574L131.993 378.739C131.993 378.739 124.745 381.464 122.434 386.985Z" fill="url(#paint26_linear_32_600)"/>
<path d="M119.152 413.011H67.1247L62.2601 384.893C62.1606 384.323 62.1874 383.737 62.3384 383.178C62.4895 382.619 62.7612 382.1 63.1344 381.657C63.5077 381.214 63.9735 380.858 64.499 380.615C65.0245 380.371 65.597 380.246 66.1762 380.247H119.979C120.558 380.246 121.131 380.371 121.656 380.615C122.182 380.858 122.647 381.214 123.021 381.657C123.394 382.1 123.666 382.619 123.817 383.178C123.968 383.737 123.995 384.323 123.895 384.893L119.152 413.011Z" fill="url(#paint27_linear_32_600)"/>
<path d="M67.1235 413.011H119.199V413.57C119.199 415.022 118.623 416.414 117.597 417.44C116.57 418.466 115.178 419.043 113.727 419.043H72.5963C71.1448 419.043 69.7528 418.466 68.7265 417.44C67.7001 416.414 67.1235 415.022 67.1235 413.57V412.914V413.011Z" fill="white"/>
<path opacity="0.5" d="M98.1849 397.785C98.1849 398.679 97.9196 399.554 97.4225 400.298C96.9254 401.042 96.2188 401.622 95.3921 401.964C94.5654 402.307 93.6558 402.396 92.7782 402.222C91.9006 402.047 91.0945 401.616 90.4618 400.984C89.8291 400.351 89.3982 399.545 89.2237 398.667C89.0491 397.79 89.1387 396.88 89.4811 396.053C89.8235 395.227 90.4034 394.52 91.1474 394.023C91.8913 393.526 92.766 393.26 93.6608 393.26C94.8607 393.26 96.0114 393.737 96.8598 394.586C97.7083 395.434 98.1849 396.585 98.1849 397.785Z" fill="#494967"/>
<path d="M189.591 209.985C189.591 209.985 187.158 218.595 184.994 220.444C182.829 222.293 175.848 231.365 169.086 232.776C162.324 234.187 159.673 227.06 168.04 220.201C172.749 216.02 176.924 211.273 180.469 206.069C182.975 208.375 186.193 209.756 189.591 209.985Z" fill="#5C1A31"/>
<path d="M239.599 50.96C239.599 50.96 223.23 70.4186 216.371 73.7022C213.794 74.8922 211.01 75.5696 208.174 75.6967C207.444 75.6967 205.523 75.5508 205.401 75.5508C195.15 74.1077 185.138 71.3019 175.629 67.208L177.405 61.6379C182.707 62.6879 188.068 63.4109 193.458 63.8027C196.718 64.0216 204.258 64.3864 207.031 64.8242C207.712 64.508 208.393 64.1919 209.049 63.827C221.211 57.2354 229.311 43.8334 229.311 43.8334C233.337 45.2046 236.9 47.6728 239.599 50.96Z" fill="url(#paint28_linear_32_600)"/>
<path d="M177.794 61.2001C176.994 59.07 175.632 57.1959 173.854 55.776C171.568 54.5599 165.098 50.3276 163.711 51.5924C162.325 52.8573 162.617 58.8894 168.43 64.0459C170.449 65.9409 173.082 67.046 175.849 67.1593L177.794 61.2001Z" fill="#FBB285"/>
<path d="M163.297 55.4599L172.856 64.3865C173.054 64.5567 173.296 64.6675 173.555 64.7062C173.813 64.745 174.077 64.71 174.316 64.6054L180.153 61.7839C180.236 61.7509 180.31 61.7015 180.373 61.6388C180.436 61.5761 180.485 61.5014 180.518 61.4191L180.81 60.4461L179.253 59.8624L164.197 54.1951L163.395 53.9032L163.079 54.9248C163.07 55.0249 163.085 55.1257 163.123 55.2188C163.161 55.3118 163.221 55.3945 163.297 55.4599Z" fill="url(#paint29_linear_32_600)"/>
<path d="M174.608 63.6324L180.47 60.7866C180.565 60.7485 180.648 60.6862 180.71 60.6061C180.773 60.5259 180.814 60.4307 180.829 60.3299C180.844 60.229 180.832 60.126 180.795 60.0312C180.757 59.9364 180.696 59.853 180.616 59.7894L171.057 50.8628C170.854 50.7021 170.613 50.5974 170.357 50.559C170.1 50.5206 169.839 50.5498 169.598 50.6438L163.76 53.4897C163.664 53.5252 163.579 53.5854 163.513 53.6643C163.448 53.7432 163.404 53.838 163.387 53.9391C163.369 54.0402 163.379 54.1441 163.415 54.2402C163.45 54.3364 163.511 54.4215 163.59 54.4869L173.149 63.4135C173.353 63.572 173.594 63.6754 173.85 63.7137C174.105 63.752 174.367 63.7241 174.608 63.6324Z" fill="url(#paint30_linear_32_600)"/>
<g opacity="0.2">
<path d="M173.926 62.0271L178.475 59.838C178.575 59.8065 178.665 59.7473 178.733 59.6672C178.801 59.5871 178.846 59.4894 178.861 59.3852C178.876 59.281 178.862 59.1747 178.819 59.0784C178.777 58.9821 178.708 58.8997 178.621 58.8408L171.202 51.8843C170.998 51.7259 170.757 51.6225 170.501 51.5842C170.246 51.5458 169.984 51.5738 169.743 51.6654L165.219 53.8788C165.122 53.9103 165.036 53.9675 164.97 54.0442C164.903 54.1209 164.859 54.2142 164.841 54.3142C164.824 54.4141 164.834 54.517 164.87 54.6117C164.907 54.7064 164.968 54.7894 165.048 54.8518L172.491 61.8082C172.686 61.9763 172.923 62.086 173.177 62.1247C173.431 62.1635 173.691 62.1296 173.926 62.0271Z" fill="white"/>
</g>
<path d="M173.928 53.6356C173.928 53.6356 172.565 53.8545 172.444 55.022C172.322 56.1895 173.563 55.7274 174.39 55.4599C174.659 55.3623 174.947 55.3249 175.233 55.3501C175.518 55.3753 175.795 55.4626 176.044 55.6058C176.36 56.0193 176.36 53.2951 173.928 53.6356Z" fill="#FBB285"/>
<path d="M167.919 59.984C166.78 58.0965 165.521 56.2847 164.149 54.5599C163.054 53.2951 162.519 55.1436 163.249 56.4328C163.978 57.7219 165.462 60.3488 167.919 59.984Z" fill="#FBB285"/>
<path d="M238.578 120.768C238.578 120.768 216.444 79.4182 202.263 84.0639C192.801 87.153 169.986 132.856 169.986 132.856C172.078 135.848 176.602 135.775 180.178 133.391C180.178 133.391 197.204 119.235 203.115 103.182C203.115 103.182 221.114 144.921 245.023 144.921C246.58 144.921 242.469 124.927 238.578 120.768Z" fill="url(#paint31_linear_32_600)"/>
<path d="M180.178 133.391C180.612 134.126 180.823 134.971 180.786 135.824C180.786 137.526 180.64 143.412 180.64 143.412H151.89C151.9 142.07 152.225 140.748 152.837 139.552C153.45 138.357 154.333 137.322 155.417 136.529C159.066 134.097 164.66 136.529 170.011 132.71C169.987 132.856 171.495 134.17 180.178 133.391Z" fill="#5C1A31"/>
<path d="M251.153 30.7232C251.153 30.7232 261.466 30.7231 266.16 35.0284C270.855 39.3336 266.379 47.9196 261.296 49.0142C256.212 50.1087 240.256 48.2358 238.602 45.5116C236.948 42.7874 238.018 30.9421 251.153 30.7232Z" fill="url(#paint32_linear_32_600)"/>
<path d="M267.426 123.273L272.436 90.9474L271.342 46.363L259.35 42.301L258.718 42.0821L256.018 41.1821L253.878 40.4525L241.23 42.2037L239.162 42.4712H238.432L229.384 43.7118C229.384 72.3645 232.035 78.5426 226.757 101.869C228.095 113.373 233.86 141.904 267.426 123.273Z" fill="url(#paint33_linear_32_600)"/>
<g style="mix-blend-mode:multiply" opacity="0.6">
<path d="M250.303 49.1358C252.799 49.2031 255.247 48.4462 257.27 46.9821C259.292 45.518 260.776 43.4283 261.492 41.0362C261.503 40.9947 261.506 40.9513 261.5 40.9087C261.494 40.8661 261.481 40.8249 261.459 40.7877C261.438 40.7504 261.409 40.7177 261.375 40.6915C261.341 40.6653 261.302 40.6461 261.26 40.6349C261.219 40.6237 261.176 40.6208 261.133 40.6264C261.09 40.6319 261.049 40.6458 261.012 40.6673C260.975 40.6887 260.942 40.7173 260.916 40.7514C260.89 40.7855 260.87 40.8244 260.859 40.866C260.199 43.1298 258.802 45.1084 256.89 46.4876C254.978 47.8669 252.659 48.5678 250.303 48.4791H250.157C250.067 48.4791 249.98 48.515 249.916 48.5788C249.852 48.6427 249.816 48.7293 249.816 48.8196C249.816 48.8633 249.825 48.9065 249.843 48.9465C249.86 48.9866 249.885 49.0226 249.917 49.0523C249.949 49.082 249.987 49.1047 250.028 49.1191C250.07 49.1335 250.113 49.1392 250.157 49.1358H250.303Z" fill="#FFB800"/>
</g>
<g opacity="0.5">
<g style="mix-blend-mode:multiply" opacity="0.6">
<path d="M241.788 47.8953C241.832 47.8955 241.875 47.8866 241.915 47.8692C241.955 47.8518 241.991 47.8263 242.021 47.7943C242.051 47.7623 242.073 47.7245 242.088 47.6833C242.102 47.6421 242.108 47.5983 242.105 47.5548C242.1 47.4702 242.065 47.3898 242.008 47.3277C241.95 47.2655 241.872 47.2255 241.788 47.2143C241.788 47.2143 239.016 47.2143 238.334 43.5415C238.317 43.4552 238.266 43.3792 238.194 43.3293C238.121 43.2794 238.032 43.2595 237.945 43.2739C237.86 43.3014 237.786 43.3576 237.738 43.4329C237.689 43.5083 237.668 43.5982 237.678 43.6874C237.762 44.7549 238.217 45.7595 238.963 46.5278C239.709 47.296 240.699 47.7797 241.764 47.8953H241.788Z" fill="#FFB800"/>
</g>
</g>
<g style="mix-blend-mode:multiply" opacity="0.6">
<path d="M256.432 93.1121C256.432 93.1121 257.891 104.349 254.899 109.847C254.899 109.847 239.989 110.892 229.141 106.636C230.781 101.618 231.706 96.3936 231.89 91.1176L256.432 93.1121Z" fill="#FFB800"/>
</g>
<path d="M248.454 81.2181C248.498 81.215 248.542 81.2031 248.582 81.1831C248.622 81.1631 248.658 81.1353 248.687 81.1014C248.717 81.0675 248.739 81.0281 248.753 80.9856C248.767 80.943 248.773 80.898 248.77 80.8533C248.016 72.5104 251.202 51.4708 251.202 51.2519C251.209 51.2085 251.207 51.1641 251.195 51.1216C251.184 51.0791 251.164 51.0394 251.137 51.0051C251.109 50.9708 251.075 50.9426 251.036 50.9222C250.997 50.9019 250.954 50.8899 250.91 50.8871C250.869 50.8802 250.826 50.8816 250.785 50.8914C250.744 50.9012 250.705 50.9191 250.671 50.944C250.637 50.9689 250.609 51.0005 250.587 51.0366C250.565 51.0728 250.551 51.1129 250.545 51.1546C250.545 51.3736 247.359 72.5104 248.113 80.9262C248.125 81.0079 248.166 81.0825 248.228 81.1362C248.291 81.1898 248.371 81.219 248.454 81.2181Z" fill="white"/>
<path d="M237.434 79.5885C237.52 79.5763 237.598 79.5318 237.653 79.464C237.707 79.3961 237.733 79.3101 237.726 79.2236C236.972 70.8807 240.158 49.6709 240.158 49.452C240.165 49.4086 240.163 49.3642 240.152 49.3217C240.14 49.2792 240.12 49.2395 240.093 49.2052C240.065 49.1708 240.031 49.1426 239.992 49.1223C239.953 49.102 239.91 49.09 239.866 49.0871C239.78 49.0728 239.691 49.0926 239.618 49.1425C239.545 49.1924 239.495 49.2684 239.477 49.3547C239.477 49.5736 236.218 70.8564 237.045 79.2966C237.047 79.343 237.06 79.3883 237.082 79.4293C237.103 79.4703 237.134 79.506 237.171 79.5338C237.208 79.5617 237.251 79.581 237.297 79.5905C237.342 79.5999 237.389 79.5992 237.434 79.5885Z" fill="white"/>
<path d="M223.813 11.824C223.813 11.824 221.381 14.6455 223.813 19.8507C226.246 25.0559 228.678 25.0802 228.678 25.0802C228.678 25.0802 228.654 12.0673 223.813 11.824Z" fill="url(#paint34_linear_32_600)"/>
<path d="M242.689 34.7365L245.121 41.4983L246.216 44.5874C251.08 46.363 256.31 40.4038 256.31 40.4038L253.659 29.434C251.47 28.753 247.335 31.7204 244.732 33.3744C243.492 34.1527 242.689 34.7365 242.689 34.7365Z" fill="#FBB285"/>
<path d="M242.689 34.7365L245.705 43.1767C251.178 40.5984 251.421 31.4285 251.421 31.4285L244.732 33.3744C243.492 34.1527 242.689 34.7365 242.689 34.7365Z" fill="#F49365"/>
<path d="M224.812 20.9452L225.031 21.6506C225.663 23.791 226.514 26.1017 227.463 28.4124C227.657 28.8989 227.876 29.3854 228.071 29.8475L228.582 31.088L229.652 33.5203L230.406 35.15C230.571 35.5219 230.766 35.8798 230.99 36.2202C231.635 37.255 232.509 38.1286 233.544 38.7741C234.778 39.5813 236.202 40.0509 237.675 40.1363C239.147 40.2216 240.616 39.9197 241.935 39.2606C244.221 38.1417 246.8 36.8283 249.013 35.4905L249.354 35.2716C251.058 34.3045 252.684 33.2067 254.218 31.9879C254.34 31.6717 254.462 31.3312 254.559 30.9907C255.429 28.0172 255.735 24.9069 255.459 21.8209C255.459 20.5804 255.216 19.3885 255.021 18.1237C255.009 18.0268 255.009 17.9288 255.021 17.8319C253.416 11.824 251.494 6.01078 251.494 6.01078C242.738 -0.434864 225.225 7.6161 224.009 14.3536C223.841 16.5822 224.114 18.822 224.812 20.9452Z" fill="#FBB285"/>
<path d="M254.534 31.0394C255.404 28.0659 255.709 24.9555 255.434 21.8695C254.231 22.2762 253.122 22.9215 252.174 23.7667C252.636 26.2845 253.43 28.7299 254.534 31.0394Z" fill="url(#paint35_linear_32_600)"/>
<path d="M254.193 15.3996C253.161 15.142 252.069 15.3048 251.157 15.8521C250.245 16.3994 249.587 17.2865 249.328 18.3183L247.407 18.8291C246.934 16.7516 246.111 14.7695 244.975 12.9672C243.491 11.07 239.818 12.0916 238.602 9.70795C238.602 9.70795 230.478 17.0049 224.008 14.7915C216.711 12.2375 233.859 -1.82126 244.318 0.197569C252.442 1.97316 253.901 8.29719 254.193 15.3996Z" fill="url(#paint36_linear_32_600)"/>
<path d="M249.329 18.3183C249.329 18.3183 251.324 13.9645 254.194 15.3995C257.064 16.8346 257.477 25.1288 251.932 26.4909L249.329 18.3183Z" fill="#FBB285"/>
<path d="M232.595 2.58122C229.209 3.99936 225.52 4.54302 221.869 4.16222C216.104 3.28658 215.958 14.1591 222.769 14.4266C229.579 14.6942 232.595 2.58122 232.595 2.58122Z" fill="url(#paint37_linear_32_600)"/>
<path d="M236.973 128.648C236.973 128.648 210.703 137.356 199.928 147.693C189.153 158.031 180.47 206.069 180.47 206.069C181.929 209.401 185.334 210.374 189.591 209.985C189.591 209.985 204.477 183.23 210.655 161.582C210.655 161.582 281.97 148.35 267.425 123.273C266.185 121.108 247.067 125.803 236.973 128.648Z" fill="url(#paint38_linear_32_600)"/>
<path d="M280.39 134.462C280.39 134.462 276.668 139.521 276.984 142.123C277.301 144.726 280.633 149.639 283.333 149.882C286.033 150.126 280.244 143.558 281.606 143.777C282.968 143.996 294.4 153.166 296.759 153.166C299.119 153.166 293.986 148.91 291.895 147.839C294.177 148.813 296.353 150.019 298.389 151.439C299.629 152.655 300.505 150.028 294.375 146.307C294.375 146.307 299.994 149.493 300.383 149.542C301.624 149.712 298.073 145.529 294.984 143.996C296.606 144.82 298.271 145.558 299.97 146.21C300.602 146.21 299.24 144.75 295.884 142.902C292.527 141.053 287.93 133.562 287.93 133.562L280.39 134.462Z" fill="#FBB285"/>
<path d="M271.342 46.363C271.342 46.363 283.844 70.37 286.69 95.4958L288.027 133.635C288.027 133.635 286.762 136.359 280.39 134.535L275.939 99.1443L271.074 79.3696C271.074 79.3696 267.353 57.4787 271.342 46.363Z" fill="url(#paint39_linear_32_600)"/>
<path opacity="0.4" d="M448.609 461.536C470.532 461.536 488.304 459.238 488.304 456.403C488.304 453.569 470.532 451.271 448.609 451.271C426.686 451.271 408.914 453.569 408.914 456.403C408.914 459.238 426.686 461.536 448.609 461.536Z" fill="#64799B"/>
<path d="M443.671 276.606L423.361 289.936L420.199 291.979C419.35 292.524 418.349 292.783 417.342 292.717C416.335 292.651 415.376 292.265 414.605 291.614C409.108 286.919 396.727 275.706 391.084 265.491C390.646 264.712 390.257 263.958 389.917 263.204L395.146 260.067L396.922 261.818C399.803 264.649 402.866 267.29 406.091 269.723C410.275 273.07 414.098 276.845 417.499 280.985C422.169 277.75 428.931 273.152 435.936 268.823L443.671 276.606Z" fill="url(#paint40_linear_32_600)"/>
<path d="M384.225 258.51C384.225 258.51 384.225 258.753 384.444 259.118C385.052 260.675 386.876 264.566 390.306 263.691C392.283 263.084 394.079 261.997 395.535 260.529C396.19 258.371 396.638 256.155 396.873 253.913C396.873 251.48 393.395 251.043 392.008 252.113C392.008 252.113 388.311 244.378 386.268 244.354C384.225 244.329 387.971 251.213 387.971 251.213C387.234 251.196 386.503 251.334 385.824 251.619C385.145 251.904 384.534 252.329 384.03 252.867C381.72 254.715 381.257 257.683 384.225 258.51Z" fill="#FBB285"/>
<path d="M384.225 258.51C384.225 258.51 384.225 258.753 384.444 259.118C385.592 259.014 386.706 258.673 387.715 258.116C388.724 257.559 389.606 256.799 390.306 255.883C390.817 256.686 393.298 256.929 394.806 255.299C393.916 255.859 392.849 256.067 391.814 255.883C391.605 255.845 391.407 255.761 391.235 255.636C391.063 255.511 390.922 255.35 390.821 255.162C390.721 254.975 390.664 254.768 390.655 254.556C390.645 254.344 390.684 254.132 390.768 253.937C390.651 254.092 390.545 254.254 390.452 254.424C388.935 256.49 386.725 257.941 384.225 258.51Z" fill="#F49365"/>
<path d="M478.308 374.021C478.308 374.653 478.308 375.31 478.137 375.967C477.043 387.788 474.246 402.114 474.246 402.114C479.499 409.411 471.473 434.877 471.473 434.877L465.635 437.091L460.892 378.715L460.746 377.037L460.138 369.472C460.138 369.472 477.602 358.94 478.332 363.732C478.692 367.153 478.684 370.602 478.308 374.021Z" fill="#FBB285"/>
<path d="M478.308 374.021C473.881 376.575 465.368 376.988 460.746 377.037L460.138 369.472C460.138 369.472 477.602 358.94 478.332 363.732C478.692 367.153 478.684 370.602 478.308 374.021Z" fill="#F49365"/>
<path d="M472.786 437.626C472.786 439.158 472.105 450.979 471.789 455.674H469.697V445.944C468.864 448.048 467.804 450.054 466.535 451.928L466.17 452.414C465.141 454.06 463.538 455.265 461.671 455.795C458.255 456.196 454.806 456.237 451.382 455.917C451.271 455.907 451.165 455.868 451.075 455.802C450.985 455.736 450.915 455.647 450.872 455.544C450.829 455.441 450.816 455.328 450.833 455.218C450.85 455.108 450.897 455.005 450.968 454.92C452.112 453.606 454.374 451.052 456.563 448.474L456.976 447.963L458.241 446.455C459.871 444.509 461.257 442.758 461.89 441.834C462.919 440.273 464.065 438.793 465.319 437.407C467.095 435.437 469.016 433.783 470.184 434.026C470.314 434.041 470.434 434.101 470.524 434.196C470.893 434.378 471.237 434.607 471.546 434.877C471.951 435.208 472.274 435.629 472.489 436.106C472.705 436.583 472.806 437.103 472.786 437.626Z" fill="#5C1A31"/>
<path d="M471.473 434.877C470.944 435.444 470.464 436.054 470.037 436.702C470.037 436.848 469.308 437.991 469.259 438.137C467.484 442.32 464.054 447.404 461.014 448.863C457.171 450.712 456.587 448.571 456.562 448.474L456.976 447.963L458.241 446.455C459.87 444.509 461.257 442.758 461.889 441.834C462.918 440.273 464.065 438.793 465.319 437.407C467.094 435.437 469.016 433.783 470.183 434.026C470.313 434.041 470.434 434.101 470.524 434.196C470.867 434.383 471.186 434.612 471.473 434.877Z" fill="#FBB285"/>
<path d="M455.054 375.845C453.4 387.034 445.787 403.768 445.787 403.768C451.041 411.065 440.217 438.404 440.217 438.404H434.817L437.25 380.491L437.736 368.864C437.736 368.864 449.898 363.708 453.668 366.797C455.443 368.256 455.662 371.661 455.054 375.845Z" fill="#FBB285"/>
<path d="M455.054 375.845C449.561 378.735 443.478 380.324 437.274 380.491L437.76 368.864C437.76 368.864 449.922 363.708 453.692 366.797C455.443 368.256 455.662 371.661 455.054 375.845Z" fill="#F49365"/>
<path d="M442.723 437.626C442.723 439.158 442.042 450.979 441.726 455.674H439.634V445.944C438.801 448.048 437.741 450.054 436.472 451.928L436.107 452.414C435.078 454.06 433.474 455.265 431.607 455.795C428.191 456.196 424.743 456.237 421.318 455.917C421.207 455.907 421.101 455.868 421.011 455.802C420.921 455.736 420.851 455.647 420.809 455.544C420.766 455.441 420.752 455.328 420.769 455.218C420.786 455.108 420.833 455.005 420.905 454.92C422.048 453.606 424.31 451.052 426.499 448.474L426.913 447.963L428.178 446.455C429.807 444.509 431.194 442.758 431.826 441.834C432.855 440.273 434.002 438.793 435.256 437.407C437.031 435.437 438.953 433.783 440.12 434.026C440.248 434.048 440.367 434.107 440.461 434.196C440.83 434.378 441.173 434.607 441.482 434.877C441.888 435.208 442.211 435.629 442.426 436.106C442.641 436.583 442.743 437.103 442.723 437.626Z" fill="#5C1A31"/>
<path d="M441.483 434.877C440.947 435.438 440.467 436.049 440.048 436.702C440.048 436.848 439.318 437.991 439.269 438.137C437.47 442.32 434.064 447.404 431.024 448.863C427.181 450.712 426.597 448.571 426.573 448.474L426.986 447.963L428.251 446.455C429.881 444.509 431.267 442.758 431.9 441.834C432.929 440.273 434.075 438.793 435.329 437.407C437.105 435.437 439.026 433.783 440.194 434.026C440.322 434.048 440.44 434.107 440.534 434.196C440.878 434.383 441.196 434.612 441.483 434.877Z" fill="#FBB285"/>
<path d="M439.244 324.985C439.244 324.985 436.544 362.419 437.274 375.602C437.274 375.602 458.654 373.169 478.623 370.591C482.296 357.092 479.693 327.782 471.107 316.618C461.819 323.107 450.522 326.073 439.244 324.985Z" fill="url(#paint41_linear_32_600)"/>
<path d="M453.644 277.822L447.198 276.971C444.155 276.276 441.066 275.797 437.955 275.536L430.148 232.8C429.798 231.412 429.849 229.953 430.294 228.592C434.356 217.744 455.541 220.031 462.206 229.857C470.524 242.019 465.83 278.771 465.83 278.771C462.668 278.528 462.668 278.528 456.83 277.895L453.644 277.822Z" fill="url(#paint42_linear_32_600)"/>
<path d="M474.124 321.75C462.668 325.642 447.904 331.893 439.391 327.272L434.794 294.606C433.835 290.626 433.613 286.504 434.137 282.444L435.888 268.969L441.531 267.072L442.261 266.804L452.817 263.253L453.62 263.472L455.468 263.983L466.803 267.12L468.919 309.029L474.124 321.75Z" fill="url(#paint43_linear_32_600)"/>
<path d="M452.913 263.885C452.596 272.16 449.113 279.996 443.184 285.776C441.644 279.515 441.33 273.014 442.26 266.634L452.816 263.083L452.913 263.885Z" fill="#FBB285"/>
<path d="M474.951 330.653L470.476 329.096C473.124 323.567 475.194 317.78 476.654 311.826C477.554 306.646 477.821 302.219 478.186 300.005C476.995 297.257 472.033 286.384 466.025 282.809C465.385 277.513 465.615 272.148 466.706 266.926C466.706 266.926 484.851 277.482 487.697 297.427C488.426 313.505 474.951 330.653 474.951 330.653Z" fill="url(#paint44_linear_32_600)"/>
<path d="M466.048 334.398C465.789 333.855 465.654 333.261 465.654 332.659C465.654 332.057 465.789 331.463 466.048 330.92C466.899 328.974 470.426 329.096 470.426 329.096L474.902 330.653C475.513 333.426 475.134 336.326 473.831 338.849C471.076 337.666 468.465 336.173 466.048 334.398Z" fill="#FBB285"/>
<path d="M452.915 263.885C452.466 264.423 451.978 264.927 451.455 265.393C450.264 266.485 448.854 267.31 447.319 267.813C445.784 268.317 444.159 268.487 442.553 268.312L442.018 264.25L441.507 260.237L441.361 259.094C442.139 257.719 443.06 256.43 444.11 255.251C445.103 254.067 446.307 253.077 447.661 252.332C448.901 251.606 450.368 251.372 451.772 251.675L452.088 254.934L452.89 263.618L452.915 263.885Z" fill="#FBB285"/>
<path d="M450.458 253.426C450.458 253.426 448.172 261.915 442.018 264.25L441.361 259.094C442.139 257.719 443.06 256.43 444.11 255.251L450.458 253.426Z" fill="#F49365"/>
<path d="M455.054 251.213C453.663 253.546 451.779 255.547 449.533 257.075L448.584 257.683C447.657 258.226 446.689 258.698 445.69 259.094C444.333 259.614 442.933 260.013 441.506 260.285C439.174 260.725 436.801 260.913 434.428 260.845C433.418 260.797 432.428 260.539 431.522 260.088C430.616 259.637 429.814 259.002 429.167 258.224C428.52 257.447 428.041 256.543 427.762 255.57C427.483 254.598 427.409 253.578 427.545 252.575L431.388 228.252L432.215 227.838C447.563 220.371 463.373 237.203 455.054 251.213Z" fill="#FBB285"/>
<path d="M430.585 238.589L426.061 246.956C426.061 246.956 426.061 246.956 426.061 247.102L428.956 248.635C428.956 248.635 431.753 246.932 430.585 238.589Z" fill="#FBB285"/>
<path d="M455.055 251.213C454.233 252.592 453.235 253.859 452.088 254.983L452.891 263.666C450.808 262.228 449.287 260.114 448.585 257.683C448.131 255.944 447.822 254.17 447.661 252.38C447.442 249.802 447.661 248.002 448.658 247.954C452.939 247.783 455.955 237.932 450.41 237.543C445.545 237.227 446.518 242.676 444.207 242.262C443.978 242.221 443.763 242.124 443.58 241.98C443.398 241.836 443.254 241.648 443.161 241.435C442.545 239.843 441.591 238.403 440.365 237.215C439.139 236.027 437.67 235.118 436.059 234.552C434.044 233.921 432.259 232.712 430.927 231.073L431.389 228.13L432.216 227.717C447.564 220.371 463.374 237.203 455.055 251.213Z" fill="url(#paint45_linear_32_600)"/>
<defs>
<linearGradient id="paint0_linear_32_600" x1="425.792" y1="112.91" x2="428.722" y2="187.524" gradientUnits="userSpaceOnUse">
<stop stop-color="white"/>
<stop offset="0.22" stop-color="white" stop-opacity="0.76"/>
<stop offset="0.6" stop-color="white" stop-opacity="0.36"/>
<stop offset="0.87" stop-color="white" stop-opacity="0.1"/>
<stop offset="1" stop-color="white" stop-opacity="0"/>
</linearGradient>
<linearGradient id="paint1_linear_32_600" x1="280.709" y1="13.0069" x2="280.709" y2="87.6204" gradientUnits="userSpaceOnUse">
<stop stop-color="white"/>
<stop offset="0.22" stop-color="white" stop-opacity="0.76"/>
<stop offset="0.6" stop-color="white" stop-opacity="0.36"/>
<stop offset="0.87" stop-color="white" stop-opacity="0.1"/>
<stop offset="1" stop-color="white" stop-opacity="0"/>
</linearGradient>
<linearGradient id="paint2_linear_32_600" x1="90.9755" y1="115.424" x2="90.9755" y2="189.042" gradientUnits="userSpaceOnUse">
<stop stop-color="white"/>
<stop offset="0.22" stop-color="white" stop-opacity="0.76"/>
<stop offset="0.6" stop-color="white" stop-opacity="0.36"/>
<stop offset="0.87" stop-color="white" stop-opacity="0.1"/>
<stop offset="1" stop-color="white" stop-opacity="0"/>
</linearGradient>
<linearGradient id="paint3_linear_32_600" x1="319.331" y1="418.775" x2="319.331" y2="-33.9765" gradientUnits="userSpaceOnUse">
<stop stop-color="#031A2F"/>
<stop offset="1" stop-color="#00446F"/>
</linearGradient>
<linearGradient id="paint4_linear_32_600" x1="319.405" y1="169.438" x2="319.405" y2="144.629" gradientUnits="userSpaceOnUse">
<stop stop-color="#D2D2D2"/>
<stop offset="0.31" stop-color="#DBDBDB"/>
<stop offset="0.82" stop-color="#F5F5F5"/>
<stop offset="0.99" stop-color="white"/>
</linearGradient>
<linearGradient id="paint5_linear_32_600" x1="319.331" y1="525.214" x2="319.331" y2="316.472" gradientUnits="userSpaceOnUse">
<stop stop-color="#D2D2D2"/>
<stop offset="0.31" stop-color="#DBDBDB"/>
<stop offset="0.82" stop-color="#F5F5F5"/>
<stop offset="0.99" stop-color="white"/>
</linearGradient>
<linearGradient id="paint6_linear_32_600" x1="319.938" y1="278.246" x2="319.938" y2="173.785" gradientUnits="userSpaceOnUse">
<stop stop-color="#5B718F"/>
<stop offset="1" stop-color="#AAC9FF"/>
</linearGradient>
<linearGradient id="paint7_linear_32_600" x1="325.509" y1="262.572" x2="325.509" y2="201.35" gradientUnits="userSpaceOnUse">
<stop stop-color="#5B718F"/>
<stop offset="1" stop-color="#AAC9FF"/>
</linearGradient>
<linearGradient id="paint8_linear_32_600" x1="319.38" y1="389.831" x2="319.38" y2="353.468" gradientUnits="userSpaceOnUse">
<stop stop-color="#D2D2D2"/>
<stop offset="0.31" stop-color="#DBDBDB"/>
<stop offset="0.82" stop-color="#F5F5F5"/>
<stop offset="0.99" stop-color="white"/>
</linearGradient>
<linearGradient id="paint9_linear_32_600" x1="291.505" y1="363.416" x2="347.181" y2="363.416" gradientUnits="userSpaceOnUse">
<stop stop-color="#031A2F"/>
<stop offset="1" stop-color="#00446F"/>
</linearGradient>
<linearGradient id="paint10_linear_32_600" x1="319.404" y1="337.414" x2="319.404" y2="431.01" gradientUnits="userSpaceOnUse">
<stop stop-color="#D2D2D2"/>
<stop offset="0.31" stop-color="#DBDBDB"/>
<stop offset="0.82" stop-color="#F5F5F5"/>
<stop offset="0.99" stop-color="white"/>
</linearGradient>
<linearGradient id="paint11_linear_32_600" x1="318.869" y1="402.454" x2="314.978" y2="510.523" gradientUnits="userSpaceOnUse">
<stop stop-color="#D2D2D2"/>
<stop offset="0.31" stop-color="#DBDBDB"/>
<stop offset="0.82" stop-color="#F5F5F5"/>
<stop offset="0.99" stop-color="white"/>
</linearGradient>
<linearGradient id="paint12_linear_32_600" x1="319.404" y1="449.909" x2="319.404" y2="420.138" gradientUnits="userSpaceOnUse">
<stop stop-color="#D2D2D2"/>
<stop offset="0.31" stop-color="#DBDBDB"/>
<stop offset="0.82" stop-color="#F5F5F5"/>
<stop offset="0.99" stop-color="white"/>
</linearGradient>
<linearGradient id="paint13_linear_32_600" x1="470.961" y1="488.899" x2="475.266" y2="453.801" gradientUnits="userSpaceOnUse">
<stop stop-color="#D2D2D2"/>
<stop offset="0.31" stop-color="#DBDBDB"/>
<stop offset="0.82" stop-color="#F5F5F5"/>
<stop offset="0.99" stop-color="white"/>
</linearGradient>
<linearGradient id="paint14_linear_32_600" x1="458.752" y1="487.391" x2="463.033" y2="452.317" gradientUnits="userSpaceOnUse">
<stop stop-color="#D2D2D2"/>
<stop offset="0.31" stop-color="#DBDBDB"/>
<stop offset="0.82" stop-color="#F5F5F5"/>
<stop offset="0.99" stop-color="white"/>
</linearGradient>
<linearGradient id="paint15_linear_32_600" x1="312.642" y1="510.863" x2="312.642" y2="445.312" gradientUnits="userSpaceOnUse">
<stop stop-color="#D2D2D2"/>
<stop offset="0.31" stop-color="#DBDBDB"/>
<stop offset="0.82" stop-color="#F5F5F5"/>
<stop offset="0.99" stop-color="white"/>
</linearGradient>
<linearGradient id="paint16_linear_32_600" x1="104.363" y1="451.685" x2="104.363" y2="481.262" gradientUnits="userSpaceOnUse">
<stop stop-color="#FFCC33"/>
<stop offset="1" stop-color="#FFB800"/>
</linearGradient>
<linearGradient id="paint17_linear_32_600" x1="105.068" y1="430.815" x2="102.222" y2="466.084" gradientUnits="userSpaceOnUse">
<stop stop-color="#F86D28"/>
<stop offset="1" stop-color="#EA3725"/>
</linearGradient>
<linearGradient id="paint18_linear_32_600" x1="92.3231" y1="437.796" x2="94.1473" y2="314.964" gradientUnits="userSpaceOnUse">
<stop stop-color="#5F00B7"/>
<stop offset="1" stop-color="#6584E1"/>
</linearGradient>
<linearGradient id="paint19_linear_32_600" x1="92.3958" y1="318.053" x2="96.9443" y2="287.649" gradientUnits="userSpaceOnUse">
<stop stop-color="#031A2F"/>
<stop offset="1" stop-color="#00446F"/>
</linearGradient>
<linearGradient id="paint20_linear_32_600" x1="94.488" y1="403.306" x2="89.0153" y2="468.662" gradientUnits="userSpaceOnUse">
<stop stop-color="#031A2F"/>
<stop offset="1" stop-color="#00446F"/>
</linearGradient>
<linearGradient id="paint21_linear_32_600" x1="85.6829" y1="531.732" x2="79.6021" y2="467.276" gradientUnits="userSpaceOnUse">
<stop stop-color="#031A2F"/>
<stop offset="1" stop-color="#00446F"/>
</linearGradient>
<linearGradient id="paint22_linear_32_600" x1="120.561" y1="528.449" x2="114.48" y2="463.992" gradientUnits="userSpaceOnUse">
<stop stop-color="#031A2F"/>
<stop offset="1" stop-color="#00446F"/>
</linearGradient>
<linearGradient id="paint23_linear_32_600" x1="63.1838" y1="437.358" x2="65.008" y2="314.526" gradientUnits="userSpaceOnUse">
<stop stop-color="#5F00B7"/>
<stop offset="1" stop-color="#6584E1"/>
</linearGradient>
<linearGradient id="paint24_linear_32_600" x1="65.8346" y1="437.407" x2="67.6589" y2="314.575" gradientUnits="userSpaceOnUse">
<stop stop-color="#5F00B7"/>
<stop offset="1" stop-color="#6584E1"/>
</linearGradient>
<linearGradient id="paint25_linear_32_600" x1="122.069" y1="438.234" x2="123.894" y2="315.402" gradientUnits="userSpaceOnUse">
<stop stop-color="#5F00B7"/>
<stop offset="1" stop-color="#6584E1"/>
</linearGradient>
<linearGradient id="paint26_linear_32_600" x1="120.269" y1="438.21" x2="122.094" y2="315.377" gradientUnits="userSpaceOnUse">
<stop stop-color="#5F00B7"/>
<stop offset="1" stop-color="#6584E1"/>
</linearGradient>
<linearGradient id="paint27_linear_32_600" x1="92.0074" y1="426.583" x2="93.2235" y2="380.783" gradientUnits="userSpaceOnUse">
<stop stop-color="#D2D2D2"/>
<stop offset="0.31" stop-color="#DBDBDB"/>
<stop offset="0.82" stop-color="#F5F5F5"/>
<stop offset="0.99" stop-color="white"/>
</linearGradient>
<linearGradient id="paint28_linear_32_600" x1="209.803" y1="28.4611" x2="204.112" y2="110.941" gradientUnits="userSpaceOnUse">
<stop stop-color="#FFCC33"/>
<stop offset="1" stop-color="#FFB800"/>
</linearGradient>
<linearGradient id="paint29_linear_32_600" x1="172.346" y1="63.8514" x2="172.808" y2="70.6862" gradientUnits="userSpaceOnUse">
<stop stop-color="#031A2F"/>
<stop offset="1" stop-color="#00446F"/>
</linearGradient>
<linearGradient id="paint30_linear_32_600" x1="157.047" y1="66.9161" x2="177.868" y2="53.3923" gradientUnits="userSpaceOnUse">
<stop stop-color="#031A2F"/>
<stop offset="1" stop-color="#00446F"/>
</linearGradient>
<linearGradient id="paint31_linear_32_600" x1="218.414" y1="139.886" x2="176.675" y2="92.4554" gradientUnits="userSpaceOnUse">
<stop stop-color="#031A2F"/>
<stop offset="1" stop-color="#00446F"/>
</linearGradient>
<linearGradient id="paint32_linear_32_600" x1="253.755" y1="31.4772" x2="248.064" y2="113.981" gradientUnits="userSpaceOnUse">
<stop stop-color="#FFCC33"/>
<stop offset="1" stop-color="#FFB800"/>
</linearGradient>
<linearGradient id="paint33_linear_32_600" x1="253.391" y1="31.4529" x2="247.7" y2="113.933" gradientUnits="userSpaceOnUse">
<stop stop-color="#FFCC33"/>
<stop offset="1" stop-color="#FFB800"/>
</linearGradient>
<linearGradient id="paint34_linear_32_600" x1="228.386" y1="28.8989" x2="217.587" y2="-12.5964" gradientUnits="userSpaceOnUse">
<stop stop-color="#031A2F"/>
<stop offset="1" stop-color="#00446F"/>
</linearGradient>
<linearGradient id="paint35_linear_32_600" x1="253.634" y1="22.3317" x2="242.834" y2="-19.1636" gradientUnits="userSpaceOnUse">
<stop stop-color="#031A2F"/>
<stop offset="1" stop-color="#00446F"/>
</linearGradient>
<linearGradient id="paint36_linear_32_600" x1="241.569" y1="25.4694" x2="230.77" y2="-16.026" gradientUnits="userSpaceOnUse">
<stop stop-color="#031A2F"/>
<stop offset="1" stop-color="#00446F"/>
</linearGradient>
<linearGradient id="paint37_linear_32_600" x1="230.868" y1="28.2665" x2="220.069" y2="-13.2532" gradientUnits="userSpaceOnUse">
<stop stop-color="#031A2F"/>
<stop offset="1" stop-color="#00446F"/>
</linearGradient>
<linearGradient id="paint38_linear_32_600" x1="247.286" y1="207.042" x2="214.449" y2="147.45" gradientUnits="userSpaceOnUse">
<stop stop-color="#031A2F"/>
<stop offset="1" stop-color="#00446F"/>
</linearGradient>
<linearGradient id="paint39_linear_32_600" x1="283.065" y1="33.496" x2="277.374" y2="115.976" gradientUnits="userSpaceOnUse">
<stop stop-color="#FFCC33"/>
<stop offset="1" stop-color="#FFB800"/>
</linearGradient>
<linearGradient id="paint40_linear_32_600" x1="365.569" y1="277.628" x2="446.808" y2="275.196" gradientUnits="userSpaceOnUse">
<stop stop-color="#F86D28"/>
<stop offset="1" stop-color="#EA3725"/>
</linearGradient>
<linearGradient id="paint41_linear_32_600" x1="477.528" y1="416.562" x2="439.828" y2="298.595" gradientUnits="userSpaceOnUse">
<stop stop-color="#031A2F"/>
<stop offset="1" stop-color="#00446F"/>
</linearGradient>
<linearGradient id="paint42_linear_32_600" x1="451.114" y1="261.623" x2="444.425" y2="207.918" gradientUnits="userSpaceOnUse">
<stop stop-color="#031A2F"/>
<stop offset="1" stop-color="#00446F"/>
</linearGradient>
<linearGradient id="paint43_linear_32_600" x1="458.947" y1="327.88" x2="437.591" y2="215.458" gradientUnits="userSpaceOnUse">
<stop stop-color="#F86D28"/>
<stop offset="1" stop-color="#EA3725"/>
</linearGradient>
<linearGradient id="paint44_linear_32_600" x1="481.64" y1="326.858" x2="459.239" y2="208.842" gradientUnits="userSpaceOnUse">
<stop stop-color="#F86D28"/>
<stop offset="1" stop-color="#EA3725"/>
</linearGradient>
<linearGradient id="paint45_linear_32_600" x1="447.345" y1="262.11" x2="440.656" y2="208.38" gradientUnits="userSpaceOnUse">
<stop stop-color="#031A2F"/>
<stop offset="1" stop-color="#00446F"/>
</linearGradient>
</defs>
</svg>
