<svg width="347" height="255" viewBox="0 0 347 255" fill="none" xmlns="http://www.w3.org/2000/svg">
<path d="M76.8501 70.3568L12.2832 113.546L75.879 208.62L140.446 165.43L76.8501 70.3568Z" fill="#F5F5F5"/>
<path d="M107.079 160.929L106.348 165.463L74.25 160.837L74.9808 156.302L107.079 160.929Z" fill="#E0E0E0"/>
<path d="M90.9146 144.753L95.5182 145.415L90.414 177.018L85.8047 176.351L90.9146 144.753Z" fill="#E0E0E0"/>
<path d="M61.3491 104.587C61.3952 104.656 54.9272 109.064 46.8997 114.433C38.8723 119.802 32.3295 124.1 32.2834 124.031C32.2374 123.962 38.7054 119.554 46.7328 114.185C54.7603 108.811 61.3031 104.518 61.3491 104.587Z" fill="#E0E0E0"/>
<path d="M85.0972 98.6255C85.1433 98.6945 74.3825 105.974 61.0667 114.876C47.7452 123.784 36.9153 130.948 36.8693 130.879C36.8233 130.81 47.5783 123.536 60.8998 114.623C74.2156 105.721 85.0512 98.5564 85.0972 98.6255Z" fill="#E0E0E0"/>
<path d="M89.8551 105.738C89.9011 105.807 79.1403 113.086 65.8245 121.988C52.503 130.896 41.6731 138.06 41.6271 137.991C41.5811 137.922 52.3361 130.649 65.6576 121.735C78.9734 112.839 89.809 105.669 89.8551 105.738Z" fill="#E0E0E0"/>
<path d="M94.6148 112.856C94.6609 112.925 83.9001 120.205 70.5843 129.107C57.2628 138.015 46.4329 145.179 46.3869 145.11C46.3408 145.041 57.0959 137.767 70.4174 128.854C83.7332 119.951 94.5688 112.787 94.6148 112.856Z" fill="#E0E0E0"/>
<path d="M99.3746 119.974C99.4206 120.043 88.6598 127.323 75.3441 136.225C62.0225 145.133 51.1927 152.297 51.1466 152.228C51.1006 152.159 61.8556 144.885 75.1772 135.972C88.4929 127.07 99.3286 119.905 99.3746 119.974Z" fill="#E0E0E0"/>
<path d="M292.753 134.063L238.527 170.336L291.936 250.18L346.162 213.907L292.753 134.063Z" fill="#F5F5F5"/>
<path d="M318.14 210.141L317.524 213.95L290.57 210.066L291.18 206.256L318.14 210.141Z" fill="#E0E0E0"/>
<path d="M304.564 196.554L308.431 197.113L304.144 223.652L300.271 223.094L304.564 196.554Z" fill="#E0E0E0"/>
<path d="M279.735 162.822C279.781 162.891 274.354 166.602 267.61 171.108C260.866 175.62 255.365 179.216 255.319 179.147C255.273 179.078 260.699 175.366 267.443 170.855C274.187 166.349 279.689 162.753 279.735 162.822Z" fill="#E0E0E0"/>
<path d="M299.676 157.816C299.722 157.885 290.693 164.007 279.506 171.488C268.32 178.969 259.216 184.976 259.17 184.907C259.124 184.838 268.153 178.721 279.339 171.235C290.526 163.754 299.63 157.746 299.676 157.816Z" fill="#E0E0E0"/>
<path d="M303.674 163.789C303.72 163.858 294.691 169.98 283.504 177.461C272.318 184.942 263.214 190.95 263.168 190.88C263.122 190.811 272.151 184.694 283.337 177.208C294.524 169.733 303.628 163.725 303.674 163.789Z" fill="#E0E0E0"/>
<path d="M307.674 169.767C307.72 169.836 298.691 175.959 287.504 183.44C276.318 190.921 267.214 196.928 267.168 196.859C267.122 196.79 276.151 190.673 287.337 183.187C298.518 175.706 307.628 169.698 307.674 169.767Z" fill="#E0E0E0"/>
<path d="M311.668 175.746C311.714 175.815 302.685 181.938 291.498 189.419C280.312 196.9 271.208 202.907 271.162 202.838C271.116 202.769 280.145 196.652 291.332 189.166C302.518 181.685 311.622 175.677 311.668 175.746Z" fill="#E0E0E0"/>
<path d="M206.959 73.8455L147.793 42.2026L101.2 129.323L160.366 160.966L206.959 73.8455Z" fill="#F5F5F5"/>
<path d="M150.234 133.716L146.482 134.999L136.953 108.661L140.705 107.372L150.234 133.716Z" fill="#E0E0E0"/>
<path d="M155.99 114.818L157.359 118.599L131.2 127.559L129.83 123.778L155.99 114.818Z" fill="#E0E0E0"/>
<path d="M174.577 75.9529C174.531 76.0392 168.529 72.9203 161.175 68.9842C153.815 65.0482 147.894 61.7912 147.94 61.7049C147.986 61.6186 153.988 64.7375 161.342 68.6735C168.702 72.6095 174.623 75.8666 174.577 75.9529Z" fill="#E0E0E0"/>
<path d="M188.78 91.6279C188.734 91.7143 178.802 86.495 166.603 79.9695C154.397 73.4439 144.54 68.0808 144.586 67.9945C144.632 67.9081 154.564 73.1274 166.769 79.6587C178.969 86.1785 188.826 91.5416 188.78 91.6279Z" fill="#E0E0E0"/>
<path d="M185.292 98.1477C185.246 98.234 175.314 93.0148 163.114 86.4892C150.909 79.9637 141.052 74.6006 141.098 74.5142C141.144 74.4279 151.076 79.6472 163.281 86.1785C175.481 92.6983 185.338 98.0614 185.292 98.1477Z" fill="#E0E0E0"/>
<path d="M181.806 104.667C181.76 104.754 171.827 99.5345 159.628 93.009C147.423 86.4835 137.565 81.1203 137.611 81.034C137.658 80.9477 147.59 86.167 159.795 92.6983C171.994 99.218 181.852 104.581 181.806 104.667Z" fill="#E0E0E0"/>
<path d="M178.317 111.187C178.271 111.274 168.339 106.054 156.14 99.5288C143.935 93.0033 134.077 87.6401 134.123 87.5538C134.169 87.4675 144.101 92.6868 156.307 99.218C168.506 105.738 178.363 111.101 178.317 111.187Z" fill="#E0E0E0"/>
<path opacity="0.2" d="M178.623 0H177.139V25.308H178.623V0Z" fill="black"/>
<path d="M143.223 55.9275H212.541C212.541 55.9275 206.142 25.2966 177.358 25.2966C151.756 25.2966 143.223 55.9275 143.223 55.9275Z" fill="#5B718F"/>
<path d="M178.623 0H177.139V25.308H178.623V0Z" fill="#5B718F"/>
<path d="M332.221 253.098C332.221 253.178 257.845 253.247 166.119 253.247C74.3589 253.247 0 253.178 0 253.098C0 253.017 74.3589 252.948 166.119 252.948C257.845 252.948 332.221 253.011 332.221 253.098Z" fill="#263238"/>
<path d="M18.3848 217.057C20.3298 217.126 22.154 218.179 23.4372 219.647C24.7205 221.108 25.5088 222.95 26.0095 224.832C26.982 228.468 26.3835 232.767 25.3477 236.387C21.4059 234.977 18.9775 230.776 17.8784 228.566C16.1464 225.079 15.1278 217.713 18.3848 217.057Z" fill="#5B718F"/>
<path d="M31.0164 240.794C29.7734 239.01 29.7447 236.53 30.7287 234.585C31.7127 232.646 33.6001 231.248 35.6775 230.609C36.6385 230.316 37.7548 230.189 38.5892 230.747C39.3718 231.271 39.7114 232.295 39.6078 233.227C39.5042 234.159 39.0323 235.017 38.4742 235.771C36.5579 238.372 34.2331 240.53 31.0164 240.794Z" fill="#5B718F"/>
<path d="M31.4535 252.954C31.4363 252.959 31.373 252.689 31.2751 252.2C31.1715 251.659 31.0334 250.963 30.8723 250.128C30.5616 248.385 30.0667 245.904 30.4407 243.165C30.7975 240.438 31.8851 238.101 33.0245 236.709C33.5827 236.007 34.1236 235.506 34.5206 235.201C34.7105 235.04 34.8832 234.942 34.9867 234.862C35.0961 234.787 35.1594 234.752 35.1651 234.764C35.2054 234.81 34.2444 235.408 33.1798 236.83C32.1038 238.228 31.068 240.518 30.7112 243.206C30.3429 245.893 30.7975 248.35 31.0622 250.099C31.2003 250.98 31.3154 251.693 31.3845 252.188C31.442 252.677 31.4708 252.954 31.4535 252.954Z" fill="#263238"/>
<path d="M19.651 222.599C19.6625 222.593 19.7143 222.697 19.8121 222.898C19.9157 223.123 20.0538 223.416 20.2207 223.773C20.566 224.538 21.0608 225.649 21.6535 227.024C22.839 229.78 24.4272 233.613 26.0845 237.877C27.7417 242.147 29.1516 246.048 30.1298 248.879C30.619 250.295 31.0103 251.446 31.2692 252.246C31.3901 252.626 31.4879 252.931 31.5627 253.166C31.626 253.379 31.6548 253.489 31.649 253.494C31.6375 253.5 31.5915 253.391 31.5109 253.184C31.4246 252.948 31.3095 252.649 31.1714 252.28C30.8722 251.463 30.4578 250.33 29.9514 248.943C28.9214 246.123 27.4828 242.239 25.8313 237.969C24.174 233.705 22.6203 229.867 21.4809 227.093C20.9227 225.729 20.4624 224.613 20.1286 223.807C19.979 223.439 19.8639 223.14 19.7718 222.91C19.6798 222.708 19.6452 222.599 19.651 222.599Z" fill="#263238"/>
<path d="M26.7757 244.909C24.4509 240.956 20.1178 238.263 15.543 237.929C14.3806 237.842 12.9765 238.038 12.4586 239.085C11.9407 240.133 12.6313 241.37 13.4254 242.233C16.7284 245.807 22.3102 247.055 26.816 245.225" fill="#5B718F"/>
<path d="M17.3145 241.048C17.3145 241.03 17.5734 241.042 18.0453 241.076C18.2812 241.094 18.5689 241.111 18.8969 241.174C19.225 241.238 19.6047 241.272 20.0133 241.381C20.4219 241.479 20.8765 241.583 21.3426 241.75C21.8202 241.888 22.3093 242.095 22.8215 242.314C23.8343 242.774 24.9161 243.378 25.9404 244.161C26.9589 244.955 27.8163 245.841 28.5184 246.71C28.8521 247.153 29.1744 247.579 29.4276 248.011C29.7038 248.425 29.9109 248.839 30.1008 249.213C30.308 249.582 30.4288 249.944 30.567 250.249C30.7051 250.554 30.7856 250.83 30.8547 251.055C30.9928 251.504 31.0618 251.751 31.0446 251.757C30.987 251.78 30.7051 250.773 29.9282 249.3C29.7268 248.937 29.5139 248.534 29.2319 248.131C28.9787 247.711 28.6565 247.303 28.317 246.871C27.6207 246.025 26.769 245.162 25.7677 244.38C24.7607 243.608 23.7077 243.01 22.7121 242.544C22.2115 242.325 21.7281 242.112 21.262 241.968C20.8074 241.796 20.3643 241.686 19.9615 241.571C18.3503 241.163 17.3087 241.111 17.3145 241.048Z" fill="#263238"/>
<path d="M278.528 60.692C276.836 61.0833 276.013 63.0283 275.852 64.7547C275.691 66.481 275.91 68.3109 275.185 69.8876C274.367 71.6658 272.417 72.972 272.348 74.9228C272.307 76.1139 273.015 77.2361 272.981 78.4272C272.923 80.3837 270.932 81.8626 270.828 83.8134C270.754 85.2232 271.692 86.5698 271.467 87.9623C271.295 89.0442 270.449 89.8958 270.092 90.9374C269.384 93.0032 270.8 95.282 272.653 96.4444C274.713 97.7391 277.354 98.0786 279.673 97.3363C281.992 96.594 283.949 94.7929 284.875 92.5371C285.899 90.0512 285.675 87.2545 285.451 84.573C284.754 76.2233 284.242 67.8621 283.903 59.4951" fill="#263238"/>
<path d="M273.613 90.149C273.579 90.1145 274.073 89.9649 274.384 89.2283C274.534 88.8658 274.614 88.3824 274.58 87.8242C274.563 87.2603 274.367 86.6503 274.16 85.9598C273.964 85.275 273.717 84.4809 273.86 83.6004C274.004 82.7027 274.649 81.9662 275.23 81.2469C275.524 80.8786 275.823 80.4988 276.007 80.0672C276.203 79.6414 276.243 79.1465 276.099 78.6862C275.8 77.7482 274.879 77.0519 274.459 75.9701C274.252 75.4234 274.246 74.8307 274.367 74.2898C274.482 73.7488 274.701 73.254 274.925 72.7821C275.374 71.8441 275.875 70.9867 276.07 70.0718C276.473 68.2476 276.283 66.504 276.559 65.0711C276.807 63.6383 277.417 62.5565 278.015 62.004C278.309 61.7163 278.591 61.5667 278.775 61.4631C278.97 61.3768 279.074 61.3423 279.08 61.348C279.097 61.3826 278.654 61.5149 278.096 62.0846C277.543 62.6428 276.985 63.7016 276.766 65.1057C276.651 65.802 276.634 66.5903 276.605 67.4305C276.577 68.2706 276.548 69.1856 276.335 70.1293C276.133 71.0845 275.627 71.9822 275.19 72.8972C274.758 73.8006 274.361 74.8594 274.741 75.8492C275.109 76.8275 276.036 77.5238 276.381 78.5826C276.554 79.112 276.496 79.6932 276.272 80.165C276.059 80.6427 275.748 81.0397 275.449 81.408C274.844 82.1331 274.246 82.8293 274.108 83.635C273.964 84.4348 274.188 85.2117 274.367 85.8907C274.557 86.5755 274.747 87.22 274.752 87.8069C274.77 88.3881 274.672 88.8945 274.493 89.2628C274.321 89.6368 274.079 89.8728 273.907 89.9879C273.728 90.126 273.613 90.149 273.613 90.149Z" fill="#455A64"/>
<path d="M269.085 103.793L263.889 118.766L242.229 119.928L238.615 127.962L261.23 130.252C265.742 132.116 270.892 129.832 272.538 125.24L278.574 108.391L269.085 103.793Z" fill="#FFD5C5"/>
<path d="M313.889 244.967C313.889 244.967 298.013 194.546 297.679 192.912C297.374 191.433 303.439 155.151 304.204 145.76L282.758 146.56C282.758 146.56 282.758 146.617 282.758 146.715L273.643 147.222L281.808 250.335H291.677L290.699 216.125C296.787 232.468 305.505 249.116 305.505 249.116L313.889 244.967Z" fill="#FFD5C5"/>
<path d="M291.096 228.382C291.108 228.072 290.975 216.919 290.975 216.919C290.854 217.587 287.189 207.24 287.281 206.607C287.327 206.285 291.096 228.382 291.096 228.382Z" fill="#A36957"/>
<path d="M286.866 201.71C286.843 201.71 286.82 201.935 286.803 202.338C286.78 202.74 286.78 203.327 286.815 204.047C286.826 204.409 286.866 204.801 286.912 205.226C286.964 205.646 287.022 206.101 287.12 206.567C287.298 207.511 287.574 208.529 287.925 209.571C288.645 211.654 289.433 213.478 289.997 214.808C290.262 215.412 290.492 215.93 290.682 216.367C290.849 216.735 290.952 216.931 290.975 216.919C290.998 216.914 290.935 216.695 290.802 216.315C290.67 215.935 290.469 215.389 290.21 214.715C289.703 213.369 288.95 211.533 288.236 209.462C287.885 208.426 287.609 207.425 287.413 206.504C287.31 206.044 287.24 205.6 287.177 205.186C287.12 204.772 287.068 204.381 287.039 204.024C286.97 203.31 286.941 202.729 286.924 202.332C286.907 201.935 286.889 201.716 286.866 201.71Z" fill="#A36957"/>
<path d="M281.616 250.842L281.61 249.915L291.721 249.472L291.75 253.293L291.128 253.333C288.355 253.495 277.007 253.966 275.148 253.408C273.077 252.792 281.616 250.842 281.616 250.842Z" fill="#455A64"/>
<path d="M291.888 253.069C291.888 253.075 291.83 253.08 291.715 253.086C291.566 253.098 291.405 253.103 291.22 253.121C290.726 253.144 290.116 253.172 289.391 253.207C287.848 253.27 285.713 253.322 283.354 253.333C280.995 253.345 278.86 253.305 277.318 253.259C276.598 253.23 275.988 253.207 275.488 253.19C275.304 253.178 275.143 253.172 274.993 253.161C274.878 253.155 274.82 253.149 274.82 253.144C274.82 253.138 274.878 253.138 274.993 253.138C275.143 253.138 275.304 253.144 275.488 253.144C275.983 253.149 276.598 253.161 277.318 253.172C278.86 253.195 280.995 253.224 283.354 253.213C285.708 253.201 287.843 253.161 289.391 253.121C290.11 253.103 290.72 253.086 291.22 253.075C291.405 253.069 291.566 253.069 291.715 253.063C291.83 253.063 291.888 253.063 291.888 253.069Z" fill="#263238"/>
<path d="M278.342 253.391C278.308 253.397 278.273 252.959 277.997 252.522C277.727 252.079 277.352 251.854 277.37 251.826C277.375 251.797 277.807 251.981 278.101 252.459C278.394 252.931 278.371 253.402 278.342 253.391Z" fill="#263238"/>
<path d="M281.3 251.878C281.272 251.895 281.128 251.722 280.984 251.492C280.834 251.262 280.742 251.06 280.765 251.043C280.794 251.026 280.938 251.199 281.082 251.429C281.237 251.659 281.329 251.86 281.3 251.878Z" fill="#263238"/>
<path d="M282.116 251.44C282.093 251.463 281.932 251.36 281.759 251.204C281.587 251.049 281.46 250.905 281.483 250.876C281.506 250.853 281.667 250.957 281.84 251.112C282.013 251.273 282.139 251.417 282.116 251.44Z" fill="#263238"/>
<path d="M282.629 250.491C282.629 250.525 282.393 250.554 282.106 250.56C281.818 250.565 281.582 250.542 281.582 250.508C281.582 250.473 281.818 250.445 282.106 250.439C282.393 250.433 282.629 250.456 282.629 250.491Z" fill="#263238"/>
<path d="M282.803 249.823C282.814 249.852 282.561 249.967 282.216 249.996C281.876 250.025 281.606 249.95 281.611 249.915C281.617 249.881 281.882 249.898 282.204 249.875C282.532 249.846 282.791 249.789 282.803 249.823Z" fill="#263238"/>
<path d="M280.96 250.997C280.96 251.009 280.712 251.043 280.315 250.997C280.114 250.974 279.878 250.928 279.625 250.847C279.498 250.801 279.366 250.773 279.228 250.686C279.165 250.646 279.09 250.583 279.067 250.485C279.038 250.387 279.09 250.278 279.164 250.226C279.78 249.904 280.402 250.249 280.632 250.565C280.758 250.727 280.816 250.888 280.845 250.997C280.874 251.106 280.868 251.17 280.862 251.17C280.839 251.175 280.816 250.916 280.563 250.617C280.436 250.473 280.252 250.329 280.01 250.26C279.78 250.191 279.458 250.174 279.239 250.318C279.136 250.393 279.176 250.514 279.291 250.583C279.4 250.652 279.533 250.692 279.654 250.738C279.901 250.819 280.125 250.876 280.321 250.911C280.712 250.98 280.96 250.98 280.96 250.997Z" fill="#263238"/>
<path d="M280.793 251.032C280.782 251.037 280.69 250.876 280.718 250.583C280.736 250.439 280.787 250.272 280.891 250.111C281.006 249.967 281.15 249.771 281.426 249.777C281.576 249.794 281.651 249.967 281.628 250.076C281.616 250.192 281.564 250.289 281.518 250.364C281.42 250.525 281.317 250.658 281.213 250.755C281.012 250.957 280.851 251.032 280.845 251.02C280.834 251.003 280.972 250.905 281.15 250.698C281.236 250.594 281.334 250.468 281.42 250.307C281.507 250.169 281.57 249.927 281.409 249.898C281.248 249.881 281.081 250.042 280.983 250.174C280.88 250.312 280.828 250.468 280.799 250.594C280.753 250.859 280.811 251.026 280.793 251.032Z" fill="#263238"/>
<path d="M291.674 250.312C291.674 250.335 291.386 250.284 290.932 250.341C290.483 250.393 289.856 250.577 289.315 251.014C288.774 251.452 288.452 252.021 288.308 252.447C288.158 252.879 288.141 253.167 288.118 253.167C288.112 253.167 288.106 253.092 288.118 252.965C288.129 252.833 288.158 252.649 288.227 252.424C288.36 251.975 288.676 251.377 289.24 250.922C289.804 250.468 290.46 250.289 290.926 250.255C291.162 250.238 291.352 250.249 291.479 250.266C291.605 250.289 291.674 250.307 291.674 250.312Z" fill="#263238"/>
<path d="M286.835 252.263C286.841 252.292 286.185 252.401 285.368 252.401C284.551 252.407 283.895 252.309 283.895 252.275C283.9 252.24 284.556 252.28 285.362 252.275C286.173 252.28 286.829 252.229 286.835 252.263Z" fill="#263238"/>
<path d="M288.803 252.246C288.826 252.269 288.752 252.384 288.683 252.533C288.614 252.683 288.579 252.815 288.545 252.815C288.51 252.815 288.493 252.654 288.573 252.482C288.648 252.309 288.78 252.217 288.803 252.246Z" fill="#263238"/>
<path d="M289.547 251.319C289.57 251.342 289.506 251.446 289.403 251.555C289.299 251.659 289.196 251.728 289.173 251.705C289.15 251.682 289.213 251.578 289.317 251.469C289.414 251.36 289.518 251.291 289.547 251.319Z" fill="#263238"/>
<path d="M290.604 250.888C290.599 250.922 290.466 250.922 290.317 250.974C290.167 251.026 290.063 251.106 290.035 251.083C290.006 251.066 290.092 250.922 290.276 250.859C290.461 250.796 290.616 250.859 290.604 250.888Z" fill="#263238"/>
<path d="M291.359 250.686C291.371 250.715 291.313 250.767 291.233 250.801C291.152 250.836 291.072 250.836 291.06 250.801C291.049 250.773 291.106 250.721 291.187 250.686C291.273 250.658 291.348 250.658 291.359 250.686Z" fill="#263238"/>
<path d="M305.301 249.95L304.916 249.104L313.956 244.558L315.55 248.034L314.998 248.327C312.535 249.611 302.372 254.686 300.45 254.939C298.31 255.227 305.301 249.95 305.301 249.95Z" fill="#455A64"/>
<path d="M315.591 247.769C315.591 247.775 315.54 247.804 315.442 247.855C315.31 247.924 315.166 247.999 315.005 248.086C314.561 248.31 314.015 248.586 313.37 248.914C311.989 249.605 310.061 250.525 307.915 251.504C305.769 252.476 303.806 253.316 302.374 253.909C301.706 254.179 301.136 254.41 300.676 254.594C300.503 254.663 300.354 254.72 300.21 254.772C300.101 254.812 300.049 254.83 300.043 254.824C300.043 254.818 300.095 254.795 300.198 254.749C300.336 254.692 300.486 254.623 300.653 254.548C301.108 254.352 301.671 254.11 302.333 253.828C303.755 253.218 305.711 252.367 307.858 251.394C310.004 250.422 311.932 249.507 313.324 248.839C313.974 248.529 314.527 248.264 314.976 248.045C315.143 247.965 315.292 247.896 315.425 247.832C315.534 247.792 315.586 247.769 315.591 247.769Z" fill="#263238"/>
<path d="M303.363 253.621C303.328 253.639 303.127 253.253 302.689 252.965C302.264 252.672 301.826 252.62 301.832 252.586C301.826 252.557 302.298 252.551 302.759 252.868C303.219 253.173 303.392 253.61 303.363 253.621Z" fill="#263238"/>
<path d="M305.441 251.02C305.424 251.049 305.223 250.951 304.992 250.802C304.762 250.652 304.595 250.508 304.613 250.479C304.63 250.451 304.831 250.548 305.061 250.698C305.292 250.848 305.458 250.992 305.441 251.02Z" fill="#263238"/>
<path d="M306.005 250.295C305.993 250.33 305.804 250.295 305.585 250.226C305.36 250.157 305.194 250.071 305.199 250.042C305.211 250.008 305.395 250.042 305.619 250.111C305.844 250.18 306.016 250.261 306.005 250.295Z" fill="#263238"/>
<path d="M306.085 249.213C306.096 249.242 305.895 249.369 305.636 249.49C305.371 249.61 305.147 249.685 305.135 249.657C305.124 249.628 305.325 249.501 305.584 249.38C305.843 249.259 306.067 249.185 306.085 249.213Z" fill="#263238"/>
<path d="M305.97 248.534C305.993 248.557 305.809 248.77 305.509 248.931C305.21 249.098 304.934 249.139 304.928 249.11C304.917 249.075 305.17 248.983 305.452 248.828C305.734 248.667 305.947 248.506 305.97 248.534Z" fill="#263238"/>
<path d="M304.766 250.364C304.772 250.376 304.559 250.508 304.174 250.629C303.984 250.687 303.748 250.744 303.483 250.773C303.351 250.784 303.219 250.807 303.057 250.79C302.983 250.779 302.891 250.75 302.827 250.675C302.764 250.6 302.764 250.479 302.81 250.399C303.242 249.852 303.949 249.915 304.289 250.111C304.473 250.209 304.588 250.33 304.657 250.416C304.726 250.508 304.749 250.566 304.743 250.566C304.726 250.583 304.6 250.353 304.249 250.186C304.076 250.105 303.846 250.054 303.598 250.088C303.362 250.123 303.057 250.238 302.919 250.456C302.856 250.566 302.942 250.663 303.075 250.675C303.201 250.692 303.345 250.675 303.472 250.669C303.731 250.646 303.961 250.6 304.151 250.554C304.536 250.445 304.761 250.347 304.766 250.364Z" fill="#263238"/>
<path d="M304.629 250.462C304.623 250.474 304.467 250.359 304.375 250.082C304.329 249.944 304.306 249.772 304.341 249.582C304.387 249.403 304.439 249.162 304.698 249.058C304.842 249.012 305.181 249.306 305.204 249.415C305.239 249.524 305.031 249.467 305.026 249.559C305.003 249.743 304.962 249.91 304.911 250.042C304.807 250.307 304.692 250.439 304.68 250.433C304.663 250.422 304.749 250.272 304.83 250.013C304.87 249.881 304.905 249.726 304.916 249.547C304.939 249.386 304.893 249.139 304.732 249.179C304.577 249.231 304.496 249.444 304.456 249.605C304.421 249.772 304.433 249.933 304.462 250.065C304.525 250.318 304.646 250.451 304.629 250.462Z" fill="#263238"/>
<path d="M314.268 245.346C314.274 245.369 313.992 245.438 313.601 245.674C313.21 245.905 312.715 246.33 312.398 246.952C312.082 247.573 312.024 248.224 312.064 248.672C312.105 249.127 312.208 249.398 312.185 249.403C312.18 249.403 312.145 249.34 312.099 249.219C312.053 249.098 312.007 248.914 311.972 248.678C311.909 248.218 311.949 247.539 312.283 246.889C312.611 246.244 313.14 245.807 313.549 245.594C313.756 245.485 313.935 245.415 314.061 245.381C314.194 245.352 314.263 245.341 314.268 245.346Z" fill="#263238"/>
<path d="M310.649 249.11C310.666 249.139 310.108 249.501 309.365 249.841C308.623 250.18 307.984 250.359 307.973 250.33C307.961 250.295 308.577 250.065 309.314 249.731C310.05 249.398 310.631 249.081 310.649 249.11Z" fill="#263238"/>
<path d="M312.437 248.287C312.472 248.299 312.443 248.437 312.449 248.604C312.449 248.77 312.472 248.903 312.437 248.92C312.409 248.932 312.322 248.799 312.322 248.604C312.322 248.408 312.409 248.27 312.437 248.287Z" fill="#263238"/>
<path d="M312.731 247.136C312.76 247.148 312.748 247.268 312.696 247.407C312.644 247.545 312.575 247.648 312.547 247.637C312.518 247.625 312.529 247.504 312.581 247.366C312.633 247.228 312.696 247.125 312.731 247.136Z" fill="#263238"/>
<path d="M313.526 246.313C313.531 246.348 313.411 246.399 313.296 246.509C313.18 246.612 313.117 246.733 313.083 246.722C313.048 246.716 313.071 246.549 313.209 246.417C313.353 246.284 313.52 246.279 313.526 246.313Z" fill="#263238"/>
<path d="M314.131 245.818C314.154 245.841 314.125 245.91 314.062 245.979C313.998 246.043 313.929 246.077 313.906 246.054C313.883 246.031 313.912 245.962 313.975 245.893C314.039 245.824 314.108 245.795 314.131 245.818Z" fill="#263238"/>
<path d="M302.81 128.692L301.124 108.149L309.773 108.304C309.773 108.304 310.175 105.277 308.898 98.6311C308.115 94.5569 305.405 92.0595 302.361 90.5749V90.5231L302.096 90.454C298.223 88.6414 294.172 88.3882 294.172 88.3882L283.555 88.509C283.555 88.509 275.447 87.4962 270.959 93.2795C269.233 95.5064 263.881 110.75 263.881 110.75L276.621 116.884L275.407 108.431C275.407 108.431 275.649 114.559 276.431 116.499C276.869 117.58 278.129 120.941 278.129 120.941L277.962 131.075L302.81 128.692Z" fill="#5B718F"/>
<path d="M296.958 105.168L295.381 111.878H310.245L309.266 100.622L296.958 105.168Z" fill="#5B718F"/>
<path d="M310.245 111.878C310.245 111.832 309.497 111.757 308.277 111.682C307.057 111.613 305.371 111.55 303.512 111.561C301.648 111.573 299.962 111.653 298.747 111.745C297.527 111.843 296.779 111.947 296.785 111.987C296.791 112.033 297.545 112.016 298.759 111.975C299.979 111.941 301.659 111.895 303.512 111.883C305.371 111.878 307.051 111.901 308.271 111.912C309.485 111.929 310.245 111.924 310.245 111.878Z" fill="#263238"/>
<path d="M296.313 100.57C296.267 100.57 296.25 101.226 296.261 102.279C296.273 103.332 296.313 104.788 296.371 106.394C296.434 107.999 296.509 109.455 296.578 110.502C296.647 111.556 296.716 112.2 296.762 112.2C296.808 112.2 296.825 111.544 296.814 110.491C296.802 109.438 296.762 107.982 296.704 106.377C296.641 104.771 296.566 103.321 296.497 102.268C296.428 101.215 296.359 100.57 296.313 100.57Z" fill="#263238"/>
<g opacity="0.3">
<path d="M282.789 106.382C282.789 106.382 286.092 130.879 295.38 130.229C295.38 130.229 299.563 130.177 300.904 127.398V126.304L282.789 106.382Z" fill="black"/>
</g>
<g opacity="0.3">
<path d="M296.313 102.015L294.535 114.024L295.686 116.13L297.585 112.01L296.779 111.987L296.313 102.015Z" fill="black"/>
</g>
<path d="M278.14 120.935C278.122 120.941 278.03 120.74 277.886 120.36C277.743 119.986 277.553 119.433 277.328 118.754C276.885 117.385 276.338 115.474 275.907 113.317C275.481 111.159 275.268 109.179 275.205 107.74C275.17 107.021 275.159 106.44 275.17 106.037C275.176 105.634 275.193 105.41 275.211 105.41C275.257 105.41 275.291 106.296 275.412 107.723C275.533 109.15 275.775 111.113 276.2 113.259C276.626 115.4 277.138 117.31 277.53 118.691C277.714 119.33 277.869 119.877 277.996 120.325C278.105 120.711 278.157 120.93 278.14 120.935Z" fill="#263238"/>
<path d="M281.894 127.973C281.813 127.996 281.583 127.467 281.381 126.793C281.174 126.12 281.076 125.55 281.157 125.527C281.238 125.504 281.468 126.034 281.669 126.707C281.871 127.386 281.974 127.95 281.894 127.973Z" fill="#263238"/>
<path d="M283.176 127.881C283.102 127.898 282.848 127.11 282.837 126.091C282.82 125.073 283.044 124.273 283.125 124.29C283.211 124.307 283.119 125.101 283.136 126.085C283.148 127.069 283.263 127.864 283.176 127.881Z" fill="#263238"/>
<path d="M276.892 117.16C276.858 117.235 273.888 115.825 270.269 114.018C266.649 112.212 263.743 110.681 263.778 110.606C263.812 110.531 266.781 111.941 270.401 113.748C274.021 115.555 276.927 117.086 276.892 117.16Z" fill="#263238"/>
<path d="M282.118 90.4887C282.187 87.5769 282.199 84.5098 282.199 84.5098C282.199 84.5098 278.464 83.7905 277.814 78.8762C277.192 74.1921 278.93 63.1954 278.93 63.1954C284.386 61.1353 290.054 62.9997 293.788 67.4191L292.862 91.0526C292.752 93.7975 290.307 95.8921 287.372 95.754C284.403 95.6216 282.055 93.2623 282.118 90.4887Z" fill="#FFD5C5"/>
<path d="M278.642 71.9882C278.619 72.322 278.884 72.6097 279.229 72.6385C279.574 72.6672 279.868 72.4198 279.891 72.0918C279.914 71.758 279.649 71.4703 279.304 71.4415C278.964 71.4128 278.665 71.6544 278.642 71.9882Z" fill="#263238"/>
<path d="M278.413 71.1652C278.488 71.2516 278.971 70.912 279.65 70.9293C280.323 70.9408 280.812 71.2976 280.887 71.217C280.922 71.1825 280.847 71.0329 280.64 70.8718C280.433 70.7106 280.076 70.5495 279.65 70.538C279.23 70.5323 278.873 70.6761 278.666 70.8257C278.447 70.9811 278.372 71.125 278.413 71.1652Z" fill="#263238"/>
<path d="M285.496 72.4139C285.473 72.7477 285.737 73.0354 286.082 73.0642C286.428 73.093 286.721 72.8455 286.744 72.5175C286.767 72.1838 286.503 71.896 286.157 71.8673C285.812 71.8385 285.519 72.0859 285.496 72.4139Z" fill="#263238"/>
<path d="M285.449 71.5912C285.524 71.6775 286.008 71.338 286.687 71.3552C287.36 71.3667 287.849 71.7235 287.924 71.643C287.958 71.6084 287.884 71.4588 287.671 71.2919C287.464 71.1308 287.107 70.9697 286.681 70.9582C286.261 70.9524 285.904 71.0963 285.697 71.2459C285.49 71.407 285.415 71.5509 285.449 71.5912Z" fill="#263238"/>
<path d="M282.873 76.5342C282.878 76.4939 282.458 76.4134 281.779 76.3098C281.607 76.2868 281.446 76.2465 281.417 76.1314C281.377 76.0048 281.457 75.8207 281.543 75.625C281.716 75.2107 281.894 74.7791 282.084 74.3245C282.838 72.4716 283.391 70.9524 283.316 70.9179C283.241 70.8891 282.568 72.3623 281.808 74.2152C281.624 74.6698 281.451 75.1071 281.284 75.5215C281.215 75.7171 281.095 75.9358 281.175 76.1947C281.215 76.3271 281.342 76.4191 281.451 76.4537C281.561 76.4882 281.659 76.4939 281.745 76.4997C282.441 76.5572 282.867 76.5745 282.873 76.5342Z" fill="#263238"/>
<path d="M282.199 84.5154C282.199 84.5154 285.485 84.8147 288.8 82.9387C288.8 82.9387 287.125 86.259 282.24 85.6721L282.199 84.5154Z" fill="#A36957"/>
<path d="M287.613 69.6404C287.475 69.8533 286.963 69.7555 286.388 69.6519C285.812 69.5368 285.3 69.4332 285.254 69.1858C285.196 68.9498 285.789 68.6218 286.56 68.7657C287.32 68.9211 287.751 69.4447 287.613 69.6404Z" fill="#263238"/>
<path d="M280.899 68.6506C280.847 68.898 280.295 68.9843 279.662 69.0189C279.029 69.0419 278.47 69.0074 278.396 68.7657C278.321 68.5355 278.856 68.1557 279.621 68.1212C280.387 68.0866 280.951 68.4146 280.899 68.6506Z" fill="#263238"/>
<path d="M282.884 78.1511C282.741 78.1108 282.58 78.1914 282.51 78.3237C282.424 78.4791 282.464 78.6862 282.597 78.8013C282.729 78.9164 282.948 78.9164 283.086 78.8071C283.224 78.6978 283.27 78.4848 283.189 78.3295C283.109 78.1741 282.913 78.0878 282.741 78.1396" fill="#A36957"/>
<path d="M283.039 78.2201C283.067 78.1913 282.929 78.0245 282.636 78.0935C282.498 78.1223 282.319 78.2431 282.268 78.456C282.216 78.6517 282.262 78.9049 282.469 79.066C282.688 79.2156 282.947 79.1868 283.113 79.0718C283.298 78.9509 283.349 78.7322 283.321 78.5941C283.263 78.2892 283.039 78.2431 283.033 78.2834C283.01 78.3237 283.113 78.4273 283.09 78.6056C283.079 78.692 283.039 78.7725 282.952 78.8186C282.866 78.8646 282.734 78.8646 282.659 78.807C282.578 78.7495 282.538 78.6229 282.555 78.5308C282.567 78.433 282.63 78.364 282.711 78.3179C282.878 78.2143 283.021 78.2604 283.039 78.2201Z" fill="#263238"/>
<path d="M291.527 73.2023C290.946 74.5488 289.525 75.5904 289.72 77.0462C289.847 77.9842 290.451 78.8646 290.336 79.8026C290.186 80.9823 288.961 81.8052 288.788 82.9848C288.575 84.4292 289.979 85.5513 290.543 86.9036C291.36 88.8659 290.313 91.0756 290.29 93.2047C290.25 96.4617 293.023 99.5058 296.269 99.7763C297.581 99.8856 299.06 99.4885 299.744 98.3607C300.308 97.4285 300.193 96.2488 300.533 95.213C301.033 93.6708 302.501 92.5487 302.812 90.9547C303.376 88.0545 299.871 85.6606 300.101 82.7144C300.199 81.4541 300.976 80.3608 301.304 79.1408C301.736 77.5469 301.338 75.7515 300.274 74.4855C299.411 73.4555 298.156 72.7822 297.42 71.6601C296.585 70.3883 296.557 68.7713 296.24 67.2809C295.475 63.6499 292.747 60.4965 289.266 59.2132C285.784 57.93 281.658 58.5572 278.718 60.8187C278.718 60.8187 277.883 64.6109 281.773 65.2439C285.669 65.8769 287.47 65.146 287.908 66.7055C287.908 66.7055 287.465 68.5297 289.076 70.2675C290.687 72.0053 292.2 71.6371 291.527 73.2023Z" fill="#263238"/>
<path d="M297.742 99.5058C297.742 99.5173 297.621 99.5058 297.385 99.4712C297.155 99.4367 296.816 99.3561 296.396 99.2065C295.567 98.9015 294.387 98.2398 293.386 96.9738C292.885 96.3466 292.419 95.587 292.103 94.695C291.781 93.8089 291.596 92.8018 291.579 91.743C291.556 90.6842 291.706 89.5678 291.993 88.4572C292.137 87.8991 292.327 87.3466 292.546 86.7942C292.759 86.2418 293.023 85.7066 293.179 85.1427C293.34 84.5787 293.323 84.0033 293.173 83.4566C293.023 82.91 292.765 82.392 292.517 81.8799C292.264 81.3678 292.011 80.8614 291.844 80.3205C291.677 79.7853 291.614 79.2041 291.723 78.6689C291.953 77.5871 292.609 76.7815 293 75.9586C293.409 75.1415 293.541 74.284 293.524 73.5072C293.455 71.942 292.788 70.7796 292.241 70.1121C291.671 69.4446 291.24 69.1856 291.263 69.1626C291.263 69.1626 291.717 69.3755 292.327 70.0373C292.914 70.699 293.633 71.8729 293.731 73.4957C293.766 74.2956 293.645 75.2048 293.225 76.0622C292.828 76.9138 292.195 77.7252 291.993 78.715C291.792 79.7162 292.264 80.7463 292.776 81.7476C293.029 82.2597 293.294 82.7891 293.455 83.3761C293.616 83.9573 293.639 84.619 293.461 85.2175C293.3 85.8217 293.029 86.3626 292.816 86.9035C292.603 87.4445 292.413 87.9911 292.27 88.532C291.982 89.6196 291.832 90.7072 291.85 91.7373C291.855 93.8089 292.569 95.6273 293.541 96.8414C294.497 98.0902 295.624 98.7634 296.43 99.0914C297.253 99.4194 297.748 99.4712 297.742 99.5058Z" fill="#455A64"/>
<path d="M297.166 70.4688C297.166 70.4861 296.866 70.5436 296.308 70.5954C295.756 70.6415 294.939 70.7048 293.937 70.5321C292.965 70.3538 291.728 69.8761 290.945 68.7195C290.56 68.1383 290.41 67.4363 290.163 66.786C289.927 66.13 289.472 65.5603 288.851 65.169C287.59 64.3691 286.111 64.2713 284.817 64.1159C283.516 63.9663 282.29 63.6901 281.462 63.0686C280.627 62.4759 280.202 61.7048 280.087 61.1466C280.023 60.8704 280.029 60.646 280.04 60.4964C280.063 60.3468 280.075 60.272 280.087 60.272C280.121 60.272 280.046 60.5885 280.196 61.1121C280.334 61.63 280.766 62.3436 281.577 62.8902C282.377 63.4542 283.545 63.7016 284.84 63.834C286.123 63.9778 287.659 64.0584 289.006 64.9101C289.673 65.3244 290.186 65.9746 290.427 66.6709C290.686 67.3557 290.824 68.029 291.17 68.5584C291.872 69.6287 293.034 70.1178 293.966 70.3135C294.927 70.5091 295.739 70.4803 296.291 70.4688C296.855 70.4631 297.166 70.4458 297.166 70.4688Z" fill="#455A64"/>
<path d="M295.74 65.7849C295.745 65.8021 295.509 65.8712 295.066 65.8827C294.629 65.8942 293.973 65.8194 293.248 65.4741C292.885 65.3015 292.517 65.0598 292.178 64.7318C291.832 64.4038 291.55 63.9837 291.286 63.5406C290.768 62.666 290.267 61.5841 289.191 61.141C288.138 60.6864 286.975 60.79 285.968 60.8591C284.95 60.9569 283.995 60.9914 283.218 60.8361C282.435 60.698 281.848 60.3757 281.52 60.0765C281.353 59.9269 281.244 59.7945 281.181 59.6967C281.117 59.5989 281.089 59.5471 281.094 59.5413C281.117 59.5241 281.256 59.7255 281.595 59.9844C281.929 60.2434 282.499 60.5196 283.252 60.6289C284.012 60.7497 284.921 60.7037 285.945 60.5886C286.958 60.5081 288.155 60.3815 289.312 60.8706C289.887 61.1123 290.353 61.5439 290.687 62.01C291.027 62.4761 291.268 62.9652 291.527 63.4025C291.78 63.8456 292.039 64.2484 292.356 64.5592C292.667 64.8757 293.006 65.1174 293.346 65.29C294.019 65.641 294.646 65.7504 295.072 65.7734C295.498 65.7906 295.734 65.7561 295.74 65.7849Z" fill="#455A64"/>
<path d="M299.457 98.2628C299.428 98.2513 299.612 97.8772 299.825 97.1694C300.038 96.4616 300.245 95.4028 300.211 94.0851C300.164 92.7788 299.848 91.1963 298.985 89.6887C298.565 88.9348 297.926 88.2616 297.402 87.4387C297.143 87.0244 296.919 86.564 296.821 86.0519C296.723 85.5397 296.781 84.993 296.948 84.4982C297.27 83.5026 297.851 82.6683 297.972 81.7533C298.127 80.8383 297.661 80.0039 297.224 79.2559C297 78.8761 296.781 78.502 296.608 78.1107C296.436 77.7194 296.326 77.3051 296.28 76.9081C296.194 76.1082 296.286 75.3716 296.344 74.7156C296.51 73.4036 296.39 72.3218 296.073 71.66C295.768 70.9867 295.365 70.7853 295.394 70.7566C295.4 70.7508 295.423 70.7623 295.463 70.7911C295.503 70.8199 295.572 70.8544 295.647 70.9234C295.803 71.05 296.004 71.2687 296.177 71.6082C296.539 72.2815 296.695 73.4094 296.556 74.7329C296.51 75.3946 296.43 76.1197 296.528 76.8793C296.602 77.6446 297 78.3639 297.46 79.112C297.684 79.4918 297.92 79.8889 298.087 80.3377C298.26 80.7808 298.335 81.2929 298.26 81.7878C298.122 82.7949 297.529 83.6465 297.23 84.5787C297.074 85.0448 297.028 85.5282 297.109 85.9886C297.195 86.4489 297.397 86.8805 297.644 87.2776C298.139 88.0717 298.783 88.7565 299.215 89.5448C300.101 91.1043 300.395 92.7328 300.418 94.0736C300.429 95.4201 300.182 96.4962 299.934 97.1982C299.808 97.5492 299.698 97.8197 299.601 97.9923C299.514 98.1765 299.468 98.2685 299.457 98.2628Z" fill="#455A64"/>
<path d="M276.017 205.485C276.017 205.485 272.144 168.749 271.92 155.174C271.695 141.599 278.025 128.203 278.025 128.203L302.815 127.156C302.815 127.156 307.718 140.932 307.805 146.715C307.977 157.959 304.818 169.06 305.181 177.979L306.009 205.485" fill="#263238"/>
<path d="M306.839 160.319C306.845 160.33 306.701 160.434 306.436 160.624C306.367 160.675 306.293 160.727 306.212 160.785C306.137 160.848 306.057 160.934 305.97 161.015C305.798 161.182 305.591 161.372 305.418 161.631C304.618 162.609 304.031 164.364 303.479 166.551C303.174 167.638 302.863 168.852 302.224 170.044C302.052 170.337 301.896 170.642 301.672 170.913C301.562 171.051 301.465 171.2 301.35 171.333L300.97 171.712C300.452 172.225 299.796 172.604 299.105 172.909C297.718 173.519 296.153 173.807 294.72 174.526C293.282 175.228 292.2 176.586 291.538 178.152C290.842 179.711 290.416 181.345 289.835 182.876C289.265 184.395 288.483 185.868 287.245 186.801C286.02 187.767 284.501 187.986 283.189 188.072C281.853 188.153 280.616 188.113 279.511 188.279C278.407 188.435 277.428 188.78 276.738 189.327C276.041 189.873 275.639 190.558 275.449 191.145C275.253 191.738 275.288 192.239 275.351 192.555C275.414 192.877 275.506 193.033 275.483 193.038C275.483 193.038 275.374 192.895 275.288 192.567C275.201 192.244 275.144 191.726 275.334 191.105C275.512 190.489 275.915 189.776 276.628 189.194C277.342 188.613 278.349 188.239 279.477 188.067C280.605 187.882 281.853 187.911 283.171 187.819C284.472 187.727 285.922 187.497 287.078 186.576C288.247 185.69 289 184.269 289.559 182.767C290.128 181.253 290.554 179.619 291.262 178.025C291.929 176.431 293.075 174.987 294.582 174.262C296.073 173.525 297.638 173.243 298.99 172.656C299.663 172.363 300.291 172 300.786 171.523L301.154 171.16C301.269 171.033 301.361 170.89 301.465 170.763C301.683 170.504 301.833 170.205 302 169.929C302.633 168.778 302.949 167.575 303.271 166.493C303.853 164.318 304.474 162.54 305.326 161.562C305.51 161.303 305.729 161.113 305.907 160.952C305.999 160.871 306.08 160.79 306.16 160.727C306.247 160.675 306.327 160.624 306.396 160.578C306.684 160.399 306.833 160.313 306.839 160.319Z" fill="#FAFAFA"/>
<path d="M306.988 143.32C307 143.32 307.011 143.487 307.023 143.815C307.028 144.137 306.988 144.621 306.85 145.219C306.562 146.416 305.688 148.062 304.048 149.552C303.236 150.3 302.264 151.02 301.142 151.676C300.031 152.337 298.805 152.965 297.551 153.672C296.302 154.386 295.007 155.186 293.874 156.256C292.723 157.309 291.865 158.696 291.089 160.169C290.306 161.636 289.615 163.127 288.677 164.422C288.211 165.066 287.688 165.659 287.106 166.159C286.52 166.66 285.881 167.069 285.236 167.408C283.936 168.081 282.612 168.502 281.387 168.887C280.155 169.267 279.01 169.606 278.003 170.026C276.996 170.441 276.127 170.913 275.425 171.408C274.723 171.908 274.188 172.426 273.808 172.898C273.043 173.847 272.881 174.532 272.835 174.515C272.824 174.509 272.881 174.354 272.997 174.049C273.129 173.755 273.336 173.318 273.716 172.829C274.09 172.34 274.619 171.793 275.327 171.269C276.035 170.752 276.91 170.262 277.922 169.831C278.935 169.393 280.086 169.042 281.312 168.651C282.532 168.26 283.844 167.834 285.11 167.167C285.743 166.833 286.358 166.436 286.922 165.947C287.481 165.457 287.993 164.882 288.442 164.255C289.356 162.989 290.041 161.51 290.83 160.031C291.606 158.558 292.493 157.131 293.678 156.049C294.84 154.956 296.158 154.15 297.418 153.436C298.684 152.729 299.91 152.113 301.021 151.468C302.131 150.835 303.098 150.133 303.909 149.408C305.538 147.964 306.424 146.37 306.741 145.202C307.046 144.011 306.942 143.314 306.988 143.32Z" fill="#FAFAFA"/>
<path d="M272.041 157.119C272.036 157.119 272.018 157.085 271.99 157.01C271.967 156.935 271.915 156.82 271.88 156.665C271.811 156.36 271.765 155.871 271.938 155.284C272.26 154.11 273.532 152.654 275.58 151.923C276.599 151.572 277.761 151.359 278.964 151.043C280.155 150.72 281.456 150.271 282.428 149.276C282.912 148.781 283.32 148.2 283.654 147.555C283.982 146.905 284.258 146.209 284.511 145.49C285.029 144.057 285.461 142.497 286.335 141.076C287.204 139.649 288.62 138.653 290.087 138.158C291.549 137.623 293.028 137.382 294.392 137.065C295.767 136.766 297.05 136.38 298.138 135.788C299.214 135.178 300.066 134.366 300.67 133.503C301.913 131.777 302.235 130.01 302.281 128.842C302.31 127.656 302.12 127.006 302.16 127C302.16 127 302.39 127.633 302.402 128.842C302.39 130.027 302.097 131.84 300.848 133.624C300.238 134.516 299.369 135.362 298.264 136C297.148 136.616 295.836 137.019 294.461 137.33C293.085 137.652 291.618 137.899 290.197 138.429C288.764 138.924 287.435 139.862 286.594 141.231C285.748 142.595 285.317 144.137 284.793 145.582C284.534 146.307 284.252 147.014 283.913 147.682C283.562 148.344 283.136 148.954 282.624 149.466C281.594 150.513 280.236 150.962 279.027 151.278C277.802 151.589 276.651 151.785 275.649 152.119C273.653 152.798 272.387 154.196 272.047 155.312C271.863 155.871 271.886 156.342 271.938 156.647C272.007 156.952 272.059 157.113 272.041 157.119Z" fill="#FAFAFA"/>
<path d="M304.859 188.182C304.87 188.182 304.882 188.302 304.899 188.544C304.91 188.78 304.893 189.137 304.795 189.586C304.594 190.472 303.909 191.686 302.62 192.693C301.987 193.205 301.222 193.671 300.336 194.045C299.455 194.419 298.483 194.719 297.47 195.035C296.457 195.352 295.393 195.685 294.357 196.169C293.315 196.646 292.354 197.343 291.526 198.235C290.685 199.115 289.96 200.076 289.161 200.922C288.361 201.774 287.451 202.476 286.508 202.999C284.614 204.047 282.652 204.403 281.035 204.421C279.407 204.438 278.118 204.098 277.266 203.793C276.84 203.644 276.518 203.494 276.311 203.385C276.098 203.281 275.989 203.218 275.994 203.212C276 203.201 276.115 203.247 276.334 203.333C276.553 203.425 276.875 203.558 277.301 203.69C278.152 203.955 279.43 204.26 281.024 204.214C282.612 204.167 284.528 203.793 286.364 202.763C287.279 202.251 288.153 201.566 288.936 200.726C289.724 199.892 290.444 198.931 291.301 198.033C292.141 197.124 293.16 196.393 294.224 195.91C295.289 195.415 296.365 195.087 297.384 194.776C298.402 194.466 299.369 194.178 300.232 193.821C301.095 193.464 301.855 193.015 302.476 192.526C303.748 191.56 304.439 190.409 304.669 189.551C304.905 188.688 304.813 188.182 304.859 188.182Z" fill="#FAFAFA"/>
<path d="M302.034 111.901L297.24 112.016C296.924 113.633 296.158 114.738 296.158 114.738C292.148 107.781 289.04 98.4587 288.269 94.7125C288.384 94.3385 288.517 93.9242 288.683 93.4638C288.873 92.9286 288.712 91.9159 288.62 91.3577C288.488 90.5233 288.252 89.4012 288.183 88.8833C287.97 87.3008 287.717 87.0534 287.164 87.2317C286.41 87.4734 287.475 91.6799 286.859 91.7662C286.531 91.818 286.123 90.3737 286.008 89.194C285.893 88.0144 285.357 84.3776 284.966 84.1359C284.396 83.7791 283.896 84.343 284.04 85.5169C284.184 86.7081 284.368 90.2586 283.746 90.3046C283.13 90.3507 282.613 84.3258 282.613 84.3258C282.613 84.3258 282.71 83.0138 281.985 83.0483C280.679 83.1058 281.698 89.4587 281.813 90.0572C281.893 90.4773 281.214 90.5521 281.157 90.0975C281.093 89.6314 280.783 84.0726 279.453 84.1186C278.435 84.1531 280.242 89.3551 279.672 90.5578C279.102 91.7605 278.705 86.4664 277.727 86.5355C277.364 86.5642 277.1 86.6333 277.762 89.6313C278.118 91.2426 279.171 94.2061 280.086 96.6575C281.629 104.973 288.396 131.575 299.001 126.701C304.934 123.98 307.345 111.901 307.345 111.901H302.034Z" fill="#FFD5C5"/>
<path d="M281.576 90.46C281.576 90.46 281.622 90.4657 281.714 90.4427C281.795 90.4197 281.956 90.3161 281.933 90.1089C281.921 89.7522 281.864 89.2343 281.783 88.561C281.72 87.882 281.519 87.0706 281.519 86.1096C281.513 85.6262 281.524 85.1083 281.553 84.5617C281.57 84.2855 281.576 84.0035 281.639 83.733C281.685 83.4741 281.858 83.1749 282.059 83.2094L282.082 83.2151H282.094C282.301 83.2036 282.456 83.3647 282.526 83.6064C282.6 83.8366 282.618 84.1128 282.6 84.3775V84.389V84.3948C282.733 85.8679 282.882 87.4792 283.216 89.1997C283.262 89.4127 283.308 89.6313 283.377 89.85C283.412 89.9593 283.446 90.0687 283.498 90.178C283.527 90.2356 283.55 90.2873 283.596 90.3506C283.636 90.4024 283.688 90.4887 283.838 90.5003C284.079 90.483 284.148 90.2989 284.2 90.1953C284.252 90.0744 284.286 89.9593 284.309 89.8442C284.361 89.6083 284.384 89.3781 284.401 89.1422C284.465 88.2042 284.43 87.2432 284.361 86.265C284.338 85.7701 284.217 85.2752 284.304 84.8264C284.344 84.6077 284.436 84.3833 284.586 84.2912C284.66 84.2452 284.741 84.2394 284.833 84.2624C284.879 84.2739 284.925 84.297 284.971 84.32C285.011 84.3545 285 84.3372 285.034 84.4063C285.224 84.8206 285.328 85.3558 285.432 85.8507C285.535 86.3628 285.621 86.8807 285.702 87.4044C285.783 87.928 285.857 88.4574 285.921 88.9926C285.972 89.5277 286.047 90.0859 286.185 90.6269C286.254 90.8973 286.329 91.1678 286.444 91.4382C286.502 91.5706 286.565 91.7087 286.68 91.8468C286.721 91.9043 286.859 92.0137 287.026 91.9734C287.187 91.9216 287.233 91.7893 287.261 91.7144C287.353 91.3807 287.325 91.1102 287.325 90.8168C287.313 90.529 287.29 90.2471 287.267 89.9651C287.227 89.4817 287.181 88.9983 287.164 88.5265C287.158 88.2905 287.158 88.0546 287.181 87.8359C287.192 87.7266 287.215 87.6173 287.25 87.5367C287.267 87.4964 287.29 87.4677 287.307 87.4504C287.319 87.4389 287.325 87.4446 287.33 87.4331L287.405 87.4101C287.785 87.2547 287.912 87.7842 288.015 88.21C288.102 88.6588 288.159 89.1192 288.251 89.5738C288.401 90.483 288.596 91.3807 288.7 92.2438C288.74 92.6754 288.775 93.1185 288.648 93.4811C288.51 93.8954 288.378 94.3097 288.245 94.7183L288.234 94.7528L288.245 94.7931C288.947 97.889 289.92 100.657 290.818 103.114C291.727 105.571 292.642 107.689 293.442 109.427C294.242 111.164 294.961 112.499 295.462 113.414C295.715 113.846 295.91 114.191 296.06 114.444C296.198 114.675 296.273 114.795 296.284 114.79C296.29 114.784 296.233 114.657 296.106 114.416C295.968 114.157 295.784 113.806 295.554 113.363C295.087 112.436 294.397 111.09 293.62 109.346C292.843 107.602 291.957 105.479 291.065 103.022C290.185 100.565 289.229 97.7911 288.55 94.7298L288.545 94.8046C288.677 94.4018 288.809 93.999 288.947 93.5846C289.103 93.1128 289.057 92.6582 289.017 92.2093C288.913 91.3116 288.723 90.437 288.573 89.522C288.487 89.0732 288.43 88.607 288.338 88.1409C288.286 87.905 288.234 87.6691 288.102 87.4274C288.038 87.3123 287.94 87.1799 287.785 87.1051C287.624 87.0361 287.463 87.0533 287.33 87.0879L287.233 87.1166C287.187 87.1339 287.135 87.1569 287.1 87.1915C287.026 87.2548 286.985 87.3296 286.956 87.3986C286.893 87.5367 286.876 87.6633 286.859 87.7899C286.83 88.0431 286.83 88.2906 286.841 88.5322C286.859 89.0214 286.905 89.5047 286.945 89.9881C286.968 90.2701 286.991 90.5463 287.003 90.8225C287.014 91.093 287.02 91.3864 286.962 91.5936C286.945 91.6511 286.922 91.6454 286.951 91.6742C286.951 91.6569 286.956 91.7029 286.956 91.6972V91.6914C286.956 91.6857 286.956 91.6742 286.956 91.6742C286.962 91.6684 286.974 91.6511 286.962 91.6454C286.956 91.6454 286.945 91.6339 286.928 91.6109C286.864 91.536 286.801 91.421 286.749 91.3001C286.646 91.0584 286.571 90.7995 286.508 90.5348C286.375 90.0054 286.3 89.4817 286.249 88.9408C286.185 88.3999 286.111 87.8647 286.024 87.3353C285.944 86.8059 285.852 86.2822 285.748 85.7701C285.627 85.2522 285.552 84.7516 285.311 84.2337C285.293 84.1819 285.196 84.0668 285.132 84.0323C285.069 83.992 284.994 83.9632 284.919 83.9402C284.764 83.8999 284.574 83.9172 284.43 84.0092C284.143 84.1991 284.056 84.4984 284.004 84.7573C283.958 85.0278 283.964 85.2925 283.993 85.5457C284.022 85.7931 284.045 86.0348 284.062 86.2765C284.137 87.2432 284.171 88.1985 284.114 89.1134C284.096 89.3379 284.073 89.568 284.033 89.781C284.01 89.8903 283.981 89.9881 283.947 90.0802C283.93 90.1262 283.907 90.1665 283.884 90.1895C283.861 90.2355 283.843 90.178 283.849 90.2586C283.878 90.201 283.849 90.2298 283.826 90.1838C283.803 90.155 283.78 90.1032 283.757 90.0629C283.717 89.9708 283.682 89.8673 283.648 89.7694C283.584 89.568 283.533 89.3551 283.487 89.1422C283.147 87.4504 282.986 85.8334 282.836 84.3775V84.3948C282.848 84.1013 282.831 83.8193 282.744 83.5374C282.698 83.3993 282.635 83.2612 282.52 83.1518C282.405 83.0425 282.244 82.9907 282.094 82.9965L282.128 83.0022C281.898 82.9619 281.726 83.1 281.634 83.2381C281.536 83.382 281.49 83.5374 281.455 83.687C281.392 83.992 281.392 84.2739 281.38 84.5502C281.357 85.1026 281.357 85.6262 281.369 86.1096C281.386 87.0936 281.611 87.905 281.685 88.5725C281.783 89.24 281.858 89.7579 281.893 90.1089C281.927 90.2758 281.795 90.3852 281.726 90.4082C281.622 90.4485 281.57 90.4542 281.576 90.46Z" fill="#A36957"/>
<path d="M244.098 119.825C244.098 119.825 242.504 119.75 240.766 120.204C237.797 120.987 232.664 124.094 232.451 127.938H236.174C236.174 127.938 234.085 132.381 234.701 131.967C236.289 130.902 239.46 127.679 239.46 127.679L244.098 119.825Z" fill="#FFC5AE"/>
<path d="M294.927 52.9639C294.847 52.9697 294.507 49.891 294.173 46.0816C293.84 42.2722 293.633 39.182 293.719 39.1763C293.799 39.1705 294.139 42.2491 294.473 46.0586C294.806 49.868 295.008 52.9582 294.927 52.9639Z" fill="#263238"/>
<path d="M311.276 39.3662C311.345 39.4122 308.825 43.0663 305.654 47.526C302.483 51.9856 299.854 55.5592 299.785 55.5131C299.716 55.4671 302.236 51.813 305.407 47.3533C308.577 42.8936 311.207 39.3201 311.276 39.3662Z" fill="#263238"/>
<path d="M318.066 55.9274C318.084 56.0079 315.143 56.6812 311.506 57.4293C307.864 58.1774 304.9 58.7183 304.883 58.6377C304.866 58.5572 307.806 57.8839 311.443 57.1358C315.086 56.3877 318.049 55.8468 318.066 55.9274Z" fill="#263238"/>
<path d="M122.352 134.965L102.004 239.58L99.3398 253.276L235.179 252.609C241.273 252.58 246.677 247.165 248.639 239.126L272.727 140.357C274.217 134.251 270.949 127.904 266.322 127.904L128.837 128.048C125.799 128.054 123.146 130.885 122.352 134.965Z" fill="#5B718F"/>
<g opacity="0.5">
<path d="M122.352 134.965L102.004 239.58L99.3398 253.276L235.179 252.609C241.273 252.58 246.677 247.165 248.639 239.126L272.727 140.357C274.217 134.251 270.949 127.904 266.322 127.904L128.837 128.048C125.799 128.054 123.146 130.885 122.352 134.965Z" fill="black"/>
</g>
<path d="M222.151 232.497L207.771 116.596C207.184 111.849 203.398 108.304 198.932 108.322L167.392 108.425C165.056 108.431 162.817 109.426 161.16 111.187L146.187 127.104L58.4721 127.564C53.1147 127.593 48.9946 132.663 49.7023 138.366L63.0584 245.484C63.6511 250.226 67.426 253.765 71.8857 253.754L224.752 253.454C241.78 253.805 243.403 248.782 243.403 248.782C223.889 253.098 222.151 232.508 222.151 232.497Z" fill="#5B718F"/>
<g opacity="0.5">
<path d="M156.235 209.3L151.079 214.836L111.373 179.113L116.529 173.577L156.235 209.3Z" fill="white"/>
<path d="M148.921 172.351L154.618 177.479L118.687 216.062L112.99 210.941L148.921 172.351Z" fill="white"/>
</g>
<path d="M243.976 59.7196C243.608 59.5642 243.343 59.2017 243.326 58.7758L243.096 53.4357C243.079 53.102 243.222 52.774 243.481 52.561C243.74 52.3481 244.086 52.2676 244.414 52.3424C245.271 52.5438 246.221 52.3596 247.009 51.8302C247.74 51.3411 248.229 50.6276 248.35 49.8622C248.476 49.1026 248.24 48.2567 247.705 47.5489C247.13 46.7893 246.284 46.283 245.438 46.1851C243.706 45.9837 241.836 47.313 241.352 49.0854C241.197 49.6551 240.61 49.9946 240.034 49.8392C239.453 49.6781 239.125 49.0911 239.281 48.5214C240.034 45.7363 242.912 43.7337 245.685 44.0502C247.124 44.2171 248.488 45.017 249.42 46.2542C250.306 47.4281 250.692 48.8667 250.473 50.2075C250.254 51.554 249.426 52.797 248.2 53.6141C247.314 54.2068 246.301 54.5291 245.288 54.5636L245.467 58.6838C245.49 59.2765 245.035 59.7771 244.442 59.8001C244.281 59.8116 244.12 59.7829 243.976 59.7196Z" fill="#5B718F"/>
<path d="M245.552 61.9063C245.587 62.3897 245.219 62.8097 244.735 62.8443C244.252 62.8788 243.832 62.5105 243.797 62.0271C243.763 61.5438 244.131 61.1237 244.614 61.0892C245.098 61.0546 245.518 61.4229 245.552 61.9063Z" fill="#5B718F"/>
<path d="M225.488 52.187C225.494 52.187 225.511 52.0661 225.54 51.8359C225.568 51.5885 225.603 51.2432 225.655 50.8059C225.678 50.3513 225.799 49.7989 225.931 49.1544C226.006 48.8321 226.046 48.4754 226.167 48.1128C226.282 47.7503 226.397 47.359 226.524 46.9504C227.082 45.3334 227.939 43.3942 229.384 41.4664C230.816 39.5445 232.836 37.6397 235.426 36.2011C236.703 35.4415 238.159 34.9121 239.69 34.4403C241.244 34.072 242.889 33.7555 244.61 33.7958C245.467 33.7497 246.336 33.8763 247.222 33.9511C247.665 33.9914 248.097 34.1123 248.54 34.1871C248.983 34.2676 249.432 34.354 249.864 34.5093C251.642 34.9639 253.368 35.8041 255.008 36.8399C258.311 38.9172 261.091 42.2951 262.616 46.3922C263.381 48.4408 263.743 50.6851 263.743 52.9581C263.789 55.2311 263.346 57.5386 262.541 59.7138L262.282 60.3698L262.247 60.4561L262.282 60.5367C263.726 63.8627 265.142 67.1197 266.511 70.2789L266.753 70.0027C263.784 68.8633 260.901 67.7527 258.133 66.6939L258.023 66.6536L257.937 66.7342C255.543 69.0532 252.689 70.6184 249.8 71.4298C246.9 72.2469 243.977 72.2872 241.324 71.8154C238.66 71.3435 236.266 70.325 234.263 69.0187C232.261 67.7124 230.65 66.1185 229.412 64.5015C228.181 62.8672 227.37 61.1869 226.76 59.6908C226.219 58.1601 225.891 56.802 225.73 55.6742C225.66 55.1102 225.603 54.6153 225.551 54.178C225.54 53.7464 225.528 53.3839 225.522 53.0789C225.511 52.7969 225.505 52.5725 225.499 52.4056C225.499 52.2675 225.494 52.187 225.488 52.187C225.482 52.187 225.476 52.2618 225.476 52.4171C225.476 52.584 225.471 52.8084 225.465 53.0904C225.465 53.3954 225.465 53.7637 225.465 54.1953C225.511 54.6326 225.563 55.139 225.614 55.7029C225.758 56.8366 226.069 58.2119 226.598 59.7656C227.197 61.2847 228.003 62.988 229.234 64.6568C230.477 66.3026 232.094 67.9311 234.12 69.2719C236.139 70.6127 238.568 71.66 241.272 72.1491C243.971 72.6382 246.94 72.6095 249.892 71.7866C252.839 70.9637 255.75 69.3812 258.196 67.0219L258.006 67.0622C260.768 68.1268 263.651 69.2374 266.621 70.3883L267.052 70.5551L266.862 70.112C265.493 66.9529 264.077 63.6901 262.639 60.364V60.5309L262.903 59.8576C263.732 57.6364 264.181 55.2713 264.135 52.9523C264.135 50.6333 263.761 48.3372 262.978 46.2426C261.419 42.0592 258.57 38.618 255.204 36.5119C253.524 35.4588 251.768 34.6129 249.956 34.1526C249.513 34.0029 249.058 33.9166 248.609 33.8303C248.16 33.7555 247.717 33.6347 247.268 33.5944C246.371 33.5196 245.49 33.3987 244.616 33.4505C242.866 33.416 241.197 33.744 239.621 34.1238C238.067 34.6072 236.594 35.1538 235.305 35.9307C232.687 37.4096 230.655 39.3488 229.217 41.3111C227.772 43.2733 226.921 45.2471 226.386 46.8814C226.265 47.2957 226.15 47.687 226.04 48.061C225.925 48.4293 225.891 48.7918 225.822 49.1141C225.695 49.7701 225.591 50.3225 225.58 50.7829C225.545 51.226 225.522 51.5655 225.505 51.8187C225.482 52.0719 225.476 52.187 225.488 52.187Z" fill="#263238"/>
</svg>
