<svg width="24" height="24" viewBox="0 0 24 24" fill="none" xmlns="http://www.w3.org/2000/svg">
<circle cx="12" cy="12" r="12" fill="#D9D9D9" fill-opacity="0.36"/>
<path d="M10.4875 15.7888C10.3744 15.7891 10.2623 15.7671 10.1578 15.7239C10.0533 15.6807 9.95837 15.6172 9.8785 15.5371L6.21786 11.8792C6.0717 11.7147 5.9939 11.5006 6.00037 11.2807C6.00685 11.0608 6.09711 10.8516 6.25269 10.696C6.40827 10.5405 6.61741 10.4502 6.83734 10.4437C7.05726 10.4373 7.27135 10.5151 7.43582 10.6612L10.4868 13.7061L15.9751 8.21786C16.1395 8.0717 16.3536 7.9939 16.5735 8.00037C16.7935 8.00685 17.0026 8.09711 17.1582 8.25269C17.3138 8.40827 17.404 8.61741 17.4105 8.83734C17.417 9.05726 17.3392 9.27136 17.193 9.43582L11.0944 15.5351C10.9327 15.6962 10.7137 15.7867 10.4855 15.7868L10.4875 15.7888Z" fill="#A9A9A9"/>
</svg>
