<svg width="44" height="60" viewBox="0 0 44 60" fill="none" xmlns="http://www.w3.org/2000/svg">
<path fill-rule="evenodd" clip-rule="evenodd" d="M21.9989 0C9.87349 0 -0.00599696 9.87149 2.73121e-06 21.9989C0.00400252 28.5385 3.00385 34.6482 7.99959 38.806V45.9976C7.99959 49.2874 10.7094 51.9973 13.9993 51.9973H29.9984C33.2883 51.9973 35.9981 49.2874 35.9981 45.9976V38.814C40.9959 34.6542 43.9957 28.5405 43.9977 21.9989C44.0037 9.87149 34.1242 0 21.9989 0ZM21.9989 3.99979C24.3637 3.99558 26.7061 4.45826 28.8918 5.3613C31.0774 6.26435 33.0633 7.58999 34.7355 9.2622C36.4077 10.9344 37.7334 12.9203 38.6364 15.1059C39.5395 17.2916 40.0021 19.634 39.9979 21.9989C39.9926 24.6892 39.383 27.3439 38.2141 29.767C37.0451 32.1901 35.3467 34.3195 33.2443 35.9981H21.9989C19.295 35.9601 19.295 40.0339 21.9989 39.9979H31.9983V45.9976C31.9983 47.1395 31.1404 47.9975 29.9984 47.9975H13.9993C12.8573 47.9975 11.9994 47.1395 11.9994 45.9976V39.9979H13.9993C16.7031 40.0359 16.7031 35.9621 13.9993 35.9981H10.7654C8.66041 34.3211 6.9594 32.1922 5.78829 29.769C4.61718 27.3458 4.00594 24.6902 3.9998 21.9989C3.99558 19.634 4.45826 17.2916 5.36131 15.1059C6.26435 12.9203 7.58999 10.9344 9.2622 9.2622C10.9344 7.58999 12.9203 6.26435 15.1059 5.3613C17.2916 4.45826 19.634 3.99558 21.9989 3.99979ZM21.9049 11.9794C21.5472 11.9968 21.2008 12.1099 20.9018 12.3069C20.6027 12.5039 20.3621 12.7776 20.205 13.0993L16.2052 21.1049C16.0524 21.4106 15.9805 21.7504 15.9964 22.0918C16.0123 22.4333 16.1154 22.7649 16.2959 23.0551C16.4764 23.3454 16.7283 23.5845 17.0275 23.7497C17.3267 23.9149 17.6633 24.0006 18.0051 23.9988H22.7608L20.207 29.1045C19.9928 29.5768 19.9701 30.1138 20.1436 30.6025C20.3171 31.0912 20.6734 31.4936 21.1374 31.7251C21.6015 31.9566 22.1373 31.9992 22.6321 31.8439C23.1269 31.6886 23.5422 31.3476 23.7908 30.8924L27.7946 22.8888C27.9475 22.5828 28.0194 22.2426 28.0033 21.9009C27.9872 21.5591 27.8838 21.2272 27.7028 20.9369C27.5218 20.6465 27.2693 20.4075 26.9696 20.2426C26.6698 20.0777 26.3328 19.9924 25.9907 19.995H21.2389L23.7928 14.8892C23.9533 14.5763 24.0284 14.2266 24.0107 13.8754C23.9929 13.5242 23.8828 13.1839 23.6916 12.8887C23.5003 12.5936 23.2346 12.3542 22.9213 12.1945C22.6079 12.0349 22.258 11.9607 21.9069 11.9794H21.9049ZM17.8071 56.0011C17.8044 56.0024 17.8017 56.0037 17.7991 56.0051C17.2821 56.0507 16.803 56.295 16.4625 56.6868C16.1221 57.0785 15.9469 57.587 15.9739 58.1053C16.0008 58.6236 16.2278 59.1112 16.607 59.4655C16.9863 59.8198 17.4882 60.0132 18.0071 60.0049H25.9907C26.5211 60.0049 27.0297 59.7942 27.4048 59.4191C27.7798 59.0441 27.9905 58.5354 27.9905 58.005C27.9905 57.4746 27.7798 56.9659 27.4048 56.5908C27.0297 56.2158 26.5211 56.0051 25.9907 56.0051H18.0071C17.9405 56.0004 17.8738 55.9991 17.8071 56.0011Z" fill="#6D81A3"/>
</svg>
