<svg width="80" height="80" viewBox="0 0 80 80" fill="none" xmlns="http://www.w3.org/2000/svg">
<g filter="url(#filter0_d_237_5612)">
<circle cx="40" cy="40" r="32" fill="white"/>
</g>
<g opacity="0.52">
<path d="M41.1929 25.9947L46.4863 32.4365C46.6947 32.6882 46.7912 33.0064 46.7593 33.3326C46.7264 33.6588 46.5702 33.9513 46.3174 34.1584C45.8203 34.5691 45.0098 34.4915 44.5962 33.9908L41.4701 30.1871V43.0372C41.4701 43.7119 40.9215 44.2596 40.2477 44.2596C39.5722 44.2596 39.0229 43.7121 39.0229 43.0372L39.0232 30.1877L35.8998 33.9907C35.6655 34.275 35.3213 34.4365 34.9531 34.4365C34.6695 34.4365 34.393 34.3362 34.1749 34.1558C33.9239 33.9503 33.7679 33.6565 33.7364 33.3305C33.7046 33.0054 33.8014 32.6879 34.0093 32.4362L39.3014 25.9933C39.3014 25.9933 39.6658 25.4626 40.2481 25.4626C40.8639 25.4624 41.1928 25.9944 41.1928 25.9944L41.1929 25.9947Z" fill="#2D2D2D"/>
<path d="M55.49 42.78L55.4815 42.7746C55.4815 42.774 55.4809 42.7729 55.4787 42.7729L48.5034 37.9865C48.2979 37.846 48.0584 37.7715 47.8114 37.7715H44.3802C43.7064 37.7715 43.157 38.3201 43.157 38.9947C43.157 39.6698 43.7066 40.2183 44.3802 40.2183H47.432L50.8511 42.5645L46.0222 42.5647C45.3464 42.5647 44.799 43.1133 44.799 43.7877V46.6047H35.6978V43.7877C35.6978 43.1133 35.1499 42.5647 34.4755 42.5647H29.5917L32.9538 40.2186H36.441C37.1148 40.2186 37.6634 39.67 37.6634 38.9949C37.6634 38.3203 37.1148 37.7717 36.441 37.7717H32.5703C32.3169 37.7717 32.075 37.8487 31.8693 37.9923L24.9985 42.7864C24.4633 43.1599 24.4766 43.7877 24.4766 43.7877V53.7751C24.4766 54.4506 25.0252 54.9999 25.6998 54.9999H54.7967C55.4718 54.9999 56.0197 54.4506 56.0197 53.7751V43.8099C56.0195 43.1883 55.4898 42.7797 55.4898 42.7797L55.49 42.78ZM33.2513 45.0122V47.8286C33.2513 48.503 33.801 49.0518 34.4762 49.0518H46.0225C46.6962 49.0518 47.2455 48.503 47.2455 47.8286V45.0122H53.5742V52.5516H26.923V45.0122H33.2513Z" fill="#2D2D2D"/>
</g>
<defs>
<filter id="filter0_d_237_5612" x="0" y="0" width="80" height="80" filterUnits="userSpaceOnUse" color-interpolation-filters="sRGB">
<feFlood flood-opacity="0" result="BackgroundImageFix"/>
<feColorMatrix in="SourceAlpha" type="matrix" values="0 0 0 0 0 0 0 0 0 0 0 0 0 0 0 0 0 0 127 0" result="hardAlpha"/>
<feOffset/>
<feGaussianBlur stdDeviation="4"/>
<feComposite in2="hardAlpha" operator="out"/>
<feColorMatrix type="matrix" values="0 0 0 0 0 0 0 0 0 0 0 0 0 0 0 0 0 0 0.1 0"/>
<feBlend mode="normal" in2="BackgroundImageFix" result="effect1_dropShadow_237_5612"/>
<feBlend mode="normal" in="SourceGraphic" in2="effect1_dropShadow_237_5612" result="shape"/>
</filter>
</defs>
</svg>
