<svg width="42" height="59" viewBox="0 0 42 59" fill="none" xmlns="http://www.w3.org/2000/svg">
<path d="M0.675523 58.4209C0.675523 58.4209 -0.747457 45.9463 11.5103 44.5546H16.7555V42.1383C16.7555 42.1383 20.4451 43.7231 24.1813 42.3151L24.2991 44.5546H30.4283C30.4283 44.5546 41.102 45.6202 40.4564 58.4209H0.675523Z" fill="white"/>
<path d="M40.3549 58.64H1.05514H0.292969L0.48322 55.3899C0.854688 49.044 5.85459 44.201 11.5763 44.201H15.9308V44.8493H11.9236C6.4091 44.8493 1.59022 49.5109 1.2322 55.6192L1.10005 57.8739H40.251L40.1778 55.6192C39.8198 49.5109 35.0009 44.8493 29.4864 44.8493H24.1227V44.201H29.7988C35.5205 44.201 40.5204 49.044 40.8918 55.3899L41.0821 58.64H40.3549Z" fill="#3B434F"/>
<path d="M17.345 41.8656V45.5005C17.345 47.3867 18.8754 48.9158 20.7632 48.9158C22.651 48.9158 24.1814 47.3867 24.1814 45.5005V41.9406C24.3798 41.8802 24.5763 41.8147 24.7708 41.7438V45.5252C24.7708 47.7558 22.9633 49.5641 20.7338 49.5641C18.5042 49.5641 16.6967 47.7558 16.6967 45.5252V41.6319C16.9102 41.7163 17.1265 41.794 17.345 41.8656ZM16.6673 48.8568C16.8788 48.8568 17.0503 49.0284 17.0503 49.2399V55.0155C17.0503 55.2271 16.8788 55.3986 16.6673 55.3986C16.4557 55.3986 16.2842 55.2271 16.2842 55.0155V49.2399C16.2842 49.0284 16.4557 48.8568 16.6673 48.8568ZM24.7118 48.7979C24.9397 48.7979 25.1244 48.9826 25.1244 49.2105V52.8055C25.1244 53.0333 24.9397 53.218 24.7118 53.218C24.484 53.218 24.2993 53.0333 24.2993 52.8055V49.2105C24.2993 48.9826 24.484 48.7979 24.7118 48.7979Z" fill="#3B434F"/>
<path d="M16.6672 54.9861C16.7811 54.9861 16.8735 55.0784 16.8735 55.1923V56.6657C16.8735 56.7796 16.7811 56.872 16.6672 56.872C16.5533 56.872 16.4609 56.7796 16.4609 56.6657V55.1923C16.4609 55.0784 16.5533 54.9861 16.6672 54.9861ZM24.7413 52.8055C24.8552 52.8055 24.9475 52.8978 24.9475 53.0118V54.4851C24.9475 54.599 24.8552 54.6914 24.7413 54.6914C24.6273 54.6914 24.535 54.599 24.535 54.4851V53.0118C24.535 52.8978 24.6273 52.8055 24.7413 52.8055Z" fill="#3B434F"/>
<path d="M14.456 40.4153L10.7233 41.2724C10.7233 41.2724 6.1522 42.3078 9.19335 45.3886C12.2345 48.4693 20.0559 49.0134 20.0559 49.0134C20.0559 49.0134 17.9879 48.0339 17.1092 46.656L16.8145 41.7055L14.456 40.4153Z" fill="#F5F3EF"/>
<path fill-rule="evenodd" clip-rule="evenodd" d="M20.1749 49.3081C19.9432 49.6012 13.4305 49.3997 8.91832 45.4773C5.65123 42.6373 10.5685 40.9983 10.5685 40.9983L14.1635 40.1732L17.287 41.7645L17.5228 46.5382C18.8377 48.5999 20.5477 48.8362 20.1749 49.3081ZM16.9334 46.7739L16.5798 41.7645L14.6939 40.7036L11.0989 41.5876C11.0989 41.5876 6.74443 42.4806 9.50767 45.0648C12.4898 47.8537 18.0065 48.6021 18.5836 48.5419C19.1818 48.4796 18.2483 48.8357 16.9334 46.7739Z" fill="#3B434F"/>
<path d="M27.0671 40.5542L30.802 41.4139C30.802 41.4139 35.3758 42.4524 32.3328 45.5423C29.2899 48.6323 21.4639 49.178 21.4639 49.178C21.4639 49.178 23.5331 48.1956 24.4123 46.8136L24.7072 41.8482L27.0671 40.5542Z" fill="#F5F3EF"/>
<path fill-rule="evenodd" clip-rule="evenodd" d="M21.345 49.4146C21.5767 49.7086 28.0933 49.5065 32.6082 45.5724C35.8772 42.7239 30.957 41.0799 30.957 41.0799L27.3599 40.2524L24.2345 41.8484L23.9986 46.6364C22.6829 48.7043 20.9719 48.9413 21.345 49.4146ZM24.5883 46.8728L24.9421 41.8484L26.8292 40.7844L30.4263 41.671C30.4263 41.671 34.7834 42.5667 32.0185 45.1586C29.0346 47.9558 23.5147 48.7065 22.9372 48.6462C22.3386 48.5836 23.2726 48.9408 24.5883 46.8728Z" fill="#3B434F"/>
<path d="M21.0108 4.89157C28.3424 4.89157 34.1292 11.7429 33.941 19.9749L33.741 28.7241C33.5638 36.4795 27.8662 42.6098 21.0108 42.6098C14.1554 42.6098 8.45788 36.4795 8.28062 28.7241L8.08063 19.9749C7.89248 11.7429 13.6793 4.89157 21.0108 4.89157Z" fill="white"/>
<path fill-rule="evenodd" clip-rule="evenodd" d="M34.5298 19.7037L34.3203 28.8083C34.1346 36.8788 28.1645 43.2581 20.9811 43.2581C13.7978 43.2581 7.82771 36.8788 7.64196 28.8083L7.43241 19.7037C7.23525 11.1372 13.2989 4.00757 20.9811 4.00757C28.6634 4.00757 34.727 11.1372 34.5298 19.7037ZM20.9517 4.95052C13.7204 4.95052 8.01269 11.7483 8.19827 19.916L8.39552 28.5969C8.57036 36.2917 14.19 42.3741 20.9517 42.3741C27.7134 42.3741 33.333 36.2917 33.5079 28.5969L33.7051 19.916C33.8907 11.7483 28.183 4.95052 20.9517 4.95052Z" fill="#3B434F"/>
<path opacity="0.059" fill-rule="evenodd" clip-rule="evenodd" d="M34.1616 21.2165L33.5723 30.8818C33.5723 30.8818 30.9547 42.0385 20.8424 43.3596V43.3759C20.8225 43.3735 20.8033 43.3702 20.7834 43.3677C20.7636 43.3702 20.7444 43.3735 20.7245 43.3759V43.3596C10.6122 42.0385 7.99462 30.8818 7.99462 30.8818L7.40527 21.2165C10.0294 32.8644 12.2379 33.5928 12.2379 33.5928C11.791 30.0607 15.4204 30.4103 15.4204 30.4103C17.6324 30.784 19.3933 30.9645 20.7834 31.032C22.1736 30.9645 23.9345 30.784 26.1465 30.4103C26.1465 30.4103 29.7759 30.0607 29.329 33.5928C29.329 33.5928 31.5375 32.8644 34.1616 21.2165ZM27.6083 34.7908C27.4368 32.7131 26.1839 32.8893 26.1839 32.8893C23.9567 33.5446 22.2083 33.9087 20.8424 34.0938V34.0802C19.486 33.8966 17.7499 33.5356 15.5383 32.8856C15.5383 32.8856 14.2942 32.7108 14.1238 34.7715C14.1238 34.7715 13.6243 36.836 15.3025 37.7182L17.4242 39.9577C17.4242 39.9577 18.8741 40.4172 18.8386 38.6612C18.8386 38.6612 18.691 37.3515 19.5458 37.1289H20.8424V37.1676H22.1481C23.0089 37.3921 22.8603 38.7126 22.8603 38.7126C22.8246 40.4832 24.2847 40.0199 24.2847 40.0199L26.4213 37.7619C28.1114 36.8724 27.6083 34.7908 27.6083 34.7908Z" fill="#5B718F"/>
<path d="M27.3458 34.0172C26.2745 34.9473 23.855 35.8323 21.0397 35.8323C18.2245 35.8323 15.805 34.9473 14.7337 34.0172C14.7337 34.0172 14.6241 33.7156 14.7849 33.5548C14.9487 33.391 15.2052 33.4267 15.2052 33.4267C16.2753 34.3575 18.2234 35.1251 21.0397 35.1251C23.8561 35.1251 25.8042 34.3575 26.8743 33.4267C26.8743 33.4267 27.136 33.3295 27.2632 33.4566C27.5081 33.7015 27.3458 34.0172 27.3458 34.0172ZM19.0949 37.2467H22.8667V37.8361H19.0949V37.2467Z" fill="#3B434F"/>
<path d="M7.41789 21.0314C7.41626 21.0315 7.27319 20.9172 7.00301 20.8321C6.86798 20.7897 6.70015 20.7548 6.50886 20.7462C6.46109 20.744 6.41192 20.7435 6.36161 20.7449C6.3113 20.7464 6.25985 20.7497 6.20754 20.7553C6.10295 20.7665 5.99492 20.7866 5.88621 20.8179C5.45095 20.9429 5.00693 21.2471 4.74616 21.8748C4.61525 22.1886 4.5289 22.5835 4.50607 23.0774C4.50036 23.2009 4.49861 23.3306 4.50111 23.4668C4.50362 23.603 4.51038 23.7456 4.52168 23.8951C4.54425 24.1939 4.58501 24.5198 4.64575 24.875C4.64442 24.8746 4.5891 25.9483 4.97292 27.1819C5.33374 28.388 6.20019 29.8697 7.79997 30.293C7.61598 27.2294 7.61026 24.1084 7.41789 21.0314Z" fill="white"/>
<path d="M7.59949 21.1549C7.59949 21.1549 4.81256 20.2913 4.91064 23.1565C4.91064 23.1565 5.32557 27.311 5.50575 27.6939C5.50575 27.6939 6.60025 30.1128 8.40657 30.22L8.4285 30.9996C8.4285 30.9996 5.25367 30.5926 4.64047 26.9339L4.15649 23.6102C4.15649 23.6102 3.7807 19.2115 7.42591 20.3299L7.59949 21.1549Z" fill="#3B434F"/>
<path d="M6.68007 26.9269C6.68007 26.9269 6.5241 27.0448 6.39012 27.0448C6.25613 27.0448 6.10207 26.9269 6.10207 26.9269L5.81445 24.0286C5.81445 24.0286 6.21128 22.6013 7.89519 23.3556L7.935 24.1843C7.935 24.1843 6.45763 23.6604 6.48817 24.3128C6.51758 24.9408 6.68007 26.9269 6.68007 26.9269Z" fill="#3B434F"/>
<path d="M34.4912 21.0381C34.4928 21.0382 34.6365 20.924 34.9079 20.839C35.0435 20.7966 35.2121 20.7617 35.4042 20.7531C35.4522 20.751 35.5015 20.7505 35.5521 20.7519C35.6026 20.7533 35.6543 20.7567 35.7068 20.7623C35.8119 20.7734 35.9204 20.7935 36.0296 20.8248C36.4667 20.9498 36.9127 21.2537 37.1746 21.881C37.3061 22.1946 37.3928 22.5892 37.4157 23.0828C37.4215 23.2062 37.4232 23.3358 37.4207 23.4719C37.4182 23.608 37.4114 23.7506 37.4001 23.8999C37.3774 24.1985 37.3365 24.5242 37.2755 24.8791C37.2768 24.8788 37.3324 25.9517 36.9469 27.1845C36.5845 28.3898 35.7142 29.8704 34.1074 30.2935C34.2922 27.232 34.298 24.1131 34.4912 21.0381Z" fill="white"/>
<path d="M34.3077 21.1616C34.3077 21.1616 37.1068 20.2986 37.0083 23.1618C37.0083 23.1618 36.5916 27.3135 36.4106 27.6961C36.4106 27.6961 35.3113 30.1134 33.4971 30.2205L33.475 30.9997C33.475 30.9997 36.6638 30.5929 37.2796 26.9367L37.7657 23.6152C37.7657 23.6152 38.1432 19.2195 34.482 20.3372L34.3077 21.1616Z" fill="#3B434F"/>
<path d="M35.2321 26.9297C35.2321 26.9297 35.3888 27.0475 35.5233 27.0475C35.6579 27.0475 35.8126 26.9297 35.8126 26.9297L36.1015 24.0333C36.1015 24.0333 35.7029 22.607 34.0117 23.3608L33.9717 24.1889C33.9717 24.1889 35.4555 23.6653 35.4248 24.3173C35.3953 24.9449 35.2321 26.9297 35.2321 26.9297Z" fill="#3B434F"/>
<path fill-rule="evenodd" clip-rule="evenodd" d="M22.0712 26.6974C22.1399 26.6974 22.2087 26.6974 22.2775 26.6974C22.7039 27.2766 22.8774 28.1666 23.1025 28.9369C23.1723 29.1757 23.1046 29.5932 23.0436 29.762C22.8201 30.3802 22.1185 30.3691 21.5408 30.646C21.3856 30.7204 21.2702 30.8488 21.0693 30.8818C20.9383 30.7664 20.7802 30.7437 20.7157 30.5576C20.5565 30.3385 20.7617 30.2016 20.922 30.1156C21.2129 29.9596 22.111 29.8058 22.2185 29.5263C22.3516 29.3749 22.2631 28.9199 22.2185 28.7601C22.1043 28.351 22.0495 28.0094 21.8944 27.6404C21.7913 27.3953 21.6104 27.1368 21.7176 26.8448C21.8064 26.8066 21.9984 26.7632 22.0712 26.6974Z" fill="#3B434F"/>
<path d="M13.4962 22.5366H15.6179C15.9108 22.5366 16.1483 22.8216 16.1483 23.1731C16.1483 23.5246 15.9108 23.8096 15.6179 23.8096H13.4962C13.2033 23.8096 12.9658 23.5246 12.9658 23.1731C12.9658 22.8216 13.2033 22.5366 13.4962 22.5366ZM26.4619 22.3952H28.5835C28.8765 22.3952 29.1139 22.6801 29.1139 23.0317C29.1139 23.3832 28.8765 23.6682 28.5835 23.6682H26.4619C26.1689 23.6682 25.9315 23.3832 25.9315 23.0317C25.9315 22.6801 26.1689 22.3952 26.4619 22.3952Z" fill="#3B434F"/>
<path opacity="0.122" d="M14.4397 26.0491C15.5789 26.0491 16.5024 26.1145 16.5024 27.4046C16.5024 28.7353 15.5789 28.7601 14.4397 28.7601C13.3005 28.7601 12.377 28.5178 12.377 27.4046C12.377 26.1043 13.3005 26.0491 14.4397 26.0491ZM28.1125 26.0491C29.2517 26.0491 30.1752 26.1145 30.1752 27.4046C30.1752 28.7353 29.2517 28.7601 28.1125 28.7601C26.9733 28.7601 26.0498 28.5178 26.0498 27.4046C26.0498 26.1043 26.9733 26.0491 28.1125 26.0491Z" fill="black"/>
<path fill-rule="evenodd" clip-rule="evenodd" d="M33.8189 20.419C33.7392 21.0999 33.6691 21.9332 33.5219 22.6782C33.0816 24.906 31.1673 26.9701 27.8987 27.2053C24.6301 27.4404 21.8481 25.7949 21.6851 23.5299C21.6575 23.1458 21.5835 22.7149 21.5268 22.2959C21.0642 22.0394 20.5875 22.0389 20.0965 22.2941C20.0392 22.7226 19.9625 23.1649 19.9342 23.5581C19.7706 25.8307 16.9799 27.4817 13.701 27.2457C10.4221 27.0097 8.50174 24.9389 8.06005 22.7037C7.91235 21.9562 7.84209 21.1201 7.76211 20.4369L7.28027 20.4022L7.34795 19.4617L7.46552 19.4702L10.4475 19.6848L12.9646 19.8659L15.4864 20.0474L19.4143 20.33C19.6852 20.3643 19.8654 20.4805 19.9814 20.6539C20.5455 20.9008 21.0933 20.9018 21.6249 20.6568C21.7398 20.4722 21.9224 20.348 22.2033 20.3124L26.1189 20.0307L28.6327 19.8498L31.142 19.6693L34.1146 19.4554L34.2318 19.447L34.2992 20.3844L33.8189 20.419ZM18.3596 21.4353L10.6615 20.8813C9.65464 20.7945 9.29776 21.9259 9.23571 22.7883C9.10488 24.6063 11.1306 26.2335 13.7602 26.4227C16.3899 26.612 18.6277 25.2916 18.7585 23.4735C18.8206 22.6112 19.1022 22.0786 18.3596 21.4353ZM32.3499 22.7626C32.2881 21.9031 31.9323 20.7754 30.9286 20.8619L23.2547 21.414C22.5144 22.0553 22.7952 22.5861 22.8571 23.4456C22.9875 25.2576 25.2183 26.5736 27.8397 26.385C30.461 26.1964 32.4804 24.5746 32.3499 22.7626Z" fill="#3B444F"/>
<path d="M7.82409 20.5093C7.82409 20.5093 8.27882 13.4099 12.6599 10.2546C12.6599 10.2546 18.9857 14.5578 28.9366 10.2546C28.9366 10.2546 33.338 12.2593 34.0083 20.5093H34.2446C34.2446 20.5093 35.5048 11.0594 32.2391 7.30789C32.2391 7.30789 31.4347 4.43482 27.1674 2.35737L25.6341 3.30033C25.6341 3.30033 24.6039 2.03968 21.8598 0.471466C21.8598 0.471466 19.8303 1.37574 18.7932 2.94672L17.1419 1.8859C17.1419 1.8859 14.8346 2.94212 13.4855 4.83263L11.0087 5.18624L9.71124 7.54363C9.71124 7.54363 6.61428 10.0387 7.5878 20.2735L7.82409 20.5093Z" fill="#5B718F"/>
<path fill-rule="evenodd" clip-rule="evenodd" d="M34.7162 20.5093L33.5959 20.4503C32.9255 12.2004 28.9367 10.7261 28.9367 10.7261C18.9858 15.0293 12.66 10.6672 12.66 10.6672C8.83342 13.9316 8.23672 20.5682 8.23672 20.5682L7.23429 20.2735C6.26076 10.0387 9.35772 7.36683 9.35772 7.36683L10.773 4.77371L13.3678 4.4201C14.7168 2.52959 17.2009 1.3555 17.2009 1.3555L18.7412 2.35739C19.7783 0.786409 21.9237 0 21.9237 0C24.6678 1.56821 25.6955 2.76993 25.6955 2.76993L27.2854 1.88591C31.5527 3.96336 32.7107 7.24896 32.7107 7.24896C35.9764 11.0005 34.7162 20.5093 34.7162 20.5093ZM31.9426 7.4847C31.9426 7.4847 31.4362 4.90631 27.1689 2.82886L25.5777 3.77182C25.5777 3.77182 24.55 2.51116 21.8058 0.942954C21.8058 0.942954 19.9551 1.90617 18.918 3.47714L17.15 2.35739C17.15 2.35739 15.0219 3.35467 13.6729 5.24519L11.3155 5.59879L10.0778 7.83831C10.0778 7.83831 7.50724 9.80173 7.77939 17.7393L7.83832 17.6804C7.83832 17.6804 8.65616 12.7463 12.66 9.72422C12.66 9.72422 19.1626 14.1452 29.1135 9.84209C29.1135 9.84209 32.7898 11.571 34.0643 17.7393C34.0643 17.7393 34.8207 11.395 31.9426 7.4847Z" fill="#3B434F"/>
<path opacity="0.2" fill-rule="evenodd" clip-rule="evenodd" d="M21.1379 3.12443C21.2247 3.18893 21.1817 3.24862 21.1629 3.32927C21.1348 3.4496 21.1015 3.56871 21.0827 3.68878C21.0543 3.87073 21.0283 4.05289 21.0209 4.2324C21.0146 4.38334 21.0173 4.53379 21.02 4.68327C21.0215 4.76959 21.0362 4.85576 21.0384 4.94222C21.0392 4.97672 21.0486 5.01131 21.0496 5.04642C21.0517 5.05594 21.0538 5.06547 21.0559 5.075C21.0572 5.11912 21.0687 5.1612 21.0699 5.20524C21.0771 5.24512 21.0843 5.285 21.0915 5.32487C21.1021 5.38806 21.1073 5.45402 21.1266 5.51557C21.1287 5.53133 21.1308 5.5471 21.133 5.56286C21.1483 5.61178 21.1533 5.66226 21.1688 5.71134C21.1699 5.72103 21.171 5.73072 21.1721 5.74042C21.1945 5.81117 21.2046 5.88561 21.2269 5.95592C21.2631 6.07009 21.2927 6.18475 21.3327 6.29866C21.3592 6.37421 21.3821 6.45336 21.4087 6.52936C21.4562 6.66463 21.5142 6.79676 21.5664 6.93056C21.5982 7.01202 21.6408 7.08727 21.6749 7.16837C21.7712 7.39788 21.8951 7.62345 22.0134 7.84842C22.0517 7.9211 22.0937 7.98794 22.1361 8.05893C22.1631 8.10422 22.1912 8.15497 22.2161 8.20163C22.2299 8.22744 22.2472 8.2469 22.2622 8.27197C22.2948 8.32631 22.33 8.38472 22.3621 8.43947C22.3917 8.4901 22.4251 8.53334 22.4578 8.58269C22.4931 8.63588 22.528 8.69575 22.5637 8.74918C22.6258 8.84203 22.6917 8.93176 22.7532 9.02348C22.8171 9.11876 22.8889 9.20311 22.9566 9.29703C23.0877 9.47904 23.2409 9.65364 23.3823 9.83632C23.4246 9.89099 23.4752 9.9388 23.5175 9.99171C23.5386 10.0181 23.5739 10.0412 23.5882 10.0689C23.594 10.0802 23.5973 10.0976 23.6014 10.1104C23.6079 10.131 23.6062 10.1564 23.6065 10.1782C23.6069 10.213 23.6086 10.2484 23.6025 10.2849C23.5962 10.3227 23.5722 10.3643 23.5565 10.4017C23.544 10.4316 23.5128 10.4581 23.4951 10.4727C23.4802 10.4849 23.4741 10.4964 23.459 10.5083C23.4195 10.5393 23.3749 10.5647 23.3317 10.5777C23.287 10.5911 23.2291 10.5509 23.1938 10.5085C23.132 10.4343 23.0546 10.3662 22.9953 10.2919C22.9826 10.276 22.9685 10.2689 22.956 10.2531C22.8875 10.1665 22.8034 10.0848 22.7357 9.99955C22.7202 9.98008 22.7033 9.96917 22.6883 9.94968C22.6357 9.88124 22.5741 9.81956 22.5207 9.74975C22.3869 9.57476 22.2425 9.40568 22.1215 9.22946C22.0932 9.18826 22.0629 9.15572 22.0352 9.11432C21.8392 8.82147 21.6425 8.5337 21.4854 8.2353C21.4441 8.15678 21.3984 8.08538 21.3598 8.00659C21.25 7.78287 21.1475 7.55929 21.0536 7.33365C21.0413 7.304 21.0323 7.27085 21.0209 7.24081C20.9694 7.10536 20.9228 6.97159 20.8766 6.83582C20.83 6.69886 20.8035 6.55578 20.7599 6.41847C20.7507 6.38951 20.7479 6.3581 20.7386 6.32843C20.7373 6.31772 20.736 6.30701 20.7348 6.29631C20.7247 6.26411 20.7236 6.22988 20.7137 6.19843C20.69 6.123 20.6827 6.04148 20.6697 5.96397C20.6575 5.89082 20.6407 5.81601 20.6387 5.74141C20.6359 5.72784 20.6331 5.71427 20.6303 5.70069C20.629 5.65224 20.6167 5.60435 20.6155 5.55654C20.6134 5.47311 20.6002 5.38994 20.5986 5.30669C20.5967 5.20316 20.5927 5.09926 20.5933 4.99565C20.594 4.89192 20.6026 4.79051 20.6085 4.6859C20.6248 4.40249 20.6766 4.11773 20.745 3.82424C20.7699 3.71778 20.8097 3.61362 20.8432 3.50698C20.8663 3.43352 20.9027 3.36274 20.9286 3.2901C20.9353 3.27115 20.9458 3.25988 20.9531 3.24082C20.9686 3.19985 20.989 3.14944 21.0269 3.12255C21.0438 3.11051 21.0828 3.10407 21.1028 3.10998C21.1167 3.11409 21.1255 3.12477 21.1379 3.12443ZM18.3722 5.15608C18.435 5.20148 18.43 5.26798 18.4315 5.32404C18.4331 5.38214 18.4498 5.43998 18.4514 5.49855C18.4582 5.53901 18.4649 5.57948 18.4717 5.61994C18.4726 5.65272 18.4809 5.6838 18.4862 5.7158C18.4917 5.74877 18.4941 5.78193 18.5043 5.81418C18.5104 5.8506 18.5165 5.88702 18.5226 5.92344C18.5326 5.95552 18.5337 5.98981 18.5436 6.02132C18.5742 6.11879 18.5859 6.2222 18.617 6.31953C18.6499 6.42272 18.674 6.5294 18.7098 6.63166C18.7567 6.76562 18.8026 6.90044 18.8536 7.03362C18.8797 7.10171 18.9107 7.16536 18.9385 7.23322C18.9598 7.28509 18.98 7.34163 19.0042 7.39234C19.1046 7.60293 19.2084 7.81335 19.3189 8.0233C19.4064 8.18956 19.5108 8.34821 19.6067 8.51214C19.6363 8.56268 19.6697 8.60613 19.7024 8.65535C19.7764 8.76646 19.8552 8.88202 19.9309 8.99493C20.0026 9.10168 20.0886 9.20118 20.164 9.30569C20.1763 9.32276 20.1905 9.33199 20.2024 9.34922C20.2406 9.40434 20.2906 9.45744 20.3326 9.51169C20.3537 9.53896 20.3805 9.5579 20.3997 9.58635C20.4418 9.64865 20.468 9.76482 20.448 9.83724C20.4133 9.96272 20.2921 10.0472 20.2 10.0795C20.1721 10.0893 20.1287 10.1069 20.0985 10.0979C20.0509 10.0836 20.0205 10.0412 19.9927 10.0062C19.9567 9.96098 19.9148 9.92813 19.88 9.88297C19.8157 9.79952 19.7399 9.72494 19.6756 9.64077C19.5409 9.46451 19.4029 9.29401 19.2833 9.11466C19.0063 8.69944 18.7764 8.28028 18.5971 7.84964C18.5227 7.67087 18.4628 7.48652 18.4029 7.30476C18.3816 7.24004 18.3699 7.1708 18.3494 7.1062C18.3212 7.01766 18.3087 6.92635 18.2811 6.83835C18.2797 6.82663 18.2782 6.81491 18.2768 6.80319C18.2723 6.78354 18.2656 6.76458 18.2623 6.74476C18.26 6.72799 18.2577 6.71121 18.2554 6.69444C18.245 6.66124 18.2426 6.62697 18.2369 6.59302C18.2314 6.56004 18.2228 6.5279 18.2219 6.49413C18.2177 6.47247 18.2136 6.45079 18.2094 6.42913C18.207 6.34074 18.1857 6.25412 18.1839 6.16511C18.1835 6.14411 18.1768 6.12185 18.1763 6.10087C18.1742 6.01573 18.1658 5.93035 18.1662 5.84521C18.1667 5.74825 18.1658 5.64963 18.1718 5.55264C18.1742 5.51443 18.1809 5.47842 18.1826 5.44012C18.1845 5.39811 18.1919 5.35788 18.1975 5.31446C18.2007 5.28871 18.2008 5.25755 18.2085 5.23153C18.2164 5.2051 18.2434 5.16237 18.2684 5.15142C18.2855 5.14396 18.3184 5.13653 18.337 5.14163C18.351 5.14546 18.3596 5.15641 18.3722 5.15608ZM16.2588 5.59654C16.3293 5.64827 16.3097 5.71353 16.3093 5.77689C16.3085 5.87884 16.3188 5.98062 16.3214 6.08212C16.3234 6.16303 16.3441 6.2434 16.3464 6.32439C16.3512 6.3501 16.356 6.37582 16.3608 6.40153C16.3621 6.44641 16.3718 6.50435 16.3852 6.54721C16.3865 6.55791 16.3878 6.56863 16.3891 6.57933C16.3932 6.60418 16.3984 6.62863 16.4061 6.65293C16.4079 6.66667 16.4096 6.68042 16.4114 6.69415C16.4296 6.75201 16.4351 6.81391 16.4536 6.87121C16.4976 7.00825 16.5326 7.14842 16.5806 7.28528C16.6848 7.58192 16.8276 7.86947 16.9796 8.15808C17.0292 8.2524 17.091 8.34017 17.1412 8.43387C17.1626 8.47382 17.1907 8.50626 17.2144 8.54495C17.2792 8.6507 17.3544 8.75619 17.4249 8.86099C17.5225 9.00604 17.6413 9.13827 17.745 9.28208C17.7814 9.33247 17.8273 9.37623 17.8626 9.42482C17.8939 9.46802 17.9345 9.50043 17.9681 9.54301C18.0347 9.62735 18.1186 9.70769 18.1892 9.7918C18.23 9.84035 18.2784 9.87955 18.3179 9.92645C18.3619 9.97884 18.4173 10.0207 18.4607 10.0712C18.4716 10.0809 18.4826 10.0905 18.4936 10.1001C18.5379 10.1525 18.5996 10.1989 18.6453 10.2512C18.6647 10.2735 18.6879 10.284 18.7076 10.3064C18.7716 10.3792 18.8619 10.4382 18.9276 10.5117C18.9463 10.5327 18.9713 10.5469 18.9881 10.5656C18.9952 10.5707 19.0023 10.5757 19.0094 10.5808C19.032 10.6061 19.0674 10.6292 19.0904 10.6547C19.0981 10.6602 19.1057 10.6657 19.1134 10.6712C19.151 10.7129 19.2089 10.7459 19.2469 10.7879C19.2569 10.7951 19.2669 10.8022 19.277 10.8094C19.3253 10.8629 19.4021 10.9011 19.4512 10.9552C19.4732 10.9719 19.4952 10.9885 19.5173 11.0051C19.528 11.0169 19.5512 11.0272 19.5638 11.0411C19.5973 11.0778 19.6536 11.1067 19.6899 11.1418C19.7114 11.1626 19.745 11.1769 19.7631 11.1968C19.779 11.2143 19.808 11.2261 19.8221 11.2416C19.8681 11.2745 19.9142 11.3074 19.9603 11.3403C20.0693 11.4183 20.178 11.4913 20.2836 11.566C20.3335 11.6013 20.3956 11.6292 20.4264 11.6733C20.4438 11.6983 20.4507 11.7341 20.4598 11.7614C20.4804 11.8226 20.4889 11.8954 20.4716 11.9621C20.4664 11.9825 20.4558 11.9962 20.4481 12.0175C20.4359 12.0516 20.4155 12.1045 20.3791 12.1365C20.3555 12.1574 20.3308 12.1854 20.3046 12.2035C20.2641 12.2313 20.22 12.2165 20.1707 12.196C20.1549 12.1856 20.1391 12.1752 20.1234 12.1649C20.0477 12.1324 19.977 12.0629 19.9011 12.0301C19.8865 12.0238 19.8712 12.008 19.8591 12.0028C19.8339 11.9856 19.8086 11.9685 19.7834 11.9514C19.7556 11.9394 19.7307 11.9102 19.6993 11.8967C19.6731 11.8853 19.6463 11.8641 19.6206 11.8458C19.6112 11.839 19.6017 11.8322 19.5923 11.8255C19.567 11.8145 19.5371 11.7914 19.5135 11.7746C19.4793 11.7501 19.445 11.7256 19.4108 11.7012C19.374 11.6852 19.3332 11.6484 19.2978 11.6232C19.2686 11.6023 19.229 11.5797 19.207 11.5556C19.1869 11.5412 19.1668 11.5269 19.1467 11.5125C19.1048 11.4826 19.0634 11.453 19.027 11.4216C19.0069 11.4073 18.9868 11.3929 18.9667 11.3786C18.9376 11.3465 18.8872 11.3222 18.8583 11.2905C18.8448 11.2808 18.8312 11.271 18.8176 11.2613C18.7965 11.2381 18.7602 11.2177 18.7393 11.1948C18.7275 11.1863 18.7157 11.1779 18.7039 11.1694C18.6879 11.1517 18.6594 11.1332 18.6434 11.1155C18.6339 11.1088 18.6245 11.102 18.615 11.0953C18.5597 11.0339 18.4787 10.9875 18.4246 10.9272C18.4078 10.9133 18.3909 10.8995 18.374 10.8856C18.3042 10.8071 18.2097 10.744 18.1423 10.6667C18.124 10.6457 18.1033 10.6362 18.0854 10.6153C18.023 10.5429 17.9435 10.4784 17.8835 10.407C17.8736 10.3952 17.864 10.3925 17.8542 10.3807C17.8259 10.3467 17.7894 10.3117 17.762 10.2774C17.7492 10.2614 17.7354 10.2547 17.7227 10.2387C17.6279 10.1189 17.5163 10.0121 17.4244 9.89195C17.2617 9.67921 17.0919 9.47161 16.9632 9.25249C16.934 9.20287 16.8993 9.16133 16.871 9.11181C16.8209 9.02418 16.7663 8.93789 16.7192 8.84841C16.6456 8.7084 16.5767 8.56722 16.5096 8.42617C16.4625 8.32696 16.4252 8.22024 16.3864 8.11906C16.3547 8.03601 16.3243 7.95527 16.2952 7.87217C16.2665 7.7904 16.2459 7.70535 16.2191 7.62276C16.1918 7.53877 16.1806 7.44966 16.1541 7.36528C16.144 7.33322 16.1451 7.29277 16.135 7.26082C16.1103 7.18205 16.1044 7.09645 16.0908 7.01549C16.033 6.66992 16.027 6.31606 16.0523 5.95668C16.0582 5.87374 16.0754 5.79518 16.0891 5.71042C16.0953 5.67181 16.108 5.62275 16.1507 5.59416C16.1644 5.58505 16.2077 5.57787 16.2236 5.58209C16.2366 5.58556 16.2468 5.59683 16.2588 5.59654Z" fill="#3B434F"/>
</svg>
